<?xml version="1.0"?>
<svg width="1259" height="640" xmlns="http://www.w3.org/2000/svg" version="1.1">
 <polygon points="4,636 4,4 1255,4 1255,636 4,636" stroke="#fffffe00" fill="none"/>
 <polygon points="504,246 405,246 405,282 504,282 504,246" stroke="#90c4e4" fill="#1976d2"/>
 <text x="414" y="266" fill="#ffffff" font-family="Arial" font-size="12">Infinite_loop</text>
 <polygon points="736,301 572,301 572,337 736,337 736,301" stroke="#90c4e4" fill="none"/>
 <text x="580" y="321" fill="#000000" font-family="Arial" font-size="12">Check_Prass_Button</text>
 <polyline points="504,278 511,280 518,282 525,284 533,286 540,288 548,290 555,292 563,294 570,296 578,298" stroke="#4e8cb9" fill="none"/>
 <polygon points="579,295 588,301 577,302 579,295" stroke="#4e8cb9" fill="#4e8cb9"/>
 <polygon points="1197,546 1093,546 1093,582 1197,582 1197,546" stroke="#90c4e4" fill="none"/>
 <text x="1101" y="566" fill="#000000" font-family="Arial" font-size="12">Clear_Buffer</text>
 <polyline points="471,282 476,288 482,294 488,300 495,307 502,314 509,320 517,327 524,334 532,340 540,346 570,367 597,385 621,401 643,414 666,426 688,437 712,448 739,458 769,470 803,483 832,493 862,503 892,512 923,520 953,527 982,534 1010,540 1037,545 1061,550 1083,554" stroke="#4e8cb9" fill="none"/>
 <polygon points="1084,551 1093,556 1082,558 1084,551" stroke="#4e8cb9" fill="#4e8cb9"/>
 <polygon points="1216,600 1075,600 1075,636 1216,636 1216,600" stroke="#90c4e4" fill="none"/>
 <text x="1083" y="620" fill="#000000" font-family="Arial" font-size="12">Send_String_Uart</text>
 <polyline points="457,282 459,296 462,313 466,331 472,352 479,373 487,395 497,416 509,437 524,455 540,472 588,508 640,538 696,562 753,581 811,596 868,607 924,614 976,618 1023,620 1064,621" stroke="#4e8cb9" fill="none"/>
 <polygon points="1064,617 1074,621 1065,624 1064,617" stroke="#4e8cb9" fill="#4e8cb9"/>
 <polygon points="961,140 961,124 926,112 876,112 841,124 841,140 876,152 926,152 961,140" stroke="#c0c0c0" fill="none"/>
 <text x="870" y="134" fill="#000000" font-family="Arial" font-size="12">delay_us</text>
 <polyline points="484,246 489,243 494,240 500,237 505,234 511,231 517,228 523,225 528,223 534,220 540,218 570,207 601,197 633,187 665,179 696,171 726,164 756,157 784,152 809,147 833,143" stroke="#4e8cb9" fill="none"/>
 <polygon points="832,139 843,141 834,146 832,139" stroke="#4e8cb9" fill="#4e8cb9"/>
 <polygon points="941,170 862,170 862,206 941,206 941,170" stroke="#90c4e4" fill="none"/>
 <text x="870" y="190" fill="#000000" font-family="Arial" font-size="12">Run_Led</text>
 <polyline points="504,256 532,251 565,245 601,239 639,233 678,226 717,219 755,213 791,207 823,201 851,196" stroke="#4e8cb9" fill="none"/>
 <polygon points="851,193 861,195 852,200 851,193" stroke="#4e8cb9" fill="#4e8cb9"/>
 <polygon points="767,86 540,86 540,122 767,122 767,86" stroke="#90c4e4" fill="none"/>
 <text x="549" y="106" fill="#000000" font-family="Arial" font-size="12">Write_String_with_coordinator</text>
 <polyline points="465,246 469,238 475,229 481,219 487,209 495,199 503,188 511,178 520,168 530,159 540,150 544,147 548,144 552,142 556,139 560,137 564,134 569,132 573,130 578,128 582,126" stroke="#4e8cb9" fill="none"/>
 <polygon points="581,123 591,122 584,129 581,123" stroke="#4e8cb9" fill="#4e8cb9"/>
 <polygon points="983,224 820,224 820,260 983,260 983,224" stroke="#90c4e4" fill="none"/>
 <text x="828" y="244" fill="#000000" font-family="Arial" font-size="12">Set_Key_Drain_Pins</text>
 <polyline points="712,301 723,298 735,294 747,290 759,286 772,282 784,278 797,274 809,271 821,267 832,263" stroke="#4e8cb9" fill="none"/>
 <polygon points="832,260 842,260 834,266 832,260" stroke="#4e8cb9" fill="#4e8cb9"/>
 <polygon points="1189,222 1102,222 1102,258 1189,258 1189,222" stroke="#90c4e4" fill="none"/>
 <text x="1110" y="242" fill="#000000" font-family="Arial" font-size="12">Reset_pin</text>
 <polyline points="736,308 758,305 782,302 807,298 833,295 860,291 888,287 916,282 944,278 972,273 999,269 1008,267 1018,266 1027,264 1037,262 1047,260 1056,258 1065,257 1074,255 1083,253 1091,251" stroke="#4e8cb9" fill="none"/>
 <polygon points="1091,248 1101,249 1092,255 1091,248" stroke="#4e8cb9" fill="#4e8cb9"/>
 <polygon points="999,354 803,354 803,390 999,390 999,354" stroke="#90c4e4" fill="none"/>
 <text x="811" y="374" fill="#000000" font-family="Arial" font-size="12">Check_Key_Soruce_Pins</text>
 <polyline points="736,336 743,338 750,339 757,341 764,342 771,344 778,346 785,347 793,349 800,350 807,352" stroke="#4e8cb9" fill="none"/>
 <polygon points="807,348 817,354 806,355 807,348" stroke="#4e8cb9" fill="#4e8cb9"/>
 <polygon points="1187,276 1103,276 1103,312 1187,312 1187,276" stroke="#90c4e4" fill="none"/>
 <text x="1111" y="296" fill="#000000" font-family="Arial" font-size="12">Read_pin</text>
 <polyline points="736,315 758,314 781,313 806,312 832,311 860,309 887,308 916,306 944,305 972,303 999,302 1008,301 1018,301 1028,300 1037,300 1047,299 1057,299 1066,298 1075,298 1084,297 1093,297" stroke="#4e8cb9" fill="none"/>
 <polygon points="1093,293 1103,296 1093,300 1093,293" stroke="#4e8cb9" fill="#4e8cb9"/>
 <polygon points="978,438 825,438 825,474 978,474 978,438" stroke="#90c4e4" fill="none"/>
 <text x="833" y="458" fill="#000000" font-family="Arial" font-size="12">Reaction_Of_Prass</text>
 <polyline points="687,337 701,345 717,354 734,364 752,374 771,384 790,395 809,405 827,415 843,424 859,433" stroke="#4e8cb9" fill="none"/>
 <polygon points="861,430 868,438 857,436 861,430" stroke="#4e8cb9" fill="#4e8cb9"/>
 <polyline points="983,241 994,241 1005,241 1016,241 1027,241 1038,241 1049,241 1060,241 1071,240 1081,240 1091,240" stroke="#4e8cb9" fill="none"/>
 <polygon points="1091,237 1101,240 1091,244 1091,237" stroke="#4e8cb9" fill="#4e8cb9"/>
 <polygon points="1180,168 1110,168 1110,204 1180,204 1180,168" stroke="#90c4e4" fill="none"/>
 <text x="1118" y="188" fill="#000000" font-family="Arial" font-size="12">Set_pin</text>
 <polyline points="980,224 992,221 1005,218 1017,215 1030,213 1042,210 1055,207 1067,204 1078,201 1089,198 1100,196" stroke="#4e8cb9" fill="none"/>
 <polygon points="1099,193 1110,194 1101,200 1099,193" stroke="#4e8cb9" fill="#4e8cb9"/>
 <polyline points="962,354 966,353 969,351 973,350 977,349 981,347 984,346 988,344 992,343 995,341 999,340 1004,338 1008,336 1011,334 1014,332 1017,330 1020,328 1023,326 1026,325 1030,323 1035,321 1041,319 1047,317 1053,315 1058,313 1064,311 1070,310 1076,308 1082,307 1088,305 1093,304" stroke="#4e8cb9" fill="none"/>
 <polygon points="1092,300 1103,302 1094,307 1092,300" stroke="#4e8cb9" fill="#4e8cb9"/>
 <polyline points="941,474 947,477 952,480 958,483 964,486 970,489 976,493 982,496 988,500 993,503 999,507 1004,511 1007,514 1011,517 1014,520 1016,523 1019,526 1022,529 1026,532 1030,534 1035,537 1040,539 1044,541 1049,543 1054,545 1059,547 1064,549 1068,550 1073,551 1078,553 1083,554" stroke="#4e8cb9" fill="none"/>
 <polygon points="1084,551 1093,556 1082,557 1084,551" stroke="#4e8cb9" fill="#4e8cb9"/>
 <polyline points="915,474 922,484 930,495 940,507 951,520 963,533 976,545 990,558 1004,570 1019,581 1035,591 1038,592 1041,594 1043,595 1046,597 1049,598 1052,599 1055,600 1058,602 1061,603 1064,604" stroke="#4e8cb9" fill="none"/>
 <polygon points="1066,601 1074,607 1064,607 1066,601" stroke="#4e8cb9" fill="#4e8cb9"/>
 <polygon points="1212,492 1078,492 1078,528 1212,528 1212,492" stroke="#90c4e4" fill="none"/>
 <text x="1086" y="512" fill="#000000" font-family="Arial" font-size="12">Send_Char_Uart</text>
 <polyline points="978,473 987,475 995,477 1004,479 1013,481 1023,483 1032,485 1041,487 1050,489 1059,491 1068,493" stroke="#4e8cb9" fill="none"/>
 <polygon points="1069,490 1078,495 1067,497 1069,490" stroke="#4e8cb9" fill="#4e8cb9"/>
 <polygon points="1254,330 1036,330 1036,366 1254,366 1254,330" stroke="#90c4e4" fill="none"/>
 <text x="1044" y="350" fill="#000000" font-family="Arial" font-size="12">Convert_Buffer8_to_Variable</text>
 <polyline points="934,438 940,435 946,431 952,427 959,423 965,419 972,415 979,411 986,407 992,403 999,399 1003,396 1007,393 1010,391 1013,389 1016,386 1019,384 1022,382 1026,380 1030,377 1035,375 1036,374 1038,374 1039,373 1041,373 1042,372 1043,371 1045,371 1046,370 1048,370 1049,369" stroke="#4e8cb9" fill="none"/>
 <polygon points="1048,366 1059,366 1051,373 1048,366" stroke="#4e8cb9" fill="#4e8cb9"/>
 <polygon points="1251,384 1040,384 1040,420 1251,420 1251,384" stroke="#90c4e4" fill="none"/>
 <text x="1048" y="404" fill="#000000" font-family="Arial" font-size="12">Convert_uint8_t_to_uint16_t</text>
 <polyline points="978,439 985,437 993,436 1000,434 1008,433 1015,431 1023,429 1030,427 1038,426 1045,424 1053,422" stroke="#4e8cb9" fill="none"/>
 <polygon points="1053,419 1063,420 1054,426 1053,419" stroke="#4e8cb9" fill="#4e8cb9"/>
 <polygon points="1255,438 1035,438 1035,474 1255,474 1255,438" stroke="#90c4e4" fill="none"/>
 <text x="1043" y="458" fill="#000000" font-family="Arial" font-size="12">Write_Bytes_EEPROM_25xx</text>
 <polyline points="978,456 983,456 987,456 992,456 996,456 1001,456 1006,456 1011,456 1015,456 1020,456 1025,456" stroke="#4e8cb9" fill="none"/>
 <polygon points="1025,452 1035,456 1025,459 1025,452" stroke="#4e8cb9" fill="#4e8cb9"/>
 <polyline points="941,196 954,199 968,202 983,205 998,209 1014,212 1030,216 1046,219 1062,223 1077,226 1091,229" stroke="#4e8cb9" fill="none"/>
 <polygon points="1092,225 1101,231 1091,232 1092,225" stroke="#4e8cb9" fill="#4e8cb9"/>
 <polyline points="941,188 955,188 970,188 986,187 1002,187 1019,187 1037,187 1053,187 1070,186 1086,186 1100,186" stroke="#4e8cb9" fill="none"/>
 <polygon points="1100,183 1110,186 1100,190 1100,183" stroke="#4e8cb9" fill="#4e8cb9"/>
 <polyline points="767,117 774,118 780,118 787,119 793,120 800,121 806,121 813,122 819,123 825,123 831,124" stroke="#4e8cb9" fill="none"/>
 <polygon points="832,121 841,125 831,128 832,121" stroke="#4e8cb9" fill="#4e8cb9"/>
 <polygon points="983,4 819,4 819,40 983,40 983,4" stroke="#90c4e4" fill="none"/>
 <text x="827" y="24" fill="#000000" font-family="Arial" font-size="12">Jump_to_coordinator</text>
 <polyline points="700,86 709,83 718,79 728,75 739,71 749,68 760,64 771,60 782,56 792,52 803,49 805,48 807,48 809,47 811,47 813,46 815,45 817,45 819,44 821,44 823,43" stroke="#4e8cb9" fill="none"/>
 <polygon points="822,39 832,40 824,46 822,39" stroke="#4e8cb9" fill="#4e8cb9"/>
 <polygon points="967,58 836,58 836,94 967,94 967,58" stroke="#90c4e4" fill="none"/>
 <text x="844" y="78" fill="#000000" font-family="Arial" font-size="12">Write_Character</text>
 <polyline points="767,91 773,90 779,90 785,89 791,89 797,88 803,87 808,87 814,86 820,86 825,85" stroke="#4e8cb9" fill="none"/>
 <polygon points="825,81 835,83 826,88 825,81" stroke="#4e8cb9" fill="#4e8cb9"/>
 <polygon points="1213,4 1078,4 1078,40 1213,40 1213,4" stroke="#90c4e4" fill="none"/>
 <text x="1086" y="24" fill="#000000" font-family="Arial" font-size="12">Write_Command</text>
 <polyline points="983,22 991,22 1000,22 1008,22 1017,22 1025,22 1034,22 1042,22 1051,22 1059,22 1067,22" stroke="#4e8cb9" fill="none"/>
 <polygon points="1067,18 1077,22 1067,25 1067,18" stroke="#4e8cb9" fill="#4e8cb9"/>
 <polyline points="967,84 971,86 974,87 978,89 981,90 984,92 987,94 990,96 993,98 996,100 999,103 1008,114 1013,125 1016,136 1017,147 1017,158 1017,170 1017,181 1020,192 1026,202 1035,213 1040,217 1045,221 1050,224 1055,227 1061,229 1067,232 1073,233 1079,235 1085,237 1091,238" stroke="#4e8cb9" fill="none"/>
 <polygon points="1092,234 1101,239 1091,241 1092,234" stroke="#4e8cb9" fill="#4e8cb9"/>
 <polyline points="967,87 970,88 974,90 977,91 980,92 983,94 987,95 990,97 993,99 996,101 999,103 1005,108 1009,114 1013,119 1015,124 1017,130 1019,136 1021,141 1025,146 1029,152 1035,157 1041,161 1047,165 1053,168 1060,171 1067,173 1074,176 1080,177 1087,179 1094,181 1100,182" stroke="#4e8cb9" fill="none"/>
 <polygon points="1101,178 1110,183 1099,185 1101,178" stroke="#4e8cb9" fill="#4e8cb9"/>
 <polygon points="1213,58 1078,58 1078,94 1213,94 1213,58" stroke="#90c4e4" fill="none"/>
 <text x="1086" y="78" fill="#000000" font-family="Arial" font-size="12">Set_GPIO_Value</text>
 <polyline points="967,76 976,76 986,76 996,76 1006,76 1016,76 1026,76 1037,76 1047,76 1057,76 1067,76" stroke="#4e8cb9" fill="none"/>
 <polygon points="1067,72 1077,76 1067,79 1067,72" stroke="#4e8cb9" fill="#4e8cb9"/>
 <polygon points="1213,112 1078,112 1078,148 1213,148 1213,112" stroke="#90c4e4" fill="none"/>
 <text x="1086" y="132" fill="#000000" font-family="Arial" font-size="12">Kick_Enable_pin</text>
 <polyline points="967,90 976,92 986,94 996,97 1006,99 1017,102 1027,104 1037,106 1047,109 1057,111 1067,113" stroke="#4e8cb9" fill="none"/>
 <polygon points="1068,109 1077,115 1067,116 1068,109" stroke="#4e8cb9" fill="#4e8cb9"/>
 <polygon points="369,246 315,246 315,282 369,282 369,246" stroke="#90c4e4" fill="none"/>
 <text x="325" y="266" fill="#000000" font-family="Arial" font-size="12">main</text>
 <polyline points="369,264 371,264 374,264 376,264 379,264 382,264 384,264 387,264 390,264 392,264 395,264" stroke="#4e8cb9" fill="none"/>
 <polygon points="395,260 405,264 395,267 395,260" stroke="#4e8cb9" fill="#4e8cb9"/>
 <polygon points="279,246 168,246 168,282 279,282 279,246" stroke="#90c4e4" fill="none"/>
 <text x="177" y="266" fill="#000000" font-family="Arial" font-size="12">Rest_Handler</text>
 <polyline points="279,264 282,264 284,264 287,264 290,264 292,264 295,264 298,264 300,264 303,264 305,264" stroke="#4e8cb9" fill="none"/>
 <polygon points="305,260 315,264 305,267 305,260" stroke="#4e8cb9" fill="#4e8cb9"/>
 <polygon points="132,219 4,219 4,255 132,255 132,219" stroke="#90c4e4" fill="none"/>
 <text x="12" y="239" fill="#000000" font-family="Arial" font-size="12">Default_Handler</text>
 <polyline points="132,248 135,249 137,249 140,250 142,250 145,251 148,251 150,251 153,252 155,252 158,253" stroke="#4e8cb9" fill="none"/>
 <polygon points="158,249 168,254 157,256 158,249" stroke="#4e8cb9" fill="#4e8cb9"/>
 <polygon points="106,273 31,273 31,309 106,309 106,273" stroke="#90c4e4" fill="none"/>
 <text x="39" y="293" fill="#000000" font-family="Arial" font-size="12">startup.c</text>
 <polyline points="106,285 111,284 115,283 120,282 126,281 131,280 136,279 141,278 147,277 152,276 157,275" stroke="#4e8cb9" fill="none"/>
 <polygon points="157,272 168,274 158,279 157,272" stroke="#4e8cb9" fill="#4e8cb9"/>
</svg>
