<?xml version="1.0"?>
<svg width="1088" height="236" xmlns="http://www.w3.org/2000/svg" version="1.1">
 <polygon points="4,232 4,4 1084,4 1084,232 4,232" stroke="#fffffe00" fill="none"/>
 <polygon points="587,75 509,75 509,111 587,111 587,75" stroke="#90c4e4" fill="#1976d2"/>
 <text x="517" y="95" fill="#ffffff" font-family="Arial" font-size="12">LCD_init</text>
 <polygon points="732,4 650,4 650,40 732,40 732,4" stroke="#90c4e4" fill="none"/>
 <text x="658" y="24" fill="#000000" font-family="Arial" font-size="12">Init_GPIO</text>
 <polyline points="583,75 587,73 591,71 594,69 599,67 603,65 607,62 611,60 615,58 619,56 623,54 625,53 627,52 629,51 631,50 633,50 634,49 636,48 638,47 640,46 642,45" stroke="#4e8cb9" fill="none"/>
 <polygon points="641,41 651,40 644,48 641,41" stroke="#4e8cb9" fill="#4e8cb9"/>
 <polygon points="1068,196 981,196 981,232 1068,232 1068,196" stroke="#90c4e4" fill="none"/>
 <text x="990" y="216" fill="#000000" font-family="Arial" font-size="12">Reset_pin</text>
 <polyline points="562,111 566,117 571,123 576,129 582,135 588,142 594,148 601,154 608,160 616,165 623,170 657,187 694,201 731,211 770,219 808,223 845,226 881,226 914,225 945,224 971,221" stroke="#4e8cb9" fill="none"/>
 <polygon points="971,218 981,220 972,225 971,218" stroke="#4e8cb9" fill="#4e8cb9"/>
 <polygon points="1085,76 1085,60 1050,48 1000,48 965,60 965,76 1000,88 1050,88 1085,76" stroke="#c0c0c0" fill="none"/>
 <text x="994" y="70" fill="#000000" font-family="Arial" font-size="12">delay_us</text>
 <polyline points="587,91 614,90 646,88 682,86 722,84 763,82 804,80 846,78 885,76 922,74 955,72" stroke="#4e8cb9" fill="none"/>
 <polygon points="955,68 965,71 955,75 955,68" stroke="#4e8cb9" fill="#4e8cb9"/>
 <polygon points="758,125 623,125 623,161 758,161 758,125" stroke="#90c4e4" fill="none"/>
 <text x="632" y="145" fill="#000000" font-family="Arial" font-size="12">Write_Command</text>
 <polyline points="587,107 591,108 595,110 599,111 603,112 608,114 612,115 616,117 621,118 625,120 629,121" stroke="#4e8cb9" fill="none"/>
 <polygon points="631,118 639,125 628,125 631,118" stroke="#4e8cb9" fill="#4e8cb9"/>
 <polyline points="720,161 726,165 733,168 740,172 747,176 755,180 762,183 770,186 778,190 786,192 794,195 812,200 831,204 849,207 868,209 887,211 905,213 923,214 940,215 956,215 971,215" stroke="#4e8cb9" fill="none"/>
 <polygon points="971,212 981,215 971,219 971,212" stroke="#4e8cb9" fill="#4e8cb9"/>
 <polygon points="929,150 794,150 794,186 929,186 929,150" stroke="#90c4e4" fill="none"/>
 <text x="803" y="170" fill="#000000" font-family="Arial" font-size="12">Set_GPIO_Value</text>
 <polyline points="758,153 761,153 763,154 766,154 768,154 771,155 774,155 776,155 779,156 781,156 784,157" stroke="#4e8cb9" fill="none"/>
 <polygon points="785,153 794,158 784,160 785,153" stroke="#4e8cb9" fill="#4e8cb9"/>
 <polygon points="929,96 794,96 794,132 929,132 929,96" stroke="#90c4e4" fill="none"/>
 <text x="803" y="116" fill="#000000" font-family="Arial" font-size="12">Kick_Enable_pin</text>
 <polyline points="758,132 761,131 763,131 766,130 768,130 771,130 774,129 776,129 779,128 781,128 784,127" stroke="#4e8cb9" fill="none"/>
 <polygon points="783,124 794,125 785,131 783,124" stroke="#4e8cb9" fill="#4e8cb9"/>
 <polyline points="912,132 914,133 915,134 917,135 919,136 921,137 922,137 924,138 926,139 927,140 929,141 936,145 943,150 950,155 957,160 964,165 971,170 978,175 984,180 990,184 996,189" stroke="#4e8cb9" fill="none"/>
 <polygon points="998,187 1003,196 994,192 998,187" stroke="#4e8cb9" fill="#4e8cb9"/>
 <polyline points="926,96 930,95 935,94 939,92 943,91 948,90 952,89 956,88 960,86 965,85 969,84" stroke="#4e8cb9" fill="none"/>
 <polygon points="968,80 979,81 970,87 968,80" stroke="#4e8cb9" fill="#4e8cb9"/>
 <polygon points="1060,106 990,106 990,142 1060,142 1060,106" stroke="#90c4e4" fill="none"/>
 <text x="998" y="126" fill="#000000" font-family="Arial" font-size="12">Set_pin</text>
 <polyline points="929,118 934,118 939,119 944,119 950,119 955,120 960,120 965,120 970,120 974,121 979,121" stroke="#4e8cb9" fill="none"/>
 <polygon points="980,118 989,122 979,125 980,118" stroke="#4e8cb9" fill="#4e8cb9"/>
 <polygon points="473,48 241,48 241,84 473,84 473,48" stroke="#90c4e4" fill="none"/>
 <text x="249" y="68" fill="#000000" font-family="Arial" font-size="12">config_Drives_and_Perpherals</text>
 <polyline points="473,82 476,83 478,83 481,84 484,84 486,84 489,85 492,85 494,85 497,86 499,86" stroke="#4e8cb9" fill="none"/>
 <polygon points="500,83 509,88 499,90 500,83" stroke="#4e8cb9" fill="#4e8cb9"/>
 <polygon points="205,48 151,48 151,84 205,84 205,48" stroke="#90c4e4" fill="none"/>
 <text x="161" y="68" fill="#000000" font-family="Arial" font-size="12">main</text>
 <polyline points="205,66 207,66 210,66 212,66 215,66 217,66 220,66 222,66 225,66 227,66 230,66" stroke="#4e8cb9" fill="none"/>
 <polygon points="231,62 241,66 231,69 231,62" stroke="#4e8cb9" fill="#4e8cb9"/>
 <polygon points="115,48 4,48 4,84 115,84 115,48" stroke="#90c4e4" fill="none"/>
 <text x="13" y="68" fill="#000000" font-family="Arial" font-size="12">Rest_Handler</text>
 <polyline points="115,66 118,66 120,66 123,66 126,66 128,66 131,66 134,66 136,66 139,66 141,66" stroke="#4e8cb9" fill="none"/>
 <polygon points="141,62 151,66 141,69 141,62" stroke="#4e8cb9" fill="#4e8cb9"/>
 <polygon points="423,102 291,102 291,138 423,138 423,102" stroke="#90c4e4" fill="none"/>
 <text x="299" y="122" fill="#000000" font-family="Arial" font-size="12">write_with_move</text>
 <polyline points="423,111 431,110 438,109 446,107 454,106 462,105 470,104 477,103 485,102 492,101 499,100" stroke="#4e8cb9" fill="none"/>
 <polygon points="498,96 509,98 499,103 498,96" stroke="#4e8cb9" fill="#4e8cb9"/>
</svg>
