<?xml version="1.0"?>
<svg width="1220" height="587" xmlns="http://www.w3.org/2000/svg" version="1.1">
 <polygon points="4,583 4,3 1216,3 1216,583 4,583" stroke="#fffffe00" fill="none"/>
 <polygon points="582,273 509,273 509,309 582,309 582,273" stroke="#90c4e4" fill="#1976d2"/>
 <text x="518" y="293" fill="#ffffff" font-family="Arial" font-size="12">Init_Uart</text>
 <polygon points="824,3 650,3 650,39 824,39 824,3" stroke="#90c4e4" fill="none"/>
 <text x="658" y="23" fill="#000000" font-family="Arial" font-size="12">Error_CallBack_UART</text>
 <polyline points="546,273 546,257 547,238 549,216 553,192 558,167 565,141 574,115 586,91 600,68 618,48 620,46 622,45 624,43 626,41 628,40 631,38 633,37 635,36 638,34 640,33" stroke="#4e8cb9" fill="none"/>
 <polygon points="639,30 650,30 642,37 639,30" stroke="#4e8cb9" fill="#4e8cb9"/>
 <polygon points="826,57 647,57 647,93 826,93 826,57" stroke="#90c4e4" fill="none"/>
 <text x="656" y="77" fill="#000000" font-family="Arial" font-size="12">Parity_CallBack_UART</text>
 <polyline points="548,273 550,260 552,245 555,228 559,210 565,191 572,171 581,152 591,134 604,117 618,102 620,101 622,99 624,98 626,96 628,95 630,94 632,93 634,91 636,90 638,89" stroke="#4e8cb9" fill="none"/>
 <polygon points="637,86 647,85 639,92 637,86" stroke="#4e8cb9" fill="#4e8cb9"/>
 <polygon points="814,111 659,111 659,147 814,147 814,111" stroke="#90c4e4" fill="none"/>
 <text x="668" y="131" fill="#000000" font-family="Arial" font-size="12">Tx_CallBack_UART</text>
 <polyline points="551,273 554,263 557,253 562,241 567,228 573,215 580,202 588,189 597,177 607,166 618,156 621,154 624,152 627,150 630,148 633,147 636,145 639,144 642,143 646,141 649,140" stroke="#4e8cb9" fill="none"/>
 <polygon points="648,136 659,137 650,143 648,136" stroke="#4e8cb9" fill="#4e8cb9"/>
 <polygon points="840,165 633,165 633,201 840,201 840,165" stroke="#90c4e4" fill="none"/>
 <text x="642" y="185" fill="#000000" font-family="Arial" font-size="12">Tx_Comp_CallBack_UART</text>
 <polyline points="558,273 562,267 566,261 571,254 577,247 583,240 589,234 596,227 603,221 610,215 618,210 619,209 620,209 621,208 622,208 623,208 623,207 624,207 625,206 626,206 627,205" stroke="#4e8cb9" fill="none"/>
 <polygon points="625,202 636,201 628,208 625,202" stroke="#4e8cb9" fill="#4e8cb9"/>
 <polygon points="815,219 658,219 658,255 815,255 815,219" stroke="#90c4e4" fill="none"/>
 <text x="667" y="239" fill="#000000" font-family="Arial" font-size="12">Rx_CallBack_UART</text>
 <polyline points="582,277 586,276 589,274 593,273 596,271 600,270 604,269 607,268 611,266 614,265 618,264 621,263 624,262 627,261 630,260 633,260 636,259 639,258 642,257 645,257 648,256" stroke="#4e8cb9" fill="none"/>
 <polygon points="647,252 658,253 649,259 647,252" stroke="#4e8cb9" fill="#4e8cb9"/>
 <polygon points="824,273 650,273 650,309 824,309 824,273" stroke="#90c4e4" fill="none"/>
 <text x="658" y="293" fill="#000000" font-family="Arial" font-size="12">IDLE_CallBack_UART</text>
 <polyline points="582,291 587,291 593,291 598,291 604,291 610,291 615,291 621,291 628,291 634,291 640,291" stroke="#4e8cb9" fill="none"/>
 <polygon points="640,288 650,291 640,295 640,288" stroke="#4e8cb9" fill="#4e8cb9"/>
 <polygon points="832,327 641,327 641,363 832,363 832,327" stroke="#90c4e4" fill="none"/>
 <text x="650" y="347" fill="#000000" font-family="Arial" font-size="12">Lin_BK_CallBack_UART</text>
 <polyline points="582,306 586,307 589,308 593,310 596,311 600,312 604,314 607,315 611,316 614,317 618,318 620,319 622,319 625,320 627,320 629,321 631,322 634,323 636,323 639,324 641,325" stroke="#4e8cb9" fill="none"/>
 <polygon points="642,321 651,327 640,328 642,321" stroke="#4e8cb9" fill="#4e8cb9"/>
 <polygon points="831,381 643,381 643,417 831,417 831,381" stroke="#90c4e4" fill="none"/>
 <text x="651" y="401" fill="#000000" font-family="Arial" font-size="12">FlowCt_CallBack_UART</text>
 <polyline points="558,309 562,315 566,321 571,328 577,335 583,342 589,348 596,355 603,361 610,367 618,372 620,373 621,374 623,374 624,375 626,376 627,377 629,378 630,378 632,379 633,380" stroke="#4e8cb9" fill="none"/>
 <polygon points="635,377 643,384 632,383 635,377" stroke="#4e8cb9" fill="#4e8cb9"/>
 <polygon points="802,435 671,435 671,471 802,471 802,435" stroke="#90c4e4" fill="none"/>
 <text x="680" y="455" fill="#000000" font-family="Arial" font-size="12">_Config_GPIO_f</text>
 <polyline points="551,309 554,319 557,329 562,341 567,354 573,367 580,380 588,393 597,405 607,416 618,426 622,429 626,432 630,434 634,436 638,438 643,440 647,442 652,443 656,445 661,446" stroke="#4e8cb9" fill="none"/>
 <polygon points="662,443 671,448 660,449 662,443" stroke="#4e8cb9" fill="#4e8cb9"/>
 <polygon points="796,489 677,489 677,525 796,525 796,489" stroke="#90c4e4" fill="none"/>
 <text x="686" y="509" fill="#000000" font-family="Arial" font-size="12">Set_BaudRate</text>
 <polyline points="548,309 550,322 552,337 555,354 559,373 565,392 572,411 581,430 591,449 604,465 618,480 622,483 627,487 631,490 636,492 641,495 646,497 651,499 656,500 662,502 667,503" stroke="#4e8cb9" fill="none"/>
 <polygon points="668,499 677,505 666,506 668,499" stroke="#4e8cb9" fill="#4e8cb9"/>
 <polygon points="855,571 855,555 786,543 687,543 618,555 618,571 687,583 786,583 855,571" stroke="#c0c0c0" fill="none"/>
 <text x="668" y="565" fill="#000000" font-family="Arial" font-size="12">__NVIC_EnableIRQ</text>
 <polyline points="546,309 546,325 547,344 549,366 553,390 558,416 565,441 574,467 586,491 600,514 618,534 620,535 621,537 623,538 624,540 626,541 627,542 629,543 631,544 632,545 634,546" stroke="#4e8cb9" fill="none"/>
 <polygon points="636,543 643,551 633,549 636,543" stroke="#4e8cb9" fill="#4e8cb9"/>
 <polygon points="1045,111 891,111 891,147 1045,147 1045,111" stroke="#90c4e4" fill="none"/>
 <text x="899" y="131" fill="#000000" font-family="Arial" font-size="12">Receive_Char_Uart</text>
 <polyline points="815,228 819,227 823,225 828,224 832,222 836,221 840,219 844,217 848,215 851,212 855,210 861,205 866,200 869,195 872,189 874,184 876,178 878,173 881,167 885,161 891,156 892,156 892,155 893,155 893,155 894,154 894,154 895,154 895,153 896,153 896,152" stroke="#4e8cb9" fill="none"/>
 <polygon points="895,149 905,147 898,155 895,149" stroke="#4e8cb9" fill="#4e8cb9"/>
 <polygon points="1035,165 901,165 901,201 1035,201 1035,165" stroke="#90c4e4" fill="none"/>
 <text x="909" y="185" fill="#000000" font-family="Arial" font-size="12">Send_Char_Uart</text>
 <polyline points="815,219 819,218 823,217 827,216 831,215 835,215 839,214 843,213 847,212 851,211 855,210 859,209 862,208 866,207 869,206 873,206 877,205 880,204 884,203 887,203 891,202" stroke="#4e8cb9" fill="none"/>
 <polygon points="891,198 901,199 892,205 891,198" stroke="#4e8cb9" fill="#4e8cb9"/>
 <polygon points="1012,219 925,219 925,255 1012,255 1012,219" stroke="#90c4e4" fill="none"/>
 <text x="933" y="239" fill="#000000" font-family="Arial" font-size="12">Reset_pin</text>
 <polyline points="815,237 825,237 835,237 845,237 856,237 866,237 876,237 886,237 896,237 906,237 915,237" stroke="#4e8cb9" fill="none"/>
 <polygon points="915,234 925,237 915,241 915,234" stroke="#4e8cb9" fill="#4e8cb9"/>
 <polygon points="1036,273 900,273 900,309 1036,309 1036,273" stroke="#90c4e4" fill="none"/>
 <text x="908" y="293" fill="#000000" font-family="Arial" font-size="12">SPI_Tx_Rx_Char</text>
 <polyline points="815,255 819,256 823,257 827,258 831,259 835,260 839,260 843,261 847,262 851,263 855,264 859,265 862,266 866,267 869,268 873,268 876,269 880,270 883,271 887,271 890,272" stroke="#4e8cb9" fill="none"/>
 <polygon points="891,269 900,275 890,276 891,269" stroke="#4e8cb9" fill="#4e8cb9"/>
 <polygon points="1003,327 933,327 933,363 1003,363 1003,327" stroke="#90c4e4" fill="none"/>
 <text x="941" y="347" fill="#000000" font-family="Arial" font-size="12">Set_pin</text>
 <polyline points="815,246 819,247 823,249 828,250 832,252 836,254 840,255 844,257 848,259 851,262 855,264 861,269 866,274 869,279 872,285 874,290 876,296 878,301 881,307 885,313 891,318 894,320 897,322 900,324 903,326 907,328 910,329 913,331 916,332 920,334 923,335" stroke="#4e8cb9" fill="none"/>
 <polygon points="925,332 933,338 923,338 925,332" stroke="#4e8cb9" fill="#4e8cb9"/>
 <polygon points="1009,435 927,435 927,471 1009,471 1009,435" stroke="#90c4e4" fill="none"/>
 <text x="935" y="455" fill="#000000" font-family="Arial" font-size="12">Init_GPIO</text>
 <polyline points="802,453 813,453 825,453 837,453 849,453 861,453 872,453 884,453 896,453 907,453 917,453" stroke="#4e8cb9" fill="none"/>
 <polygon points="917,450 927,453 917,457 917,450" stroke="#4e8cb9" fill="#4e8cb9"/>
 <polygon points="1035,489 901,489 901,525 1035,525 1035,489" stroke="#90c4e4" fill="none"/>
 <text x="909" y="509" fill="#000000" font-family="Arial" font-size="12">Get_APB2_Freq</text>
 <polyline points="796,507 805,507 814,507 823,507 833,507 843,507 853,507 862,507 872,507 882,507 891,507" stroke="#4e8cb9" fill="none"/>
 <polygon points="891,504 901,507 891,511 891,504" stroke="#4e8cb9" fill="#4e8cb9"/>
 <polygon points="1035,543 901,543 901,579 1035,579 1035,543" stroke="#90c4e4" fill="none"/>
 <text x="909" y="563" fill="#000000" font-family="Arial" font-size="12">Get_APB1_Freq</text>
 <polyline points="796,520 802,521 808,523 814,524 820,526 826,527 831,529 837,530 843,531 849,533 855,534 859,535 862,536 866,537 869,538 873,539 877,539 880,540 884,541 887,542 891,543" stroke="#4e8cb9" fill="none"/>
 <polygon points="892,539 901,545 891,546 892,539" stroke="#4e8cb9" fill="#4e8cb9"/>
 <polygon points="1216,516 1081,516 1081,552 1216,552 1216,516" stroke="#90c4e4" fill="none"/>
 <text x="1090" y="536" fill="#000000" font-family="Arial" font-size="12">Get_HCLK_Freq</text>
 <polyline points="1035,517 1039,518 1042,518 1046,519 1049,519 1053,520 1057,521 1060,521 1064,522 1067,522 1071,523" stroke="#4e8cb9" fill="none"/>
 <polygon points="1072,519 1081,524 1071,526 1072,519" stroke="#4e8cb9" fill="#4e8cb9"/>
 <polyline points="1035,551 1039,550 1042,550 1046,549 1049,549 1053,548 1057,548 1060,547 1064,547 1067,546 1071,546" stroke="#4e8cb9" fill="none"/>
 <polygon points="1071,542 1081,544 1072,549 1071,542" stroke="#4e8cb9" fill="#4e8cb9"/>
 <polygon points="473,273 241,273 241,309 473,309 473,273" stroke="#90c4e4" fill="none"/>
 <text x="249" y="293" fill="#000000" font-family="Arial" font-size="12">config_Drives_and_Perpherals</text>
 <polyline points="473,291 476,291 478,291 481,291 484,291 486,291 489,291 492,291 494,291 497,291 499,291" stroke="#4e8cb9" fill="none"/>
 <polygon points="499,288 509,291 499,295 499,288" stroke="#4e8cb9" fill="#4e8cb9"/>
 <polygon points="205,273 151,273 151,309 205,309 205,273" stroke="#90c4e4" fill="none"/>
 <text x="161" y="293" fill="#000000" font-family="Arial" font-size="12">main</text>
 <polyline points="205,291 207,291 210,291 212,291 215,291 217,291 220,291 222,291 225,291 227,291 230,291" stroke="#4e8cb9" fill="none"/>
 <polygon points="231,288 241,291 231,295 231,288" stroke="#4e8cb9" fill="#4e8cb9"/>
 <polygon points="115,273 4,273 4,309 115,309 115,273" stroke="#90c4e4" fill="none"/>
 <text x="13" y="293" fill="#000000" font-family="Arial" font-size="12">Rest_Handler</text>
 <polyline points="115,291 118,291 120,291 123,291 126,291 128,291 131,291 134,291 136,291 139,291 141,291" stroke="#4e8cb9" fill="none"/>
 <polygon points="141,288 151,291 141,295 141,288" stroke="#4e8cb9" fill="#4e8cb9"/>
</svg>
