<?xml version="1.0"?>
<svg width="1280" height="360" xmlns="http://www.w3.org/2000/svg" version="1.1">
 <polygon points="4,356 4,4 1276,4 1276,356 4,356" stroke="#fffffe00" fill="none"/>
 <polygon points="582,123 429,123 429,159 582,159 582,123" stroke="#90c4e4" fill="#1976d2"/>
 <text x="438" y="143" fill="#ffffff" font-family="Arial" font-size="12">Reaction_Of_Prass</text>
 <polygon points="780,4 676,4 676,40 780,40 780,4" stroke="#90c4e4" fill="none"/>
 <text x="684" y="24" fill="#000000" font-family="Arial" font-size="12">Clear_Buffer</text>
 <polyline points="525,123 532,117 539,110 548,103 556,95 566,88 576,80 586,73 597,66 607,60 618,54 623,52 627,49 632,47 637,45 642,44 647,42 651,40 656,39 661,37 666,36" stroke="#4e8cb9" fill="none"/>
 <polygon points="665,32 676,33 667,39 665,32" stroke="#4e8cb9" fill="#4e8cb9"/>
 <polygon points="799,96 658,96 658,132 799,132 799,96" stroke="#90c4e4" fill="none"/>
 <text x="666" y="116" fill="#000000" font-family="Arial" font-size="12">Send_String_Uart</text>
 <polyline points="582,132 588,131 595,130 601,129 608,128 615,128 621,127 628,126 634,125 641,125 647,124" stroke="#4e8cb9" fill="none"/>
 <polygon points="647,120 657,123 648,127 647,120" stroke="#4e8cb9" fill="#4e8cb9"/>
 <polygon points="1056,40 922,40 922,76 1056,76 1056,40" stroke="#90c4e4" fill="none"/>
 <text x="930" y="60" fill="#000000" font-family="Arial" font-size="12">Send_Char_Uart</text>
 <polyline points="536,123 543,119 550,115 558,111 566,107 574,104 583,100 592,96 600,93 609,90 618,87 648,80 679,73 711,68 742,64 774,61 804,59 834,58 862,57 888,56 912,56" stroke="#4e8cb9" fill="none"/>
 <polygon points="912,52 922,56 912,59 912,52" stroke="#4e8cb9" fill="#4e8cb9"/>
 <polygon points="837,204 619,204 619,240 837,240 837,204" stroke="#90c4e4" fill="none"/>
 <text x="627" y="224" fill="#000000" font-family="Arial" font-size="12">Convert_Buffer8_to_Variable</text>
 <polyline points="539,159 546,163 553,166 561,170 569,174 577,178 585,181 593,185 602,189 610,192 618,195 620,196 622,196 623,197 625,197 627,198 629,199 631,199 632,200 634,200 636,201" stroke="#4e8cb9" fill="none"/>
 <polygon points="637,198 646,204 635,204 637,198" stroke="#4e8cb9" fill="#4e8cb9"/>
 <polygon points="834,258 623,258 623,294 834,294 834,258" stroke="#90c4e4" fill="none"/>
 <text x="631" y="278" fill="#000000" font-family="Arial" font-size="12">Convert_uint8_t_to_uint16_t</text>
 <polyline points="520,159 526,167 534,176 542,185 551,195 561,205 571,215 582,224 594,233 606,242 618,249 619,250 620,250 621,251 622,251 623,252 624,252 625,252 626,253 627,253 628,254" stroke="#4e8cb9" fill="none"/>
 <polygon points="630,251 637,258 627,257 630,251" stroke="#4e8cb9" fill="#4e8cb9"/>
 <polygon points="838,150 618,150 618,186 838,186 838,150" stroke="#90c4e4" fill="none"/>
 <text x="626" y="170" fill="#000000" font-family="Arial" font-size="12">Write_Bytes_EEPROM_25xx</text>
 <polyline points="582,150 585,150 587,151 590,151 592,151 595,152 598,152 600,152 603,152 605,153 608,153" stroke="#4e8cb9" fill="none"/>
 <polygon points="608,150 618,155 608,157 608,150" stroke="#4e8cb9" fill="#4e8cb9"/>
 <polyline points="799,99 810,97 821,94 832,92 844,89 855,87 867,84 878,81 890,79 901,76 912,74" stroke="#4e8cb9" fill="none"/>
 <polygon points="911,71 922,72 913,78 911,71" stroke="#4e8cb9" fill="#4e8cb9"/>
 <polygon points="1049,122 1049,106 1014,94 964,94 929,106 929,122 964,134 1014,134 1049,122" stroke="#c0c0c0" fill="none"/>
 <text x="958" y="116" fill="#000000" font-family="Arial" font-size="12">delay_us</text>
 <polyline points="799,114 810,114 822,114 834,114 847,114 859,114 871,114 884,114 896,114 908,114 919,114" stroke="#4e8cb9" fill="none"/>
 <polygon points="919,110 929,114 919,117 919,110" stroke="#4e8cb9" fill="#4e8cb9"/>
 <polyline points="816,150 827,148 838,145 849,143 861,140 872,138 884,136 895,134 906,131 917,129 927,127" stroke="#4e8cb9" fill="none"/>
 <polygon points="926,123 937,125 928,130 926,123" stroke="#4e8cb9" fill="#4e8cb9"/>
 <polygon points="1104,190 874,190 874,226 1104,226 1104,190" stroke="#90c4e4" fill="none"/>
 <text x="882" y="210" fill="#000000" font-family="Arial" font-size="12">Enable_Write_EEPROM_25xx</text>
 <polyline points="838,185 841,185 843,186 846,186 848,186 851,187 854,187 856,187 859,188 861,188 864,189" stroke="#4e8cb9" fill="none"/>
 <polygon points="864,185 874,190 863,192 864,185" stroke="#4e8cb9" fill="#4e8cb9"/>
 <polygon points="1252,209 1165,209 1165,245 1252,245 1252,209" stroke="#90c4e4" fill="none"/>
 <text x="1173" y="229" fill="#000000" font-family="Arial" font-size="12">Reset_pin</text>
 <polyline points="820,186 822,187 824,188 825,189 827,190 829,191 831,191 833,192 834,193 836,194 838,195 844,199 848,203 851,207 853,211 856,216 858,220 860,224 864,228 868,232 874,235 902,246 932,253 962,258 993,260 1023,260 1053,258 1081,255 1108,251 1132,247 1154,242" stroke="#4e8cb9" fill="none"/>
 <polygon points="1154,238 1164,239 1155,245 1154,238" stroke="#4e8cb9" fill="#4e8cb9"/>
 <polygon points="1276,274 1140,274 1140,310 1276,310 1276,274" stroke="#90c4e4" fill="none"/>
 <text x="1148" y="294" fill="#000000" font-family="Arial" font-size="12">SPI_Tx_Rx_Char</text>
 <polyline points="824,186 825,187 827,188 828,189 830,190 831,191 833,191 834,192 835,193 837,194 838,195 845,201 849,208 852,215 854,223 856,230 857,237 859,244 862,251 867,257 874,263 898,277 923,287 949,296 976,302 1004,306 1031,308 1057,309 1083,309 1107,307 1130,305" stroke="#4e8cb9" fill="none"/>
 <polygon points="1130,301 1140,304 1130,308 1130,301" stroke="#4e8cb9" fill="#4e8cb9"/>
 <polygon points="1243,150 1173,150 1173,186 1243,186 1243,150" stroke="#90c4e4" fill="none"/>
 <text x="1181" y="170" fill="#000000" font-family="Arial" font-size="12">Set_pin</text>
 <polyline points="838,168 870,168 904,168 940,168 976,168 1011,168 1046,168 1080,168 1111,168 1139,168 1163,168" stroke="#4e8cb9" fill="none"/>
 <polygon points="1163,164 1173,168 1163,171 1163,164" stroke="#4e8cb9" fill="#4e8cb9"/>
 <polygon points="1058,320 921,320 921,356 1058,356 1058,320" stroke="#90c4e4" fill="none"/>
 <text x="929" y="340" fill="#000000" font-family="Arial" font-size="12">SPI_Send_String</text>
 <polyline points="826,186 827,187 829,188 830,189 831,190 832,191 833,191 835,192 836,193 837,194 838,195 847,206 853,217 856,228 856,239 856,250 856,261 857,273 860,284 865,295 874,306 877,309 880,312 884,314 887,317 891,319 895,321 898,323 902,324 906,326 910,327" stroke="#4e8cb9" fill="none"/>
 <polygon points="912,324 920,330 910,331 912,324" stroke="#4e8cb9" fill="#4e8cb9"/>
 <polyline points="1104,218 1109,219 1115,219 1120,220 1125,220 1130,220 1135,221 1140,221 1145,221 1149,222 1154,222" stroke="#4e8cb9" fill="none"/>
 <polygon points="1155,219 1164,223 1154,226 1155,219" stroke="#4e8cb9" fill="#4e8cb9"/>
 <polyline points="1037,226 1047,230 1058,234 1069,239 1081,243 1093,248 1105,252 1116,257 1128,261 1139,266 1150,270" stroke="#4e8cb9" fill="none"/>
 <polygon points="1152,267 1160,274 1150,274 1152,267" stroke="#4e8cb9" fill="#4e8cb9"/>
 <polyline points="1088,190 1096,189 1104,187 1112,186 1119,184 1127,183 1135,181 1142,180 1149,179 1156,177 1163,176" stroke="#4e8cb9" fill="none"/>
 <polygon points="1162,173 1173,174 1164,180 1162,173" stroke="#4e8cb9" fill="#4e8cb9"/>
 <polyline points="1058,324 1065,322 1072,321 1079,319 1086,318 1094,316 1101,314 1108,313 1116,311 1123,310 1130,308" stroke="#4e8cb9" fill="none"/>
 <polygon points="1129,305 1140,306 1131,312 1129,305" stroke="#4e8cb9" fill="#4e8cb9"/>
 <polygon points="393,123 229,123 229,159 393,159 393,123" stroke="#90c4e4" fill="none"/>
 <text x="237" y="143" fill="#000000" font-family="Arial" font-size="12">Check_Prass_Button</text>
 <polyline points="393,141 395,141 398,141 400,141 403,141 406,141 408,141 411,141 413,141 416,141 418,141" stroke="#4e8cb9" fill="none"/>
 <polygon points="419,137 429,141 419,144 419,137" stroke="#4e8cb9" fill="#4e8cb9"/>
 <polygon points="193,123 94,123 94,159 193,159 193,123" stroke="#90c4e4" fill="none"/>
 <text x="103" y="143" fill="#000000" font-family="Arial" font-size="12">Infinite_loop</text>
 <polyline points="193,141 195,141 198,141 200,141 203,141 206,141 208,141 211,141 214,141 216,141 219,141" stroke="#4e8cb9" fill="none"/>
 <polygon points="219,137 229,141 219,144 219,137" stroke="#4e8cb9" fill="#4e8cb9"/>
 <polygon points="58,123 4,123 4,159 58,159 58,123" stroke="#90c4e4" fill="none"/>
 <text x="14" y="143" fill="#000000" font-family="Arial" font-size="12">main</text>
 <polyline points="58,141 60,141 63,141 65,141 68,141 71,141 73,141 76,141 79,141 81,141 84,141" stroke="#4e8cb9" fill="none"/>
 <polygon points="84,137 94,141 84,144 84,137" stroke="#4e8cb9" fill="#4e8cb9"/>
</svg>
