<?xml version="1.0"?>
<svg width="1328" height="1834" xmlns="http://www.w3.org/2000/svg" version="1.1">
 <polygon points="4,1830 4,4 1324,4 1324,1830 4,1830" stroke="#fffffe00" fill="none"/>
 <polygon points="637,484 405,484 405,520 637,520 637,484" stroke="#90c4e4" fill="#1976d2"/>
 <text x="413" y="504" fill="#ffffff" font-family="Arial" font-size="12">config_Drives_and_Perpherals</text>
 <polygon points="798,1414 704,1414 704,1450 798,1450 798,1414" stroke="#90c4e4" fill="none"/>
 <text x="712" y="1434" fill="#000000" font-family="Arial" font-size="12">Init_Systick</text>
 <polyline points="526,520 532,550 541,592 553,645 566,706 582,775 598,848 616,925 635,1004 654,1083 673,1160 680,1187 688,1215 695,1243 703,1271 710,1297 718,1323 724,1347 731,1368 736,1388 741,1404" stroke="#4e8cb9" fill="none"/>
 <polygon points="745,1403 744,1414 738,1405 745,1403" stroke="#4e8cb9" fill="#4e8cb9"/>
 <polygon points="790,258 712,258 712,294 790,294 790,258" stroke="#90c4e4" fill="none"/>
 <text x="720" y="278" fill="#000000" font-family="Arial" font-size="12">LCD_init</text>
 <polyline points="540,484 554,470 570,454 589,436 609,416 630,395 651,374 672,353 691,334 709,316 724,301" stroke="#4e8cb9" fill="none"/>
 <polygon points="722,299 731,294 727,304 722,299" stroke="#4e8cb9" fill="#4e8cb9"/>
 <polygon points="1272,58 1190,58 1190,94 1272,94 1272,58" stroke="#90c4e4" fill="none"/>
 <text x="1198" y="78" fill="#000000" font-family="Arial" font-size="12">Init_GPIO</text>
 <polyline points="522,484 523,459 526,426 531,387 538,342 549,295 563,247 583,198 607,152 637,110 673,74 720,43 772,21 827,9 884,4 942,6 998,12 1052,21 1101,33 1144,45 1180,57" stroke="#4e8cb9" fill="none"/>
 <polygon points="1181,54 1190,60 1179,60 1181,54" stroke="#4e8cb9" fill="#4e8cb9"/>
 <polygon points="1037,158 929,158 929,194 1037,194 1037,158" stroke="#90c4e4" fill="none"/>
 <text x="937" y="178" fill="#000000" font-family="Arial" font-size="12">Key_pad_init</text>
 <polyline points="527,484 532,468 540,447 549,424 560,399 574,372 589,345 607,318 627,293 649,269 673,249 696,234 720,222 745,211 771,202 798,195 824,189 849,184 874,181 897,179 918,177" stroke="#4e8cb9" fill="none"/>
 <polygon points="918,173 928,176 919,180 918,173" stroke="#4e8cb9" fill="#4e8cb9"/>
 <polygon points="828,83 673,83 673,119 828,119 828,83" stroke="#90c4e4" fill="none"/>
 <text x="682" y="103" fill="#000000" font-family="Arial" font-size="12">init_seven_segment</text>
 <polyline points="529,484 536,466 545,444 555,418 568,389 582,357 598,324 615,290 633,255 653,221 673,189 678,182 683,175 688,168 693,162 698,155 703,149 709,143 714,137 719,131 724,126" stroke="#4e8cb9" fill="none"/>
 <polygon points="722,124 731,119 727,129 722,124" stroke="#4e8cb9" fill="#4e8cb9"/>
 <polygon points="791,584 710,584 710,620 791,620 791,584" stroke="#90c4e4" fill="none"/>
 <text x="719" y="604" fill="#000000" font-family="Arial" font-size="12">Rx_Uart1</text>
 <polyline points="563,520 575,525 588,531 602,537 617,543 631,550 646,556 660,562 675,568 688,574 701,580" stroke="#4e8cb9" fill="none"/>
 <polygon points="702,577 710,585 699,584 702,577" stroke="#4e8cb9" fill="#4e8cb9"/>
 <polygon points="1266,488 1196,488 1196,524 1266,524 1266,488" stroke="#90c4e4" fill="none"/>
 <text x="1204" y="508" fill="#000000" font-family="Arial" font-size="12">Set_pin</text>
 <polyline points="557,484 590,468 632,451 681,432 736,415 795,400 857,390 920,385 982,389 1043,401 1101,425 1108,429 1113,434 1116,440 1118,445 1120,451 1122,457 1124,462 1127,468 1131,474 1137,479 1141,482 1146,485 1151,487 1155,490 1160,492 1165,494 1171,496 1176,497 1181,499 1186,500" stroke="#4e8cb9" fill="none"/>
 <polygon points="1187,496 1196,502 1185,503 1187,496" stroke="#4e8cb9" fill="#4e8cb9"/>
 <polygon points="787,1115 714,1115 714,1151 787,1151 787,1115" stroke="#90c4e4" fill="none"/>
 <text x="723" y="1135" fill="#000000" font-family="Arial" font-size="12">Init_Uart</text>
 <polyline points="529,520 542,555 559,605 581,665 606,733 632,805 658,878 683,948 706,1011 725,1065 739,1105" stroke="#4e8cb9" fill="none"/>
 <polygon points="743,1104 743,1115 736,1106 743,1104" stroke="#4e8cb9" fill="#4e8cb9"/>
 <polygon points="791,638 710,638 710,674 791,674 791,638" stroke="#90c4e4" fill="none"/>
 <text x="719" y="658" fill="#000000" font-family="Arial" font-size="12">Rx_Uart2</text>
 <polyline points="539,520 548,529 558,539 570,550 582,561 596,573 610,585 625,597 641,608 657,619 673,629 675,630 678,632 681,633 683,635 686,636 689,637 692,638 695,640 697,641 700,642" stroke="#4e8cb9" fill="none"/>
 <polygon points="702,638 710,645 699,645 702,638" stroke="#4e8cb9" fill="#4e8cb9"/>
 <polygon points="785,1605 716,1605 716,1641 785,1641 785,1605" stroke="#90c4e4" fill="none"/>
 <text x="725" y="1625" fill="#000000" font-family="Arial" font-size="12">Init_SPI</text>
 <polyline points="523,520 526,560 530,620 537,696 546,787 558,888 574,998 592,1112 615,1229 642,1346 673,1459 678,1474 683,1489 689,1505 696,1520 702,1534 709,1548 716,1562 722,1574 728,1586 734,1596" stroke="#4e8cb9" fill="none"/>
 <polygon points="737,1595 739,1605 731,1598 737,1595" stroke="#4e8cb9" fill="#4e8cb9"/>
 <polygon points="1050,1470 915,1470 915,1506 1050,1506 1050,1470" stroke="#90c4e4" fill="none"/>
 <text x="924" y="1490" fill="#000000" font-family="Arial" font-size="12">Get_HCLK_Freq</text>
 <polyline points="798,1444 804,1446 810,1447 817,1449 824,1451 830,1453 837,1454 844,1456 851,1458 857,1459 864,1461 868,1462 872,1463 876,1464 880,1465 884,1466 888,1467 892,1468 897,1469 901,1470 905,1471" stroke="#4e8cb9" fill="none"/>
 <polygon points="906,1467 915,1473 904,1474 906,1467" stroke="#4e8cb9" fill="#4e8cb9"/>
 <polygon points="1101,1440 1101,1424 1032,1412 933,1412 864,1424 864,1440 933,1452 1032,1452 1101,1440" stroke="#c0c0c0" fill="none"/>
 <text x="914" y="1434" fill="#000000" font-family="Arial" font-size="12">__NVIC_EnableIRQ</text>
 <polyline points="798,1432 803,1432 808,1432 813,1432 819,1432 825,1432 830,1432 836,1432 842,1432 848,1432 854,1432" stroke="#4e8cb9" fill="none"/>
 <polygon points="854,1428 864,1432 854,1435 854,1428" stroke="#4e8cb9" fill="#4e8cb9"/>
 <polygon points="1302,1470 1160,1470 1160,1506 1302,1506 1302,1470" stroke="#90c4e4" fill="none"/>
 <text x="1168" y="1490" fill="#000000" font-family="Arial" font-size="12">Get_Systick_Freq</text>
 <polyline points="1050,1488 1059,1488 1069,1488 1079,1488 1089,1488 1099,1488 1109,1488 1119,1488 1129,1488 1139,1488 1149,1488" stroke="#4e8cb9" fill="none"/>
 <polygon points="1150,1484 1160,1488 1150,1491 1150,1484" stroke="#4e8cb9" fill="#4e8cb9"/>
 <polyline points="760,258 767,244 775,227 785,208 796,188 808,168 819,148 831,131 843,115 854,103 864,95 883,87 908,80 939,76 972,73 1008,71 1046,70 1082,70 1118,71 1150,72 1179,73" stroke="#4e8cb9" fill="none"/>
 <polygon points="1180,70 1190,74 1180,77 1180,70" stroke="#4e8cb9" fill="#4e8cb9"/>
 <polygon points="1274,312 1187,312 1187,348 1274,348 1274,312" stroke="#90c4e4" fill="none"/>
 <text x="1196" y="332" fill="#000000" font-family="Arial" font-size="12">Reset_pin</text>
 <polyline points="790,275 811,275 836,275 864,276 895,277 928,278 962,280 997,283 1032,286 1067,290 1101,295 1106,296 1112,297 1119,299 1126,300 1134,302 1142,305 1151,307 1160,310 1168,312 1177,315" stroke="#4e8cb9" fill="none"/>
 <polygon points="1179,311 1187,317 1177,318 1179,311" stroke="#4e8cb9" fill="#4e8cb9"/>
 <polygon points="1291,668 1291,652 1256,640 1206,640 1171,652 1171,668 1206,680 1256,680 1291,668" stroke="#c0c0c0" fill="none"/>
 <text x="1200" y="662" fill="#000000" font-family="Arial" font-size="12">delay_us</text>
 <polyline points="775,294 782,299 790,304 798,310 807,316 816,322 825,328 835,334 845,339 854,344 864,349 893,360 920,367 945,371 969,372 992,374 1014,376 1036,381 1058,390 1079,404 1101,425 1113,441 1120,457 1123,472 1124,487 1123,503 1122,519 1121,535 1123,552 1128,569 1137,587 1141,593 1146,599 1151,604 1156,610 1161,615 1167,620 1172,625 1178,629 1184,633 1189,637" stroke="#4e8cb9" fill="none"/>
 <polygon points="1192,634 1198,643 1188,640 1192,634" stroke="#4e8cb9" fill="#4e8cb9"/>
 <polygon points="1050,212 915,212 915,248 1050,248 1050,212" stroke="#90c4e4" fill="none"/>
 <text x="924" y="232" fill="#000000" font-family="Arial" font-size="12">Write_Command</text>
 <polyline points="790,268 800,266 810,264 821,262 833,260 845,257 857,255 869,252 881,250 893,247 905,245" stroke="#4e8cb9" fill="none"/>
 <polygon points="904,242 915,243 906,249 904,242" stroke="#4e8cb9" fill="#4e8cb9"/>
 <polyline points="1050,241 1055,243 1061,244 1066,246 1071,248 1077,250 1082,252 1087,254 1092,256 1096,259 1101,262 1107,266 1111,270 1114,274 1117,278 1119,283 1122,287 1124,291 1128,295 1132,299 1137,303 1141,305 1145,307 1148,309 1153,311 1157,313 1161,315 1165,316 1169,317 1173,319 1177,320" stroke="#4e8cb9" fill="none"/>
 <polygon points="1178,317 1187,323 1177,324 1178,317" stroke="#4e8cb9" fill="#4e8cb9"/>
 <polygon points="1298,204 1163,204 1163,240 1298,240 1298,204" stroke="#90c4e4" fill="none"/>
 <text x="1172" y="224" fill="#000000" font-family="Arial" font-size="12">Set_GPIO_Value</text>
 <polyline points="1050,228 1060,228 1070,227 1080,227 1091,227 1101,226 1112,226 1122,226 1133,225 1143,225 1153,224" stroke="#4e8cb9" fill="none"/>
 <polygon points="1153,221 1163,224 1153,228 1153,221" stroke="#4e8cb9" fill="#4e8cb9"/>
 <polygon points="1298,258 1163,258 1163,294 1298,294 1298,258" stroke="#90c4e4" fill="none"/>
 <text x="1172" y="278" fill="#000000" font-family="Arial" font-size="12">Kick_Enable_pin</text>
 <polyline points="1050,242 1060,244 1070,246 1080,248 1091,250 1101,252 1112,254 1122,256 1133,258 1143,260 1153,262" stroke="#4e8cb9" fill="none"/>
 <polygon points="1154,258 1163,264 1153,265 1154,258" stroke="#4e8cb9" fill="#4e8cb9"/>
 <polyline points="1037,167 1043,166 1049,164 1056,163 1062,161 1069,160 1076,158 1082,156 1089,154 1095,151 1101,149 1111,145 1121,140 1132,136 1142,130 1151,125 1161,120 1170,115 1179,110 1187,105 1195,100" stroke="#4e8cb9" fill="none"/>
 <polygon points="1193,97 1203,94 1197,102 1193,97" stroke="#4e8cb9" fill="#4e8cb9"/>
 <polyline points="1037,177 1044,178 1050,179 1057,181 1064,183 1071,185 1077,188 1084,191 1090,194 1096,198 1101,203 1110,212 1115,222 1118,232 1119,242 1120,253 1120,263 1121,273 1124,283 1129,293 1137,303 1140,306 1144,309 1148,311 1152,314 1156,316 1160,318 1164,320 1169,321 1173,323 1177,324" stroke="#4e8cb9" fill="none"/>
 <polygon points="1178,320 1187,326 1176,327 1178,320" stroke="#4e8cb9" fill="#4e8cb9"/>
 <polygon points="1313,150 1149,150 1149,186 1313,186 1313,150" stroke="#90c4e4" fill="none"/>
 <text x="1157" y="170" fill="#000000" font-family="Arial" font-size="12">Check_Keypad_Pins</text>
 <polyline points="1037,174 1046,174 1055,173 1065,173 1075,173 1086,173 1096,172 1107,172 1118,172 1128,171 1139,171" stroke="#4e8cb9" fill="none"/>
 <polygon points="1139,167 1149,171 1139,174 1139,167" stroke="#4e8cb9" fill="#4e8cb9"/>
 <polyline points="793,83 799,81 806,78 813,76 820,73 827,71 835,69 842,67 849,65 857,63 864,62 898,57 933,54 968,53 1003,53 1037,54 1070,56 1102,58 1131,61 1157,65 1180,68" stroke="#4e8cb9" fill="none"/>
 <polygon points="1180,64 1190,69 1179,71 1180,64" stroke="#4e8cb9" fill="#4e8cb9"/>
 <polyline points="791,602 812,602 838,603 866,604 896,605 929,607 963,609 997,612 1032,615 1067,620 1101,625 1109,626 1117,628 1125,630 1133,631 1141,633 1148,635 1156,637 1164,639 1171,641 1178,643" stroke="#4e8cb9" fill="none"/>
 <polygon points="1179,640 1187,646 1177,647 1179,640" stroke="#4e8cb9" fill="#4e8cb9"/>
 <polygon points="1308,904 1154,904 1154,940 1308,940 1308,904" stroke="#90c4e4" fill="none"/>
 <text x="1162" y="924" fill="#000000" font-family="Arial" font-size="12">Receive_Char_Uart</text>
 <polyline points="791,607 795,608 799,610 803,611 807,613 811,615 815,618 819,620 822,623 825,626 828,629 845,657 852,685 852,712 848,739 842,766 835,793 832,819 834,845 844,870 864,895 879,905 899,913 924,919 952,924 983,927 1015,929 1048,930 1081,930 1113,929 1143,928" stroke="#4e8cb9" fill="none"/>
 <polygon points="1143,924 1154,927 1144,931 1143,924" stroke="#4e8cb9" fill="#4e8cb9"/>
 <polygon points="1053,796 912,796 912,832 1053,832 1053,796" stroke="#90c4e4" fill="none"/>
 <text x="921" y="816" fill="#000000" font-family="Arial" font-size="12">Send_String_Uart</text>
 <polyline points="791,608 795,609 799,611 803,612 807,614 811,616 815,618 819,620 822,623 825,626 828,629 839,645 845,661 847,677 847,693 845,709 843,725 843,741 845,756 852,772 864,787 867,790 870,793 874,795 878,798 882,800 885,802 890,804 894,805 898,807 902,808" stroke="#4e8cb9" fill="none"/>
 <polygon points="903,805 912,811 902,812 903,805" stroke="#4e8cb9" fill="#4e8cb9"/>
 <polygon points="1096,850 869,850 869,886 1096,886 1096,850" stroke="#90c4e4" fill="none"/>
 <text x="878" y="870" fill="#000000" font-family="Arial" font-size="12">Write_String_with_coordinator</text>
 <polyline points="791,608 795,609 799,610 803,612 807,614 811,616 815,618 819,620 822,623 825,626 828,629 842,651 849,672 851,694 848,715 845,737 841,758 839,779 841,799 849,820 864,841 864,841 865,842 865,842 865,842 865,842 866,843 866,843 866,843 866,843 866,843" stroke="#4e8cb9" fill="none"/>
 <polygon points="869,841 874,850 864,846 869,841" stroke="#4e8cb9" fill="#4e8cb9"/>
 <polygon points="1096,688 869,688 869,724 1096,724 1096,688" stroke="#90c4e4" fill="none"/>
 <text x="878" y="708" fill="#000000" font-family="Arial" font-size="12">Convert_Buffer16_to_Variable</text>
 <polyline points="791,611 795,612 799,614 803,615 806,617 810,619 814,620 818,622 821,624 825,627 828,629 834,634 838,639 841,644 844,649 846,654 848,660 850,665 854,670 858,674 864,679 865,680 865,680 866,681 867,681 868,681 868,682 869,682 870,682 870,683 871,683" stroke="#4e8cb9" fill="none"/>
 <polygon points="873,680 880,688 870,686 873,680" stroke="#4e8cb9" fill="#4e8cb9"/>
 <polygon points="1089,488 876,488 876,524 1089,524 1089,488" stroke="#90c4e4" fill="none"/>
 <text x="885" y="508" fill="#000000" font-family="Arial" font-size="12">Read_Byte_EEPROM_25xx</text>
 <polyline points="776,584 783,579 791,574 799,568 807,563 816,557 826,552 835,547 845,542 854,537 864,533 866,532 867,532 869,531 870,531 872,530 873,529 875,529 877,528 878,528 880,527" stroke="#4e8cb9" fill="none"/>
 <polygon points="879,524 890,524 881,530 879,524" stroke="#4e8cb9" fill="#4e8cb9"/>
 <polygon points="1062,634 904,634 904,670 1062,670 1062,634" stroke="#90c4e4" fill="none"/>
 <text x="912" y="654" fill="#000000" font-family="Arial" font-size="12">comapre_two_string</text>
 <polyline points="791,611 800,613 809,615 819,617 829,619 840,621 850,624 861,626 872,628 883,631 894,633" stroke="#4e8cb9" fill="none"/>
 <polygon points="895,629 904,635 893,636 895,629" stroke="#4e8cb9" fill="#4e8cb9"/>
 <polygon points="1079,434 887,434 887,470 1079,470 1079,434" stroke="#90c4e4" fill="none"/>
 <text x="895" y="454" fill="#000000" font-family="Arial" font-size="12">Inc_Dec_seven_segment</text>
 <polyline points="763,584 769,575 776,565 784,554 793,543 803,531 814,520 826,508 838,498 851,488 864,479 865,478 867,478 868,477 869,476 871,476 872,475 873,474 874,473 876,473 877,472" stroke="#4e8cb9" fill="none"/>
 <polygon points="876,469 887,468 879,475 876,469" stroke="#4e8cb9" fill="#4e8cb9"/>
 <polygon points="1022,304 943,304 943,340 1022,340 1022,304" stroke="#90c4e4" fill="none"/>
 <text x="952" y="324" fill="#000000" font-family="Arial" font-size="12">Run_Led</text>
 <polyline points="761,584 767,573 774,559 782,545 792,529 802,512 813,494 825,476 838,459 851,441 864,425 872,416 880,407 889,399 898,390 907,382 916,374 925,367 933,360 941,353 949,347" stroke="#4e8cb9" fill="none"/>
 <polygon points="947,344 957,340 951,349 947,344" stroke="#4e8cb9" fill="#4e8cb9"/>
 <polygon points="1056,542 909,542 909,578 1056,578 1056,542" stroke="#90c4e4" fill="none"/>
 <text x="918" y="562" fill="#000000" font-family="Arial" font-size="12">Send_to_controller</text>
 <polyline points="791,595 800,593 810,591 821,589 831,587 842,585 854,583 865,581 876,579 888,577 899,575" stroke="#4e8cb9" fill="none"/>
 <polygon points="898,572 909,573 899,579 898,572" stroke="#4e8cb9" fill="#4e8cb9"/>
 <polyline points="1053,807 1058,806 1063,804 1068,803 1073,801 1078,799 1083,797 1088,795 1092,793 1097,790 1101,787 1107,782 1112,777 1116,772 1119,767 1121,762 1123,756 1125,751 1128,745 1132,739 1137,733 1142,728 1148,722 1153,717 1159,712 1165,707 1170,702 1176,698 1182,693 1188,689 1193,685" stroke="#4e8cb9" fill="none"/>
 <polygon points="1191,682 1202,679 1195,687 1191,682" stroke="#4e8cb9" fill="#4e8cb9"/>
 <polygon points="1298,742 1164,742 1164,778 1298,778 1298,742" stroke="#90c4e4" fill="none"/>
 <text x="1172" y="762" fill="#000000" font-family="Arial" font-size="12">Send_Char_Uart</text>
 <polyline points="1053,799 1062,797 1072,795 1082,792 1093,790 1103,788 1114,786 1124,784 1134,781 1144,779 1154,777" stroke="#4e8cb9" fill="none"/>
 <polygon points="1153,773 1163,775 1154,780 1153,773" stroke="#4e8cb9" fill="#4e8cb9"/>
 <polyline points="1089,850 1090,849 1091,848 1093,847 1094,846 1095,846 1097,845 1098,844 1099,843 1100,842 1101,841 1110,831 1117,821 1120,810 1122,800 1122,790 1123,779 1124,768 1126,757 1130,745 1137,733 1141,727 1146,721 1151,716 1157,711 1162,706 1168,701 1173,696 1179,692 1185,688 1190,684" stroke="#4e8cb9" fill="none"/>
 <polygon points="1189,680 1199,678 1192,686 1189,680" stroke="#4e8cb9" fill="#4e8cb9"/>
 <polygon points="1313,850 1149,850 1149,886 1313,886 1313,850" stroke="#90c4e4" fill="none"/>
 <text x="1157" y="870" fill="#000000" font-family="Arial" font-size="12">Jump_to_coordinator</text>
 <polyline points="1096,868 1100,868 1104,868 1109,868 1113,868 1117,868 1121,868 1125,868 1130,868 1134,868 1138,868" stroke="#4e8cb9" fill="none"/>
 <polygon points="1138,864 1148,868 1138,871 1138,864" stroke="#4e8cb9" fill="#4e8cb9"/>
 <polygon points="1296,796 1165,796 1165,832 1296,832 1296,796" stroke="#90c4e4" fill="none"/>
 <text x="1174" y="816" fill="#000000" font-family="Arial" font-size="12">Write_Character</text>
 <polyline points="1066,850 1075,848 1084,846 1093,844 1102,842 1111,840 1120,838 1129,836 1138,834 1146,832 1155,830" stroke="#4e8cb9" fill="none"/>
 <polygon points="1155,827 1165,828 1156,834 1155,827" stroke="#4e8cb9" fill="#4e8cb9"/>
 <polyline points="1086,488 1088,487 1089,486 1091,485 1092,484 1094,484 1095,483 1097,482 1098,481 1100,480 1101,479 1107,474 1112,469 1116,464 1119,459 1121,454 1123,449 1126,443 1129,438 1132,431 1137,425 1143,417 1150,410 1157,402 1164,395 1170,388 1177,381 1184,374 1190,367 1197,361 1203,355" stroke="#4e8cb9" fill="none"/>
 <polygon points="1200,353 1210,348 1205,358 1200,353" stroke="#4e8cb9" fill="#4e8cb9"/>
 <polygon points="1299,542 1163,542 1163,578 1299,578 1299,542" stroke="#90c4e4" fill="none"/>
 <text x="1171" y="562" fill="#000000" font-family="Arial" font-size="12">SPI_Tx_Rx_Char</text>
 <polyline points="1066,524 1074,526 1083,528 1092,530 1101,532 1110,534 1118,535 1127,537 1136,539 1145,541 1153,543" stroke="#4e8cb9" fill="none"/>
 <polygon points="1154,540 1163,545 1152,547 1154,540" stroke="#4e8cb9" fill="#4e8cb9"/>
 <polyline points="1089,506 1099,506 1110,506 1120,506 1130,506 1140,506 1150,506 1159,506 1168,506 1177,506 1185,506" stroke="#4e8cb9" fill="none"/>
 <polygon points="1186,502 1196,506 1186,509 1186,502" stroke="#4e8cb9" fill="#4e8cb9"/>
 <polygon points="1324,434 1137,434 1137,470 1324,470 1324,434" stroke="#90c4e4" fill="none"/>
 <text x="1146" y="454" fill="#000000" font-family="Arial" font-size="12">Display_seven_segment</text>
 <polyline points="1079,452 1084,452 1088,452 1093,452 1098,452 1103,452 1108,452 1112,452 1117,452 1122,452 1127,452" stroke="#4e8cb9" fill="none"/>
 <polygon points="1127,448 1137,452 1127,455 1127,448" stroke="#4e8cb9" fill="#4e8cb9"/>
 <polyline points="1022,323 1035,324 1050,324 1065,325 1081,325 1098,326 1115,326 1131,327 1147,327 1163,328 1177,328" stroke="#4e8cb9" fill="none"/>
 <polygon points="1177,325 1187,329 1177,332 1177,325" stroke="#4e8cb9" fill="#4e8cb9"/>
 <polyline points="1022,323 1030,324 1038,325 1047,327 1055,329 1063,332 1072,335 1080,339 1087,343 1094,348 1101,354 1111,366 1117,379 1119,391 1120,404 1119,417 1118,429 1119,442 1121,454 1127,467 1137,479 1141,483 1145,486 1150,489 1155,492 1160,494 1165,496 1170,498 1176,500 1181,501 1186,502" stroke="#4e8cb9" fill="none"/>
 <polygon points="1187,499 1196,504 1185,506 1187,499" stroke="#4e8cb9" fill="#4e8cb9"/>
 <polyline points="1056,555 1061,554 1066,552 1071,551 1076,549 1080,547 1085,544 1089,542 1093,539 1097,536 1101,533 1111,523 1117,513 1121,503 1123,493 1124,482 1124,472 1125,461 1127,449 1131,438 1137,425 1142,417 1148,409 1154,401 1160,394 1167,386 1173,379 1180,373 1187,366 1193,360 1199,355" stroke="#4e8cb9" fill="none"/>
 <polygon points="1197,352 1207,348 1202,357 1197,352" stroke="#4e8cb9" fill="#4e8cb9"/>
 <polyline points="1056,560 1065,560 1075,560 1084,560 1094,560 1104,560 1113,560 1123,560 1133,560 1143,560 1152,560" stroke="#4e8cb9" fill="none"/>
 <polygon points="1152,556 1162,560 1152,563 1152,556" stroke="#4e8cb9" fill="#4e8cb9"/>
 <polyline points="1056,544 1069,541 1082,538 1096,535 1109,533 1123,530 1137,527 1150,524 1162,521 1174,518 1185,516" stroke="#4e8cb9" fill="none"/>
 <polygon points="1185,512 1196,513 1187,519 1185,512" stroke="#4e8cb9" fill="#4e8cb9"/>
 <polyline points="753,1151 756,1168 760,1189 765,1214 772,1241 781,1270 792,1299 806,1327 822,1355 842,1381 864,1403 866,1404 867,1406 869,1407 870,1408 872,1409 874,1410 876,1412 878,1413 880,1414 882,1415" stroke="#4e8cb9" fill="none"/>
 <polygon points="884,1412 891,1419 881,1418 884,1412" stroke="#4e8cb9" fill="#4e8cb9"/>
 <polygon points="1070,1304 896,1304 896,1340 1070,1340 1070,1304" stroke="#90c4e4" fill="none"/>
 <text x="904" y="1324" fill="#000000" font-family="Arial" font-size="12">Error_CallBack_UART</text>
 <polyline points="759,1151 764,1162 770,1175 777,1190 786,1206 796,1222 807,1238 820,1254 833,1269 848,1283 864,1295 866,1296 868,1298 870,1299 872,1300 875,1301 877,1302 879,1304 881,1305 884,1306 886,1307" stroke="#4e8cb9" fill="none"/>
 <polygon points="887,1303 896,1310 885,1310 887,1303" stroke="#4e8cb9" fill="#4e8cb9"/>
 <polygon points="1072,1358 893,1358 893,1394 1072,1394 1072,1358" stroke="#90c4e4" fill="none"/>
 <text x="902" y="1378" fill="#000000" font-family="Arial" font-size="12">Parity_CallBack_UART</text>
 <polyline points="755,1151 759,1165 764,1183 771,1202 779,1224 789,1246 800,1269 813,1291 828,1312 845,1332 864,1349 866,1350 868,1352 869,1353 871,1354 873,1355 875,1356 877,1358 879,1359 881,1360 883,1361" stroke="#4e8cb9" fill="none"/>
 <polygon points="885,1358 893,1365 882,1364 885,1358" stroke="#4e8cb9" fill="#4e8cb9"/>
 <polygon points="1060,980 905,980 905,1016 1060,1016 1060,980" stroke="#90c4e4" fill="none"/>
 <text x="914" y="1000" fill="#000000" font-family="Arial" font-size="12">Tx_CallBack_UART</text>
 <polyline points="765,1115 771,1107 779,1098 787,1089 796,1079 806,1069 817,1059 828,1050 839,1041 852,1032 864,1025 867,1024 870,1022 873,1021 876,1019 880,1018 883,1016 886,1015 889,1014 892,1013 895,1012" stroke="#4e8cb9" fill="none"/>
 <polygon points="895,1009 905,1009 896,1015 895,1009" stroke="#4e8cb9" fill="#4e8cb9"/>
 <polygon points="1086,1034 879,1034 879,1070 1086,1070 1086,1034" stroke="#90c4e4" fill="none"/>
 <text x="888" y="1054" fill="#000000" font-family="Arial" font-size="12">Tx_Comp_CallBack_UART</text>
 <polyline points="784,1115 791,1111 798,1108 806,1104 814,1100 822,1096 830,1093 839,1089 847,1085 856,1082 864,1079 866,1078 868,1078 870,1077 872,1077 874,1076 876,1075 878,1075 880,1074 882,1074 884,1073" stroke="#4e8cb9" fill="none"/>
 <polygon points="883,1069 893,1070 885,1076 883,1069" stroke="#4e8cb9" fill="#4e8cb9"/>
 <polygon points="1061,742 904,742 904,778 1061,778 1061,742" stroke="#90c4e4" fill="none"/>
 <text x="913" y="762" fill="#000000" font-family="Arial" font-size="12">Rx_CallBack_UART</text>
 <polyline points="752,1115 753,1094 755,1067 758,1036 763,1001 771,963 782,925 796,887 814,850 837,817 864,787 867,785 870,782 872,780 875,778 878,777 881,775 884,773 888,772 891,770 894,769" stroke="#4e8cb9" fill="none"/>
 <polygon points="893,766 904,766 896,772 893,766" stroke="#4e8cb9" fill="#4e8cb9"/>
 <polygon points="1070,1088 896,1088 896,1124 1070,1124 1070,1088" stroke="#90c4e4" fill="none"/>
 <text x="904" y="1108" fill="#000000" font-family="Arial" font-size="12">IDLE_CallBack_UART</text>
 <polyline points="787,1129 795,1128 804,1127 814,1126 823,1125 833,1123 844,1122 854,1121 864,1119 875,1118 885,1117" stroke="#4e8cb9" fill="none"/>
 <polygon points="885,1114 896,1116 886,1121 885,1114" stroke="#4e8cb9" fill="#4e8cb9"/>
 <polygon points="1078,1142 887,1142 887,1178 1078,1178 1078,1142" stroke="#90c4e4" fill="none"/>
 <text x="896" y="1162" fill="#000000" font-family="Arial" font-size="12">Lin_BK_CallBack_UART</text>
 <polyline points="787,1137 794,1138 803,1139 811,1140 820,1141 829,1142 838,1143 848,1144 858,1146 867,1147 877,1148" stroke="#4e8cb9" fill="none"/>
 <polygon points="877,1144 887,1149 876,1151 877,1144" stroke="#4e8cb9" fill="#4e8cb9"/>
 <polygon points="1077,1196 889,1196 889,1232 1077,1232 1077,1196" stroke="#90c4e4" fill="none"/>
 <text x="897" y="1216" fill="#000000" font-family="Arial" font-size="12">FlowCt_CallBack_UART</text>
 <polyline points="784,1151 791,1155 798,1158 806,1162 814,1166 822,1170 830,1173 839,1177 847,1181 856,1184 864,1187 866,1188 868,1188 870,1189 872,1189 874,1190 876,1191 878,1191 880,1192 882,1192 884,1193" stroke="#4e8cb9" fill="none"/>
 <polygon points="885,1190 893,1196 883,1197 885,1190" stroke="#4e8cb9" fill="#4e8cb9"/>
 <polygon points="1048,104 917,104 917,140 1048,140 1048,104" stroke="#90c4e4" fill="none"/>
 <text x="926" y="124" fill="#000000" font-family="Arial" font-size="12">_Config_GPIO_f</text>
 <polyline points="755,1115 760,1093 766,1063 773,1027 781,985 789,940 797,891 806,839 814,787 821,735 828,683 830,655 831,609 831,550 832,483 834,411 836,339 840,273 846,216 854,173 864,149 867,145 871,142 875,139 879,136 884,134 888,131 893,129 897,128 902,126 907,125" stroke="#4e8cb9" fill="none"/>
 <polygon points="907,121 917,122 908,128 907,121" stroke="#4e8cb9" fill="#4e8cb9"/>
 <polygon points="1042,1250 923,1250 923,1286 1042,1286 1042,1250" stroke="#90c4e4" fill="none"/>
 <text x="932" y="1270" fill="#000000" font-family="Arial" font-size="12">Set_BaudRate</text>
 <polyline points="765,1151 771,1159 779,1168 787,1177 796,1187 806,1197 817,1207 828,1216 839,1225 852,1234 864,1241 869,1243 873,1246 878,1248 883,1250 888,1252 893,1253 898,1255 903,1256 908,1258 913,1259" stroke="#4e8cb9" fill="none"/>
 <polygon points="914,1255 923,1261 912,1262 914,1255" stroke="#4e8cb9" fill="#4e8cb9"/>
 <polyline points="1061,756 1065,755 1070,753 1074,752 1079,750 1083,748 1087,745 1091,743 1094,740 1098,736 1101,733 1112,714 1120,687 1124,656 1125,620 1125,583 1125,546 1125,509 1127,476 1130,447 1137,425 1142,417 1147,409 1152,401 1158,393 1164,386 1171,379 1177,372 1184,366 1190,360 1196,355" stroke="#4e8cb9" fill="none"/>
 <polygon points="1194,352 1204,348 1199,357 1194,352" stroke="#4e8cb9" fill="#4e8cb9"/>
 <polyline points="1061,766 1065,767 1070,769 1074,770 1078,772 1083,774 1086,776 1090,779 1094,781 1098,784 1101,787 1110,797 1116,808 1119,819 1120,830 1120,841 1120,852 1121,863 1123,874 1128,884 1137,895 1138,896 1139,896 1139,897 1140,897 1141,898 1142,899 1143,899 1143,900 1144,900 1145,901" stroke="#4e8cb9" fill="none"/>
 <polygon points="1147,898 1154,907 1143,904 1147,898" stroke="#4e8cb9" fill="#4e8cb9"/>
 <polyline points="1061,760 1070,760 1079,760 1089,760 1098,760 1107,760 1117,760 1126,760 1135,760 1144,760 1153,760" stroke="#4e8cb9" fill="none"/>
 <polygon points="1153,756 1163,760 1153,763 1153,756" stroke="#4e8cb9" fill="#4e8cb9"/>
 <polyline points="1061,754 1065,753 1070,751 1074,750 1078,748 1083,746 1086,744 1090,741 1094,739 1098,736 1101,733 1110,723 1116,714 1119,704 1121,695 1122,685 1123,675 1124,664 1126,654 1130,642 1137,631 1141,625 1146,620 1151,615 1156,610 1162,605 1167,600 1172,596 1178,592 1184,588 1189,584" stroke="#4e8cb9" fill="none"/>
 <polygon points="1187,581 1198,578 1191,586 1187,581" stroke="#4e8cb9" fill="#4e8cb9"/>
 <polyline points="1061,755 1065,754 1070,752 1074,751 1079,749 1083,747 1087,744 1091,742 1094,739 1098,736 1101,733 1116,713 1123,694 1125,674 1124,654 1120,634 1117,614 1115,593 1116,573 1123,553 1137,533 1141,529 1145,525 1150,522 1155,519 1160,517 1165,515 1170,513 1175,511 1181,510 1186,509" stroke="#4e8cb9" fill="none"/>
 <polygon points="1185,506 1196,507 1186,512 1185,506" stroke="#4e8cb9" fill="#4e8cb9"/>
 <polyline points="1048,110 1061,108 1074,105 1087,103 1101,100 1115,98 1128,95 1142,92 1155,90 1167,87 1179,85" stroke="#4e8cb9" fill="none"/>
 <polygon points="1179,82 1189,84 1180,89 1179,82" stroke="#4e8cb9" fill="#4e8cb9"/>
 <polygon points="1298,1277 1164,1277 1164,1313 1298,1313 1298,1277" stroke="#90c4e4" fill="none"/>
 <text x="1172" y="1297" fill="#000000" font-family="Arial" font-size="12">Get_APB2_Freq</text>
 <polyline points="1042,1274 1052,1275 1063,1277 1074,1278 1086,1279 1097,1281 1109,1282 1120,1283 1132,1284 1143,1286 1154,1287" stroke="#4e8cb9" fill="none"/>
 <polygon points="1154,1283 1164,1288 1153,1290 1154,1283" stroke="#4e8cb9" fill="#4e8cb9"/>
 <polygon points="1298,1223 1164,1223 1164,1259 1298,1259 1298,1223" stroke="#90c4e4" fill="none"/>
 <text x="1172" y="1243" fill="#000000" font-family="Arial" font-size="12">Get_APB1_Freq</text>
 <polyline points="1042,1262 1052,1261 1063,1259 1074,1258 1086,1257 1097,1256 1109,1254 1120,1253 1132,1252 1143,1250 1154,1249" stroke="#4e8cb9" fill="none"/>
 <polygon points="1153,1246 1164,1248 1154,1253 1153,1246" stroke="#4e8cb9" fill="#4e8cb9"/>
 <polyline points="753,674 754,692 757,714 761,740 768,768 776,798 787,828 801,857 819,884 839,908 864,928 893,944 923,955 955,962 988,966 1021,967 1054,965 1085,961 1115,956 1143,950 1168,943" stroke="#4e8cb9" fill="none"/>
 <polygon points="1167,939 1177,940 1169,946 1167,939" stroke="#4e8cb9" fill="#4e8cb9"/>
 <polyline points="762,674 768,683 775,694 783,706 792,718 802,731 813,743 824,755 837,767 850,778 864,787 868,789 871,791 875,793 879,795 883,796 886,798 890,799 894,800 898,802 902,803" stroke="#4e8cb9" fill="none"/>
 <polygon points="903,800 912,806 901,806 903,800" stroke="#4e8cb9" fill="#4e8cb9"/>
 <polyline points="757,674 762,687 767,701 775,718 783,736 793,755 804,774 817,793 831,811 847,827 864,841 865,841 865,842 866,842 866,843 867,843 868,843 868,844 869,844 869,845 870,845" stroke="#4e8cb9" fill="none"/>
 <polygon points="872,842 879,850 869,848 872,842" stroke="#4e8cb9" fill="#4e8cb9"/>
 <polyline points="791,665 799,667 808,668 818,670 827,672 837,674 848,677 858,679 868,681 879,684 889,686" stroke="#4e8cb9" fill="none"/>
 <polygon points="890,682 899,688 888,689 890,682" stroke="#4e8cb9" fill="#4e8cb9"/>
 <polyline points="791,649 795,648 799,646 803,645 807,643 811,641 814,639 818,637 822,635 825,632 828,629 836,619 841,610 844,600 845,590 846,580 846,571 847,561 850,551 856,542 864,533 864,533 865,532 865,532 866,532 866,532 866,531 867,531 867,531 868,530 868,530" stroke="#4e8cb9" fill="none"/>
 <polygon points="866,527 877,524 870,532 866,527" stroke="#4e8cb9" fill="#4e8cb9"/>
 <polyline points="791,655 800,655 809,655 819,655 829,655 839,655 850,654 861,654 872,654 882,654 893,654" stroke="#4e8cb9" fill="none"/>
 <polygon points="893,650 904,653 894,657 893,650" stroke="#4e8cb9" fill="#4e8cb9"/>
 <polyline points="791,650 795,649 799,647 803,646 807,644 811,642 815,640 818,638 822,635 825,632 828,629 839,614 845,598 847,583 846,568 845,553 843,538 843,523 846,508 852,493 864,479 865,478 867,477 868,476 869,475 871,474 872,473 873,472 874,471 876,470 877,469" stroke="#4e8cb9" fill="none"/>
 <polygon points="876,465 886,464 879,471 876,465" stroke="#4e8cb9" fill="#4e8cb9"/>
 <polyline points="791,643 795,642 798,640 802,639 806,638 810,636 813,635 817,633 821,632 824,630 828,629 839,625 850,620 861,615 872,610 883,606 894,601 905,596 915,591 925,586 934,582" stroke="#4e8cb9" fill="none"/>
 <polygon points="933,579 944,578 936,585 933,579" stroke="#4e8cb9" fill="#4e8cb9"/>
 <polyline points="759,1605 764,1594 770,1581 778,1566 786,1550 797,1534 808,1518 820,1502 834,1487 848,1473 864,1461 866,1460 868,1458 870,1457 872,1455 875,1454 877,1453 879,1452 881,1451 884,1450 886,1449" stroke="#4e8cb9" fill="none"/>
 <polygon points="885,1446 895,1446 887,1452 885,1446" stroke="#4e8cb9" fill="#4e8cb9"/>
 <polygon points="1061,1794 904,1794 904,1830 1061,1830 1061,1794" stroke="#90c4e4" fill="none"/>
 <text x="913" y="1814" fill="#000000" font-family="Arial" font-size="12">Tx_Empty_CallBack</text>
 <polyline points="759,1641 764,1652 770,1665 777,1680 786,1696 796,1712 807,1728 820,1744 833,1759 848,1773 864,1785 867,1787 870,1788 872,1790 875,1792 878,1793 881,1795 884,1796 888,1797 891,1799 894,1800" stroke="#4e8cb9" fill="none"/>
 <polygon points="895,1796 904,1803 893,1803 895,1796" stroke="#4e8cb9" fill="#4e8cb9"/>
 <polygon points="1064,1524 901,1524 901,1560 1064,1560 1064,1524" stroke="#90c4e4" fill="none"/>
 <text x="910" y="1544" fill="#000000" font-family="Arial" font-size="12">RX_Empty_CallBack</text>
 <polyline points="784,1605 791,1601 798,1598 806,1594 814,1590 822,1586 830,1583 839,1579 847,1575 856,1572 864,1569 867,1568 869,1567 872,1566 875,1565 878,1565 880,1564 883,1563 886,1562 888,1562 891,1561" stroke="#4e8cb9" fill="none"/>
 <polygon points="890,1557 901,1558 892,1564 890,1557" stroke="#4e8cb9" fill="#4e8cb9"/>
 <polygon points="1068,1578 898,1578 898,1614 1068,1614 1068,1578" stroke="#90c4e4" fill="none"/>
 <text x="906" y="1598" fill="#000000" font-family="Arial" font-size="12">Fault_Event_CallBack</text>
 <polyline points="785,1619 793,1618 803,1617 812,1616 822,1615 833,1613 843,1612 854,1611 865,1609 876,1608 887,1607" stroke="#4e8cb9" fill="none"/>
 <polygon points="887,1604 897,1606 888,1611 887,1604" stroke="#4e8cb9" fill="#4e8cb9"/>
 <polygon points="1054,1632 912,1632 912,1668 1054,1668 1054,1632" stroke="#90c4e4" fill="none"/>
 <text x="920" y="1652" fill="#000000" font-family="Arial" font-size="12">Overrun_CallBack</text>
 <polyline points="785,1627 795,1628 805,1630 816,1631 828,1632 840,1634 852,1635 865,1637 877,1638 889,1640 901,1641" stroke="#4e8cb9" fill="none"/>
 <polygon points="902,1637 911,1642 901,1644 902,1637" stroke="#4e8cb9" fill="#4e8cb9"/>
 <polygon points="1044,1686 921,1686 921,1722 1044,1722 1044,1686" stroke="#90c4e4" fill="none"/>
 <text x="930" y="1706" fill="#000000" font-family="Arial" font-size="12">CRC_CallBack</text>
 <polyline points="784,1641 791,1645 798,1648 806,1652 814,1656 822,1660 830,1663 839,1667 847,1671 856,1674 864,1677 869,1678 873,1680 878,1681 882,1683 887,1684 892,1686 897,1687 901,1688 906,1689 911,1690" stroke="#4e8cb9" fill="none"/>
 <polygon points="912,1687 921,1693 911,1694 912,1687" stroke="#4e8cb9" fill="#4e8cb9"/>
 <polygon points="1089,1740 877,1740 877,1776 1089,1776 1089,1740" stroke="#90c4e4" fill="none"/>
 <text x="885" y="1760" fill="#000000" font-family="Arial" font-size="12">Select_SPI_Pins_datasheet</text>
 <polyline points="765,1641 771,1649 779,1658 787,1667 796,1677 806,1687 817,1697 828,1706 839,1715 852,1724 864,1731 865,1732 866,1732 867,1733 868,1733 869,1734 870,1734 871,1734 872,1735 873,1735 874,1736" stroke="#4e8cb9" fill="none"/>
 <polygon points="876,1733 884,1740 873,1739 876,1733" stroke="#4e8cb9" fill="#4e8cb9"/>
 <polygon points="1299,1740 1163,1740 1163,1776 1299,1776 1299,1740" stroke="#90c4e4" fill="none"/>
 <text x="1171" y="1760" fill="#000000" font-family="Arial" font-size="12">Config_SPI_Pins</text>
 <polyline points="1089,1758 1095,1758 1102,1758 1108,1758 1115,1758 1121,1758 1127,1758 1134,1758 1140,1758 1147,1758 1153,1758" stroke="#4e8cb9" fill="none"/>
 <polygon points="1153,1754 1163,1758 1153,1761 1153,1754" stroke="#4e8cb9" fill="#4e8cb9"/>
 <polygon points="369,484 315,484 315,520 369,520 369,484" stroke="#90c4e4" fill="none"/>
 <text x="325" y="504" fill="#000000" font-family="Arial" font-size="12">main</text>
 <polyline points="369,502 371,502 374,502 376,502 379,502 381,502 384,502 386,502 389,502 391,502 394,502" stroke="#4e8cb9" fill="none"/>
 <polygon points="395,498 405,502 395,505 395,498" stroke="#4e8cb9" fill="#4e8cb9"/>
 <polygon points="279,484 168,484 168,520 279,520 279,484" stroke="#90c4e4" fill="none"/>
 <text x="177" y="504" fill="#000000" font-family="Arial" font-size="12">Rest_Handler</text>
 <polyline points="279,502 282,502 284,502 287,502 290,502 292,502 295,502 298,502 300,502 303,502 305,502" stroke="#4e8cb9" fill="none"/>
 <polygon points="305,498 315,502 305,505 305,498" stroke="#4e8cb9" fill="#4e8cb9"/>
 <polygon points="132,457 4,457 4,493 132,493 132,457" stroke="#90c4e4" fill="none"/>
 <text x="12" y="477" fill="#000000" font-family="Arial" font-size="12">Default_Handler</text>
 <polyline points="132,486 135,487 137,487 140,488 142,488 145,489 148,489 150,489 153,490 155,490 158,491" stroke="#4e8cb9" fill="none"/>
 <polygon points="158,487 168,492 157,494 158,487" stroke="#4e8cb9" fill="#4e8cb9"/>
 <polygon points="106,511 31,511 31,547 106,547 106,511" stroke="#90c4e4" fill="none"/>
 <text x="39" y="531" fill="#000000" font-family="Arial" font-size="12">startup.c</text>
 <polyline points="106,523 111,522 115,521 120,520 126,519 131,518 136,517 141,516 147,515 152,514 157,513" stroke="#4e8cb9" fill="none"/>
 <polygon points="157,510 168,512 158,517 157,510" stroke="#4e8cb9" fill="#4e8cb9"/>
</svg>
