<?xml version="1.0"?>
<svg width="1166" height="2907" xmlns="http://www.w3.org/2000/svg" version="1.1">
 <polygon points="4,2903 4,4 1163,4 1163,2903 4,2903" stroke="#fffffe00" fill="none"/>
 <polygon points="103,2288 4,2288 4,2324 103,2324 103,2288" stroke="#0000ff" fill="none"/>
 <text x="13" y="2307" fill="#000000" font-family="Arial" font-size="12">Infinite_loop</text>
 <polygon points="425,525 261,525 261,561 425,561 425,525" stroke="#0000ff" fill="none"/>
 <text x="269" y="544" fill="#000000" font-family="Arial" font-size="12">Check_Prass_Button</text>
 <polyline points="55,2287 56,2201 58,2058 61,1873 66,1660 72,1436 78,1214 87,1011 97,841 108,719 121,661 131,647 143,633 155,621 169,610 184,600 199,591 214,583 230,576 245,569 260,564" stroke="#696969" fill="none"/>
 <polygon points="259,561 270,561 261,567 259,561" stroke="#696969" fill="#696969"/>
 <polygon points="1066,2142 962,2142 962,2178 1066,2178 1066,2142" stroke="#0000ff" fill="none"/>
 <text x="970" y="2161" fill="#000000" font-family="Arial" font-size="12">Clear_Buffer</text>
 <polyline points="62,2287 66,2280 70,2273 74,2265 79,2257 85,2249 91,2241 98,2233 105,2226 113,2219 121,2213 130,2208 138,2204 146,2201 154,2200 161,2200 169,2199 177,2199 185,2199 195,2199 205,2198 276,2187 337,2176 392,2167 442,2159 490,2152 538,2145 588,2139 643,2133 706,2128 777,2123 786,2122 793,2121 800,2121 806,2120 813,2119 819,2119 825,2119 832,2120 839,2121 848,2123 850,2124 852,2125 854,2125 856,2127 857,2128 858,2129 860,2130 862,2131 864,2132 866,2133 874,2136 883,2138 891,2141 900,2143 909,2145 918,2147 927,2149 935,2150 944,2152 952,2153" stroke="#696969" fill="none"/>
 <polygon points="953,2150 962,2154 952,2156 953,2150" stroke="#696969" fill="#696969"/>
 <polygon points="1085,2196 944,2196 944,2232 1085,2232 1085,2196" stroke="#0000ff" fill="none"/>
 <text x="952" y="2215" fill="#000000" font-family="Arial" font-size="12">Send_String_Uart</text>
 <polyline points="66,2287 70,2282 74,2276 78,2270 83,2264 89,2259 94,2253 101,2247 107,2242 114,2237 121,2233 130,2228 139,2225 147,2223 154,2221 161,2220 169,2220 176,2220 185,2220 194,2220 205,2219 286,2212 369,2207 452,2204 534,2203 614,2202 691,2202 762,2204 827,2205 885,2207 933,2209" stroke="#696969" fill="none"/>
 <polygon points="934,2206 944,2210 933,2213 934,2206" stroke="#696969" fill="#696969"/>
 <polygon points="700,37 621,37 621,73 700,73 700,37" stroke="#0000ff" fill="none"/>
 <text x="630" y="56" fill="#000000" font-family="Arial" font-size="12">Run_Led</text>
 <polyline points="55,2288 55,2209 56,2078 58,1906 62,1705 66,1487 73,1263 81,1045 92,843 105,671 121,538 126,500 129,466 132,435 134,407 138,380 143,354 152,329 164,303 182,276 205,247 241,212 281,181 324,155 369,132 414,113 460,97 503,84 544,74 580,67 611,61" stroke="#696969" fill="none"/>
 <polygon points="611,58 621,60 612,65 611,58" stroke="#696969" fill="#696969"/>
 <polygon points="456,256 229,256 229,292 456,292 456,256" stroke="#0000ff" fill="none"/>
 <text x="238" y="275" fill="#000000" font-family="Arial" font-size="12">Write_String_with_coordinator</text>
 <polyline points="55,2288 56,2204 57,2065 60,1883 63,1674 69,1451 75,1228 84,1019 94,838 106,700 121,617 135,577 153,538 173,500 195,464 217,429 240,397 262,367 283,341 302,318 318,300" stroke="#696969" fill="none"/>
 <polygon points="316,297 325,292 321,302 316,297" stroke="#696969" fill="#696969"/>
 <ellipse cx="1014" cy="734" rx="108" ry="18" stroke="#000000" fill="#fffffe00"/>
 <text x="946" y="735" fill="#000000" font-family="Arial" font-size="12">Key_Buffer_counter</text>
 <polyline points="55,2287 58,2233 63,2149 71,2042 81,1920 94,1789 110,1656 129,1528 151,1412 176,1314 205,1241 252,1153 297,1076 339,1008 383,948 430,895 481,848 539,805 607,765 685,727 777,690 785,687 793,685 799,684 806,683 812,683 818,684 824,685 831,687 839,688 848,690 850,690 852,691 854,691 855,692 857,693 859,694 860,694 862,695 864,696 866,697 873,699 880,701 887,703 895,705 902,707 909,709 917,711 924,713 931,715 938,717" stroke="#006400" fill="none"/>
 <text x="510" y="794" fill="#000000" font-family="Arial" font-size="12">Set</text>
 <polygon points="939,713 948,719 937,720 939,713" stroke="#006400" fill="#006400"/>
 <ellipse cx="1014" cy="845" rx="78" ry="18" stroke="#000000" fill="#fffffe00"/>
 <text x="967" y="846" fill="#000000" font-family="Arial" font-size="12">Admin_mode</text>
 <polyline points="55,2288 56,2252 58,2199 63,2133 70,2055 80,1969 95,1877 114,1781 138,1684 168,1588 205,1497 251,1396 292,1305 331,1224 372,1151 416,1085 465,1026 524,972 594,922 677,876 777,832 795,826 813,822 831,819 850,817 869,817 888,818 906,820 923,822 940,825 955,828" stroke="#006400" fill="none"/>
 <text x="510" y="949" fill="#000000" font-family="Arial" font-size="12">Set</text>
 <polygon points="956,825 965,830 954,832 956,825" stroke="#006400" fill="#006400"/>
 <ellipse cx="1014" cy="2268" rx="65" ry="18" stroke="#000000" fill="#fffffe00"/>
 <text x="976" y="2269" fill="#000000" font-family="Arial" font-size="12">LCD_state</text>
 <polyline points="71,2287 75,2283 79,2280 84,2276 89,2272 94,2268 99,2265 104,2262 110,2259 115,2256 121,2254 174,2241 239,2233 314,2229 396,2229 481,2231 566,2236 648,2241 725,2247 792,2252 848,2255 857,2255 867,2256 876,2256 886,2257 896,2258 905,2258 915,2259 924,2260 933,2260 942,2261" stroke="#006400" fill="none"/>
 <text x="510" y="2225" fill="#000000" font-family="Arial" font-size="12">Set</text>
 <polygon points="942,2258 952,2262 942,2265 942,2258" stroke="#006400" fill="#006400"/>
 <polyline points="103,2296 105,2296 107,2295 108,2295 110,2295 112,2295 114,2294 116,2294 117,2294 119,2294 121,2294 213,2285 307,2279 402,2273 495,2270 586,2267 672,2266 752,2265 824,2265 887,2265 939,2266" stroke="#0000ff" fill="none"/>
 <text x="508" y="2261" fill="#000000" font-family="Arial" font-size="12">Use</text>
 <polygon points="939,2263 949,2266 939,2270 939,2263" stroke="#0000ff" fill="#0000ff"/>
 <ellipse cx="343" cy="2390" rx="90" ry="18" stroke="#000000" fill="#fffffe00"/>
 <text x="288" y="2391" fill="#000000" font-family="Arial" font-size="12">key_pad_config</text>
 <polyline points="66,2324 70,2329 74,2335 79,2340 84,2346 89,2352 95,2357 101,2363 107,2368 114,2372 121,2376 134,2381 146,2386 160,2389 173,2392 187,2395 200,2396 214,2398 227,2398 240,2399 253,2399" stroke="#0000ff" fill="none"/>
 <text x="121" y="2368" fill="#000000" font-family="Arial" font-size="12">Addr Use</text>
 <polygon points="253,2395 264,2398 254,2402 253,2395" stroke="#0000ff" fill="#0000ff"/>
 <ellipse cx="1014" cy="2323" rx="50" ry="18" stroke="#000000" fill="#fffffe00"/>
 <text x="987" y="2324" fill="#000000" font-family="Arial" font-size="12">Timeout</text>
 <polyline points="103,2306 161,2307 236,2308 325,2310 421,2312 523,2314 625,2316 723,2317 813,2319 892,2321 954,2322" stroke="#0000ff" fill="none"/>
 <text x="508" y="2306" fill="#000000" font-family="Arial" font-size="12">Use</text>
 <polygon points="954,2318 964,2322 954,2325 954,2318" stroke="#0000ff" fill="#0000ff"/>
 <polyline points="103,2311 105,2311 107,2311 108,2312 110,2312 112,2312 114,2312 116,2312 117,2313 119,2313 121,2313 173,2317 219,2321 260,2325 297,2329 333,2331 368,2334 406,2336 446,2337 492,2337 545,2337 590,2336 635,2335 681,2334 727,2332 771,2331 814,2330 854,2328 891,2327 925,2326 954,2325" stroke="#dc143c" fill="none"/>
 <text x="499" y="2329" fill="#000000" font-family="Arial" font-size="12">Modify</text>
 <polygon points="954,2321 964,2325 954,2328 954,2321" stroke="#dc143c" fill="#dc143c"/>
 <ellipse cx="1014" cy="2106" rx="72" ry="18" stroke="#000000" fill="#fffffe00"/>
 <text x="971" y="2107" fill="#000000" font-family="Arial" font-size="12">uart1_config</text>
 <polyline points="61,2287 64,2279 68,2270 72,2261 77,2251 83,2240 89,2230 96,2220 104,2210 112,2201 121,2193 130,2186 138,2181 145,2177 153,2173 160,2171 168,2169 176,2168 184,2166 194,2164 205,2162 285,2145 366,2131 449,2121 531,2113 611,2107 688,2104 760,2102 826,2101 884,2101 933,2102" stroke="#0000ff" fill="none"/>
 <text x="508" y="2105" fill="#000000" font-family="Arial" font-size="12">Use</text>
 <polygon points="933,2099 943,2103 933,2106 933,2099" stroke="#0000ff" fill="#0000ff"/>
 <ellipse cx="343" cy="2445" rx="138" ry="18" stroke="#000000" fill="#fffffe00"/>
 <text x="254" y="2446" fill="#000000" font-family="Arial" font-size="12">_Display_Timeout_Admin</text>
 <polyline points="60,2324 63,2332 66,2341 70,2351 75,2361 81,2372 87,2382 94,2392 102,2401 111,2410 121,2417 128,2421 135,2425 142,2428 149,2431 157,2434 164,2437 172,2439 180,2442 188,2443 196,2445" stroke="#0000ff" fill="none"/>
 <text x="140" y="2409" fill="#000000" font-family="Arial" font-size="12">Use</text>
 <polygon points="197,2441 206,2447 195,2448 197,2441" stroke="#0000ff" fill="#0000ff"/>
 <ellipse cx="1014" cy="900" rx="66" ry="18" stroke="#000000" fill="#fffffe00"/>
 <text x="976" y="901" fill="#000000" font-family="Arial" font-size="12">Key_Buffer</text>
 <polyline points="58,2287 71,2227 93,2131 128,2006 174,1860 235,1700 309,1533 400,1367 507,1207 633,1062 777,939 786,934 798,929 812,924 828,920 846,917 864,914 883,911 903,909 922,907 940,905" stroke="#0000ff" fill="none"/>
 <text x="508" y="1163" fill="#000000" font-family="Arial" font-size="12">Use</text>
 <polygon points="940,901 950,904 940,908 940,901" stroke="#0000ff" fill="#0000ff"/>
 <ellipse cx="343" cy="2500" rx="63" ry="18" stroke="#000000" fill="#fffffe00"/>
 <text x="307" y="2501" fill="#000000" font-family="Arial" font-size="12">Max_Grag</text>
 <polyline points="56,2324 58,2335 60,2348 64,2362 68,2378 74,2393 80,2409 88,2425 97,2440 108,2453 121,2465 134,2474 149,2482 164,2488 179,2493 195,2497 211,2500 227,2503 243,2504 258,2505 273,2505" stroke="#0000ff" fill="none"/>
 <text x="140" y="2457" fill="#000000" font-family="Arial" font-size="12">Use</text>
 <polygon points="273,2502 283,2505 273,2509 273,2502" stroke="#0000ff" fill="#0000ff"/>
 <ellipse cx="343" cy="2555" rx="66" ry="18" stroke="#000000" fill="#fffffe00"/>
 <text x="305" y="2556" fill="#000000" font-family="Arial" font-size="12">Lcd_config</text>
 <polyline points="54,2324 55,2338 56,2355 58,2374 61,2395 66,2417 73,2439 81,2461 92,2482 105,2501 121,2518 134,2528 147,2536 162,2543 177,2548 193,2553 208,2556 224,2558 240,2560 255,2561 270,2561" stroke="#0000ff" fill="none"/>
 <text x="121" y="2510" fill="#000000" font-family="Arial" font-size="12">Addr Use</text>
 <polygon points="270,2557 280,2561 270,2564 270,2557" stroke="#0000ff" fill="#0000ff"/>
 <ellipse cx="343" cy="2610" rx="101" ry="18" stroke="#000000" fill="#fffffe00"/>
 <text x="280" y="2611" fill="#000000" font-family="Arial" font-size="12">_Display_Welcom</text>
 <polyline points="56,2324 59,2343 62,2367 66,2395 71,2425 77,2456 84,2486 92,2514 101,2539 110,2559 121,2573 131,2581 141,2588 152,2594 164,2599 176,2604 188,2607 201,2610 213,2613 226,2615 238,2616" stroke="#0000ff" fill="none"/>
 <text x="140" y="2565" fill="#000000" font-family="Arial" font-size="12">Use</text>
 <polygon points="238,2612 248,2616 238,2619 238,2612" stroke="#0000ff" fill="#0000ff"/>
 <ellipse cx="343" cy="2665" rx="108" ry="18" stroke="#000000" fill="#fffffe00"/>
 <text x="275" y="2666" fill="#000000" font-family="Arial" font-size="12">_Display_Put_Card</text>
 <polyline points="56,2324 58,2346 60,2375 63,2409 68,2445 73,2483 80,2521 88,2556 97,2587 108,2612 121,2629 130,2637 140,2644 151,2650 162,2655 174,2659 186,2663 198,2666 210,2668 222,2670 234,2671" stroke="#0000ff" fill="none"/>
 <text x="140" y="2621" fill="#000000" font-family="Arial" font-size="12">Use</text>
 <polygon points="234,2668 244,2672 234,2675 234,2668" stroke="#0000ff" fill="#0000ff"/>
 <ellipse cx="343" cy="2720" rx="122" ry="18" stroke="#000000" fill="#fffffe00"/>
 <text x="265" y="2721" fill="#000000" font-family="Arial" font-size="12">_Display_There_is_an</text>
 <polyline points="55,2324 56,2349 58,2383 60,2422 64,2465 69,2511 76,2555 84,2597 94,2634 107,2664 121,2685 129,2692 138,2699 147,2705 157,2710 167,2714 178,2717 188,2720 199,2723 210,2725 221,2726" stroke="#0000ff" fill="none"/>
 <text x="140" y="2677" fill="#000000" font-family="Arial" font-size="12">Use</text>
 <polygon points="222,2723 231,2727 221,2730 222,2723" stroke="#0000ff" fill="#0000ff"/>
 <ellipse cx="343" cy="2775" rx="136" ry="18" stroke="#000000" fill="#fffffe00"/>
 <text x="255" y="2776" fill="#000000" font-family="Arial" font-size="12">_Display_Empty_Garage</text>
 <polyline points="55,2324 55,2352 56,2390 58,2436 61,2486 66,2538 72,2590 80,2639 91,2683 105,2718 121,2742 128,2749 136,2755 145,2760 154,2765 163,2769 172,2772 182,2776 191,2778 201,2780 211,2782" stroke="#0000ff" fill="none"/>
 <text x="140" y="2734" fill="#000000" font-family="Arial" font-size="12">Use</text>
 <polygon points="212,2778 221,2783 211,2785 212,2778" stroke="#0000ff" fill="#0000ff"/>
 <ellipse cx="343" cy="2830" rx="87" ry="18" stroke="#000000" fill="#fffffe00"/>
 <text x="290" y="2831" fill="#000000" font-family="Arial" font-size="12">_Display_Sorry</text>
 <polyline points="54,2324 54,2355 54,2398 55,2449 58,2506 62,2566 68,2625 76,2680 88,2730 103,2770 121,2798 132,2808 144,2816 158,2823 172,2828 186,2833 201,2836 216,2838 231,2839 246,2840 260,2840" stroke="#0000ff" fill="none"/>
 <text x="140" y="2790" fill="#000000" font-family="Arial" font-size="12">Use</text>
 <polygon points="260,2836 270,2840 260,2843 260,2836" stroke="#0000ff" fill="#0000ff"/>
 <ellipse cx="343" cy="2885" rx="122" ry="18" stroke="#000000" fill="#fffffe00"/>
 <text x="265" y="2886" fill="#000000" font-family="Arial" font-size="12">_Display_There_is_no</text>
 <polyline points="55,2324 57,2360 60,2410 64,2471 69,2538 76,2608 83,2677 91,2739 100,2793 110,2832 121,2854 130,2862 140,2869 151,2875 162,2881 174,2885 186,2888 198,2891 210,2893 223,2894 235,2895" stroke="#0000ff" fill="none"/>
 <text x="140" y="2846" fill="#000000" font-family="Arial" font-size="12">Use</text>
 <polygon points="235,2892 245,2896 235,2899 235,2892" stroke="#0000ff" fill="#0000ff"/>
 <polygon points="742,352 579,352 579,388 742,388 742,352" stroke="#0000ff" fill="none"/>
 <text x="588" y="371" fill="#000000" font-family="Arial" font-size="12">Set_Key_Drain_Pins</text>
 <polyline points="377,525 396,514 418,502 442,489 468,475 495,460 522,445 548,431 573,417 597,404 617,393" stroke="#696969" fill="none"/>
 <polygon points="616,390 626,388 619,396 616,390" stroke="#696969" fill="#696969"/>
 <polygon points="1058,166 971,166 971,202 1058,202 1058,166" stroke="#0000ff" fill="none"/>
 <text x="979" y="185" fill="#000000" font-family="Arial" font-size="12">Reset_pin</text>
 <polyline points="351,524 359,505 371,481 385,454 402,423 422,391 445,359 470,327 499,297 529,270 563,247 603,226 645,210 688,197 732,188 776,182 819,178 860,176 898,176 932,176 961,178" stroke="#696969" fill="none"/>
 <polygon points="961,175 971,179 960,182 961,175" stroke="#696969" fill="#696969"/>
 <polygon points="759,548 563,548 563,584 759,584 759,548" stroke="#0000ff" fill="none"/>
 <text x="571" y="567" fill="#000000" font-family="Arial" font-size="12">Check_Key_Soruce_Pins</text>
 <polyline points="425,549 437,550 449,550 462,551 475,552 488,553 501,554 514,555 527,556 540,557 552,558" stroke="#696969" fill="none"/>
 <polygon points="553,554 563,559 552,561 553,554" stroke="#696969" fill="#696969"/>
 <polygon points="1056,517 972,517 972,553 1056,553 1056,517" stroke="#0000ff" fill="none"/>
 <text x="980" y="536" fill="#000000" font-family="Arial" font-size="12">Read_pin</text>
 <polyline points="425,541 438,541 451,540 464,540 478,540 492,540 506,539 521,539 535,539 549,539 563,539 607,538 652,538 697,537 741,537 785,536 827,536 866,535 902,535 934,535 962,535" stroke="#696969" fill="none"/>
 <polygon points="962,531 972,535 962,538 962,531" stroke="#696969" fill="#696969"/>
 <polygon points="737,1371 584,1371 584,1407 737,1407 737,1371" stroke="#0000ff" fill="none"/>
 <text x="593" y="1390" fill="#000000" font-family="Arial" font-size="12">Reaction_Of_Prass</text>
 <polyline points="377,561 395,571 416,582 437,594 459,607 481,619 501,630 518,640 532,648 541,653 545,656 568,701 588,763 605,837 619,920 631,1007 640,1094 647,1177 653,1252 657,1314 659,1360" stroke="#696969" fill="none"/>
 <polygon points="662,1360 659,1371 655,1361 662,1360" stroke="#696969" fill="#696969"/>
 <ellipse cx="1014" cy="597" rx="93" ry="18" stroke="#000000" fill="#fffffe00"/>
 <text x="956" y="598" fill="#000000" font-family="Arial" font-size="12">pad_Soruce_pin</text>
 <polyline points="388,561 402,566 417,571 433,577 451,583 469,588 487,594 506,599 525,603 544,608 563,611 601,616 641,619 680,621 720,621 759,621 796,619 833,617 867,614 899,611 928,608" stroke="#0000ff" fill="none"/>
 <text x="626" y="603" fill="#000000" font-family="Arial" font-size="12">Deref Use</text>
 <polygon points="928,605 938,607 928,612 928,605" stroke="#0000ff" fill="#0000ff"/>
 <ellipse cx="1014" cy="432" rx="107" ry="18" stroke="#000000" fill="#fffffe00"/>
 <text x="947" y="433" fill="#000000" font-family="Arial" font-size="12">Drain_Set_Counter</text>
 <polyline points="425,529 466,522 513,514 565,506 619,497 675,488 731,479 785,470 837,461 885,453 927,446" stroke="#0000ff" fill="none"/>
 <text x="647" y="467" fill="#000000" font-family="Arial" font-size="12">Use</text>
 <polygon points="926,442 937,444 927,449 926,442" stroke="#0000ff" fill="#0000ff"/>
 <polyline points="709,351 722,345 736,339 750,331 765,323 780,314 794,304 809,293 823,282 836,270 848,257 851,252 854,247 855,242 855,237 856,233 856,228 857,224 859,220 862,215 866,211 874,205 883,200 892,195 902,191 912,188 921,186 931,184 941,182 951,181 960,181" stroke="#696969" fill="none"/>
 <polygon points="960,178 971,181 961,185 960,178" stroke="#696969" fill="#696969"/>
 <polygon points="1049,58 979,58 979,94 1049,94 1049,58" stroke="#0000ff" fill="none"/>
 <text x="987" y="77" fill="#000000" font-family="Arial" font-size="12">Set_pin</text>
 <polyline points="699,351 705,347 711,344 718,339 724,335 731,330 737,325 743,319 749,313 754,307 759,301 763,294 766,287 768,280 769,274 770,268 770,262 771,256 772,249 774,242 777,234 785,216 792,199 798,185 804,171 810,159 818,147 826,136 837,125 850,114 866,103 875,97 885,93 896,88 906,85 917,82 928,80 939,78 949,76 959,75 969,75" stroke="#696969" fill="none"/>
 <polygon points="969,71 979,75 969,78 969,71" stroke="#696969" fill="#696969"/>
 <polyline points="706,388 712,390 719,393 726,395 733,397 740,400 748,402 755,404 762,406 770,408 777,410 789,412 801,414 813,416 826,418 839,420 851,422 864,423 876,424 888,426 900,427" stroke="#006400" fill="none"/>
 <text x="800" y="402" fill="#000000" font-family="Arial" font-size="12">Set</text>
 <polygon points="900,423 910,427 900,430 900,423" stroke="#006400" fill="#006400"/>
 <polyline points="682,388 689,394 697,400 705,406 714,412 724,419 734,425 744,430 755,436 766,440 777,444 793,448 810,451 826,453 843,454 860,454 877,454 893,453 909,452 924,450 939,448" stroke="#0000ff" fill="none"/>
 <text x="798" y="436" fill="#000000" font-family="Arial" font-size="12">Use</text>
 <polygon points="939,444 949,446 940,451 939,444" stroke="#0000ff" fill="#0000ff"/>
 <polyline points="743,377 753,378 763,379 773,381 784,382 795,383 806,385 816,386 827,388 838,390 848,392 858,394 868,395 878,397 888,400 899,402 909,404 919,407 928,409 938,412 947,414" stroke="#dc143c" fill="none"/>
 <text x="789" y="375" fill="#000000" font-family="Arial" font-size="12">Modify</text>
 <polygon points="948,410 957,416 946,417 948,410" stroke="#dc143c" fill="#dc143c"/>
 <ellipse cx="1014" cy="348" rx="85" ry="18" stroke="#000000" fill="#fffffe00"/>
 <text x="962" y="349" fill="#000000" font-family="Arial" font-size="12">pad_Drain_pin</text>
 <polyline points="742,355 746,354 749,354 753,353 756,353 760,353 763,352 767,352 770,352 774,351 777,351 791,350 806,348 820,348 835,347 850,346 864,346 879,346 893,346 907,346 920,346" stroke="#0000ff" fill="none"/>
 <text x="777" y="340" fill="#000000" font-family="Arial" font-size="12">Deref Use</text>
 <polygon points="920,342 930,346 920,349 920,342" stroke="#0000ff" fill="#0000ff"/>
 <polyline points="759,557 779,555 800,553 822,551 844,550 865,548 887,546 907,544 927,542 945,541 962,539" stroke="#696969" fill="none"/>
 <polygon points="962,536 972,538 963,543 962,536" stroke="#696969" fill="#696969"/>
 <polyline points="759,576 761,576 763,576 764,577 766,577 768,577 770,577 772,577 773,578 775,578 777,578 791,579 805,580 819,582 834,583 848,584 862,585 876,586 890,587 904,588 917,589" stroke="#0000ff" fill="none"/>
 <text x="777" y="570" fill="#000000" font-family="Arial" font-size="12">Deref Use</text>
 <polygon points="917,586 927,590 916,593 917,586" stroke="#0000ff" fill="#0000ff"/>
 <polyline points="663,1407 665,1444 669,1497 675,1561 682,1634 692,1711 703,1788 718,1862 735,1927 754,1982 777,2020 783,2026 790,2030 797,2033 805,2034 812,2034 820,2034 827,2035 834,2038 841,2042 848,2048 854,2057 857,2065 858,2074 857,2083 856,2091 855,2100 854,2108 856,2117 859,2125 866,2133 873,2139 881,2144 889,2149 897,2152 906,2156 915,2158 924,2160 934,2162 943,2162 952,2163" stroke="#696969" fill="none"/>
 <polygon points="952,2160 962,2164 952,2167 952,2160" stroke="#696969" fill="#696969"/>
 <polyline points="661,1407 661,1438 662,1482 664,1536 668,1600 675,1669 686,1744 701,1820 720,1898 746,1973 777,2045 783,2056 790,2065 797,2072 804,2078 811,2083 819,2088 826,2094 834,2101 841,2109 848,2120 852,2128 853,2135 854,2142 854,2149 854,2156 854,2162 855,2168 857,2175 860,2181 866,2187 872,2192 878,2196 884,2199 890,2203 897,2206 904,2208 911,2210 919,2212 926,2214 933,2215" stroke="#696969" fill="none"/>
 <polygon points="934,2211 943,2216 933,2218 934,2211" stroke="#696969" fill="#696969"/>
 <polygon points="1081,1926 947,1926 947,1962 1081,1962 1081,1926" stroke="#0000ff" fill="none"/>
 <text x="955" y="1945" fill="#000000" font-family="Arial" font-size="12">Send_Char_Uart</text>
 <polyline points="663,1407 667,1438 672,1481 679,1533 687,1591 698,1652 710,1712 724,1770 740,1820 757,1862 777,1891 785,1898 796,1904 810,1909 826,1914 843,1919 861,1923 880,1927 899,1930 919,1933 937,1936" stroke="#696969" fill="none"/>
 <polygon points="938,1932 947,1937 937,1939 938,1932" stroke="#696969" fill="#696969"/>
 <polygon points="1123,1980 905,1980 905,2016 1123,2016 1123,1980" stroke="#0000ff" fill="none"/>
 <text x="913" y="1999" fill="#000000" font-family="Arial" font-size="12">Convert_Buffer8_to_Variable</text>
 <polyline points="664,1407 667,1440 672,1485 679,1540 688,1601 698,1666 711,1730 725,1791 740,1846 758,1891 777,1924 783,1931 790,1936 796,1939 802,1942 809,1944 816,1945 823,1947 831,1949 839,1952 848,1957 850,1958 852,1960 854,1961 855,1963 857,1964 858,1965 860,1967 861,1968 864,1970 866,1971 869,1972 872,1973 874,1974 877,1975 880,1976 883,1977 886,1978 889,1979 892,1980 895,1981" stroke="#696969" fill="none"/>
 <polygon points="896,1978 905,1984 895,1985 896,1978" stroke="#696969" fill="#696969"/>
 <polygon points="1120,2034 909,2034 909,2070 1120,2070 1120,2034" stroke="#0000ff" fill="none"/>
 <text x="917" y="2053" fill="#000000" font-family="Arial" font-size="12">Convert_uint8_t_to_uint16_t</text>
 <polyline points="663,1407 666,1441 671,1489 677,1547 685,1612 695,1681 707,1749 722,1814 738,1872 756,1920 777,1954 784,1960 791,1965 798,1967 805,1968 812,1969 819,1969 826,1970 834,1972 841,1976 848,1982 852,1986 854,1991 855,1995 856,1999 857,2004 857,2008 858,2013 859,2017 862,2021 866,2025 869,2027 872,2029 875,2031 878,2033 882,2035 885,2037 888,2038 892,2040 895,2041 899,2043" stroke="#696969" fill="none"/>
 <polygon points="900,2039 908,2046 898,2046 900,2039" stroke="#696969" fill="#696969"/>
 <polygon points="1124,652 904,652 904,688 1124,688 1124,652" stroke="#0000ff" fill="none"/>
 <text x="912" y="671" fill="#000000" font-family="Arial" font-size="12">Write_Bytes_EEPROM_25xx</text>
 <polyline points="662,1370 663,1329 664,1270 668,1197 673,1115 681,1028 692,942 706,860 725,788 749,729 777,690 787,682 797,675 808,669 819,664 831,660 844,657 856,655 869,653 881,652 894,652" stroke="#696969" fill="none"/>
 <polygon points="894,648 904,652 894,655 894,648" stroke="#696969" fill="#696969"/>
 <polyline points="662,1371 663,1331 664,1274 668,1204 673,1126 681,1044 692,961 707,884 726,816 749,761 777,725 785,720 796,716 809,714 823,712 840,712 857,712 875,713 893,715 911,717 929,719" stroke="#006400" fill="none"/>
 <text x="800" y="704" fill="#000000" font-family="Arial" font-size="12">Set</text>
 <polygon points="930,715 939,720 929,722 930,715" stroke="#006400" fill="#006400"/>
 <polyline points="662,1370 664,1333 667,1280 671,1215 678,1142 687,1065 698,989 713,917 730,853 752,801 777,766 781,763 789,760 798,758 810,755 824,753 838,750 854,748 871,746 889,744 906,742" stroke="#0000ff" fill="none"/>
 <text x="798" y="743" fill="#000000" font-family="Arial" font-size="12">Use</text>
 <polygon points="906,739 916,741 906,746 906,739" stroke="#0000ff" fill="#0000ff"/>
 <polyline points="663,1370 666,1336 671,1289 678,1231 686,1167 696,1100 708,1032 722,968 738,911 757,863 777,830 786,822 798,813 813,805 830,796 848,788 868,780 889,772 909,765 929,758 948,752" stroke="#dc143c" fill="none"/>
 <text x="789" y="783" fill="#000000" font-family="Arial" font-size="12">Modify</text>
 <polygon points="948,749 958,749 950,756 948,749" stroke="#dc143c" fill="#dc143c"/>
 <polyline points="663,1371 666,1339 670,1294 676,1239 684,1179 693,1116 705,1054 720,995 736,943 755,901 777,873 785,867 795,863 807,859 822,855 838,852 855,850 872,848 890,847 908,846 926,845" stroke="#006400" fill="none"/>
 <text x="800" y="844" fill="#000000" font-family="Arial" font-size="12">Set</text>
 <polygon points="926,841 936,844 927,848 926,841" stroke="#006400" fill="#006400"/>
 <polyline points="662,1370 662,1346 663,1313 666,1274 671,1229 679,1181 690,1130 704,1078 723,1028 748,979 777,935 784,927 790,922 797,918 803,915 810,913 817,911 824,908 832,905 840,901 848,895 850,892 852,890 854,887 855,885 856,883 858,881 859,879 861,877 863,875 866,873 872,870 877,867 883,864 890,862 896,859 902,857 909,855 915,853 922,852 928,850" stroke="#0000ff" fill="none"/>
 <text x="798" y="887" fill="#000000" font-family="Arial" font-size="12">Use</text>
 <polygon points="928,847 938,849 929,854 928,847" stroke="#0000ff" fill="#0000ff"/>
 <polyline points="662,1407 663,1449 665,1512 669,1589 675,1677 683,1770 694,1863 709,1952 727,2031 750,2096 777,2142 783,2148 790,2151 797,2153 804,2153 812,2153 819,2153 826,2153 834,2155 841,2158 848,2164 854,2172 857,2179 858,2187 857,2195 856,2203 855,2210 855,2218 856,2226 860,2233 866,2241 872,2246 878,2251 885,2255 893,2258 900,2261 908,2264 916,2266 924,2268 932,2269 940,2270" stroke="#006400" fill="none"/>
 <text x="800" y="2134" fill="#000000" font-family="Arial" font-size="12">Set</text>
 <polygon points="941,2267 950,2271 940,2274 941,2267" stroke="#006400" fill="#006400"/>
 <polyline points="663,1407 666,1450 672,1514 679,1593 688,1684 699,1780 711,1878 725,1972 741,2058 758,2131 777,2186 784,2202 791,2216 797,2229 804,2240 811,2250 819,2259 828,2268 838,2277 851,2286 866,2295 874,2299 882,2303 891,2306 900,2309 909,2312 918,2314 927,2316 936,2318 945,2320 954,2321" stroke="#006400" fill="none"/>
 <text x="800" y="2178" fill="#000000" font-family="Arial" font-size="12">Set</text>
 <polygon points="954,2317 964,2322 953,2324 954,2317" stroke="#006400" fill="#006400"/>
 <polyline points="663,1407 665,1444 668,1496 674,1559 681,1631 690,1706 702,1781 716,1852 733,1916 754,1968 777,2004 784,2010 791,2013 798,2014 805,2014 812,2014 819,2013 826,2013 834,2014 841,2018 848,2023 853,2028 855,2034 856,2040 857,2045 857,2051 856,2057 857,2062 858,2068 861,2074 866,2079 872,2084 878,2088 884,2091 890,2095 897,2097 904,2100 911,2102 918,2104 925,2105 932,2106" stroke="#0000ff" fill="none"/>
 <text x="798" y="1996" fill="#000000" font-family="Arial" font-size="12">Use</text>
 <polygon points="933,2103 942,2107 932,2110 933,2103" stroke="#0000ff" fill="#0000ff"/>
 <polyline points="661,1370 661,1347 662,1316 665,1280 669,1238 677,1194 688,1148 703,1103 722,1058 747,1017 777,980 784,974 791,970 798,968 804,967 811,967 818,967 826,966 833,965 840,962 848,957 851,954 853,951 855,948 856,945 857,942 858,939 859,936 860,933 863,930 866,928 872,924 879,920 886,917 893,914 901,911 908,909 915,907 923,905 930,903 938,902" stroke="#006400" fill="none"/>
 <text x="779" y="949" fill="#000000" font-family="Arial" font-size="12">Deref Set</text>
 <polygon points="938,898 948,901 939,905 938,898" stroke="#006400" fill="#006400"/>
 <polyline points="662,1371 662,1349 664,1321 667,1288 673,1250 681,1211 692,1170 706,1129 725,1090 749,1053 777,1021 784,1016 791,1012 798,1011 805,1011 813,1012 820,1012 827,1012 834,1011 841,1008 848,1002 853,994 856,987 857,979 857,972 856,964 855,957 855,949 857,942 860,935 866,928 872,923 878,918 885,914 892,910 900,907 908,904 915,902 923,900 931,899 939,898" stroke="#0000ff" fill="none"/>
 <text x="798" y="994" fill="#000000" font-family="Arial" font-size="12">Use</text>
 <polygon points="939,894 949,897 940,901 939,894" stroke="#0000ff" fill="#0000ff"/>
 <ellipse cx="1014" cy="955" rx="74" ry="18" stroke="#000000" fill="#fffffe00"/>
 <text x="970" y="956" fill="#000000" font-family="Arial" font-size="12">Admin_state</text>
 <polyline points="663,1370 665,1351 668,1326 672,1296 679,1264 687,1229 699,1193 713,1157 731,1123 752,1091 777,1062 784,1056 791,1053 798,1051 805,1050 813,1050 820,1050 827,1050 834,1048 841,1045 848,1039 852,1033 855,1028 856,1022 856,1016 856,1010 856,1005 857,999 858,994 861,988 866,983 872,978 877,974 883,971 890,967 896,965 903,962 910,960 917,958 924,956 931,955" stroke="#006400" fill="none"/>
 <text x="800" y="1031" fill="#000000" font-family="Arial" font-size="12">Set</text>
 <polygon points="930,951 941,954 931,958 930,951" stroke="#006400" fill="#006400"/>
 <polyline points="664,1370 666,1352 670,1330 675,1304 682,1276 691,1246 702,1215 716,1184 733,1154 754,1127 777,1103 784,1098 791,1095 799,1094 806,1094 813,1094 820,1095 827,1095 834,1093 841,1090 848,1084 855,1074 859,1064 860,1053 859,1043 857,1033 855,1023 854,1013 855,1003 859,993 866,983 871,978 877,973 883,969 889,966 896,963 903,960 910,958 917,956 924,954 931,953" stroke="#0000ff" fill="none"/>
 <text x="798" y="1076" fill="#000000" font-family="Arial" font-size="12">Use</text>
 <polygon points="931,950 941,952 932,957 931,950" stroke="#0000ff" fill="#0000ff"/>
 <ellipse cx="1014" cy="1010" rx="82" ry="18" stroke="#000000" fill="#fffffe00"/>
 <text x="964" y="1011" fill="#000000" font-family="Arial" font-size="12">KeyPad_Keys</text>
 <polyline points="665,1371 668,1355 673,1336 680,1314 688,1290 697,1264 709,1238 723,1212 739,1187 757,1164 777,1144 784,1139 792,1135 799,1134 806,1133 814,1133 821,1133 828,1132 835,1130 841,1127 848,1121 854,1113 857,1104 858,1096 857,1087 856,1079 855,1070 855,1062 856,1054 860,1046 866,1038 871,1034 876,1030 881,1026 886,1023 892,1020 898,1018 904,1015 910,1013 916,1012 922,1010" stroke="#0000ff" fill="none"/>
 <text x="777" y="1113" fill="#000000" font-family="Arial" font-size="12">Deref Use</text>
 <polygon points="922,1007 932,1008 923,1014 922,1007" stroke="#0000ff" fill="#0000ff"/>
 <ellipse cx="1014" cy="1065" rx="143" ry="18" stroke="#000000" fill="#fffffe00"/>
 <text x="921" y="1066" fill="#000000" font-family="Arial" font-size="12">_Display_Try_Enter_Again</text>
 <polyline points="667,1370 671,1357 677,1341 684,1322 693,1303 703,1282 715,1261 728,1240 743,1220 759,1202 777,1185 784,1180 792,1177 799,1175 806,1175 813,1175 820,1174 827,1174 834,1172 841,1168 848,1162 853,1155 856,1148 857,1141 857,1134 857,1127 856,1120 856,1113 857,1106 861,1099 866,1093 868,1091 869,1090 871,1088 873,1087 875,1085 877,1084 878,1083 880,1081 882,1080 884,1079" stroke="#0000ff" fill="none"/>
 <text x="798" y="1154" fill="#000000" font-family="Arial" font-size="12">Use</text>
 <polygon points="883,1076 894,1075 886,1082 883,1076" stroke="#0000ff" fill="#0000ff"/>
 <ellipse cx="1014" cy="1120" rx="142" ry="18" stroke="#000000" fill="#fffffe00"/>
 <text x="922" y="1121" fill="#000000" font-family="Arial" font-size="12">_Display_Enter_Admin_ID</text>
 <polyline points="670,1371 675,1360 682,1347 690,1332 699,1317 709,1300 720,1284 733,1268 747,1253 761,1239 777,1226 785,1221 792,1218 799,1217 806,1216 813,1216 820,1215 827,1214 834,1212 841,1209 848,1203 852,1197 855,1192 856,1186 856,1180 856,1175 856,1169 857,1164 858,1158 861,1153 866,1148 868,1146 870,1145 872,1143 874,1142 876,1140 878,1139 880,1138 882,1136 884,1135 886,1134" stroke="#0000ff" fill="none"/>
 <text x="798" y="1195" fill="#000000" font-family="Arial" font-size="12">Use</text>
 <polygon points="885,1131 895,1130 887,1137 885,1131" stroke="#0000ff" fill="#0000ff"/>
 <ellipse cx="1014" cy="1175" rx="148" ry="18" stroke="#000000" fill="#fffffe00"/>
 <text x="917" y="1176" fill="#000000" font-family="Arial" font-size="12">_Dispay_Exit_admin_mode</text>
 <polyline points="674,1371 680,1362 688,1353 696,1342 706,1331 716,1319 727,1308 738,1297 751,1286 764,1276 777,1267 785,1263 793,1260 800,1258 807,1257 814,1257 820,1256 827,1255 834,1253 841,1250 848,1244 852,1240 854,1236 855,1231 856,1227 857,1223 857,1219 858,1215 859,1211 862,1207 866,1203 868,1202 870,1200 872,1199 874,1197 876,1196 878,1194 880,1193 882,1192 884,1191 886,1190" stroke="#0000ff" fill="none"/>
 <text x="798" y="1236" fill="#000000" font-family="Arial" font-size="12">Use</text>
 <polygon points="885,1187 896,1186 888,1193 885,1187" stroke="#0000ff" fill="#0000ff"/>
 <ellipse cx="1014" cy="1230" rx="75" ry="18" stroke="#000000" fill="#fffffe00"/>
 <text x="969" y="1231" fill="#000000" font-family="Arial" font-size="12">Admin_Pass</text>
 <polyline points="683,1370 690,1364 698,1358 707,1352 716,1345 726,1339 735,1332 746,1325 756,1319 766,1313 777,1308 785,1304 793,1302 800,1300 807,1299 813,1298 820,1297 826,1296 833,1294 840,1290 848,1285 851,1282 853,1280 854,1277 856,1274 857,1271 858,1268 859,1266 861,1263 863,1260 866,1258 872,1254 878,1251 884,1248 890,1245 897,1243 903,1240 910,1238 917,1237 923,1235 930,1234" stroke="#0000ff" fill="none"/>
 <text x="777" y="1277" fill="#000000" font-family="Arial" font-size="12">Deref Use</text>
 <polygon points="929,1230 940,1232 931,1237 929,1230" stroke="#0000ff" fill="#0000ff"/>
 <ellipse cx="1014" cy="1285" rx="146" ry="18" stroke="#000000" fill="#fffffe00"/>
 <text x="919" y="1286" fill="#000000" font-family="Arial" font-size="12">_Display_Welcome_Admin</text>
 <polyline points="713,1371 719,1369 725,1367 732,1364 738,1362 745,1360 751,1358 758,1356 764,1353 771,1351 777,1349 786,1346 793,1344 800,1342 807,1340 813,1339 819,1337 825,1336 832,1333 840,1330 848,1326 850,1325 852,1323 854,1322 856,1320 857,1319 858,1318 860,1317 862,1315 864,1314 866,1313 869,1312 873,1310 876,1309 880,1307 883,1306 887,1305 891,1304 894,1302 898,1301 902,1300" stroke="#0000ff" fill="none"/>
 <text x="798" y="1318" fill="#000000" font-family="Arial" font-size="12">Use</text>
 <polygon points="901,1297 912,1298 903,1304 901,1297" stroke="#0000ff" fill="#0000ff"/>
 <ellipse cx="1014" cy="1340" rx="111" ry="18" stroke="#000000" fill="#fffffe00"/>
 <text x="944" y="1341" fill="#000000" font-family="Arial" font-size="12">_Display_1_Add_ID</text>
 <polyline points="737,1380 747,1379 758,1378 769,1377 780,1376 792,1374 803,1373 815,1371 826,1370 837,1368 848,1367 856,1366 863,1365 871,1363 879,1362 887,1361 895,1360 903,1358 911,1357 919,1355 927,1354" stroke="#0000ff" fill="none"/>
 <text x="798" y="1359" fill="#000000" font-family="Arial" font-size="12">Use</text>
 <polygon points="926,1351 937,1353 927,1358 926,1351" stroke="#0000ff" fill="#0000ff"/>
 <ellipse cx="1014" cy="1395" rx="132" ry="18" stroke="#000000" fill="#fffffe00"/>
 <text x="929" y="1396" fill="#000000" font-family="Arial" font-size="12">_Display_2_Remove_ID</text>
 <polyline points="737,1403 741,1404 745,1404 749,1405 753,1405 757,1406 761,1406 765,1407 769,1407 773,1408 777,1408 789,1409 802,1409 815,1410 827,1410 840,1410 853,1410 865,1409 878,1409 890,1408 902,1407" stroke="#0000ff" fill="none"/>
 <text x="798" y="1400" fill="#000000" font-family="Arial" font-size="12">Use</text>
 <polygon points="902,1403 912,1406 902,1410 902,1403" stroke="#0000ff" fill="#0000ff"/>
 <ellipse cx="1014" cy="1450" rx="111" ry="18" stroke="#000000" fill="#fffffe00"/>
 <text x="944" y="1451" fill="#000000" font-family="Arial" font-size="12">_Display_Hash_Exit</text>
 <polyline points="701,1407 708,1410 714,1413 722,1415 729,1418 737,1421 745,1424 753,1426 761,1429 769,1431 777,1433 788,1435 800,1437 811,1439 823,1441 835,1442 847,1444 859,1445 870,1446 882,1447 893,1448" stroke="#0000ff" fill="none"/>
 <text x="798" y="1425" fill="#000000" font-family="Arial" font-size="12">Use</text>
 <polygon points="894,1444 903,1448 893,1451 894,1444" stroke="#0000ff" fill="#0000ff"/>
 <ellipse cx="1014" cy="1505" rx="124" ry="18" stroke="#000000" fill="#fffffe00"/>
 <text x="934" y="1506" fill="#000000" font-family="Arial" font-size="12">_Display_Worng_Entry</text>
 <polyline points="683,1407 690,1413 697,1419 706,1425 715,1432 724,1438 734,1445 745,1451 755,1457 766,1462 777,1467 788,1471 799,1475 811,1478 822,1481 834,1484 845,1487 857,1489 868,1492 880,1493 891,1495" stroke="#0000ff" fill="none"/>
 <text x="798" y="1459" fill="#000000" font-family="Arial" font-size="12">Use</text>
 <polygon points="892,1492 901,1497 891,1499 892,1492" stroke="#0000ff" fill="#0000ff"/>
 <ellipse cx="1014" cy="1560" rx="104" ry="18" stroke="#000000" fill="#fffffe00"/>
 <text x="949" y="1561" fill="#000000" font-family="Arial" font-size="12">_Display_Enter_ID</text>
 <polyline points="674,1407 680,1416 688,1425 696,1436 705,1447 715,1459 726,1470 738,1481 750,1492 763,1501 777,1510 789,1516 801,1522 814,1527 827,1532 841,1537 854,1541 867,1544 881,1547 894,1550 907,1552" stroke="#0000ff" fill="none"/>
 <text x="798" y="1502" fill="#000000" font-family="Arial" font-size="12">Use</text>
 <polygon points="907,1548 917,1553 906,1555 907,1548" stroke="#0000ff" fill="#0000ff"/>
 <ellipse cx="1014" cy="1615" rx="87" ry="18" stroke="#000000" fill="#fffffe00"/>
 <text x="961" y="1616" fill="#000000" font-family="Arial" font-size="12">_Display_Enter</text>
 <polyline points="669,1407 674,1419 681,1432 688,1448 697,1464 708,1481 719,1498 732,1515 746,1531 761,1546 777,1560 790,1569 803,1576 817,1583 831,1589 846,1594 861,1598 875,1602 890,1605 905,1608 919,1610" stroke="#0000ff" fill="none"/>
 <text x="798" y="1552" fill="#000000" font-family="Arial" font-size="12">Use</text>
 <polygon points="919,1607 929,1611 918,1614 919,1607" stroke="#0000ff" fill="#0000ff"/>
 <ellipse cx="1014" cy="1670" rx="50" ry="18" stroke="#000000" fill="#fffffe00"/>
 <text x="987" y="1671" fill="#000000" font-family="Arial" font-size="12">ID_data</text>
 <polyline points="666,1407 670,1422 675,1440 681,1461 689,1483 699,1507 711,1531 724,1555 740,1577 757,1598 777,1617 793,1628 810,1638 827,1646 846,1653 865,1659 884,1663 902,1666 920,1669 938,1670 954,1671" stroke="#0000ff" fill="none"/>
 <text x="798" y="1609" fill="#000000" font-family="Arial" font-size="12">Use</text>
 <polygon points="954,1667 964,1671 954,1674 954,1667" stroke="#0000ff" fill="#0000ff"/>
 <ellipse cx="1014" cy="1725" rx="125" ry="18" stroke="#000000" fill="#fffffe00"/>
 <text x="934" y="1726" fill="#000000" font-family="Arial" font-size="12">EEPORM_25xx_config</text>
 <polyline points="663,1407 665,1425 669,1447 674,1473 681,1502 690,1533 702,1564 716,1595 733,1624 753,1652 777,1676 786,1683 795,1689 805,1695 815,1700 825,1705 836,1709 847,1713 858,1716 869,1719 880,1721" stroke="#0000ff" fill="none"/>
 <text x="779" y="1668" fill="#000000" font-family="Arial" font-size="12">Addr Use</text>
 <polygon points="881,1717 890,1722 879,1724 881,1717" stroke="#0000ff" fill="#0000ff"/>
 <ellipse cx="1014" cy="1780" rx="111" ry="18" stroke="#000000" fill="#fffffe00"/>
 <text x="944" y="1781" fill="#000000" font-family="Arial" font-size="12">_Display_ID_Added</text>
 <polyline points="662,1407 663,1428 665,1454 668,1486 674,1521 682,1559 693,1598 707,1636 726,1672 749,1706 777,1735 787,1743 798,1750 809,1756 820,1762 832,1766 844,1770 857,1774 869,1777 882,1779 894,1781" stroke="#0000ff" fill="none"/>
 <text x="798" y="1727" fill="#000000" font-family="Arial" font-size="12">Use</text>
 <polygon points="894,1777 904,1782 894,1784 894,1777" stroke="#0000ff" fill="#0000ff"/>
 <ellipse cx="1014" cy="1835" rx="71" ry="18" stroke="#000000" fill="#fffffe00"/>
 <text x="972" y="1836" fill="#000000" font-family="Arial" font-size="12">Reset_Data</text>
 <polyline points="664,1407 668,1434 674,1469 682,1511 691,1558 702,1606 714,1654 728,1699 743,1739 760,1771 777,1793 791,1804 805,1813 821,1820 837,1826 854,1831 871,1835 888,1838 905,1840 921,1841 937,1841" stroke="#0000ff" fill="none"/>
 <text x="798" y="1785" fill="#000000" font-family="Arial" font-size="12">Use</text>
 <polygon points="937,1837 947,1841 937,1844 937,1837" stroke="#0000ff" fill="#0000ff"/>
 <ellipse cx="1014" cy="1890" rx="123" ry="18" stroke="#000000" fill="#fffffe00"/>
 <text x="935" y="1891" fill="#000000" font-family="Arial" font-size="12">_Dispay_ID_Removed</text>
 <polyline points="664,1407 667,1437 672,1477 679,1525 688,1579 698,1635 710,1690 724,1742 740,1788 758,1825 777,1851 786,1859 796,1866 807,1872 818,1877 829,1882 841,1886 853,1889 865,1891 877,1894 889,1895" stroke="#0000ff" fill="none"/>
 <text x="798" y="1843" fill="#000000" font-family="Arial" font-size="12">Use</text>
 <polygon points="889,1892 899,1896 889,1899 889,1892" stroke="#0000ff" fill="#0000ff"/>
 <polyline points="700,68 712,73 726,78 740,84 755,90 771,97 787,105 803,113 818,122 833,131 848,140 850,142 852,144 854,145 855,147 857,149 858,151 859,152 861,154 863,155 866,157 875,161 884,165 894,168 903,171 913,173 923,175 933,177 942,179 952,180 961,181" stroke="#696969" fill="none"/>
 <polygon points="961,178 971,182 960,185 961,178" stroke="#696969" fill="#696969"/>
 <polyline points="700,50 707,49 714,49 722,48 730,47 737,47 745,46 753,45 761,45 769,44 777,44 786,43 793,43 800,42 806,42 813,41 819,41 825,41 832,42 839,43 848,44 850,44 852,45 854,45 855,46 857,46 859,47 860,47 862,48 864,48 866,49 876,51 887,54 898,56 909,58 919,60 930,62 940,64 950,66 960,67 969,69" stroke="#696969" fill="none"/>
 <polygon points="970,65 979,70 969,72 970,65" stroke="#696969" fill="#696969"/>
 <polygon points="743,256 579,256 579,292 743,292 743,256" stroke="#0000ff" fill="none"/>
 <text x="587" y="275" fill="#000000" font-family="Arial" font-size="12">Jump_to_coordinator</text>
 <polyline points="457,274 468,274 479,274 490,274 502,274 513,274 524,274 535,274 546,274 557,274 568,274" stroke="#696969" fill="none"/>
 <polygon points="568,270 578,274 568,277 568,270" stroke="#696969" fill="#696969"/>
 <polygon points="726,112 595,112 595,148 726,148 726,112" stroke="#0000ff" fill="none"/>
 <text x="604" y="131" fill="#000000" font-family="Arial" font-size="12">Write_Character</text>
 <polyline points="375,256 385,250 396,244 407,238 419,231 432,224 445,217 459,210 472,204 486,197 499,191 509,187 519,182 529,178 539,174 549,170 559,166 569,162 578,158 588,154 597,151" stroke="#696969" fill="none"/>
 <polygon points="596,148 607,148 599,154 596,148" stroke="#696969" fill="#696969"/>
 <polygon points="1082,276 947,276 947,312 1082,312 1082,276" stroke="#0000ff" fill="none"/>
 <text x="955" y="295" fill="#000000" font-family="Arial" font-size="12">Write_Command</text>
 <polyline points="743,278 761,279 780,280 800,282 820,283 840,284 860,285 880,286 900,287 919,288 937,289" stroke="#696969" fill="none"/>
 <polygon points="937,286 947,290 937,293 937,286" stroke="#696969" fill="#696969"/>
 <ellipse cx="1014" cy="238" rx="93" ry="18" stroke="#000000" fill="#fffffe00"/>
 <text x="956" y="239" fill="#000000" font-family="Arial" font-size="12">Lines_command</text>
 <polyline points="743,265 759,263 777,262 794,260 813,258 831,256 850,254 868,253 886,251 904,249 921,247" stroke="#0000ff" fill="none"/>
 <text x="777" y="248" fill="#000000" font-family="Arial" font-size="12">Deref Use</text>
 <polygon points="921,244 931,246 921,251 921,244" stroke="#0000ff" fill="#0000ff"/>
 <polyline points="727,140 748,143 771,147 795,150 820,154 846,158 871,162 895,166 919,169 941,173 961,176" stroke="#696969" fill="none"/>
 <polygon points="961,172 971,177 960,179 961,172" stroke="#696969" fill="#696969"/>
 <polyline points="727,120 749,117 773,113 799,109 825,105 851,101 878,97 903,93 927,89 949,85 969,82" stroke="#696969" fill="none"/>
 <polygon points="969,79 979,81 970,86 969,79" stroke="#696969" fill="#696969"/>
 <polygon points="1082,112 947,112 947,148 1082,148 1082,112" stroke="#0000ff" fill="none"/>
 <text x="955" y="131" fill="#000000" font-family="Arial" font-size="12">Set_GPIO_Value</text>
 <polyline points="727,130 746,130 765,130 786,130 808,130 830,130 853,130 875,130 896,130 917,130 936,130" stroke="#696969" fill="none"/>
 <polygon points="937,126 947,130 937,133 937,126" stroke="#696969" fill="#696969"/>
 <polygon points="1082,4 947,4 947,40 1082,40 1082,4" stroke="#0000ff" fill="none"/>
 <text x="955" y="23" fill="#000000" font-family="Arial" font-size="12">Kick_Enable_pin</text>
 <polyline points="700,112 713,106 727,100 743,93 759,87 776,80 794,73 812,67 830,60 848,54 866,49 873,47 880,45 887,43 894,41 901,40 908,38 916,37 923,36 930,34 937,33" stroke="#696969" fill="none"/>
 <polygon points="936,29 947,31 937,36 936,29" stroke="#696969" fill="#696969"/>
</svg>
