<?xml version="1.0"?>
<svg width="753" height="367" xmlns="http://www.w3.org/2000/svg" version="1.1">
 <polyline points="61,183 79,183 99,18 115,18" stroke="#C0C0C0" fill="none"/>
 <polyline points="61,183 79,183 99,44 115,44" stroke="#C0C0C0" fill="none"/>
 <polyline points="61,183 79,183 99,70 115,70" stroke="#C0C0C0" fill="none"/>
 <polyline points="61,183 79,183 99,96 115,96" stroke="#C0C0C0" fill="none"/>
 <polyline points="61,183 79,183 99,174 115,174" stroke="#C0C0C0" fill="none"/>
 <polyline points="61,183 79,183 99,200 115,200" stroke="#C0C0C0" fill="none"/>
 <polyline points="61,183 79,183 99,226 115,226" stroke="#C0C0C0" fill="none"/>
 <polyline points="61,183 79,183 99,252 115,252" stroke="#C0C0C0" fill="none"/>
 <polyline points="61,183 79,183 99,278 115,278" stroke="#4E8CB9" fill="none"/>
 <polyline points="61,183 79,183 99,323 115,323" stroke="#4E8CB9" fill="none"/>
 <polyline points="61,183 79,183 99,349 115,349" stroke="#4E8CB9" fill="none"/>
 <polyline points="237,174 255,174 304,122 320,122" stroke="#4E8CB9" fill="none"/>
 <polyline points="237,174 255,174 304,148 320,148" stroke="#4E8CB9" fill="none"/>
 <polyline points="237,174 255,174 304,174 320,174" stroke="#4E8CB9" fill="none"/>
 <polyline points="237,174 255,174 304,200 320,200" stroke="#4E8CB9" fill="none"/>
 <polyline points="237,174 255,174 304,226 320,226" stroke="#4E8CB9" fill="none"/>
 <polyline points="214,278 232,278 304,278 320,278" stroke="#4E8CB9" fill="none"/>
 <polyline points="205,323 223,323 304,308 320,308" stroke="#4E8CB9" fill="none"/>
 <polyline points="205,323 223,323 304,338 320,338" stroke="#4E8CB9" fill="none"/>
 <polyline points="421,308 439,308 464,308 480,308" stroke="#4E8CB9" fill="none"/>
 <polyline points="421,338 439,338 464,338 480,338" stroke="#4E8CB9" fill="none"/>
 <polyline points="581,308 599,308 619,308 635,308" stroke="#4E8CB9" fill="none"/>
 <polyline points="581,338 599,338 619,338 635,338" stroke="#4E8CB9" fill="none"/>
 <rect x="7" y="172" width="54" height="22" stroke="#90C4E4" fill="none"/>
 <text x="10" y="185" fill="#4E8CB9" font-family="Arial" font-size="10">Init_Uart</text>
 <rect x="115" y="7" width="134" height="22" stroke="#90C4E4" fill="none"/>
 <text x="118" y="20" fill="#000000" font-family="Arial" font-size="10">Error_CallBack_UART</text>
 <rect x="115" y="33" width="140" height="22" stroke="#90C4E4" fill="none"/>
 <text x="118" y="46" fill="#000000" font-family="Arial" font-size="10">Parity_CallBack_UART</text>
 <rect x="115" y="59" width="120" height="22" stroke="#90C4E4" fill="none"/>
 <text x="118" y="72" fill="#000000" font-family="Arial" font-size="10">Tx_CallBack_UART</text>
 <rect x="115" y="85" width="161" height="22" stroke="#90C4E4" fill="none"/>
 <text x="118" y="98" fill="#000000" font-family="Arial" font-size="10">Tx_Comp_CallBack_UART</text>
 <rect x="115" y="163" width="122" height="22" stroke="#90C4E4" fill="none"/>
 <text x="118" y="176" fill="#000000" font-family="Arial" font-size="10">Rx_CallBack_UART</text>
 <rect x="115" y="189" width="134" height="22" stroke="#90C4E4" fill="none"/>
 <text x="118" y="202" fill="#000000" font-family="Arial" font-size="10">IDLE_CallBack_UART</text>
 <rect x="115" y="215" width="148" height="22" stroke="#90C4E4" fill="none"/>
 <text x="118" y="228" fill="#000000" font-family="Arial" font-size="10">Lin_BK_CallBack_UART</text>
 <rect x="115" y="241" width="146" height="22" stroke="#90C4E4" fill="none"/>
 <text x="118" y="254" fill="#000000" font-family="Arial" font-size="10">FlowCt_CallBack_UART</text>
 <rect x="115" y="267" width="99" height="22" stroke="#90C4E4" fill="none"/>
 <text x="118" y="280" fill="#000000" font-family="Arial" font-size="10">_Config_GPIO_f</text>
 <rect x="115" y="312" width="90" height="22" stroke="#90C4E4" fill="none"/>
 <text x="118" y="325" fill="#000000" font-family="Arial" font-size="10">Set_BaudRate</text>
 <rect x="115" y="338" width="119" height="22" stroke="#90C4E4" fill="none"/>
 <text x="118" y="351" fill="#000000" font-family="Arial" font-size="10">__NVIC_EnableIRQ</text>
 <rect x="320" y="111" width="116" height="22" stroke="#90C4E4" fill="none"/>
 <text x="323" y="124" fill="#000000" font-family="Arial" font-size="10">Receive_Char_Uart</text>
 <rect x="320" y="137" width="101" height="22" stroke="#90C4E4" fill="none"/>
 <text x="323" y="150" fill="#000000" font-family="Arial" font-size="10">Send_Char_Uart</text>
 <rect x="320" y="163" width="64" height="22" stroke="#90C4E4" fill="none"/>
 <text x="323" y="176" fill="#000000" font-family="Arial" font-size="10">Reset_pin</text>
 <rect x="320" y="189" width="105" height="22" stroke="#90C4E4" fill="none"/>
 <text x="323" y="202" fill="#000000" font-family="Arial" font-size="10">SPI_Tx_Rx_Char</text>
 <rect x="320" y="215" width="50" height="22" stroke="#90C4E4" fill="none"/>
 <text x="323" y="228" fill="#000000" font-family="Arial" font-size="10">Set_pin</text>
 <rect x="320" y="267" width="62" height="22" stroke="#90C4E4" fill="none"/>
 <text x="323" y="280" fill="#000000" font-family="Arial" font-size="10">Init_GPIO</text>
 <rect x="320" y="297" width="101" height="22" stroke="#90C4E4" fill="none"/>
 <text x="323" y="310" fill="#000000" font-family="Arial" font-size="10">Get_APB2_Freq</text>
 <rect x="320" y="327" width="101" height="22" stroke="#90C4E4" fill="none"/>
 <text x="323" y="340" fill="#000000" font-family="Arial" font-size="10">Get_APB1_Freq</text>
 <rect x="480" y="297" width="101" height="22" stroke="#90C4E4" fill="none"/>
 <text x="483" y="310" fill="#000000" font-family="Arial" font-size="10">Get_HCLK_Freq</text>
 <rect x="480" y="327" width="101" height="22" stroke="#90C4E4" fill="none"/>
 <text x="483" y="340" fill="#000000" font-family="Arial" font-size="10">Get_HCLK_Freq</text>
 <rect x="635" y="297" width="111" height="22" stroke="#90C4E4" fill="none"/>
 <text x="638" y="310" fill="#000000" font-family="Arial" font-size="10">Get_Systick_Freq</text>
 <rect x="635" y="327" width="111" height="22" stroke="#90C4E4" fill="none"/>
 <text x="638" y="340" fill="#000000" font-family="Arial" font-size="10">Get_Systick_Freq</text>
</svg>
