<?xml version="1.0"?>
<svg width="1546" height="1556" xmlns="http://www.w3.org/2000/svg" version="1.1">
 <polygon points="4,1552 4,4 1543,4 1543,1552 4,1552" stroke="#fffffe00" fill="none"/>
 <polygon points="236,921 4,921 4,957 236,957 236,921" stroke="#0000ff" fill="none"/>
 <text x="12" y="941" fill="#000000" font-family="Arial" font-size="12">config_Drives_and_Perpherals</text>
 <polygon points="510,155 416,155 416,191 510,191 510,155" stroke="#0000ff" fill="none"/>
 <text x="424" y="175" fill="#000000" font-family="Arial" font-size="12">Init_Systick</text>
 <polyline points="122,921 124,879 127,818 133,743 140,658 151,568 164,478 180,393 201,317 225,256 254,213 266,202 280,193 295,186 311,180 327,176 343,172 360,170 376,169 391,168 406,168" stroke="#696969" fill="none"/>
 <polygon points="406,165 416,168 406,172 406,165" stroke="#696969" fill="#696969"/>
 <polygon points="502,336 424,336 424,372 502,372 502,336" stroke="#0000ff" fill="none"/>
 <text x="432" y="356" fill="#000000" font-family="Arial" font-size="12">LCD_init</text>
 <polyline points="121,921 121,895 122,859 125,816 131,766 140,713 152,657 169,601 191,546 219,493 254,446 267,432 282,420 298,409 314,399 331,391 349,383 366,377 383,371 399,367 414,363" stroke="#696969" fill="none"/>
 <polygon points="413,360 424,361 415,366 413,360" stroke="#696969" fill="#696969"/>
 <polygon points="1207,526 1125,526 1125,562 1207,562 1207,526" stroke="#0000ff" fill="none"/>
 <text x="1133" y="546" fill="#000000" font-family="Arial" font-size="12">Init_GPIO</text>
 <polyline points="124,921 127,901 133,876 139,846 148,813 159,777 173,740 189,703 208,666 229,631 254,599 262,590 270,583 277,577 284,572 291,568 299,564 307,561 316,558 326,555 338,552 391,542 460,535 541,531 630,529 723,529 816,530 905,532 988,535 1058,538 1114,541" stroke="#696969" fill="none"/>
 <polygon points="1115,538 1124,542 1114,545 1115,538" stroke="#696969" fill="#696969"/>
 <polygon points="939,416 831,416 831,452 939,452 939,416" stroke="#0000ff" fill="none"/>
 <text x="839" y="436" fill="#000000" font-family="Arial" font-size="12">Key_pad_init</text>
 <polyline points="121,921 121,897 122,865 125,827 131,784 140,738 152,691 170,644 192,600 220,559 254,524 306,487 364,459 425,438 489,424 553,415 615,411 675,411 730,414 779,418 821,423" stroke="#696969" fill="none"/>
 <polygon points="822,420 831,425 821,427 822,420" stroke="#696969" fill="#696969"/>
 <polygon points="761,558 606,558 606,594 761,594 761,558" stroke="#0000ff" fill="none"/>
 <text x="615" y="578" fill="#000000" font-family="Arial" font-size="12">init_seven_segment</text>
 <polyline points="124,921 128,903 133,880 141,853 150,823 161,791 175,758 191,725 209,692 230,662 254,634 282,610 314,590 348,576 384,565 422,558 459,555 496,553 532,554 565,556 596,560" stroke="#696969" fill="none"/>
 <polygon points="597,557 606,561 596,564 597,557" stroke="#696969" fill="#696969"/>
 <polygon points="500,604 427,604 427,640 500,640 500,604" stroke="#0000ff" fill="none"/>
 <text x="435" y="624" fill="#000000" font-family="Arial" font-size="12">Init_Uart</text>
 <polyline points="124,921 127,903 133,881 139,856 148,828 159,798 173,768 189,738 208,710 229,684 254,662 269,652 285,644 301,637 318,632 336,628 353,624 370,622 386,621 402,620 416,620" stroke="#696969" fill="none"/>
 <polygon points="417,616 427,620 417,623 417,616" stroke="#696969" fill="#696969"/>
 <polygon points="498,658 429,658 429,694 498,694 498,658" stroke="#0000ff" fill="none"/>
 <text x="437" y="678" fill="#000000" font-family="Arial" font-size="12">Init_SPI</text>
 <polyline points="124,921 128,904 133,884 140,860 149,834 161,807 174,779 190,753 208,728 230,706 254,687 269,679 286,672 303,668 320,665 338,663 355,662 372,662 389,663 404,665 418,667" stroke="#696969" fill="none"/>
 <polygon points="419,663 428,669 418,670 419,663" stroke="#696969" fill="#696969"/>
 <polygon points="498,712 428,712 428,748 498,748 498,712" stroke="#0000ff" fill="none"/>
 <text x="436" y="732" fill="#000000" font-family="Arial" font-size="12">Set_pin</text>
 <polyline points="125,921 129,905 134,885 142,863 151,839 162,814 176,788 191,764 210,741 230,721 254,704 261,700 268,698 274,697 280,697 286,698 291,699 298,700 304,702 312,703 320,704 330,705 340,706 350,708 361,709 371,711 381,713 391,714 400,716 409,718 418,720" stroke="#696969" fill="none"/>
 <polygon points="419,717 428,722 417,724 419,717" stroke="#696969" fill="#696969"/>
 <ellipse cx="885" cy="206" rx="71" ry="18" stroke="#000000" fill="#fffffe00"/>
 <text x="843" y="208" fill="#000000" font-family="Arial" font-size="12">Systick_API</text>
 <polyline points="122,921 124,894 127,858 133,813 140,762 151,706 164,646 180,585 201,524 225,464 254,408 261,395 268,385 275,375 282,367 289,360 296,353 304,347 314,341 325,334 338,327 385,304 434,285 485,268 536,253 587,242 637,232 684,224 729,218 769,213 805,210" stroke="#006400" fill="none"/>
 <text x="451" y="235" fill="#000000" font-family="Arial" font-size="12">Set</text>
 <polygon points="805,207 815,210 806,214 805,207" stroke="#006400" fill="#006400"/>
 <ellipse cx="463" cy="784" rx="66" ry="18" stroke="#000000" fill="#fffffe00"/>
 <text x="425" y="786" fill="#000000" font-family="Arial" font-size="12">Lcd_config</text>
 <polyline points="126,921 131,907 137,889 146,870 156,849 167,828 181,806 196,785 213,766 233,749 254,735 261,731 268,728 275,727 281,725 287,725 293,726 299,727 305,729 312,732 320,735 323,737 325,739 327,741 328,744 329,746 330,748 331,751 333,753 335,755 338,757 343,760 348,763 353,765 358,767 363,769 369,771 374,773 379,774 385,776 390,777" stroke="#006400" fill="none"/>
 <text x="275" y="719" fill="#000000" font-family="Arial" font-size="12">Set</text>
 <polygon points="391,774 400,779 390,781 391,774" stroke="#006400" fill="#006400"/>
 <polyline points="131,921 137,910 145,897 154,884 165,869 177,854 190,839 204,825 220,812 236,801 254,791 268,786 282,781 296,778 311,775 326,774 341,772 355,772 370,772 384,773 397,774" stroke="#0000ff" fill="none"/>
 <text x="254" y="767" fill="#000000" font-family="Arial" font-size="12">Addr Use</text>
 <polygon points="397,770 407,775 397,777 397,770" stroke="#0000ff" fill="#0000ff"/>
 <ellipse cx="463" cy="839" rx="90" ry="18" stroke="#000000" fill="#fffffe00"/>
 <text x="408" y="841" fill="#000000" font-family="Arial" font-size="12">key_pad_config</text>
 <polyline points="134,921 141,912 149,901 159,890 170,878 182,866 194,855 208,843 223,833 238,824 254,817 262,815 272,814 284,813 297,813 312,814 327,815 342,817 358,819 374,822 389,824" stroke="#006400" fill="none"/>
 <text x="275" y="806" fill="#000000" font-family="Arial" font-size="12">Set</text>
 <polygon points="390,821 399,826 389,828 390,821" stroke="#006400" fill="#006400"/>
 <polyline points="151,921 159,916 168,911 178,906 188,901 198,896 209,891 220,886 232,881 243,877 254,873 265,870 277,866 289,863 301,860 313,858 324,856 336,853 348,851 360,850 371,848" stroke="#0000ff" fill="none"/>
 <text x="254" y="851" fill="#000000" font-family="Arial" font-size="12">Addr Use</text>
 <polygon points="370,845 381,847 371,852 370,845" stroke="#0000ff" fill="#0000ff"/>
 <ellipse cx="463" cy="908" rx="76" ry="18" stroke="#000000" fill="#fffffe00"/>
 <text x="417" y="910" fill="#000000" font-family="Arial" font-size="12">seven_config</text>
 <polyline points="169,921 177,919 185,916 193,914 201,911 210,909 219,907 228,904 236,902 245,901 254,899 267,897 281,896 295,896 308,895 322,895 336,895 349,896 362,896 375,897 387,898" stroke="#006400" fill="none"/>
 <text x="275" y="888" fill="#000000" font-family="Arial" font-size="12">Set</text>
 <polygon points="387,895 397,899 386,902 387,895" stroke="#006400" fill="#006400"/>
 <polyline points="236,929 244,928 253,927 261,927 270,926 278,925 287,924 295,923 304,923 312,922 320,921 326,920 332,920 338,919 344,919 351,918 357,918 363,917 369,917 376,916 382,916" stroke="#0000ff" fill="none"/>
 <text x="254" y="914" fill="#000000" font-family="Arial" font-size="12">Addr Use</text>
 <polygon points="381,912 392,915 382,919 381,912" stroke="#0000ff" fill="#0000ff"/>
 <ellipse cx="463" cy="969" rx="72" ry="18" stroke="#000000" fill="#fffffe00"/>
 <text x="420" y="971" fill="#000000" font-family="Arial" font-size="12">uart1_config</text>
 <polyline points="236,956 238,956 240,957 241,957 243,957 245,957 247,958 249,958 250,958 252,958 254,958 267,959 280,960 293,961 306,962 319,963 332,964 345,965 357,966 369,966 381,967" stroke="#006400" fill="none"/>
 <text x="275" y="951" fill="#000000" font-family="Arial" font-size="12">Set</text>
 <polygon points="381,963 391,967 381,970 381,963" stroke="#006400" fill="#006400"/>
 <polyline points="162,957 170,960 178,964 187,967 196,970 206,973 215,976 225,979 235,981 244,983 254,985 268,987 283,988 298,989 313,989 328,989 342,988 357,987 371,986 384,984 397,982" stroke="#0000ff" fill="none"/>
 <text x="254" y="978" fill="#000000" font-family="Arial" font-size="12">Addr Use</text>
 <polygon points="396,979 407,981 397,986 396,979" stroke="#0000ff" fill="#0000ff"/>
 <ellipse cx="463" cy="1054" rx="72" ry="18" stroke="#000000" fill="#fffffe00"/>
 <text x="420" y="1056" fill="#000000" font-family="Arial" font-size="12">uart2_config</text>
 <polyline points="148,958 156,963 165,968 175,974 185,980 196,986 207,992 219,997 230,1003 242,1008 254,1012 267,1017 281,1021 294,1025 308,1029 322,1032 335,1035 349,1038 362,1040 375,1043 387,1045" stroke="#006400" fill="none"/>
 <text x="275" y="1005" fill="#000000" font-family="Arial" font-size="12">Set</text>
 <polygon points="388,1041 397,1046 387,1048 388,1041" stroke="#006400" fill="#006400"/>
 <polyline points="135,957 142,966 151,976 161,986 171,997 183,1008 196,1019 210,1029 224,1038 239,1046 254,1053 267,1058 281,1061 296,1064 310,1066 325,1067 339,1068 353,1068 367,1068 380,1067 393,1066" stroke="#0000ff" fill="none"/>
 <text x="254" y="1046" fill="#000000" font-family="Arial" font-size="12">Addr Use</text>
 <polygon points="393,1062 403,1065 394,1069 393,1062" stroke="#0000ff" fill="#0000ff"/>
 <ellipse cx="463" cy="1143" rx="69" ry="18" stroke="#000000" fill="#fffffe00"/>
 <text x="423" y="1145" fill="#000000" font-family="Arial" font-size="12">spi1_config</text>
 <polyline points="132,957 139,968 147,980 157,993 167,1007 180,1022 193,1037 207,1052 222,1065 238,1078 254,1089 267,1096 280,1103 293,1109 307,1114 321,1119 335,1123 349,1127 363,1130 376,1133 389,1135" stroke="#006400" fill="none"/>
 <text x="275" y="1082" fill="#000000" font-family="Arial" font-size="12">Set</text>
 <polygon points="389,1132 399,1137 388,1138 389,1132" stroke="#006400" fill="#006400"/>
 <polyline points="127,958 132,972 138,989 146,1008 156,1028 168,1049 181,1070 196,1091 214,1110 233,1126 254,1140 268,1147 282,1152 297,1156 313,1159 328,1160 343,1161 358,1161 373,1160 387,1159 401,1157" stroke="#0000ff" fill="none"/>
 <text x="254" y="1133" fill="#000000" font-family="Arial" font-size="12">Addr Use</text>
 <polygon points="400,1153 411,1155 402,1160 400,1153" stroke="#0000ff" fill="#0000ff"/>
 <ellipse cx="463" cy="1225" rx="90" ry="18" stroke="#000000" fill="#fffffe00"/>
 <text x="408" y="1227" fill="#000000" font-family="Arial" font-size="12">NSS_EEPROM</text>
 <polyline points="125,957 129,973 135,992 143,1015 153,1039 164,1065 178,1090 194,1116 211,1140 232,1162 254,1181 264,1188 274,1194 284,1199 295,1204 307,1208 318,1212 330,1215 341,1218 353,1220 364,1222" stroke="#006400" fill="none"/>
 <text x="275" y="1174" fill="#000000" font-family="Arial" font-size="12">Set</text>
 <polygon points="364,1218 374,1223 363,1225 364,1218" stroke="#006400" fill="#006400"/>
 <polyline points="123,957 125,976 129,1000 135,1028 143,1059 154,1091 167,1124 183,1155 203,1185 226,1211 254,1233 268,1241 283,1246 298,1250 314,1253 331,1254 347,1253 363,1252 378,1250 393,1247 407,1244" stroke="#0000ff" fill="none"/>
 <text x="254" y="1226" fill="#000000" font-family="Arial" font-size="12">Addr Use</text>
 <polygon points="406,1240 417,1241 408,1247 406,1240" stroke="#0000ff" fill="#0000ff"/>
 <ellipse cx="463" cy="1314" rx="89" ry="18" stroke="#000000" fill="#fffffe00"/>
 <text x="408" y="1316" fill="#000000" font-family="Arial" font-size="12">NSS_ATmega1</text>
 <polyline points="122,957 124,977 128,1004 133,1035 141,1069 151,1106 164,1143 181,1180 201,1215 225,1247 254,1275 264,1282 274,1288 284,1294 295,1299 306,1303 318,1307 329,1310 341,1312 353,1314 364,1316" stroke="#006400" fill="none"/>
 <text x="275" y="1268" fill="#000000" font-family="Arial" font-size="12">Set</text>
 <polygon points="365,1312 375,1317 364,1319 365,1312" stroke="#006400" fill="#006400"/>
 <polyline points="121,957 121,981 122,1012 125,1049 131,1090 140,1134 152,1179 170,1222 192,1263 220,1299 254,1330 262,1334 271,1337 283,1339 296,1339 311,1339 326,1338 342,1336 359,1334 375,1332 391,1329" stroke="#0000ff" fill="none"/>
 <text x="254" y="1323" fill="#000000" font-family="Arial" font-size="12">Addr Use</text>
 <polygon points="390,1326 401,1327 392,1333 390,1326" stroke="#0000ff" fill="#0000ff"/>
 <ellipse cx="463" cy="1382" rx="89" ry="18" stroke="#000000" fill="#fffffe00"/>
 <text x="408" y="1384" fill="#000000" font-family="Arial" font-size="12">NSS_ATmega2</text>
 <polyline points="120,957 120,982 121,1015 124,1054 129,1098 138,1145 150,1193 168,1240 190,1285 219,1326 254,1361 265,1369 277,1376 289,1381 302,1386 315,1389 329,1392 342,1393 356,1394 369,1394 382,1394" stroke="#006400" fill="none"/>
 <text x="275" y="1354" fill="#000000" font-family="Arial" font-size="12">Set</text>
 <polygon points="382,1390 392,1393 382,1397 382,1390" stroke="#006400" fill="#006400"/>
 <polyline points="123,957 127,988 133,1030 141,1080 152,1135 164,1193 178,1250 194,1304 212,1350 232,1388 254,1412 269,1421 286,1427 303,1431 321,1431 339,1430 357,1427 375,1422 392,1416 407,1410 422,1404" stroke="#0000ff" fill="none"/>
 <text x="254" y="1405" fill="#000000" font-family="Arial" font-size="12">Addr Use</text>
 <polygon points="421,1401 431,1399 424,1407 421,1401" stroke="#0000ff" fill="#0000ff"/>
 <ellipse cx="463" cy="1464" rx="42" ry="18" stroke="#000000" fill="#fffffe00"/>
 <text x="442" y="1466" fill="#000000" font-family="Arial" font-size="12">LEDS</text>
 <polyline points="123,957 127,990 132,1035 140,1089 150,1150 162,1213 176,1275 192,1334 211,1385 231,1427 254,1454 263,1459 274,1463 288,1466 304,1468 321,1470 340,1470 358,1470 377,1470 395,1469 412,1468" stroke="#006400" fill="none"/>
 <text x="275" y="1447" fill="#000000" font-family="Arial" font-size="12">Set</text>
 <polygon points="412,1465 422,1468 412,1472 412,1465" stroke="#006400" fill="#006400"/>
 <polyline points="122,957 125,992 130,1040 137,1098 147,1163 158,1232 172,1299 188,1363 207,1418 229,1463 254,1492 263,1497 276,1500 290,1500 307,1500 326,1498 345,1495 364,1491 383,1486 401,1482 418,1477" stroke="#0000ff" fill="none"/>
 <text x="254" y="1485" fill="#000000" font-family="Arial" font-size="12">Addr Use</text>
 <polygon points="418,1474 428,1475 420,1481 418,1474" stroke="#0000ff" fill="#0000ff"/>
 <ellipse cx="463" cy="1533" rx="125" ry="18" stroke="#000000" fill="#fffffe00"/>
 <text x="383" y="1535" fill="#000000" font-family="Arial" font-size="12">EEPORM_25xx_config</text>
 <polyline points="122,957 125,993 130,1043 137,1105 146,1173 157,1245 171,1316 187,1384 206,1443 229,1490 254,1522 265,1530 277,1537 290,1542 303,1546 317,1549 331,1551 345,1551 359,1552 373,1551 386,1550" stroke="#006400" fill="none"/>
 <text x="275" y="1515" fill="#000000" font-family="Arial" font-size="12">Set</text>
 <polygon points="385,1547 396,1549 386,1553 385,1547" stroke="#006400" fill="#006400"/>
 <polygon points="953,134 818,134 818,170 953,170 953,134" stroke="#0000ff" fill="none"/>
 <text x="826" y="154" fill="#000000" font-family="Arial" font-size="12">Get_HCLK_Freq</text>
 <polyline points="510,171 533,170 560,168 590,167 621,165 653,164 686,162 719,160 751,159 780,157 808,156" stroke="#696969" fill="none"/>
 <polygon points="808,153 818,156 808,160 808,153" stroke="#696969" fill="#696969"/>
 <polyline points="510,179 519,180 528,181 537,182 547,183 557,184 566,185 576,186 586,187 596,187 606,188 627,190 648,191 669,193 690,195 711,196 731,198 751,199 770,200 789,201 806,202" stroke="#0000ff" fill="none"/>
 <text x="670" y="181" fill="#000000" font-family="Arial" font-size="12">Use</text>
 <polygon points="806,199 816,203 806,206 806,199" stroke="#0000ff" fill="#0000ff"/>
 <polygon points="1237,86 1095,86 1095,122 1237,122 1237,86" stroke="#0000ff" fill="none"/>
 <text x="1103" y="106" fill="#000000" font-family="Arial" font-size="12">Get_Systick_Freq</text>
 <polyline points="953,141 965,139 978,137 991,134 1005,132 1018,130 1032,127 1046,125 1059,122 1072,120 1085,118" stroke="#696969" fill="none"/>
 <polygon points="1084,115 1095,116 1085,121 1084,115" stroke="#696969" fill="#696969"/>
 <ellipse cx="1166" cy="158" rx="88" ry="18" stroke="#000000" fill="#fffffe00"/>
 <text x="1112" y="160" fill="#000000" font-family="Arial" font-size="12">AHB_Prescaler</text>
 <polyline points="953,154 963,154 974,154 986,154 997,154 1009,155 1021,155 1033,155 1045,155 1056,156 1068,156" stroke="#0000ff" fill="none"/>
 <text x="1010" y="148" fill="#000000" font-family="Arial" font-size="12">Return</text>
 <polygon points="1068,153 1078,156 1068,160 1068,153" stroke="#0000ff" fill="#0000ff"/>
 <ellipse cx="1454" cy="132" rx="64" ry="18" stroke="#000000" fill="#fffffe00"/>
 <text x="1417" y="134" fill="#000000" font-family="Arial" font-size="12">HSE_Freq</text>
 <polyline points="1237,111 1241,112 1245,112 1249,113 1253,113 1257,113 1261,114 1265,114 1269,114 1273,115 1277,115 1288,116 1298,117 1309,118 1320,119 1331,121 1342,122 1352,123 1363,124 1373,125 1383,126" stroke="#0000ff" fill="none"/>
 <text x="1298" y="108" fill="#000000" font-family="Arial" font-size="12">Use</text>
 <polygon points="1383,122 1393,126 1383,129 1383,122" stroke="#0000ff" fill="#0000ff"/>
 <ellipse cx="1454" cy="187" rx="53" ry="18" stroke="#000000" fill="#fffffe00"/>
 <text x="1425" y="189" fill="#000000" font-family="Arial" font-size="12">PREDIV</text>
 <polyline points="1237,122 1239,123 1241,124 1244,125 1246,126 1248,127 1250,127 1252,128 1255,129 1257,130 1259,131 1261,132 1263,134 1265,135 1267,137 1268,138 1269,139 1271,140 1273,142 1275,143 1277,144 1288,149 1300,153 1312,158 1324,162 1336,165 1348,169 1360,172 1372,174 1383,177 1394,179" stroke="#0000ff" fill="none"/>
 <text x="1277" y="137" fill="#000000" font-family="Arial" font-size="12">Deref Use</text>
 <polygon points="1395,175 1405,181 1394,182 1395,175" stroke="#0000ff" fill="#0000ff"/>
 <ellipse cx="1454" cy="22" rx="62" ry="18" stroke="#000000" fill="#fffffe00"/>
 <text x="1419" y="24" fill="#000000" font-family="Arial" font-size="12">PLLMUL2</text>
 <polyline points="1216,86 1222,84 1228,82 1234,80 1240,78 1246,76 1252,74 1259,72 1265,70 1271,68 1277,66 1289,63 1301,59 1313,56 1325,53 1338,50 1350,47 1361,44 1373,41 1384,38 1395,36" stroke="#0000ff" fill="none"/>
 <text x="1277" y="41" fill="#000000" font-family="Arial" font-size="12">Deref Use</text>
 <polygon points="1394,32 1405,33 1396,39 1394,32" stroke="#0000ff" fill="#0000ff"/>
 <ellipse cx="1454" cy="77" rx="55" ry="18" stroke="#000000" fill="#fffffe00"/>
 <text x="1423" y="79" fill="#000000" font-family="Arial" font-size="12">PLLMUL</text>
 <polyline points="1237,98 1252,96 1267,95 1282,93 1299,92 1315,90 1331,89 1347,87 1362,86 1377,84 1391,83" stroke="#0000ff" fill="none"/>
 <text x="1277" y="81" fill="#000000" font-family="Arial" font-size="12">Deref Use</text>
 <polygon points="1391,80 1401,82 1391,87 1391,80" stroke="#0000ff" fill="#0000ff"/>
 <polyline points="503,369 522,376 544,384 569,393 596,403 625,413 655,423 686,433 717,443 748,452 779,461 815,471 853,480 890,489 927,498 964,506 999,513 1032,520 1063,525 1091,531 1115,535" stroke="#696969" fill="none"/>
 <polygon points="1115,532 1125,537 1114,539 1115,532" stroke="#696969" fill="#696969"/>
 <polygon points="1209,201 1122,201 1122,237 1209,237 1209,201" stroke="#0000ff" fill="none"/>
 <text x="1131" y="221" fill="#000000" font-family="Arial" font-size="12">Reset_pin</text>
 <polyline points="502,345 511,343 521,340 531,338 541,335 552,333 563,330 574,327 585,325 595,322 606,320 662,308 720,297 778,286 836,275 891,265 944,256 994,248 1039,240 1079,233 1112,228" stroke="#696969" fill="none"/>
 <polygon points="1112,224 1122,226 1113,231 1112,224" stroke="#696969" fill="#696969"/>
 <polygon points="953,297 818,297 818,333 953,333 953,297" stroke="#0000ff" fill="none"/>
 <text x="826" y="317" fill="#000000" font-family="Arial" font-size="12">Write_Command</text>
 <polyline points="502,351 525,349 552,346 581,343 613,340 647,337 681,334 714,331 747,328 778,325 807,322" stroke="#696969" fill="none"/>
 <polygon points="807,319 818,321 808,326 807,319" stroke="#696969" fill="#696969"/>
 <polyline points="953,302 963,299 973,297 983,293 993,290 1004,286 1014,282 1025,278 1035,273 1045,268 1054,263 1057,261 1059,260 1061,258 1062,257 1063,255 1065,253 1066,251 1068,250 1070,248 1072,246 1076,244 1080,242 1084,240 1088,238 1092,237 1096,235 1100,234 1104,233 1108,231 1112,230" stroke="#696969" fill="none"/>
 <polygon points="1111,227 1122,227 1113,233 1111,227" stroke="#696969" fill="#696969"/>
 <polygon points="1233,255 1098,255 1098,291 1233,291 1233,255" stroke="#0000ff" fill="none"/>
 <text x="1107" y="275" fill="#000000" font-family="Arial" font-size="12">Set_GPIO_Value</text>
 <polyline points="953,305 966,303 979,301 992,299 1006,297 1020,295 1034,293 1048,291 1062,289 1075,287 1088,285" stroke="#696969" fill="none"/>
 <polygon points="1088,281 1098,283 1089,288 1088,281" stroke="#696969" fill="#696969"/>
 <polygon points="1233,309 1098,309 1098,345 1233,345 1233,309" stroke="#0000ff" fill="none"/>
 <text x="1107" y="329" fill="#000000" font-family="Arial" font-size="12">Kick_Enable_pin</text>
 <polyline points="953,318 966,319 979,319 992,320 1006,320 1020,321 1034,322 1048,322 1062,323 1075,323 1088,324" stroke="#696969" fill="none"/>
 <polygon points="1088,320 1098,324 1088,327 1088,320" stroke="#696969" fill="#696969"/>
 <polyline points="939,451 950,455 961,459 972,463 984,468 996,473 1008,478 1020,484 1031,490 1043,496 1054,502 1056,504 1058,505 1060,507 1062,508 1063,510 1064,511 1066,513 1068,514 1070,516 1072,517 1076,519 1080,521 1084,523 1089,525 1093,527 1098,528 1102,530 1106,531 1111,533 1115,534" stroke="#696969" fill="none"/>
 <polygon points="1116,530 1125,536 1114,537 1116,530" stroke="#696969" fill="#696969"/>
 <polyline points="914,416 926,408 939,398 953,388 968,376 983,363 998,350 1013,335 1028,320 1041,304 1054,288 1057,283 1059,279 1060,275 1061,270 1062,266 1063,262 1064,258 1066,254 1068,250 1072,246 1075,243 1079,240 1083,238 1087,236 1091,234 1095,232 1099,230 1104,229 1108,227 1112,226" stroke="#696969" fill="none"/>
 <polygon points="1111,223 1122,224 1113,230 1111,223" stroke="#696969" fill="#696969"/>
 <polygon points="1248,363 1084,363 1084,399 1248,399 1248,363" stroke="#0000ff" fill="none"/>
 <text x="1092" y="383" fill="#000000" font-family="Arial" font-size="12">Check_Keypad_Pins</text>
 <polyline points="939,424 951,422 963,419 976,417 990,414 1004,412 1018,409 1032,407 1046,404 1060,401 1074,399" stroke="#696969" fill="none"/>
 <polygon points="1073,395 1084,397 1074,402 1073,395" stroke="#696969" fill="#696969"/>
 <ellipse cx="1166" cy="435" rx="85" ry="18" stroke="#000000" fill="#fffffe00"/>
 <text x="1114" y="437" fill="#000000" font-family="Arial" font-size="12">pad_Drain_pin</text>
 <polyline points="939,434 950,434 963,434 976,435 989,435 1002,435 1016,435 1030,435 1044,435 1058,435 1071,435" stroke="#0000ff" fill="none"/>
 <text x="1018" y="428" fill="#000000" font-family="Arial" font-size="12">Use</text>
 <polygon points="1071,431 1081,435 1071,438 1071,431" stroke="#0000ff" fill="#0000ff"/>
 <ellipse cx="1166" cy="490" rx="93" ry="18" stroke="#000000" fill="#fffffe00"/>
 <text x="1108" y="492" fill="#000000" font-family="Arial" font-size="12">pad_Soruce_pin</text>
 <polyline points="939,445 952,448 967,451 982,454 997,457 1013,460 1028,463 1044,466 1060,469 1075,472 1090,475" stroke="#0000ff" fill="none"/>
 <text x="1018" y="454" fill="#000000" font-family="Arial" font-size="12">Use</text>
 <polygon points="1091,472 1100,477 1089,479 1091,472" stroke="#0000ff" fill="#0000ff"/>
 <polyline points="762,571 785,570 811,568 839,566 868,565 898,563 929,561 960,558 992,556 1023,554 1054,552 1060,552 1066,551 1072,551 1079,550 1085,550 1091,550 1097,549 1103,549 1108,548 1114,548" stroke="#696969" fill="none"/>
 <polygon points="1114,544 1125,547 1115,551 1114,544" stroke="#696969" fill="#696969"/>
 <polygon points="951,604 820,604 820,640 951,640 951,604" stroke="#0000ff" fill="none"/>
 <text x="828" y="624" fill="#000000" font-family="Arial" font-size="12">_Config_GPIO_f</text>
 <polyline points="500,622 523,622 550,622 580,622 612,622 646,622 681,622 715,622 748,622 780,622 809,622" stroke="#696969" fill="none"/>
 <polygon points="809,619 819,622 809,626 809,619" stroke="#696969" fill="#696969"/>
 <polygon points="945,658 826,658 826,694 945,694 945,658" stroke="#0000ff" fill="none"/>
 <text x="834" y="678" fill="#000000" font-family="Arial" font-size="12">Set_BaudRate</text>
 <polyline points="500,627 523,630 551,634 582,638 615,642 650,646 686,651 721,655 755,659 787,663 816,667" stroke="#696969" fill="none"/>
 <polygon points="816,664 826,669 815,671 816,664" stroke="#696969" fill="#696969"/>
 <polyline points="951,613 961,611 970,610 981,608 991,606 1002,603 1012,601 1023,598 1034,596 1044,593 1054,590 1061,588 1067,586 1074,584 1080,582 1087,579 1093,577 1100,574 1106,571 1112,569 1118,566" stroke="#696969" fill="none"/>
 <polygon points="1116,563 1127,562 1119,570 1116,563" stroke="#696969" fill="#696969"/>
 <polygon points="1233,604 1099,604 1099,640 1233,640 1233,604" stroke="#0000ff" fill="none"/>
 <text x="1107" y="624" fill="#000000" font-family="Arial" font-size="12">Get_APB2_Freq</text>
 <polyline points="945,665 958,663 972,660 986,657 1001,654 1015,651 1030,648 1045,646 1060,643 1074,640 1088,637" stroke="#696969" fill="none"/>
 <polygon points="1088,634 1098,635 1089,640 1088,634" stroke="#696969" fill="#696969"/>
 <polygon points="1233,658 1099,658 1099,694 1233,694 1233,658" stroke="#0000ff" fill="none"/>
 <text x="1107" y="678" fill="#000000" font-family="Arial" font-size="12">Get_APB1_Freq</text>
 <polyline points="945,676 958,676 972,676 986,676 1001,676 1015,676 1030,676 1045,676 1060,676 1074,676 1088,676" stroke="#696969" fill="none"/>
 <polygon points="1088,673 1098,676 1088,680 1088,673" stroke="#696969" fill="#696969"/>
 <ellipse cx="1454" cy="650" rx="88" ry="18" stroke="#000000" fill="#fffffe00"/>
 <text x="1400" y="652" fill="#000000" font-family="Arial" font-size="12">APB_Prescaler</text>
 <polyline points="1233,629 1245,630 1258,631 1271,633 1284,634 1297,635 1311,636 1325,638 1338,639 1351,641 1364,642" stroke="#0000ff" fill="none"/>
 <text x="1290" y="627" fill="#000000" font-family="Arial" font-size="12">Return</text>
 <polygon points="1364,638 1374,643 1364,645 1364,638" stroke="#0000ff" fill="#0000ff"/>
 <polyline points="1233,675 1243,675 1254,674 1266,674 1277,673 1289,673 1301,672 1313,671 1325,670 1336,669 1348,668 1351,668 1354,667 1357,667 1360,667 1363,666 1366,666 1369,666 1372,665 1375,665 1378,664" stroke="#0000ff" fill="none"/>
 <text x="1290" y="661" fill="#000000" font-family="Arial" font-size="12">Return</text>
 <polygon points="1378,661 1389,663 1379,668 1378,661" stroke="#0000ff" fill="#0000ff"/>
 <polygon points="991,712 779,712 779,748 991,748 991,712" stroke="#0000ff" fill="none"/>
 <text x="787" y="732" fill="#000000" font-family="Arial" font-size="12">Select_SPI_Pins_datasheet</text>
 <polyline points="498,681 517,683 540,686 565,689 592,693 621,697 651,700 681,704 711,708 741,712 769,715" stroke="#696969" fill="none"/>
 <polygon points="770,712 779,717 769,719 770,712" stroke="#696969" fill="#696969"/>
 <polygon points="1234,712 1098,712 1098,748 1234,748 1234,712" stroke="#0000ff" fill="none"/>
 <text x="1106" y="732" fill="#000000" font-family="Arial" font-size="12">Config_SPI_Pins</text>
 <polyline points="992,730 1001,730 1011,730 1021,730 1030,730 1040,730 1050,730 1060,730 1069,730 1078,730 1087,730" stroke="#696969" fill="none"/>
 <polygon points="1088,727 1098,730 1088,734 1088,727" stroke="#696969" fill="#696969"/>
</svg>
