<?xml version="1.0"?>
<svg width="1233" height="1759" xmlns="http://www.w3.org/2000/svg" version="1.1">
 <polyline points="186,873 204,873 224,31 240,31" stroke="#4E8CB9" fill="none"/>
 <polyline points="186,873 204,873 224,132 240,132" stroke="#4E8CB9" fill="none"/>
 <polyline points="186,873 204,873 224,247 240,247" stroke="#4E8CB9" fill="none"/>
 <polyline points="186,873 204,873 224,303 240,303" stroke="#4E8CB9" fill="none"/>
 <polyline points="186,873 204,873 224,559 240,559" stroke="#C0C0C0" fill="none"/>
 <polyline points="186,873 204,873 224,981 240,981" stroke="#4E8CB9" fill="none"/>
 <polyline points="186,873 204,873 224,1366 240,1366" stroke="#C0C0C0" fill="none"/>
 <polyline points="186,873 204,873 224,1663 240,1663" stroke="#4E8CB9" fill="none"/>
 <polyline points="186,873 204,873 224,1689 240,1689" stroke="#4E8CB9" fill="none"/>
 <polyline points="186,873 204,873 224,1715 240,1715" stroke="#4E8CB9" fill="none"/>
 <polyline points="314,31 332,31 398,18 414,18" stroke="#4E8CB9" fill="none"/>
 <polyline points="314,31 332,31 398,44 414,44" stroke="#4E8CB9" fill="none"/>
 <polyline points="295,132 313,132 398,74 414,74" stroke="#4E8CB9" fill="none"/>
 <polyline points="295,132 313,132 398,100 414,100" stroke="#4E8CB9" fill="none"/>
 <polyline points="295,132 313,132 398,126 414,126" stroke="#4E8CB9" fill="none"/>
 <polyline points="295,132 313,132 398,191 414,191" stroke="#4E8CB9" fill="none"/>
 <polyline points="321,247 339,247 398,221 414,221" stroke="#4E8CB9" fill="none"/>
 <polyline points="321,247 339,247 398,247 414,247" stroke="#4E8CB9" fill="none"/>
 <polyline points="321,247 339,247 398,273 414,273" stroke="#4E8CB9" fill="none"/>
 <polyline points="360,303 378,303 398,303 414,303" stroke="#4E8CB9" fill="none"/>
 <polyline points="300,559 318,559 398,333 414,333" stroke="#4E8CB9" fill="none"/>
 <polyline points="300,559 318,559 398,372 414,372" stroke="#4E8CB9" fill="none"/>
 <polyline points="300,559 318,559 398,508 414,508" stroke="#4E8CB9" fill="none"/>
 <polyline points="300,559 318,559 398,534 414,534" stroke="#4E8CB9" fill="none"/>
 <polyline points="300,559 318,559 398,559 414,559" stroke="#4E8CB9" fill="none"/>
 <polyline points="300,559 318,559 398,618 414,618" stroke="#4E8CB9" fill="none"/>
 <polyline points="300,559 318,559 398,644 414,644" stroke="#4E8CB9" fill="none"/>
 <polyline points="300,559 318,559 398,674 414,674" stroke="#4E8CB9" fill="none"/>
 <polyline points="300,559 318,559 398,717 414,717" stroke="#4E8CB9" fill="none"/>
 <polyline points="300,559 318,559 398,786 414,786" stroke="#4E8CB9" fill="none"/>
 <polyline points="294,981 312,981 398,816 414,816" stroke="#C0C0C0" fill="none"/>
 <polyline points="294,981 312,981 398,842 414,842" stroke="#C0C0C0" fill="none"/>
 <polyline points="294,981 312,981 398,868 414,868" stroke="#C0C0C0" fill="none"/>
 <polyline points="294,981 312,981 398,894 414,894" stroke="#C0C0C0" fill="none"/>
 <polyline points="294,981 312,981 398,972 414,972" stroke="#C0C0C0" fill="none"/>
 <polyline points="294,981 312,981 398,998 414,998" stroke="#C0C0C0" fill="none"/>
 <polyline points="294,981 312,981 398,1024 414,1024" stroke="#C0C0C0" fill="none"/>
 <polyline points="294,981 312,981 398,1050 414,1050" stroke="#C0C0C0" fill="none"/>
 <polyline points="294,981 312,981 398,1076 414,1076" stroke="#4E8CB9" fill="none"/>
 <polyline points="294,981 312,981 398,1121 414,1121" stroke="#4E8CB9" fill="none"/>
 <polyline points="294,981 312,981 398,1147 414,1147" stroke="#4E8CB9" fill="none"/>
 <polyline points="300,1366 318,1366 398,1177 414,1177" stroke="#4E8CB9" fill="none"/>
 <polyline points="300,1366 318,1366 398,1216 414,1216" stroke="#4E8CB9" fill="none"/>
 <polyline points="300,1366 318,1366 398,1242 414,1242" stroke="#4E8CB9" fill="none"/>
 <polyline points="300,1366 318,1366 398,1294 414,1294" stroke="#4E8CB9" fill="none"/>
 <polyline points="300,1366 318,1366 398,1320 414,1320" stroke="#4E8CB9" fill="none"/>
 <polyline points="300,1366 318,1366 398,1350 414,1350" stroke="#4E8CB9" fill="none"/>
 <polyline points="300,1366 318,1366 398,1406 414,1406" stroke="#4E8CB9" fill="none"/>
 <polyline points="300,1366 318,1366 398,1555 414,1555" stroke="#4E8CB9" fill="none"/>
 <polyline points="291,1663 309,1663 398,1585 414,1585" stroke="#C0C0C0" fill="none"/>
 <polyline points="291,1663 309,1663 398,1611 414,1611" stroke="#C0C0C0" fill="none"/>
 <polyline points="291,1663 309,1663 398,1637 414,1637" stroke="#C0C0C0" fill="none"/>
 <polyline points="291,1663 309,1663 398,1663 414,1663" stroke="#C0C0C0" fill="none"/>
 <polyline points="291,1663 309,1663 398,1689 414,1689" stroke="#C0C0C0" fill="none"/>
 <polyline points="291,1663 309,1663 398,1715 414,1715" stroke="#4E8CB9" fill="none"/>
 <polyline points="291,1663 309,1663 398,1741 414,1741" stroke="#4E8CB9" fill="none"/>
 <polyline points="515,18 533,18 631,18 647,18" stroke="#4E8CB9" fill="none"/>
 <polyline points="517,191 535,191 631,152 647,152" stroke="#4E8CB9" fill="none"/>
 <polyline points="517,191 535,191 631,178 647,178" stroke="#4E8CB9" fill="none"/>
 <polyline points="517,191 535,191 631,230 647,230" stroke="#4E8CB9" fill="none"/>
 <polyline points="522,372 540,372 631,359 647,359" stroke="#4E8CB9" fill="none"/>
 <polyline points="522,372 540,372 631,385 647,385" stroke="#4E8CB9" fill="none"/>
 <polyline points="593,508 611,508 631,454 647,454" stroke="#4E8CB9" fill="none"/>
 <polyline points="593,508 611,508 631,536 647,536" stroke="#4E8CB9" fill="none"/>
 <polyline points="593,508 611,508 631,562 647,562" stroke="#4E8CB9" fill="none"/>
 <polyline points="583,618 601,618 631,592 647,592" stroke="#4E8CB9" fill="none"/>
 <polyline points="583,618 601,618 631,618 647,618" stroke="#4E8CB9" fill="none"/>
 <polyline points="583,618 601,618 631,644 647,644" stroke="#4E8CB9" fill="none"/>
 <polyline points="564,674 582,674 631,674 647,674" stroke="#4E8CB9" fill="none"/>
 <polyline points="471,717 489,717 631,704 647,704" stroke="#4E8CB9" fill="none"/>
 <polyline points="471,717 489,717 631,730 647,730" stroke="#4E8CB9" fill="none"/>
 <polyline points="528,786 546,786 631,760 647,760" stroke="#4E8CB9" fill="none"/>
 <polyline points="528,786 546,786 631,786 647,786" stroke="#4E8CB9" fill="none"/>
 <polyline points="528,786 546,786 631,812 647,812" stroke="#4E8CB9" fill="none"/>
 <polyline points="536,972 554,972 631,920 647,920" stroke="#4E8CB9" fill="none"/>
 <polyline points="536,972 554,972 631,946 647,946" stroke="#4E8CB9" fill="none"/>
 <polyline points="536,972 554,972 631,972 647,972" stroke="#4E8CB9" fill="none"/>
 <polyline points="536,972 554,972 631,998 647,998" stroke="#4E8CB9" fill="none"/>
 <polyline points="536,972 554,972 631,1024 647,1024" stroke="#4E8CB9" fill="none"/>
 <polyline points="513,1076 531,1076 631,1076 647,1076" stroke="#4E8CB9" fill="none"/>
 <polyline points="504,1121 522,1121 631,1106 647,1106" stroke="#4E8CB9" fill="none"/>
 <polyline points="504,1121 522,1121 631,1136 647,1136" stroke="#4E8CB9" fill="none"/>
 <polyline points="522,1216 540,1216 631,1203 647,1203" stroke="#4E8CB9" fill="none"/>
 <polyline points="522,1216 540,1216 631,1229 647,1229" stroke="#4E8CB9" fill="none"/>
 <polyline points="583,1294 601,1294 631,1268 647,1268" stroke="#4E8CB9" fill="none"/>
 <polyline points="583,1294 601,1294 631,1294 647,1294" stroke="#4E8CB9" fill="none"/>
 <polyline points="583,1294 601,1294 631,1320 647,1320" stroke="#4E8CB9" fill="none"/>
 <polyline points="564,1350 582,1350 631,1350 647,1350" stroke="#4E8CB9" fill="none"/>
 <polyline points="528,1406 546,1406 631,1380 647,1380" stroke="#4E8CB9" fill="none"/>
 <polyline points="528,1406 546,1406 631,1406 647,1406" stroke="#4E8CB9" fill="none"/>
 <polyline points="528,1406 546,1406 631,1432 647,1432" stroke="#4E8CB9" fill="none"/>
 <polyline points="593,1555 611,1555 631,1501 647,1501" stroke="#4E8CB9" fill="none"/>
 <polyline points="593,1555 611,1555 631,1583 647,1583" stroke="#4E8CB9" fill="none"/>
 <polyline points="593,1555 611,1555 631,1609 647,1609" stroke="#4E8CB9" fill="none"/>
 <polyline points="582,1715 600,1715 631,1715 647,1715" stroke="#4E8CB9" fill="none"/>
 <polyline points="750,230 768,230 831,204 847,204" stroke="#4E8CB9" fill="none"/>
 <polyline points="750,230 768,230 831,230 847,230" stroke="#4E8CB9" fill="none"/>
 <polyline points="750,230 768,230 831,256 847,256" stroke="#4E8CB9" fill="none"/>
 <polyline points="773,454 791,454 831,454 847,454" stroke="#4E8CB9" fill="none"/>
 <polyline points="747,536 765,536 831,484 847,484" stroke="#4E8CB9" fill="none"/>
 <polyline points="747,536 765,536 831,510 847,510" stroke="#4E8CB9" fill="none"/>
 <polyline points="747,536 765,536 831,536 847,536" stroke="#4E8CB9" fill="none"/>
 <polyline points="747,536 765,536 831,588 847,588" stroke="#4E8CB9" fill="none"/>
 <polyline points="793,674 811,674 831,674 847,674" stroke="#4E8CB9" fill="none"/>
 <polyline points="748,1106 766,1106 831,1106 847,1106" stroke="#4E8CB9" fill="none"/>
 <polyline points="748,1136 766,1136 831,1136 847,1136" stroke="#4E8CB9" fill="none"/>
 <polyline points="793,1350 811,1350 831,1350 847,1350" stroke="#4E8CB9" fill="none"/>
 <polyline points="773,1501 791,1501 831,1501 847,1501" stroke="#4E8CB9" fill="none"/>
 <polyline points="747,1583 765,1583 831,1531 847,1531" stroke="#4E8CB9" fill="none"/>
 <polyline points="747,1583 765,1583 831,1557 847,1557" stroke="#4E8CB9" fill="none"/>
 <polyline points="747,1583 765,1583 831,1583 847,1583" stroke="#4E8CB9" fill="none"/>
 <polyline points="747,1583 765,1583 831,1635 847,1635" stroke="#4E8CB9" fill="none"/>
 <polyline points="750,1715 768,1715 831,1715 847,1715" stroke="#4E8CB9" fill="none"/>
 <polyline points="950,454 968,454 989,415 1005,415" stroke="#4E8CB9" fill="none"/>
 <polyline points="950,454 968,454 989,441 1005,441" stroke="#4E8CB9" fill="none"/>
 <polyline points="950,454 968,454 989,493 1005,493" stroke="#4E8CB9" fill="none"/>
 <polyline points="950,588 968,588 989,562 1005,562" stroke="#4E8CB9" fill="none"/>
 <polyline points="950,588 968,588 989,588 1005,588" stroke="#4E8CB9" fill="none"/>
 <polyline points="950,588 968,588 989,614 1005,614" stroke="#4E8CB9" fill="none"/>
 <polyline points="948,1106 966,1106 989,1106 1005,1106" stroke="#4E8CB9" fill="none"/>
 <polyline points="948,1136 966,1136 989,1136 1005,1136" stroke="#4E8CB9" fill="none"/>
 <polyline points="950,1501 968,1501 989,1462 1005,1462" stroke="#4E8CB9" fill="none"/>
 <polyline points="950,1501 968,1501 989,1488 1005,1488" stroke="#4E8CB9" fill="none"/>
 <polyline points="950,1501 968,1501 989,1540 1005,1540" stroke="#4E8CB9" fill="none"/>
 <polyline points="950,1635 968,1635 989,1609 1005,1609" stroke="#4E8CB9" fill="none"/>
 <polyline points="950,1635 968,1635 989,1635 1005,1635" stroke="#4E8CB9" fill="none"/>
 <polyline points="950,1635 968,1635 989,1661 1005,1661" stroke="#4E8CB9" fill="none"/>
 <polyline points="1108,493 1126,493 1146,467 1162,467" stroke="#4E8CB9" fill="none"/>
 <polyline points="1108,493 1126,493 1146,493 1162,493" stroke="#4E8CB9" fill="none"/>
 <polyline points="1108,493 1126,493 1146,519 1162,519" stroke="#4E8CB9" fill="none"/>
 <polyline points="1108,1540 1126,1540 1146,1514 1162,1514" stroke="#4E8CB9" fill="none"/>
 <polyline points="1108,1540 1126,1540 1146,1540 1162,1540" stroke="#4E8CB9" fill="none"/>
 <polyline points="1108,1540 1126,1540 1146,1566 1162,1566" stroke="#4E8CB9" fill="none"/>
 <rect x="7" y="862" width="179" height="22" stroke="#90C4E4" fill="none"/>
 <text x="10" y="875" fill="#4E8CB9" font-family="Arial" font-size="10">config_Drives_and_Perpherals</text>
 <rect x="240" y="20" width="74" height="22" stroke="#90C4E4" fill="none"/>
 <text x="243" y="33" fill="#000000" font-family="Arial" font-size="10">Init_Systick</text>
 <rect x="240" y="121" width="55" height="22" stroke="#90C4E4" fill="none"/>
 <text x="243" y="134" fill="#000000" font-family="Arial" font-size="10">LCD_init</text>
 <rect x="240" y="236" width="81" height="22" stroke="#90C4E4" fill="none"/>
 <text x="243" y="249" fill="#000000" font-family="Arial" font-size="10">Key_pad_init</text>
 <rect x="240" y="292" width="120" height="22" stroke="#90C4E4" fill="none"/>
 <text x="243" y="305" fill="#000000" font-family="Arial" font-size="10">init_seven_segment</text>
 <rect x="240" y="548" width="60" height="22" stroke="#90C4E4" fill="none"/>
 <text x="243" y="561" fill="#000000" font-family="Arial" font-size="10">Rx_Uart1</text>
 <rect x="240" y="970" width="54" height="22" stroke="#90C4E4" fill="none"/>
 <text x="243" y="983" fill="#000000" font-family="Arial" font-size="10">Init_Uart</text>
 <rect x="240" y="1355" width="60" height="22" stroke="#90C4E4" fill="none"/>
 <text x="243" y="1368" fill="#000000" font-family="Arial" font-size="10">Rx_Uart2</text>
 <rect x="240" y="1652" width="51" height="22" stroke="#90C4E4" fill="none"/>
 <text x="243" y="1665" fill="#000000" font-family="Arial" font-size="10">Init_SPI</text>
 <rect x="240" y="1678" width="62" height="22" stroke="#90C4E4" fill="none"/>
 <text x="243" y="1691" fill="#000000" font-family="Arial" font-size="10">Init_GPIO</text>
 <rect x="240" y="1704" width="50" height="22" stroke="#90C4E4" fill="none"/>
 <text x="243" y="1717" fill="#000000" font-family="Arial" font-size="10">Set_pin</text>
 <rect x="414" y="7" width="101" height="22" stroke="#90C4E4" fill="none"/>
 <text x="417" y="20" fill="#000000" font-family="Arial" font-size="10">Get_HCLK_Freq</text>
 <rect x="414" y="33" width="119" height="22" stroke="#90C4E4" fill="none"/>
 <text x="417" y="46" fill="#000000" font-family="Arial" font-size="10">__NVIC_EnableIRQ</text>
 <rect x="414" y="63" width="62" height="22" stroke="#90C4E4" fill="none"/>
 <text x="417" y="76" fill="#000000" font-family="Arial" font-size="10">Init_GPIO</text>
 <rect x="414" y="89" width="64" height="22" stroke="#90C4E4" fill="none"/>
 <text x="417" y="102" fill="#000000" font-family="Arial" font-size="10">Reset_pin</text>
 <rect x="414" y="115" width="58" height="22" stroke="#90C4E4" fill="none"/>
 <text x="417" y="128" fill="#000000" font-family="Arial" font-size="10">delay_us</text>
 <rect x="414" y="180" width="103" height="22" stroke="#90C4E4" fill="none"/>
 <text x="417" y="193" fill="#000000" font-family="Arial" font-size="10">Write_Command</text>
 <rect x="414" y="210" width="127" height="22" stroke="#90C4E4" fill="none"/>
 <text x="417" y="223" fill="#000000" font-family="Arial" font-size="10">Check_Keypad_Pins</text>
 <rect x="414" y="236" width="62" height="22" stroke="#90C4E4" fill="none"/>
 <text x="417" y="249" fill="#000000" font-family="Arial" font-size="10">Init_GPIO</text>
 <rect x="414" y="262" width="64" height="22" stroke="#90C4E4" fill="none"/>
 <text x="417" y="275" fill="#000000" font-family="Arial" font-size="10">Reset_pin</text>
 <rect x="414" y="292" width="62" height="22" stroke="#90C4E4" fill="none"/>
 <text x="417" y="305" fill="#000000" font-family="Arial" font-size="10">Init_GPIO</text>
 <rect x="414" y="322" width="116" height="22" stroke="#90C4E4" fill="none"/>
 <text x="417" y="335" fill="#000000" font-family="Arial" font-size="10">Receive_Char_Uart</text>
 <rect x="414" y="361" width="108" height="22" stroke="#90C4E4" fill="none"/>
 <text x="417" y="374" fill="#000000" font-family="Arial" font-size="10">Send_String_Uart</text>
 <rect x="414" y="497" width="179" height="22" stroke="#90C4E4" fill="none"/>
 <text x="417" y="510" fill="#000000" font-family="Arial" font-size="10">Write_String_with_coordinator</text>
 <rect x="414" y="523" width="58" height="22" stroke="#90C4E4" fill="none"/>
 <text x="417" y="536" fill="#000000" font-family="Arial" font-size="10">delay_us</text>
 <rect x="414" y="549" width="174" height="22" stroke="#90C4E4" fill="none"/>
 <text x="417" y="562" fill="#000000" font-family="Arial" font-size="10">Convert_Buffer16_to_Variable</text>
 <rect x="414" y="607" width="169" height="22" stroke="#90C4E4" fill="none"/>
 <text x="417" y="620" fill="#000000" font-family="Arial" font-size="10">Read_Byte_EEPROM_25xx</text>
 <rect x="414" y="633" width="122" height="22" stroke="#90C4E4" fill="none"/>
 <text x="417" y="646" fill="#000000" font-family="Arial" font-size="10">comapre_two_string</text>
 <rect x="414" y="663" width="150" height="22" stroke="#90C4E4" fill="none"/>
 <text x="417" y="676" fill="#000000" font-family="Arial" font-size="10">Inc_Dec_seven_segment</text>
 <rect x="414" y="706" width="57" height="22" stroke="#90C4E4" fill="none"/>
 <text x="417" y="719" fill="#000000" font-family="Arial" font-size="10">Run_Led</text>
 <rect x="414" y="775" width="114" height="22" stroke="#90C4E4" fill="none"/>
 <text x="417" y="788" fill="#000000" font-family="Arial" font-size="10">Send_to_controller</text>
 <rect x="414" y="805" width="134" height="22" stroke="#90C4E4" fill="none"/>
 <text x="417" y="818" fill="#000000" font-family="Arial" font-size="10">Error_CallBack_UART</text>
 <rect x="414" y="831" width="140" height="22" stroke="#90C4E4" fill="none"/>
 <text x="417" y="844" fill="#000000" font-family="Arial" font-size="10">Parity_CallBack_UART</text>
 <rect x="414" y="857" width="120" height="22" stroke="#90C4E4" fill="none"/>
 <text x="417" y="870" fill="#000000" font-family="Arial" font-size="10">Tx_CallBack_UART</text>
 <rect x="414" y="883" width="161" height="22" stroke="#90C4E4" fill="none"/>
 <text x="417" y="896" fill="#000000" font-family="Arial" font-size="10">Tx_Comp_CallBack_UART</text>
 <rect x="414" y="961" width="122" height="22" stroke="#90C4E4" fill="none"/>
 <text x="417" y="974" fill="#000000" font-family="Arial" font-size="10">Rx_CallBack_UART</text>
 <rect x="414" y="987" width="134" height="22" stroke="#90C4E4" fill="none"/>
 <text x="417" y="1000" fill="#000000" font-family="Arial" font-size="10">IDLE_CallBack_UART</text>
 <rect x="414" y="1013" width="148" height="22" stroke="#90C4E4" fill="none"/>
 <text x="417" y="1026" fill="#000000" font-family="Arial" font-size="10">Lin_BK_CallBack_UART</text>
 <rect x="414" y="1039" width="146" height="22" stroke="#90C4E4" fill="none"/>
 <text x="417" y="1052" fill="#000000" font-family="Arial" font-size="10">FlowCt_CallBack_UART</text>
 <rect x="414" y="1065" width="99" height="22" stroke="#90C4E4" fill="none"/>
 <text x="417" y="1078" fill="#000000" font-family="Arial" font-size="10">_Config_GPIO_f</text>
 <rect x="414" y="1110" width="90" height="22" stroke="#90C4E4" fill="none"/>
 <text x="417" y="1123" fill="#000000" font-family="Arial" font-size="10">Set_BaudRate</text>
 <rect x="414" y="1136" width="119" height="22" stroke="#90C4E4" fill="none"/>
 <text x="417" y="1149" fill="#000000" font-family="Arial" font-size="10">__NVIC_EnableIRQ</text>
 <rect x="414" y="1166" width="116" height="22" stroke="#90C4E4" fill="none"/>
 <text x="417" y="1179" fill="#000000" font-family="Arial" font-size="10">Receive_Char_Uart</text>
 <rect x="414" y="1205" width="108" height="22" stroke="#90C4E4" fill="none"/>
 <text x="417" y="1218" fill="#000000" font-family="Arial" font-size="10">Send_String_Uart</text>
 <rect x="414" y="1231" width="174" height="22" stroke="#90C4E4" fill="none"/>
 <text x="417" y="1244" fill="#000000" font-family="Arial" font-size="10">Convert_Buffer16_to_Variable</text>
 <rect x="414" y="1283" width="169" height="22" stroke="#90C4E4" fill="none"/>
 <text x="417" y="1296" fill="#000000" font-family="Arial" font-size="10">Read_Byte_EEPROM_25xx</text>
 <rect x="414" y="1309" width="122" height="22" stroke="#90C4E4" fill="none"/>
 <text x="417" y="1322" fill="#000000" font-family="Arial" font-size="10">comapre_two_string</text>
 <rect x="414" y="1339" width="150" height="22" stroke="#90C4E4" fill="none"/>
 <text x="417" y="1352" fill="#000000" font-family="Arial" font-size="10">Inc_Dec_seven_segment</text>
 <rect x="414" y="1395" width="114" height="22" stroke="#90C4E4" fill="none"/>
 <text x="417" y="1408" fill="#000000" font-family="Arial" font-size="10">Send_to_controller</text>
 <rect x="414" y="1544" width="179" height="22" stroke="#90C4E4" fill="none"/>
 <text x="417" y="1557" fill="#000000" font-family="Arial" font-size="10">Write_String_with_coordinator</text>
 <rect x="414" y="1574" width="124" height="22" stroke="#90C4E4" fill="none"/>
 <text x="417" y="1587" fill="#000000" font-family="Arial" font-size="10">Tx_Empty_CallBack</text>
 <rect x="414" y="1600" width="126" height="22" stroke="#90C4E4" fill="none"/>
 <text x="417" y="1613" fill="#000000" font-family="Arial" font-size="10">RX_Empty_CallBack</text>
 <rect x="414" y="1626" width="133" height="22" stroke="#90C4E4" fill="none"/>
 <text x="417" y="1639" fill="#000000" font-family="Arial" font-size="10">Fault_Event_CallBack</text>
 <rect x="414" y="1652" width="109" height="22" stroke="#90C4E4" fill="none"/>
 <text x="417" y="1665" fill="#000000" font-family="Arial" font-size="10">Overrun_CallBack</text>
 <rect x="414" y="1678" width="92" height="22" stroke="#90C4E4" fill="none"/>
 <text x="417" y="1691" fill="#000000" font-family="Arial" font-size="10">CRC_CallBack</text>
 <rect x="414" y="1704" width="168" height="22" stroke="#90C4E4" fill="none"/>
 <text x="417" y="1717" fill="#000000" font-family="Arial" font-size="10">Select_SPI_Pins_datasheet</text>
 <rect x="414" y="1730" width="119" height="22" stroke="#90C4E4" fill="none"/>
 <text x="417" y="1743" fill="#000000" font-family="Arial" font-size="10">__NVIC_EnableIRQ</text>
 <rect x="647" y="7" width="111" height="22" stroke="#90C4E4" fill="none"/>
 <text x="650" y="20" fill="#000000" font-family="Arial" font-size="10">Get_Systick_Freq</text>
 <rect x="647" y="141" width="104" height="22" stroke="#90C4E4" fill="none"/>
 <text x="650" y="154" fill="#000000" font-family="Arial" font-size="10">Set_GPIO_Value</text>
 <rect x="647" y="167" width="64" height="22" stroke="#90C4E4" fill="none"/>
 <text x="650" y="180" fill="#000000" font-family="Arial" font-size="10">Reset_pin</text>
 <rect x="647" y="219" width="103" height="22" stroke="#90C4E4" fill="none"/>
 <text x="650" y="232" fill="#000000" font-family="Arial" font-size="10">Kick_Enable_pin</text>
 <rect x="647" y="348" width="101" height="22" stroke="#90C4E4" fill="none"/>
 <text x="650" y="361" fill="#000000" font-family="Arial" font-size="10">Send_Char_Uart</text>
 <rect x="647" y="374" width="58" height="22" stroke="#90C4E4" fill="none"/>
 <text x="650" y="387" fill="#000000" font-family="Arial" font-size="10">delay_us</text>
 <rect x="647" y="443" width="126" height="22" stroke="#90C4E4" fill="none"/>
 <text x="650" y="456" fill="#000000" font-family="Arial" font-size="10">Jump_to_coordinator</text>
 <rect x="647" y="525" width="100" height="22" stroke="#90C4E4" fill="none"/>
 <text x="650" y="538" fill="#000000" font-family="Arial" font-size="10">Write_Character</text>
 <rect x="647" y="551" width="58" height="22" stroke="#90C4E4" fill="none"/>
 <text x="650" y="564" fill="#000000" font-family="Arial" font-size="10">delay_us</text>
 <rect x="647" y="581" width="64" height="22" stroke="#90C4E4" fill="none"/>
 <text x="650" y="594" fill="#000000" font-family="Arial" font-size="10">Reset_pin</text>
 <rect x="647" y="607" width="105" height="22" stroke="#90C4E4" fill="none"/>
 <text x="650" y="620" fill="#000000" font-family="Arial" font-size="10">SPI_Tx_Rx_Char</text>
 <rect x="647" y="633" width="50" height="22" stroke="#90C4E4" fill="none"/>
 <text x="650" y="646" fill="#000000" font-family="Arial" font-size="10">Set_pin</text>
 <rect x="647" y="663" width="146" height="22" stroke="#90C4E4" fill="none"/>
 <text x="650" y="676" fill="#000000" font-family="Arial" font-size="10">Display_seven_segment</text>
 <rect x="647" y="693" width="64" height="22" stroke="#90C4E4" fill="none"/>
 <text x="650" y="706" fill="#000000" font-family="Arial" font-size="10">Reset_pin</text>
 <rect x="647" y="719" width="50" height="22" stroke="#90C4E4" fill="none"/>
 <text x="650" y="732" fill="#000000" font-family="Arial" font-size="10">Set_pin</text>
 <rect x="647" y="749" width="64" height="22" stroke="#90C4E4" fill="none"/>
 <text x="650" y="762" fill="#000000" font-family="Arial" font-size="10">Reset_pin</text>
 <rect x="647" y="775" width="105" height="22" stroke="#90C4E4" fill="none"/>
 <text x="650" y="788" fill="#000000" font-family="Arial" font-size="10">SPI_Tx_Rx_Char</text>
 <rect x="647" y="801" width="50" height="22" stroke="#90C4E4" fill="none"/>
 <text x="650" y="814" fill="#000000" font-family="Arial" font-size="10">Set_pin</text>
 <rect x="647" y="909" width="116" height="22" stroke="#90C4E4" fill="none"/>
 <text x="650" y="922" fill="#000000" font-family="Arial" font-size="10">Receive_Char_Uart</text>
 <rect x="647" y="935" width="101" height="22" stroke="#90C4E4" fill="none"/>
 <text x="650" y="948" fill="#000000" font-family="Arial" font-size="10">Send_Char_Uart</text>
 <rect x="647" y="961" width="64" height="22" stroke="#90C4E4" fill="none"/>
 <text x="650" y="974" fill="#000000" font-family="Arial" font-size="10">Reset_pin</text>
 <rect x="647" y="987" width="105" height="22" stroke="#90C4E4" fill="none"/>
 <text x="650" y="1000" fill="#000000" font-family="Arial" font-size="10">SPI_Tx_Rx_Char</text>
 <rect x="647" y="1013" width="50" height="22" stroke="#90C4E4" fill="none"/>
 <text x="650" y="1026" fill="#000000" font-family="Arial" font-size="10">Set_pin</text>
 <rect x="647" y="1065" width="62" height="22" stroke="#90C4E4" fill="none"/>
 <text x="650" y="1078" fill="#000000" font-family="Arial" font-size="10">Init_GPIO</text>
 <rect x="647" y="1095" width="101" height="22" stroke="#90C4E4" fill="none"/>
 <text x="650" y="1108" fill="#000000" font-family="Arial" font-size="10">Get_APB2_Freq</text>
 <rect x="647" y="1125" width="101" height="22" stroke="#90C4E4" fill="none"/>
 <text x="650" y="1138" fill="#000000" font-family="Arial" font-size="10">Get_APB1_Freq</text>
 <rect x="647" y="1192" width="101" height="22" stroke="#90C4E4" fill="none"/>
 <text x="650" y="1205" fill="#000000" font-family="Arial" font-size="10">Send_Char_Uart</text>
 <rect x="647" y="1218" width="58" height="22" stroke="#90C4E4" fill="none"/>
 <text x="650" y="1231" fill="#000000" font-family="Arial" font-size="10">delay_us</text>
 <rect x="647" y="1257" width="64" height="22" stroke="#90C4E4" fill="none"/>
 <text x="650" y="1270" fill="#000000" font-family="Arial" font-size="10">Reset_pin</text>
 <rect x="647" y="1283" width="105" height="22" stroke="#90C4E4" fill="none"/>
 <text x="650" y="1296" fill="#000000" font-family="Arial" font-size="10">SPI_Tx_Rx_Char</text>
 <rect x="647" y="1309" width="50" height="22" stroke="#90C4E4" fill="none"/>
 <text x="650" y="1322" fill="#000000" font-family="Arial" font-size="10">Set_pin</text>
 <rect x="647" y="1339" width="146" height="22" stroke="#90C4E4" fill="none"/>
 <text x="650" y="1352" fill="#000000" font-family="Arial" font-size="10">Display_seven_segment</text>
 <rect x="647" y="1369" width="64" height="22" stroke="#90C4E4" fill="none"/>
 <text x="650" y="1382" fill="#000000" font-family="Arial" font-size="10">Reset_pin</text>
 <rect x="647" y="1395" width="105" height="22" stroke="#90C4E4" fill="none"/>
 <text x="650" y="1408" fill="#000000" font-family="Arial" font-size="10">SPI_Tx_Rx_Char</text>
 <rect x="647" y="1421" width="50" height="22" stroke="#90C4E4" fill="none"/>
 <text x="650" y="1434" fill="#000000" font-family="Arial" font-size="10">Set_pin</text>
 <rect x="647" y="1490" width="126" height="22" stroke="#90C4E4" fill="none"/>
 <text x="650" y="1503" fill="#000000" font-family="Arial" font-size="10">Jump_to_coordinator</text>
 <rect x="647" y="1572" width="100" height="22" stroke="#90C4E4" fill="none"/>
 <text x="650" y="1585" fill="#000000" font-family="Arial" font-size="10">Write_Character</text>
 <rect x="647" y="1598" width="58" height="22" stroke="#90C4E4" fill="none"/>
 <text x="650" y="1611" fill="#000000" font-family="Arial" font-size="10">delay_us</text>
 <rect x="647" y="1704" width="103" height="22" stroke="#90C4E4" fill="none"/>
 <text x="650" y="1717" fill="#000000" font-family="Arial" font-size="10">Config_SPI_Pins</text>
 <rect x="847" y="193" width="50" height="22" stroke="#90C4E4" fill="none"/>
 <text x="850" y="206" fill="#000000" font-family="Arial" font-size="10">Set_pin</text>
 <rect x="847" y="219" width="58" height="22" stroke="#90C4E4" fill="none"/>
 <text x="850" y="232" fill="#000000" font-family="Arial" font-size="10">delay_us</text>
 <rect x="847" y="245" width="64" height="22" stroke="#90C4E4" fill="none"/>
 <text x="850" y="258" fill="#000000" font-family="Arial" font-size="10">Reset_pin</text>
 <rect x="847" y="443" width="103" height="22" stroke="#90C4E4" fill="none"/>
 <text x="850" y="456" fill="#000000" font-family="Arial" font-size="10">Write_Command</text>
 <rect x="847" y="473" width="104" height="22" stroke="#90C4E4" fill="none"/>
 <text x="850" y="486" fill="#000000" font-family="Arial" font-size="10">Set_GPIO_Value</text>
 <rect x="847" y="499" width="50" height="22" stroke="#90C4E4" fill="none"/>
 <text x="850" y="512" fill="#000000" font-family="Arial" font-size="10">Set_pin</text>
 <rect x="847" y="525" width="64" height="22" stroke="#90C4E4" fill="none"/>
 <text x="850" y="538" fill="#000000" font-family="Arial" font-size="10">Reset_pin</text>
 <rect x="847" y="577" width="103" height="22" stroke="#90C4E4" fill="none"/>
 <text x="850" y="590" fill="#000000" font-family="Arial" font-size="10">Kick_Enable_pin</text>
 <rect x="847" y="663" width="114" height="22" stroke="#90C4E4" fill="none"/>
 <text x="850" y="676" fill="#000000" font-family="Arial" font-size="10">Change_State_Pin</text>
 <rect x="847" y="1095" width="101" height="22" stroke="#90C4E4" fill="none"/>
 <text x="850" y="1108" fill="#000000" font-family="Arial" font-size="10">Get_HCLK_Freq</text>
 <rect x="847" y="1125" width="101" height="22" stroke="#90C4E4" fill="none"/>
 <text x="850" y="1138" fill="#000000" font-family="Arial" font-size="10">Get_HCLK_Freq</text>
 <rect x="847" y="1339" width="114" height="22" stroke="#90C4E4" fill="none"/>
 <text x="850" y="1352" fill="#000000" font-family="Arial" font-size="10">Change_State_Pin</text>
 <rect x="847" y="1490" width="103" height="22" stroke="#90C4E4" fill="none"/>
 <text x="850" y="1503" fill="#000000" font-family="Arial" font-size="10">Write_Command</text>
 <rect x="847" y="1520" width="104" height="22" stroke="#90C4E4" fill="none"/>
 <text x="850" y="1533" fill="#000000" font-family="Arial" font-size="10">Set_GPIO_Value</text>
 <rect x="847" y="1546" width="50" height="22" stroke="#90C4E4" fill="none"/>
 <text x="850" y="1559" fill="#000000" font-family="Arial" font-size="10">Set_pin</text>
 <rect x="847" y="1572" width="64" height="22" stroke="#90C4E4" fill="none"/>
 <text x="850" y="1585" fill="#000000" font-family="Arial" font-size="10">Reset_pin</text>
 <rect x="847" y="1624" width="103" height="22" stroke="#90C4E4" fill="none"/>
 <text x="850" y="1637" fill="#000000" font-family="Arial" font-size="10">Kick_Enable_pin</text>
 <rect x="847" y="1704" width="62" height="22" stroke="#90C4E4" fill="none"/>
 <text x="850" y="1717" fill="#000000" font-family="Arial" font-size="10">Init_GPIO</text>
 <rect x="1005" y="404" width="104" height="22" stroke="#90C4E4" fill="none"/>
 <text x="1008" y="417" fill="#000000" font-family="Arial" font-size="10">Set_GPIO_Value</text>
 <rect x="1005" y="430" width="64" height="22" stroke="#90C4E4" fill="none"/>
 <text x="1008" y="443" fill="#000000" font-family="Arial" font-size="10">Reset_pin</text>
 <rect x="1005" y="482" width="103" height="22" stroke="#90C4E4" fill="none"/>
 <text x="1008" y="495" fill="#000000" font-family="Arial" font-size="10">Kick_Enable_pin</text>
 <rect x="1005" y="551" width="50" height="22" stroke="#90C4E4" fill="none"/>
 <text x="1008" y="564" fill="#000000" font-family="Arial" font-size="10">Set_pin</text>
 <rect x="1005" y="577" width="58" height="22" stroke="#90C4E4" fill="none"/>
 <text x="1008" y="590" fill="#000000" font-family="Arial" font-size="10">delay_us</text>
 <rect x="1005" y="603" width="64" height="22" stroke="#90C4E4" fill="none"/>
 <text x="1008" y="616" fill="#000000" font-family="Arial" font-size="10">Reset_pin</text>
 <rect x="1005" y="1095" width="111" height="22" stroke="#90C4E4" fill="none"/>
 <text x="1008" y="1108" fill="#000000" font-family="Arial" font-size="10">Get_Systick_Freq</text>
 <rect x="1005" y="1125" width="111" height="22" stroke="#90C4E4" fill="none"/>
 <text x="1008" y="1138" fill="#000000" font-family="Arial" font-size="10">Get_Systick_Freq</text>
 <rect x="1005" y="1451" width="104" height="22" stroke="#90C4E4" fill="none"/>
 <text x="1008" y="1464" fill="#000000" font-family="Arial" font-size="10">Set_GPIO_Value</text>
 <rect x="1005" y="1477" width="64" height="22" stroke="#90C4E4" fill="none"/>
 <text x="1008" y="1490" fill="#000000" font-family="Arial" font-size="10">Reset_pin</text>
 <rect x="1005" y="1529" width="103" height="22" stroke="#90C4E4" fill="none"/>
 <text x="1008" y="1542" fill="#000000" font-family="Arial" font-size="10">Kick_Enable_pin</text>
 <rect x="1005" y="1598" width="50" height="22" stroke="#90C4E4" fill="none"/>
 <text x="1008" y="1611" fill="#000000" font-family="Arial" font-size="10">Set_pin</text>
 <rect x="1005" y="1624" width="58" height="22" stroke="#90C4E4" fill="none"/>
 <text x="1008" y="1637" fill="#000000" font-family="Arial" font-size="10">delay_us</text>
 <rect x="1005" y="1650" width="64" height="22" stroke="#90C4E4" fill="none"/>
 <text x="1008" y="1663" fill="#000000" font-family="Arial" font-size="10">Reset_pin</text>
 <rect x="1162" y="456" width="50" height="22" stroke="#90C4E4" fill="none"/>
 <text x="1165" y="469" fill="#000000" font-family="Arial" font-size="10">Set_pin</text>
 <rect x="1162" y="482" width="58" height="22" stroke="#90C4E4" fill="none"/>
 <text x="1165" y="495" fill="#000000" font-family="Arial" font-size="10">delay_us</text>
 <rect x="1162" y="508" width="64" height="22" stroke="#90C4E4" fill="none"/>
 <text x="1165" y="521" fill="#000000" font-family="Arial" font-size="10">Reset_pin</text>
 <rect x="1162" y="1503" width="50" height="22" stroke="#90C4E4" fill="none"/>
 <text x="1165" y="1516" fill="#000000" font-family="Arial" font-size="10">Set_pin</text>
 <rect x="1162" y="1529" width="58" height="22" stroke="#90C4E4" fill="none"/>
 <text x="1165" y="1542" fill="#000000" font-family="Arial" font-size="10">delay_us</text>
 <rect x="1162" y="1555" width="64" height="22" stroke="#90C4E4" fill="none"/>
 <text x="1165" y="1568" fill="#000000" font-family="Arial" font-size="10">Reset_pin</text>
</svg>
