<?xml version="1.0"?>
<svg width="1004" height="1628" xmlns="http://www.w3.org/2000/svg" version="1.1">
 <polygon points="4,1624 4,3 1001,3 1001,1624 4,1624" stroke="#fffffe00" fill="none"/>
 <polygon points="157,708 4,708 4,744 157,744 157,708" stroke="#0000ff" fill="none"/>
 <text x="13" y="728" fill="#000000" font-family="Arial" font-size="12">Reaction_Of_Prass</text>
 <polygon points="464,3 360,3 360,39 464,39 464,3" stroke="#0000ff" fill="none"/>
 <text x="368" y="23" fill="#000000" font-family="Arial" font-size="12">Clear_Buffer</text>
 <polyline points="82,708 82,670 84,615 86,548 91,473 97,394 106,314 118,238 133,171 152,115 175,76 189,62 204,51 221,41 239,34 258,28 277,23 296,20 315,18 333,17 350,17" stroke="#696969" fill="none"/>
 <polygon points="350,13 360,17 350,20 350,13" stroke="#696969" fill="#696969"/>
 <polygon points="483,57 342,57 342,93 483,93 483,57" stroke="#0000ff" fill="none"/>
 <text x="350" y="77" fill="#000000" font-family="Arial" font-size="12">Send_String_Uart</text>
 <polyline points="81,708 81,671 83,618 85,554 89,481 95,405 104,329 116,258 132,194 151,142 175,107 188,96 202,87 217,80 233,74 249,69 266,66 283,64 300,63 316,63 332,64" stroke="#696969" fill="none"/>
 <polygon points="332,60 342,64 332,67 332,60" stroke="#696969" fill="#696969"/>
 <polygon points="780,85 646,85 646,121 780,121 780,85" stroke="#0000ff" fill="none"/>
 <text x="654" y="105" fill="#000000" font-family="Arial" font-size="12">Send_Char_Uart</text>
 <polyline points="82,708 84,675 87,629 92,573 98,511 106,446 116,380 127,318 141,262 157,216 175,183 197,163 231,147 273,134 322,123 375,116 431,110 487,106 541,104 592,102 636,102" stroke="#696969" fill="none"/>
 <polygon points="636,99 646,102 636,106 636,99" stroke="#696969" fill="#696969"/>
 <polygon points="521,149 303,149 303,185 521,185 521,149" stroke="#0000ff" fill="none"/>
 <text x="311" y="169" fill="#000000" font-family="Arial" font-size="12">Convert_Buffer8_to_Variable</text>
 <polyline points="82,708 84,676 87,632 91,580 97,521 104,459 114,398 125,339 139,288 156,246 175,216 184,207 195,199 206,192 217,186 229,180 242,176 254,172 267,169 280,167 293,165" stroke="#696969" fill="none"/>
 <polygon points="293,161 303,164 294,168 293,161" stroke="#696969" fill="#696969"/>
 <polygon points="518,203 307,203 307,239 518,239 518,203" stroke="#0000ff" fill="none"/>
 <text x="315" y="223" fill="#000000" font-family="Arial" font-size="12">Convert_uint8_t_to_uint16_t</text>
 <polyline points="82,708 84,677 86,635 91,585 96,529 104,471 113,413 125,359 139,311 155,272 175,246 185,238 196,230 207,224 219,219 232,215 245,212 258,209 271,208 284,207 297,206" stroke="#696969" fill="none"/>
 <polygon points="297,203 307,206 297,210 297,203" stroke="#696969" fill="#696969"/>
 <polygon points="522,257 302,257 302,293 522,293 522,257" stroke="#0000ff" fill="none"/>
 <text x="310" y="277" fill="#000000" font-family="Arial" font-size="12">Write_Bytes_EEPROM_25xx</text>
 <polyline points="82,708 84,678 86,638 91,589 96,535 104,480 113,424 125,372 139,327 155,290 175,266 181,262 189,259 199,256 210,255 222,254 235,253 249,253 263,254 277,255 292,256" stroke="#696969" fill="none"/>
 <polygon points="293,253 302,257 292,260 293,253" stroke="#696969" fill="#696969"/>
 <ellipse cx="412" cy="329" rx="108" ry="18" stroke="#000000" fill="#fffffe00"/>
 <text x="344" y="331" fill="#000000" font-family="Arial" font-size="12">Key_Buffer_counter</text>
 <polyline points="83,708 85,680 88,642 92,596 98,546 106,494 115,443 127,395 140,353 156,319 175,297 182,292 189,289 196,287 202,287 208,288 215,290 222,291 229,294 237,295 246,297 248,297 250,298 252,298 253,299 255,299 257,300 258,300 260,301 262,301 264,302 270,303 276,305 282,306 288,308 294,309 300,310 306,311 312,312 318,313 324,314" stroke="#006400" fill="none"/>
 <text x="199" y="281" fill="#000000" font-family="Arial" font-size="12">Set</text>
 <polygon points="325,311 334,316 324,318 325,311" stroke="#006400" fill="#006400"/>
 <polyline points="83,708 85,682 89,647 94,606 101,561 109,514 119,469 130,426 143,388 158,358 175,338 182,334 191,330 202,327 214,325 227,323 241,322 257,321 272,320 288,321 304,321" stroke="#0000ff" fill="none"/>
 <text x="197" y="315" fill="#000000" font-family="Arial" font-size="12">Use</text>
 <polygon points="304,317 314,321 304,324 304,317" stroke="#0000ff" fill="#0000ff"/>
 <polyline points="84,708 87,684 92,654 99,618 106,578 115,538 125,498 136,460 148,427 161,400 175,381 179,379 187,376 199,373 213,369 230,366 249,362 269,357 289,353 310,349 330,345" stroke="#dc143c" fill="none"/>
 <text x="188" y="356" fill="#000000" font-family="Arial" font-size="12">Modify</text>
 <polygon points="330,341 340,343 331,348 330,341" stroke="#dc143c" fill="#dc143c"/>
 <ellipse cx="412" cy="387" rx="65" ry="18" stroke="#000000" fill="#fffffe00"/>
 <text x="374" y="389" fill="#000000" font-family="Arial" font-size="12">LCD_state</text>
 <polyline points="81,708 81,689 83,666 85,638 89,607 96,575 105,542 117,510 132,479 151,451 175,426 184,420 195,415 209,410 225,406 243,402 262,399 281,396 300,394 320,392 338,391" stroke="#006400" fill="none"/>
 <text x="199" y="396" fill="#000000" font-family="Arial" font-size="12">Set</text>
 <polygon points="338,387 348,390 338,394 338,387" stroke="#006400" fill="#006400"/>
 <ellipse cx="412" cy="442" rx="50" ry="18" stroke="#000000" fill="#fffffe00"/>
 <text x="385" y="444" fill="#000000" font-family="Arial" font-size="12">Timeout</text>
 <polyline points="82,708 83,691 85,670 88,646 93,620 100,592 109,564 121,537 136,511 153,487 175,467 185,461 198,456 214,452 231,449 251,447 271,445 292,443 313,442 333,441 352,441" stroke="#006400" fill="none"/>
 <text x="199" y="441" fill="#000000" font-family="Arial" font-size="12">Set</text>
 <polygon points="352,438 362,441 352,445 352,438" stroke="#006400" fill="#006400"/>
 <ellipse cx="412" cy="500" rx="78" ry="18" stroke="#000000" fill="#fffffe00"/>
 <text x="365" y="502" fill="#000000" font-family="Arial" font-size="12">Admin_mode</text>
 <polyline points="85,708 88,696 93,681 98,664 105,647 113,629 122,610 133,592 145,575 159,560 175,546 184,541 195,536 208,531 223,527 240,523 257,520 275,516 294,513 312,511 330,508" stroke="#006400" fill="none"/>
 <text x="199" y="515" fill="#000000" font-family="Arial" font-size="12">Set</text>
 <polygon points="330,505 340,507 331,512 330,505" stroke="#006400" fill="#006400"/>
 <polyline points="83,708 85,693 87,674 91,653 97,630 104,607 113,583 125,559 139,538 155,518 175,502 184,497 195,494 209,491 224,490 241,489 258,488 277,489 295,489 314,491 332,492" stroke="#0000ff" fill="none"/>
 <text x="197" y="482" fill="#000000" font-family="Arial" font-size="12">Use</text>
 <polygon points="332,488 342,492 331,495 332,488" stroke="#0000ff" fill="#0000ff"/>
 <ellipse cx="412" cy="560" rx="66" ry="18" stroke="#000000" fill="#fffffe00"/>
 <text x="374" y="562" fill="#000000" font-family="Arial" font-size="12">Key_Buffer</text>
 <polyline points="94,708 99,701 105,693 112,684 119,675 127,666 136,657 145,648 155,640 165,632 175,625 183,620 190,617 197,615 204,614 210,613 217,612 223,611 230,609 238,606 246,602 248,601 250,599 252,598 254,596 255,595 256,593 258,592 260,591 262,589 264,588 271,585 278,582 286,580 293,577 301,575 309,573 317,571 324,570 332,568 339,567" stroke="#006400" fill="none"/>
 <text x="178" y="595" fill="#000000" font-family="Arial" font-size="12">Deref Set</text>
 <polygon points="339,563 349,565 340,570 339,563" stroke="#006400" fill="#006400"/>
 <polyline points="88,708 92,698 97,686 103,673 110,659 118,645 127,631 137,618 149,605 161,594 175,584 184,580 196,576 210,572 226,570 244,567 262,565 281,564 300,563 319,562 337,561" stroke="#0000ff" fill="none"/>
 <text x="197" y="561" fill="#000000" font-family="Arial" font-size="12">Use</text>
 <polygon points="337,557 347,560 337,564 337,557" stroke="#0000ff" fill="#0000ff"/>
 <ellipse cx="412" cy="615" rx="74" ry="18" stroke="#000000" fill="#fffffe00"/>
 <text x="368" y="617" fill="#000000" font-family="Arial" font-size="12">Admin_state</text>
 <polyline points="157,710 169,707 181,704 193,702 204,699 214,696 223,693 231,691 238,688 243,686 246,684 250,680 252,676 253,672 254,667 255,663 255,659 256,655 257,651 260,647 264,643 270,639 275,635 282,632 288,629 295,626 301,624 308,622 315,620 322,618 329,617" stroke="#006400" fill="none"/>
 <text x="199" y="677" fill="#000000" font-family="Arial" font-size="12">Set</text>
 <polygon points="329,613 339,615 330,620 329,613" stroke="#006400" fill="#006400"/>
 <polyline points="105,708 111,704 117,700 123,695 130,691 137,686 145,682 152,677 160,673 167,669 175,666 185,662 198,658 213,654 229,650 247,646 266,642 285,638 304,634 323,630 341,627" stroke="#0000ff" fill="none"/>
 <text x="197" y="640" fill="#000000" font-family="Arial" font-size="12">Use</text>
 <polygon points="341,624 351,625 342,630 341,624" stroke="#0000ff" fill="#0000ff"/>
 <ellipse cx="412" cy="670" rx="82" ry="18" stroke="#000000" fill="#fffffe00"/>
 <text x="362" y="672" fill="#000000" font-family="Arial" font-size="12">KeyPad_Keys</text>
 <polyline points="157,740 166,740 175,741 184,740 194,740 203,739 212,737 221,735 229,732 238,729 246,725 249,723 252,720 253,718 254,715 255,712 256,709 257,706 259,703 261,701 264,698 269,695 275,692 280,689 286,687 292,684 298,682 304,680 310,678 316,677 322,675" stroke="#0000ff" fill="none"/>
 <text x="176" y="718" fill="#000000" font-family="Arial" font-size="12">Deref Use</text>
 <polygon points="321,672 332,674 323,679 321,672" stroke="#0000ff" fill="#0000ff"/>
 <ellipse cx="412" cy="725" rx="72" ry="18" stroke="#000000" fill="#fffffe00"/>
 <text x="369" y="727" fill="#000000" font-family="Arial" font-size="12">uart1_config</text>
 <polyline points="115,744 120,747 126,749 131,752 137,754 144,757 150,759 156,761 162,763 169,765 175,766 184,768 191,769 198,771 205,771 211,772 217,772 223,772 230,770 238,769 246,766 248,765 250,764 252,763 254,761 255,760 256,758 258,757 260,756 262,754 264,753 271,750 278,748 285,745 292,743 299,741 306,739 313,737 321,736 328,734 335,733" stroke="#0000ff" fill="none"/>
 <text x="197" y="759" fill="#000000" font-family="Arial" font-size="12">Use</text>
 <polygon points="334,730 345,731 335,737 334,730" stroke="#0000ff" fill="#0000ff"/>
 <ellipse cx="412" cy="780" rx="143" ry="18" stroke="#000000" fill="#fffffe00"/>
 <text x="319" y="782" fill="#000000" font-family="Arial" font-size="12">_Display_Try_Enter_Again</text>
 <polyline points="99,744 104,749 111,755 117,761 124,766 132,772 140,778 149,783 157,787 166,792 175,795 191,800 208,803 225,805 242,806 259,807 276,806 292,805 309,803 324,801 339,798" stroke="#0000ff" fill="none"/>
 <text x="197" y="788" fill="#000000" font-family="Arial" font-size="12">Use</text>
 <polygon points="338,795 349,797 340,802 338,795" stroke="#0000ff" fill="#0000ff"/>
 <ellipse cx="412" cy="835" rx="142" ry="18" stroke="#000000" fill="#fffffe00"/>
 <text x="320" y="837" fill="#000000" font-family="Arial" font-size="12">_Display_Enter_Admin_ID</text>
 <polyline points="92,744 97,752 102,761 109,770 116,780 124,789 133,799 143,807 153,816 164,823 175,829 188,834 201,839 215,842 228,845 242,847 256,849 270,850 284,850 298,850 311,850" stroke="#0000ff" fill="none"/>
 <text x="197" y="822" fill="#000000" font-family="Arial" font-size="12">Use</text>
 <polygon points="311,846 321,849 311,853 311,846" stroke="#0000ff" fill="#0000ff"/>
 <ellipse cx="412" cy="890" rx="148" ry="18" stroke="#000000" fill="#fffffe00"/>
 <text x="315" y="892" fill="#000000" font-family="Arial" font-size="12">_Dispay_Exit_admin_mode</text>
 <polyline points="87,744 91,755 96,767 102,780 109,794 118,808 127,822 137,836 149,849 161,860 175,870 184,875 194,880 204,884 214,887 224,891 235,893 246,895 256,897 267,898 278,899" stroke="#0000ff" fill="none"/>
 <text x="197" y="863" fill="#000000" font-family="Arial" font-size="12">Use</text>
 <polygon points="278,896 288,900 278,903 278,896" stroke="#0000ff" fill="#0000ff"/>
 <ellipse cx="412" cy="945" rx="75" ry="18" stroke="#000000" fill="#fffffe00"/>
 <text x="367" y="947" fill="#000000" font-family="Arial" font-size="12">Admin_Pass</text>
 <polyline points="84,744 87,757 91,773 96,791 102,810 110,829 119,849 130,868 143,887 158,903 175,917 189,926 205,934 220,940 237,945 254,949 270,951 287,953 304,954 320,954 335,954" stroke="#0000ff" fill="none"/>
 <text x="176" y="910" fill="#000000" font-family="Arial" font-size="12">Deref Use</text>
 <polygon points="335,950 345,953 335,957 335,950" stroke="#0000ff" fill="#0000ff"/>
 <ellipse cx="412" cy="1000" rx="146" ry="18" stroke="#000000" fill="#fffffe00"/>
 <text x="317" y="1002" fill="#000000" font-family="Arial" font-size="12">_Display_Welcome_Admin</text>
 <polyline points="82,744 84,760 86,780 90,802 95,827 103,852 112,878 123,904 138,928 155,950 175,969 183,975 191,980 200,985 209,989 218,993 227,996 237,999 246,1001 256,1003 266,1005" stroke="#0000ff" fill="none"/>
 <text x="197" y="962" fill="#000000" font-family="Arial" font-size="12">Use</text>
 <polygon points="267,1002 276,1007 266,1009 267,1002" stroke="#0000ff" fill="#0000ff"/>
 <ellipse cx="412" cy="1055" rx="111" ry="18" stroke="#000000" fill="#fffffe00"/>
 <text x="342" y="1057" fill="#000000" font-family="Arial" font-size="12">_Display_1_Add_ID</text>
 <polyline points="81,744 81,763 82,786 85,814 89,844 95,876 104,909 116,941 132,971 151,999 175,1023 186,1032 198,1039 211,1045 224,1051 238,1055 252,1058 266,1061 280,1063 294,1064 308,1065" stroke="#0000ff" fill="none"/>
 <text x="197" y="1016" fill="#000000" font-family="Arial" font-size="12">Use</text>
 <polygon points="308,1061 318,1065 308,1068 308,1061" stroke="#0000ff" fill="#0000ff"/>
 <ellipse cx="412" cy="1110" rx="132" ry="18" stroke="#000000" fill="#fffffe00"/>
 <text x="327" y="1112" fill="#000000" font-family="Arial" font-size="12">_Display_2_Remove_ID</text>
 <polyline points="84,744 87,768 92,800 97,837 105,877 113,919 123,960 134,999 146,1033 160,1060 175,1079 185,1087 196,1094 208,1100 219,1105 232,1110 244,1113 257,1116 270,1118 282,1119 295,1120" stroke="#0000ff" fill="none"/>
 <text x="197" y="1072" fill="#000000" font-family="Arial" font-size="12">Use</text>
 <polygon points="296,1117 305,1121 295,1124 296,1117" stroke="#0000ff" fill="#0000ff"/>
 <ellipse cx="412" cy="1165" rx="111" ry="18" stroke="#000000" fill="#fffffe00"/>
 <text x="342" y="1167" fill="#000000" font-family="Arial" font-size="12">_Display_Hash_Exit</text>
 <polyline points="83,744 85,771 89,808 94,850 101,898 109,947 118,995 130,1041 143,1081 158,1113 175,1135 187,1144 200,1152 213,1159 227,1164 242,1169 257,1172 272,1174 287,1176 301,1177 316,1177" stroke="#0000ff" fill="none"/>
 <text x="197" y="1128" fill="#000000" font-family="Arial" font-size="12">Use</text>
 <polygon points="316,1173 326,1177 316,1180 316,1173" stroke="#0000ff" fill="#0000ff"/>
 <ellipse cx="412" cy="1220" rx="124" ry="18" stroke="#000000" fill="#fffffe00"/>
 <text x="332" y="1222" fill="#000000" font-family="Arial" font-size="12">_Display_Worng_Entry</text>
 <polyline points="82,744 84,774 87,814 92,863 98,917 105,974 115,1029 126,1082 140,1128 156,1166 175,1191 186,1200 198,1208 211,1215 225,1220 239,1224 253,1228 268,1230 282,1232 297,1233 311,1233" stroke="#0000ff" fill="none"/>
 <text x="197" y="1184" fill="#000000" font-family="Arial" font-size="12">Use</text>
 <polygon points="311,1229 321,1233 311,1236 311,1229" stroke="#0000ff" fill="#0000ff"/>
 <ellipse cx="412" cy="1275" rx="104" ry="18" stroke="#000000" fill="#fffffe00"/>
 <text x="347" y="1277" fill="#000000" font-family="Arial" font-size="12">_Display_Enter_ID</text>
 <polyline points="82,744 83,777 86,822 89,876 94,937 102,1001 111,1064 122,1124 137,1176 154,1219 175,1248 188,1258 201,1267 216,1274 231,1279 247,1283 263,1286 279,1288 295,1289 311,1289 327,1288" stroke="#0000ff" fill="none"/>
 <text x="197" y="1241" fill="#000000" font-family="Arial" font-size="12">Use</text>
 <polygon points="327,1285 337,1288 327,1292 327,1285" stroke="#0000ff" fill="#0000ff"/>
 <ellipse cx="412" cy="1330" rx="87" ry="18" stroke="#000000" fill="#fffffe00"/>
 <text x="359" y="1332" fill="#000000" font-family="Arial" font-size="12">_Display_Enter</text>
 <polyline points="82,744 83,779 84,829 87,890 91,958 97,1029 106,1099 118,1166 133,1225 152,1273 175,1305 189,1316 203,1325 219,1332 236,1337 253,1341 271,1344 288,1345 305,1346 322,1345 338,1344" stroke="#0000ff" fill="none"/>
 <text x="197" y="1298" fill="#000000" font-family="Arial" font-size="12">Use</text>
 <polygon points="338,1340 348,1342 339,1347 338,1340" stroke="#0000ff" fill="#0000ff"/>
 <ellipse cx="412" cy="1385" rx="50" ry="18" stroke="#000000" fill="#fffffe00"/>
 <text x="385" y="1387" fill="#000000" font-family="Arial" font-size="12">ID_data</text>
 <polyline points="81,744 81,782 82,836 84,903 88,977 94,1055 102,1133 114,1207 130,1272 150,1325 175,1361 190,1373 207,1383 226,1391 245,1396 265,1399 285,1401 305,1401 324,1400 342,1398 359,1396" stroke="#0000ff" fill="none"/>
 <text x="197" y="1354" fill="#000000" font-family="Arial" font-size="12">Use</text>
 <polygon points="359,1393 369,1395 360,1400 359,1393" stroke="#0000ff" fill="#0000ff"/>
 <ellipse cx="412" cy="1440" rx="125" ry="18" stroke="#000000" fill="#fffffe00"/>
 <text x="332" y="1442" fill="#000000" font-family="Arial" font-size="12">EEPORM_25xx_config</text>
 <polyline points="83,744 86,787 90,849 96,926 104,1012 113,1102 123,1189 134,1270 147,1339 160,1389 175,1417 187,1427 201,1436 215,1443 231,1448 246,1452 262,1455 279,1457 295,1457 311,1457 326,1456" stroke="#0000ff" fill="none"/>
 <text x="178" y="1410" fill="#000000" font-family="Arial" font-size="12">Addr Use</text>
 <polygon points="326,1452 337,1455 327,1459 326,1452" stroke="#0000ff" fill="#0000ff"/>
 <ellipse cx="412" cy="1495" rx="111" ry="18" stroke="#000000" fill="#fffffe00"/>
 <text x="342" y="1497" fill="#000000" font-family="Arial" font-size="12">_Display_ID_Added</text>
 <polyline points="82,744 85,789 89,857 95,940 102,1032 111,1130 121,1225 132,1313 145,1387 159,1443 175,1473 188,1484 202,1493 217,1500 233,1505 250,1509 267,1511 284,1513 301,1513 317,1512 333,1511" stroke="#0000ff" fill="none"/>
 <text x="197" y="1466" fill="#000000" font-family="Arial" font-size="12">Use</text>
 <polygon points="333,1507 343,1509 334,1514 333,1507" stroke="#0000ff" fill="#0000ff"/>
 <ellipse cx="412" cy="1550" rx="71" ry="18" stroke="#000000" fill="#fffffe00"/>
 <text x="370" y="1552" fill="#000000" font-family="Arial" font-size="12">Reset_Data</text>
 <polyline points="82,744 84,792 88,864 93,954 100,1054 109,1158 119,1261 130,1356 144,1437 158,1496 175,1529 189,1541 205,1550 222,1557 240,1563 259,1566 278,1568 297,1568 315,1568 333,1566 350,1564" stroke="#0000ff" fill="none"/>
 <text x="197" y="1522" fill="#000000" font-family="Arial" font-size="12">Use</text>
 <polygon points="349,1560 360,1562 350,1567 349,1560" stroke="#0000ff" fill="#0000ff"/>
 <ellipse cx="412" cy="1605" rx="123" ry="18" stroke="#000000" fill="#fffffe00"/>
 <text x="333" y="1607" fill="#000000" font-family="Arial" font-size="12">_Dispay_ID_Removed</text>
 <polyline points="82,744 84,795 87,871 92,967 98,1074 106,1186 116,1297 128,1399 142,1486 157,1550 175,1585 188,1596 202,1604 217,1611 233,1616 250,1620 267,1622 284,1624 301,1624 317,1623 333,1622" stroke="#0000ff" fill="none"/>
 <text x="197" y="1578" fill="#000000" font-family="Arial" font-size="12">Use</text>
 <polygon points="333,1618 343,1620 333,1624 333,1618" stroke="#0000ff" fill="#0000ff"/>
 <polyline points="483,82 497,83 512,85 527,86 543,88 559,89 575,90 591,92 606,93 622,95 636,96" stroke="#696969" fill="none"/>
 <polygon points="636,92 646,97 636,99 636,92" stroke="#696969" fill="#696969"/>
 <polygon points="828,209 598,209 598,245 828,245 828,209" stroke="#0000ff" fill="none"/>
 <text x="606" y="229" fill="#000000" font-family="Arial" font-size="12">Enable_Write_EEPROM_25xx</text>
 <polyline points="523,258 530,257 536,256 543,254 550,253 557,252 563,251 570,250 577,249 583,248 590,247" stroke="#696969" fill="none"/>
 <polygon points="590,243 600,245 591,250 590,243" stroke="#696969" fill="#696969"/>
 <polygon points="976,329 889,329 889,365 976,365 976,329" stroke="#0000ff" fill="none"/>
 <text x="898" y="349" fill="#000000" font-family="Arial" font-size="12">Reset_pin</text>
 <polyline points="523,286 527,287 531,289 535,290 539,291 542,293 546,294 550,296 554,298 557,300 561,302 567,306 571,311 575,316 577,321 579,326 581,331 584,336 587,340 592,344 598,348 624,359 647,365 669,368 689,367 709,365 729,361 751,357 774,353 799,349 828,348 833,348 838,348 843,348 849,348 854,348 859,348 864,348 869,348 874,348 879,348" stroke="#696969" fill="none"/>
 <polygon points="879,344 889,348 880,351 879,344" stroke="#696969" fill="#696969"/>
 <polygon points="1001,258 865,258 865,294 1001,294 1001,258" stroke="#0000ff" fill="none"/>
 <text x="873" y="278" fill="#000000" font-family="Arial" font-size="12">SPI_Tx_Rx_Char</text>
 <polyline points="523,275 554,275 587,275 622,275 657,275 693,276 728,276 762,276 795,276 826,276 854,276" stroke="#696969" fill="none"/>
 <polygon points="855,272 865,276 855,279 855,272" stroke="#696969" fill="#696969"/>
 <polygon points="968,171 898,171 898,207 968,207 968,171" stroke="#0000ff" fill="none"/>
 <text x="906" y="191" fill="#000000" font-family="Arial" font-size="12">Set_pin</text>
 <polyline points="523,264 527,263 531,262 535,261 539,259 542,258 546,256 550,254 554,252 557,250 561,248 567,244 571,239 575,234 577,229 579,223 581,218 584,213 587,208 592,204 598,200 626,187 651,180 674,176 696,175 718,177 739,180 762,184 787,187 815,190 846,190 850,190 854,190 858,190 862,190 867,190 871,189 875,189 879,189 883,189 887,189" stroke="#696969" fill="none"/>
 <polygon points="888,186 898,189 888,193 888,186" stroke="#696969" fill="#696969"/>
 <polygon points="781,303 644,303 644,339 781,339 781,303" stroke="#0000ff" fill="none"/>
 <text x="653" y="323" fill="#000000" font-family="Arial" font-size="12">SPI_Send_String</text>
 <polyline points="523,292 534,294 545,296 557,297 568,299 580,301 591,303 602,304 613,306 624,307 635,309" stroke="#696969" fill="none"/>
 <polygon points="635,306 644,311 634,313 635,306" stroke="#696969" fill="#696969"/>
 <polyline points="747,245 759,252 773,259 787,267 802,275 817,284 833,292 848,301 863,309 877,317 890,324" stroke="#696969" fill="none"/>
 <polygon points="892,321 899,329 889,327 892,321" stroke="#696969" fill="#696969"/>
 <polyline points="828,236 830,236 832,237 834,237 836,238 838,238 840,238 842,239 843,239 845,240 847,240 851,241 855,242 859,243 863,245 867,246 871,248 875,249 879,251 883,252 887,254" stroke="#696969" fill="none"/>
 <polygon points="888,251 896,258 885,257 888,251" stroke="#696969" fill="#696969"/>
 <polyline points="818,209 825,208 833,207 840,205 847,204 855,203 862,201 869,200 875,199 882,198 888,197" stroke="#696969" fill="none"/>
 <polygon points="887,193 898,195 889,200 887,193" stroke="#696969" fill="#696969"/>
 <polyline points="782,307 789,306 796,304 803,303 811,301 818,300 826,298 833,297 840,295 848,294 855,292" stroke="#696969" fill="none"/>
 <polygon points="854,289 865,290 856,295 854,289" stroke="#696969" fill="#696969"/>
</svg>
