<?xml version="1.0"?>
<svg width="759" height="335" xmlns="http://www.w3.org/2000/svg" version="1.1">
 <polyline points="125,135 143,135 163,18 179,18" stroke="#4E8CB9" fill="none"/>
 <polyline points="125,135 143,135 163,57 179,57" stroke="#4E8CB9" fill="none"/>
 <polyline points="125,135 143,135 163,83 179,83" stroke="#4E8CB9" fill="none"/>
 <polyline points="125,135 143,135 163,109 179,109" stroke="#4E8CB9" fill="none"/>
 <polyline points="125,135 143,135 163,135 179,135" stroke="#4E8CB9" fill="none"/>
 <polyline points="125,135 143,135 163,252 179,252" stroke="#4E8CB9" fill="none"/>
 <polyline points="287,57 305,57 394,44 410,44" stroke="#4E8CB9" fill="none"/>
 <polyline points="287,57 305,57 394,70 410,70" stroke="#4E8CB9" fill="none"/>
 <polyline points="356,252 374,252 394,187 410,187" stroke="#4E8CB9" fill="none"/>
 <polyline points="356,252 374,252 394,213 410,213" stroke="#4E8CB9" fill="none"/>
 <polyline points="356,252 374,252 394,239 410,239" stroke="#4E8CB9" fill="none"/>
 <polyline points="356,252 374,252 394,265 410,265" stroke="#4E8CB9" fill="none"/>
 <polyline points="356,252 374,252 394,291 410,291" stroke="#4E8CB9" fill="none"/>
 <polyline points="356,252 374,252 394,317 410,317" stroke="#4E8CB9" fill="none"/>
 <polyline points="593,187 611,187 631,161 647,161" stroke="#4E8CB9" fill="none"/>
 <polyline points="593,187 611,187 631,187 647,187" stroke="#4E8CB9" fill="none"/>
 <polyline points="593,187 611,187 631,213 647,213" stroke="#4E8CB9" fill="none"/>
 <polyline points="515,291 533,291 631,291 647,291" stroke="#4E8CB9" fill="none"/>
 <rect x="7" y="124" width="118" height="22" stroke="#90C4E4" fill="none"/>
 <text x="10" y="137" fill="#4E8CB9" font-family="Arial" font-size="10">Reaction_Of_Prass</text>
 <rect x="179" y="7" width="76" height="22" stroke="#90C4E4" fill="none"/>
 <text x="182" y="20" fill="#000000" font-family="Arial" font-size="10">Clear_Buffer</text>
 <rect x="179" y="46" width="108" height="22" stroke="#90C4E4" fill="none"/>
 <text x="182" y="59" fill="#000000" font-family="Arial" font-size="10">Send_String_Uart</text>
 <rect x="179" y="72" width="101" height="22" stroke="#90C4E4" fill="none"/>
 <text x="182" y="85" fill="#000000" font-family="Arial" font-size="10">Send_Char_Uart</text>
 <rect x="179" y="98" width="167" height="22" stroke="#90C4E4" fill="none"/>
 <text x="182" y="111" fill="#000000" font-family="Arial" font-size="10">Convert_Buffer8_to_Variable</text>
 <rect x="179" y="124" width="166" height="22" stroke="#90C4E4" fill="none"/>
 <text x="182" y="137" fill="#000000" font-family="Arial" font-size="10">Convert_uint8_t_to_uint16_t</text>
 <rect x="179" y="241" width="177" height="22" stroke="#90C4E4" fill="none"/>
 <text x="182" y="254" fill="#000000" font-family="Arial" font-size="10">Write_Bytes_EEPROM_25xx</text>
 <rect x="410" y="33" width="101" height="22" stroke="#90C4E4" fill="none"/>
 <text x="413" y="46" fill="#000000" font-family="Arial" font-size="10">Send_Char_Uart</text>
 <rect x="410" y="59" width="58" height="22" stroke="#90C4E4" fill="none"/>
 <text x="413" y="72" fill="#000000" font-family="Arial" font-size="10">delay_us</text>
 <rect x="410" y="176" width="183" height="22" stroke="#90C4E4" fill="none"/>
 <text x="413" y="189" fill="#000000" font-family="Arial" font-size="10">Enable_Write_EEPROM_25xx</text>
 <rect x="410" y="202" width="58" height="22" stroke="#90C4E4" fill="none"/>
 <text x="413" y="215" fill="#000000" font-family="Arial" font-size="10">delay_us</text>
 <rect x="410" y="228" width="64" height="22" stroke="#90C4E4" fill="none"/>
 <text x="413" y="241" fill="#000000" font-family="Arial" font-size="10">Reset_pin</text>
 <rect x="410" y="254" width="105" height="22" stroke="#90C4E4" fill="none"/>
 <text x="413" y="267" fill="#000000" font-family="Arial" font-size="10">SPI_Tx_Rx_Char</text>
 <rect x="410" y="280" width="105" height="22" stroke="#90C4E4" fill="none"/>
 <text x="413" y="293" fill="#000000" font-family="Arial" font-size="10">SPI_Send_String</text>
 <rect x="410" y="306" width="50" height="22" stroke="#90C4E4" fill="none"/>
 <text x="413" y="319" fill="#000000" font-family="Arial" font-size="10">Set_pin</text>
 <rect x="647" y="150" width="64" height="22" stroke="#90C4E4" fill="none"/>
 <text x="650" y="163" fill="#000000" font-family="Arial" font-size="10">Reset_pin</text>
 <rect x="647" y="176" width="105" height="22" stroke="#90C4E4" fill="none"/>
 <text x="650" y="189" fill="#000000" font-family="Arial" font-size="10">SPI_Tx_Rx_Char</text>
 <rect x="647" y="202" width="50" height="22" stroke="#90C4E4" fill="none"/>
 <text x="650" y="215" fill="#000000" font-family="Arial" font-size="10">Set_pin</text>
 <rect x="647" y="280" width="105" height="22" stroke="#90C4E4" fill="none"/>
 <text x="650" y="293" fill="#000000" font-family="Arial" font-size="10">SPI_Tx_Rx_Char</text>
</svg>
