<?xml version="1.0"?>
<svg width="1156" height="698" xmlns="http://www.w3.org/2000/svg" version="1.1">
 <polyline points="81,362 99,362 119,150 135,150" stroke="#4E8CB9" fill="none"/>
 <polyline points="81,362 99,362 119,312 135,312" stroke="#4E8CB9" fill="none"/>
 <polyline points="81,362 99,362 119,338 135,338" stroke="#4E8CB9" fill="none"/>
 <polyline points="81,362 99,362 119,364 135,364" stroke="#4E8CB9" fill="none"/>
 <polyline points="81,362 99,362 119,403 135,403" stroke="#4E8CB9" fill="none"/>
 <polyline points="81,362 99,362 119,574 135,574" stroke="#4E8CB9" fill="none"/>
 <polyline points="264,150 282,150 352,31 368,31" stroke="#4E8CB9" fill="none"/>
 <polyline points="264,150 282,150 352,74 368,74" stroke="#4E8CB9" fill="none"/>
 <polyline points="264,150 282,150 352,100 368,100" stroke="#4E8CB9" fill="none"/>
 <polyline points="264,150 282,150 352,126 368,126" stroke="#4E8CB9" fill="none"/>
 <polyline points="264,150 282,150 352,269 368,269" stroke="#4E8CB9" fill="none"/>
 <polyline points="243,312 261,312 352,299 368,299" stroke="#4E8CB9" fill="none"/>
 <polyline points="243,312 261,312 352,325 368,325" stroke="#4E8CB9" fill="none"/>
 <polyline points="192,403 210,403 352,390 368,390" stroke="#4E8CB9" fill="none"/>
 <polyline points="192,403 210,403 352,416 368,416" stroke="#4E8CB9" fill="none"/>
 <polyline points="314,574 332,574 352,520 368,520" stroke="#4E8CB9" fill="none"/>
 <polyline points="314,574 332,574 352,602 368,602" stroke="#4E8CB9" fill="none"/>
 <polyline points="314,574 332,574 352,628 368,628" stroke="#4E8CB9" fill="none"/>
 <polyline points="494,31 512,31 560,18 576,18" stroke="#4E8CB9" fill="none"/>
 <polyline points="494,31 512,31 560,44 576,44" stroke="#4E8CB9" fill="none"/>
 <polyline points="522,74 540,74 560,74 576,74" stroke="#4E8CB9" fill="none"/>
 <polyline points="486,269 504,269 560,152 576,152" stroke="#4E8CB9" fill="none"/>
 <polyline points="486,269 504,269 560,191 576,191" stroke="#4E8CB9" fill="none"/>
 <polyline points="486,269 504,269 560,217 576,217" stroke="#4E8CB9" fill="none"/>
 <polyline points="486,269 504,269 560,243 576,243" stroke="#4E8CB9" fill="none"/>
 <polyline points="486,269 504,269 560,269 576,269" stroke="#4E8CB9" fill="none"/>
 <polyline points="486,269 504,269 560,386 576,386" stroke="#4E8CB9" fill="none"/>
 <polyline points="494,520 512,520 560,520 576,520" stroke="#4E8CB9" fill="none"/>
 <polyline points="468,602 486,602 560,550 576,550" stroke="#4E8CB9" fill="none"/>
 <polyline points="468,602 486,602 560,576 576,576" stroke="#4E8CB9" fill="none"/>
 <polyline points="468,602 486,602 560,602 576,602" stroke="#4E8CB9" fill="none"/>
 <polyline points="468,602 486,602 560,654 576,654" stroke="#4E8CB9" fill="none"/>
 <polyline points="684,191 702,191 791,178 807,178" stroke="#4E8CB9" fill="none"/>
 <polyline points="684,191 702,191 791,204 807,204" stroke="#4E8CB9" fill="none"/>
 <polyline points="753,386 771,386 791,321 807,321" stroke="#4E8CB9" fill="none"/>
 <polyline points="753,386 771,386 791,347 807,347" stroke="#4E8CB9" fill="none"/>
 <polyline points="753,386 771,386 791,373 807,373" stroke="#4E8CB9" fill="none"/>
 <polyline points="753,386 771,386 791,399 807,399" stroke="#4E8CB9" fill="none"/>
 <polyline points="753,386 771,386 791,425 807,425" stroke="#4E8CB9" fill="none"/>
 <polyline points="753,386 771,386 791,451 807,451" stroke="#4E8CB9" fill="none"/>
 <polyline points="679,520 697,520 791,481 807,481" stroke="#4E8CB9" fill="none"/>
 <polyline points="679,520 697,520 791,507 807,507" stroke="#4E8CB9" fill="none"/>
 <polyline points="679,520 697,520 791,559 807,559" stroke="#4E8CB9" fill="none"/>
 <polyline points="679,654 697,654 791,628 807,628" stroke="#4E8CB9" fill="none"/>
 <polyline points="679,654 697,654 791,654 807,654" stroke="#4E8CB9" fill="none"/>
 <polyline points="679,654 697,654 791,680 807,680" stroke="#4E8CB9" fill="none"/>
 <polyline points="990,321 1008,321 1028,295 1044,295" stroke="#4E8CB9" fill="none"/>
 <polyline points="990,321 1008,321 1028,321 1044,321" stroke="#4E8CB9" fill="none"/>
 <polyline points="990,321 1008,321 1028,347 1044,347" stroke="#4E8CB9" fill="none"/>
 <polyline points="912,425 930,425 1028,425 1044,425" stroke="#4E8CB9" fill="none"/>
 <polyline points="910,559 928,559 1028,533 1044,533" stroke="#4E8CB9" fill="none"/>
 <polyline points="910,559 928,559 1028,559 1044,559" stroke="#4E8CB9" fill="none"/>
 <polyline points="910,559 928,559 1028,585 1044,585" stroke="#4E8CB9" fill="none"/>
 <rect x="7" y="351" width="74" height="22" stroke="#90C4E4" fill="none"/>
 <text x="10" y="364" fill="#4E8CB9" font-family="Arial" font-size="10">Infinite_loop</text>
 <rect x="135" y="139" width="129" height="22" stroke="#90C4E4" fill="none"/>
 <text x="138" y="152" fill="#000000" font-family="Arial" font-size="10">Check_Prass_Button</text>
 <rect x="135" y="301" width="108" height="22" stroke="#90C4E4" fill="none"/>
 <text x="138" y="314" fill="#000000" font-family="Arial" font-size="10">Send_String_Uart</text>
 <rect x="135" y="327" width="76" height="22" stroke="#90C4E4" fill="none"/>
 <text x="138" y="340" fill="#000000" font-family="Arial" font-size="10">Clear_Buffer</text>
 <rect x="135" y="353" width="58" height="22" stroke="#90C4E4" fill="none"/>
 <text x="138" y="366" fill="#000000" font-family="Arial" font-size="10">delay_us</text>
 <rect x="135" y="392" width="57" height="22" stroke="#90C4E4" fill="none"/>
 <text x="138" y="405" fill="#000000" font-family="Arial" font-size="10">Run_Led</text>
 <rect x="135" y="563" width="179" height="22" stroke="#90C4E4" fill="none"/>
 <text x="138" y="576" fill="#000000" font-family="Arial" font-size="10">Write_String_with_coordinator</text>
 <rect x="368" y="20" width="126" height="22" stroke="#90C4E4" fill="none"/>
 <text x="371" y="33" fill="#000000" font-family="Arial" font-size="10">Set_Key_Drain_Pins</text>
 <rect x="368" y="63" width="154" height="22" stroke="#90C4E4" fill="none"/>
 <text x="371" y="76" fill="#000000" font-family="Arial" font-size="10">Check_Key_Soruce_Pins</text>
 <rect x="368" y="89" width="60" height="22" stroke="#90C4E4" fill="none"/>
 <text x="371" y="102" fill="#000000" font-family="Arial" font-size="10">Read_pin</text>
 <rect x="368" y="115" width="64" height="22" stroke="#90C4E4" fill="none"/>
 <text x="371" y="128" fill="#000000" font-family="Arial" font-size="10">Reset_pin</text>
 <rect x="368" y="258" width="118" height="22" stroke="#90C4E4" fill="none"/>
 <text x="371" y="271" fill="#000000" font-family="Arial" font-size="10">Reaction_Of_Prass</text>
 <rect x="368" y="288" width="101" height="22" stroke="#90C4E4" fill="none"/>
 <text x="371" y="301" fill="#000000" font-family="Arial" font-size="10">Send_Char_Uart</text>
 <rect x="368" y="314" width="58" height="22" stroke="#90C4E4" fill="none"/>
 <text x="371" y="327" fill="#000000" font-family="Arial" font-size="10">delay_us</text>
 <rect x="368" y="379" width="64" height="22" stroke="#90C4E4" fill="none"/>
 <text x="371" y="392" fill="#000000" font-family="Arial" font-size="10">Reset_pin</text>
 <rect x="368" y="405" width="50" height="22" stroke="#90C4E4" fill="none"/>
 <text x="371" y="418" fill="#000000" font-family="Arial" font-size="10">Set_pin</text>
 <rect x="368" y="509" width="126" height="22" stroke="#90C4E4" fill="none"/>
 <text x="371" y="522" fill="#000000" font-family="Arial" font-size="10">Jump_to_coordinator</text>
 <rect x="368" y="591" width="100" height="22" stroke="#90C4E4" fill="none"/>
 <text x="371" y="604" fill="#000000" font-family="Arial" font-size="10">Write_Character</text>
 <rect x="368" y="617" width="58" height="22" stroke="#90C4E4" fill="none"/>
 <text x="371" y="630" fill="#000000" font-family="Arial" font-size="10">delay_us</text>
 <rect x="576" y="7" width="64" height="22" stroke="#90C4E4" fill="none"/>
 <text x="579" y="20" fill="#000000" font-family="Arial" font-size="10">Reset_pin</text>
 <rect x="576" y="33" width="50" height="22" stroke="#90C4E4" fill="none"/>
 <text x="579" y="46" fill="#000000" font-family="Arial" font-size="10">Set_pin</text>
 <rect x="576" y="63" width="60" height="22" stroke="#90C4E4" fill="none"/>
 <text x="579" y="76" fill="#000000" font-family="Arial" font-size="10">Read_pin</text>
 <rect x="576" y="141" width="76" height="22" stroke="#90C4E4" fill="none"/>
 <text x="579" y="154" fill="#000000" font-family="Arial" font-size="10">Clear_Buffer</text>
 <rect x="576" y="180" width="108" height="22" stroke="#90C4E4" fill="none"/>
 <text x="579" y="193" fill="#000000" font-family="Arial" font-size="10">Send_String_Uart</text>
 <rect x="576" y="206" width="101" height="22" stroke="#90C4E4" fill="none"/>
 <text x="579" y="219" fill="#000000" font-family="Arial" font-size="10">Send_Char_Uart</text>
 <rect x="576" y="232" width="167" height="22" stroke="#90C4E4" fill="none"/>
 <text x="579" y="245" fill="#000000" font-family="Arial" font-size="10">Convert_Buffer8_to_Variable</text>
 <rect x="576" y="258" width="166" height="22" stroke="#90C4E4" fill="none"/>
 <text x="579" y="271" fill="#000000" font-family="Arial" font-size="10">Convert_uint8_t_to_uint16_t</text>
 <rect x="576" y="375" width="177" height="22" stroke="#90C4E4" fill="none"/>
 <text x="579" y="388" fill="#000000" font-family="Arial" font-size="10">Write_Bytes_EEPROM_25xx</text>
 <rect x="576" y="509" width="103" height="22" stroke="#90C4E4" fill="none"/>
 <text x="579" y="522" fill="#000000" font-family="Arial" font-size="10">Write_Command</text>
 <rect x="576" y="539" width="104" height="22" stroke="#90C4E4" fill="none"/>
 <text x="579" y="552" fill="#000000" font-family="Arial" font-size="10">Set_GPIO_Value</text>
 <rect x="576" y="565" width="50" height="22" stroke="#90C4E4" fill="none"/>
 <text x="579" y="578" fill="#000000" font-family="Arial" font-size="10">Set_pin</text>
 <rect x="576" y="591" width="64" height="22" stroke="#90C4E4" fill="none"/>
 <text x="579" y="604" fill="#000000" font-family="Arial" font-size="10">Reset_pin</text>
 <rect x="576" y="643" width="103" height="22" stroke="#90C4E4" fill="none"/>
 <text x="579" y="656" fill="#000000" font-family="Arial" font-size="10">Kick_Enable_pin</text>
 <rect x="807" y="167" width="101" height="22" stroke="#90C4E4" fill="none"/>
 <text x="810" y="180" fill="#000000" font-family="Arial" font-size="10">Send_Char_Uart</text>
 <rect x="807" y="193" width="58" height="22" stroke="#90C4E4" fill="none"/>
 <text x="810" y="206" fill="#000000" font-family="Arial" font-size="10">delay_us</text>
 <rect x="807" y="310" width="183" height="22" stroke="#90C4E4" fill="none"/>
 <text x="810" y="323" fill="#000000" font-family="Arial" font-size="10">Enable_Write_EEPROM_25xx</text>
 <rect x="807" y="336" width="58" height="22" stroke="#90C4E4" fill="none"/>
 <text x="810" y="349" fill="#000000" font-family="Arial" font-size="10">delay_us</text>
 <rect x="807" y="362" width="64" height="22" stroke="#90C4E4" fill="none"/>
 <text x="810" y="375" fill="#000000" font-family="Arial" font-size="10">Reset_pin</text>
 <rect x="807" y="388" width="105" height="22" stroke="#90C4E4" fill="none"/>
 <text x="810" y="401" fill="#000000" font-family="Arial" font-size="10">SPI_Tx_Rx_Char</text>
 <rect x="807" y="414" width="105" height="22" stroke="#90C4E4" fill="none"/>
 <text x="810" y="427" fill="#000000" font-family="Arial" font-size="10">SPI_Send_String</text>
 <rect x="807" y="440" width="50" height="22" stroke="#90C4E4" fill="none"/>
 <text x="810" y="453" fill="#000000" font-family="Arial" font-size="10">Set_pin</text>
 <rect x="807" y="470" width="104" height="22" stroke="#90C4E4" fill="none"/>
 <text x="810" y="483" fill="#000000" font-family="Arial" font-size="10">Set_GPIO_Value</text>
 <rect x="807" y="496" width="64" height="22" stroke="#90C4E4" fill="none"/>
 <text x="810" y="509" fill="#000000" font-family="Arial" font-size="10">Reset_pin</text>
 <rect x="807" y="548" width="103" height="22" stroke="#90C4E4" fill="none"/>
 <text x="810" y="561" fill="#000000" font-family="Arial" font-size="10">Kick_Enable_pin</text>
 <rect x="807" y="617" width="50" height="22" stroke="#90C4E4" fill="none"/>
 <text x="810" y="630" fill="#000000" font-family="Arial" font-size="10">Set_pin</text>
 <rect x="807" y="643" width="58" height="22" stroke="#90C4E4" fill="none"/>
 <text x="810" y="656" fill="#000000" font-family="Arial" font-size="10">delay_us</text>
 <rect x="807" y="669" width="64" height="22" stroke="#90C4E4" fill="none"/>
 <text x="810" y="682" fill="#000000" font-family="Arial" font-size="10">Reset_pin</text>
 <rect x="1044" y="284" width="64" height="22" stroke="#90C4E4" fill="none"/>
 <text x="1047" y="297" fill="#000000" font-family="Arial" font-size="10">Reset_pin</text>
 <rect x="1044" y="310" width="105" height="22" stroke="#90C4E4" fill="none"/>
 <text x="1047" y="323" fill="#000000" font-family="Arial" font-size="10">SPI_Tx_Rx_Char</text>
 <rect x="1044" y="336" width="50" height="22" stroke="#90C4E4" fill="none"/>
 <text x="1047" y="349" fill="#000000" font-family="Arial" font-size="10">Set_pin</text>
 <rect x="1044" y="414" width="105" height="22" stroke="#90C4E4" fill="none"/>
 <text x="1047" y="427" fill="#000000" font-family="Arial" font-size="10">SPI_Tx_Rx_Char</text>
 <rect x="1044" y="522" width="50" height="22" stroke="#90C4E4" fill="none"/>
 <text x="1047" y="535" fill="#000000" font-family="Arial" font-size="10">Set_pin</text>
 <rect x="1044" y="548" width="58" height="22" stroke="#90C4E4" fill="none"/>
 <text x="1047" y="561" fill="#000000" font-family="Arial" font-size="10">delay_us</text>
 <rect x="1044" y="574" width="64" height="22" stroke="#90C4E4" fill="none"/>
 <text x="1047" y="587" fill="#000000" font-family="Arial" font-size="10">Reset_pin</text>
</svg>
