<?xml version="1.0"?>
<svg width="530" height="305" xmlns="http://www.w3.org/2000/svg" version="1.1">
 <polygon points="4,301 4,4 526,4 526,301 4,301" stroke="#fffffe00" fill="none"/>
 <polygon points="24,174 31,174 49,174 75,174 107,174 142,174 177,174 209,174 235,174 253,174 260,174 262,174 264,173 265,173 267,172 268,170 270,169 271,167 271,166 272,164 272,162 272,161 272,157 272,152 272,145 272,139 272,132 272,125 272,120 272,116 272,115 272,113 271,111 271,110 270,108 268,107 267,105 265,104 264,104 262,103 260,103 253,103 235,103 209,103 177,103 142,103 107,103 75,103 49,103 31,103 24,103 22,103 20,104 19,104 17,105 16,107 14,108 13,110 13,111 12,113 12,115 12,116 12,120 12,125 12,132 12,139 12,145 12,152 12,157 12,161 12,162 12,164 13,166 13,167 14,169 16,170 17,172 19,173 20,173 22,174 24,174" stroke="#afd870" fill="none"/>
 <text x="91" y="118" fill="#afd870" font-family="Arial" font-size="12">Application.c ▶</text>
 <polygon points="260,139 20,139 20,166 264,166 264,143 260,139" stroke="#90c4e4" fill="#1976d2"/>
 <polyline points="260,139 260,143" stroke="#90c4e4" fill="none"/>
 <polyline points="264,143 260,143" stroke="#90c4e4" fill="none"/>
 <text x="28" y="154" fill="#ffffff" font-family="Arial" font-size="12">config_Drives_and_Perpherals ▶</text>
 <polygon points="508,4 358,4 355,7 355,31 505,31 508,28 508,4" stroke="#90c4e4" fill="none"/>
 <polyline points="505,7 355,7" stroke="#90c4e4" fill="none"/>
 <polyline points="505,7 505,31" stroke="#90c4e4" fill="none"/>
 <polyline points="505,7 508,4" stroke="#90c4e4" fill="none"/>
 <text x="363" y="19" fill="#000000" font-family="Arial" font-size="12">Key_pad_Driver.c ▷</text>
 <polyline points="162,139 173,131 186,122 201,112 218,101 236,91 255,79 275,68 295,58 315,48 336,39 338,38 340,38 342,37 344,37 346,36 348,35 350,34 352,34 354,33 356,32" stroke="#4e8cb9" fill="none"/>
 <polygon points="356,31 361,31 357,34 356,31" stroke="#4e8cb9" fill="#4e8cb9"/>
 <polygon points="493,49 373,49 370,52 370,76 490,76 493,73 493,49" stroke="#90c4e4" fill="none"/>
 <polyline points="490,52 370,52" stroke="#90c4e4" fill="none"/>
 <polyline points="490,52 490,76" stroke="#90c4e4" fill="none"/>
 <polyline points="490,52 493,49" stroke="#90c4e4" fill="none"/>
 <text x="378" y="64" fill="#000000" font-family="Arial" font-size="12">LCD_Driver.c ▷</text>
 <polyline points="178,139 190,134 204,129 218,124 234,118 250,112 267,106 284,101 302,95 319,89 336,84 339,83 342,83 344,82 347,81 350,81 353,80 356,79 358,78 361,78 364,77" stroke="#4e8cb9" fill="none"/>
 <polygon points="364,75 369,76 365,79 364,75" stroke="#4e8cb9" fill="#4e8cb9"/>
 <polygon points="509,94 356,94 353,97 353,121 506,121 509,118 509,94" stroke="#90c4e4" fill="none"/>
 <polyline points="506,97 353,97" stroke="#90c4e4" fill="none"/>
 <polyline points="506,97 506,121" stroke="#90c4e4" fill="none"/>
 <polyline points="506,97 509,94" stroke="#90c4e4" fill="none"/>
 <text x="361" y="109" fill="#000000" font-family="Arial" font-size="12">Seven_Segment.c ▷</text>
 <polyline points="229,139 241,137 252,135 264,133 277,131 289,130 301,128 313,126 325,124 337,122 348,120" stroke="#4e8cb9" fill="none"/>
 <polygon points="348,119 353,120 348,122 348,119" stroke="#4e8cb9" fill="#4e8cb9"/>
 <polygon points="526,139 339,139 336,142 336,166 523,166 526,163 526,139" stroke="#90c4e4" fill="none"/>
 <polyline points="523,142 336,142" stroke="#90c4e4" fill="none"/>
 <polyline points="523,142 523,166" stroke="#90c4e4" fill="none"/>
 <polyline points="523,142 526,139" stroke="#90c4e4" fill="none"/>
 <text x="344" y="154" fill="#000000" font-family="Arial" font-size="12">Stm32_f10xx_Systick.c ▷</text>
 <polyline points="264,152 271,152 277,152 284,152 291,152 298,152 304,152 311,152 318,152 324,152 331,152" stroke="#4e8cb9" fill="none"/>
 <polygon points="331,151 336,152 331,154 331,151" stroke="#4e8cb9" fill="#4e8cb9"/>
 <polygon points="502,184 364,184 361,187 361,211 499,211 502,208 502,184" stroke="#90c4e4" fill="none"/>
 <polyline points="499,187 361,187" stroke="#90c4e4" fill="none"/>
 <polyline points="499,187 499,211" stroke="#90c4e4" fill="none"/>
 <polyline points="499,187 502,184" stroke="#90c4e4" fill="none"/>
 <text x="369" y="199" fill="#000000" font-family="Arial" font-size="12">Stm32f10x_SPI.c </text>
 <polyline points="229,166 241,168 254,170 267,172 280,174 293,176 306,178 319,180 331,182 343,184 355,186" stroke="#4e8cb9" fill="none"/>
 <polygon points="356,184 360,187 355,188 356,184" stroke="#4e8cb9" fill="#4e8cb9"/>
 <polygon points="509,229 356,229 353,232 353,256 506,256 509,253 509,229" stroke="#90c4e4" fill="none"/>
 <polyline points="506,232 353,232" stroke="#90c4e4" fill="none"/>
 <polyline points="506,232 506,256" stroke="#90c4e4" fill="none"/>
 <polyline points="506,232 509,229" stroke="#90c4e4" fill="none"/>
 <text x="361" y="244" fill="#000000" font-family="Arial" font-size="12">Stm32f10x_UART.c </text>
 <polyline points="178,166 190,171 204,176 218,181 234,187 250,193 267,198 284,204 302,210 319,215 336,220 339,221 341,222 344,222 347,223 350,224 352,225 355,226 358,226 360,227 363,228" stroke="#4e8cb9" fill="none"/>
 <polygon points="363,226 368,229 363,229 363,226" stroke="#4e8cb9" fill="#4e8cb9"/>
 <polygon points="512,274 354,274 351,277 351,301 509,301 512,298 512,274" stroke="#90c4e4" fill="none"/>
 <polyline points="509,277 351,277" stroke="#90c4e4" fill="none"/>
 <polyline points="509,277 509,301" stroke="#90c4e4" fill="none"/>
 <polyline points="509,277 512,274" stroke="#90c4e4" fill="none"/>
 <text x="359" y="289" fill="#000000" font-family="Arial" font-size="12">Stm32f10xx_GPIO.c </text>
 <polyline points="162,166 173,174 186,183 201,193 218,203 236,214 255,225 275,236 295,247 315,256 336,265 338,266 340,267 342,267 344,268 346,269 348,270 350,271 352,271 354,272 356,273" stroke="#4e8cb9" fill="none"/>
 <polygon points="357,271 361,274 356,274 357,271" stroke="#4e8cb9" fill="#4e8cb9"/>
</svg>
