<?xml version="1.0"?>
<svg width="4186" height="1584" xmlns="http://www.w3.org/2000/svg" version="1.1">
 <polygon points="4,1580 4,4 4182,4 4182,1580 4,1580" stroke="#fffffe00" fill="none"/>
 <polygon points="1880,77 1470,104 1880,131 2290,104 1880,77" stroke="#90c4e4" fill="none"/>
 <text x="1683" y="105" fill="#000000" font-family="Arial" font-size="12">KeyPad_Keys[Soruce_pin_index][Drain_pin_index] == &apos;*&apos;</text>
 <polygon points="1751,190 1408,190 1408,236 1751,236 1751,190" stroke="#90c4e4" fill="none"/>
 <text x="1416" y="205" fill="#000000" font-family="Arial" font-size="12">Clear_Buffer(Key_Buffer, 0, sizeof(Key_Buffer))</text>
 <text x="1416" y="224" fill="#000000" font-family="Arial" font-size="12">Key_Buffer_counter = 0</text>
 <polyline points="1818,127 1802,133 1786,139 1768,145 1751,151 1732,158 1714,164 1696,170 1679,176 1662,182 1646,188" stroke="#4e8cb9" fill="none"/>
 <text x="1748" y="160" fill="#000000" font-family="Arial" font-size="12">yes</text>
 <polygon points="1646,190 1641,190 1645,187 1646,190" stroke="#4e8cb9" fill="#4e8cb9"/>
 <polygon points="2313,186 1900,213 2313,240 2726,213 2313,186" stroke="#90c4e4" fill="none"/>
 <text x="2115" y="214" fill="#000000" font-family="Arial" font-size="12">KeyPad_Keys[Soruce_pin_index][Drain_pin_index] == &apos;#&apos;</text>
 <polyline points="1963,126 1986,132 2012,138 2038,144 2065,151 2093,158 2121,164 2149,171 2175,178 2201,184 2225,190" stroke="#cd0000" fill="none"/>
 <text x="2123" y="160" fill="#000000" font-family="Arial" font-size="12">no</text>
 <polygon points="2225,189 2230,191 2224,192 2225,189" stroke="#cd0000" fill="#cd0000"/>
 <polygon points="1907,4 1853,4 1853,40 1907,40 1907,4" stroke="#90c4e4" fill="none"/>
 <text x="1865" y="23" fill="#000000" font-family="Arial" font-size="12">start</text>
 <polyline points="1880,40 1880,43 1880,46 1880,49 1880,52 1880,56 1880,59 1880,62 1880,65 1880,69 1880,72" stroke="#4e8cb9" fill="none"/>
 <polygon points="1882,72 1880,77 1878,72 1882,72" stroke="#4e8cb9" fill="#4e8cb9"/>
 <polygon points="870,295 729,322 870,349 1011,322 870,295" stroke="#90c4e4" fill="none"/>
 <text x="808" y="323" fill="#000000" font-family="Arial" font-size="12">Admin_mode != 0</text>
 <polyline points="1433,236 1387,243 1338,250 1287,258 1234,266 1181,274 1129,282 1079,289 1032,297 989,303 951,309" stroke="#4e8cb9" fill="none"/>
 <polygon points="951,311 946,310 951,307 951,311" stroke="#4e8cb9" fill="#4e8cb9"/>
 <polygon points="2894,299 2551,299 2551,345 2894,345 2894,299" stroke="#90c4e4" fill="none"/>
 <text x="2559" y="314" fill="#000000" font-family="Arial" font-size="12">Clear_Buffer(Key_Buffer, 0, sizeof(Key_Buffer))</text>
 <text x="2559" y="333" fill="#000000" font-family="Arial" font-size="12">Key_Buffer_counter = 0</text>
 <polyline points="2393,235 2415,241 2438,247 2462,253 2487,259 2512,266 2537,273 2562,279 2587,286 2611,292 2633,298" stroke="#4e8cb9" fill="none"/>
 <text x="2541" y="269" fill="#000000" font-family="Arial" font-size="12">yes</text>
 <polygon points="2633,296 2638,299 2633,299 2633,296" stroke="#4e8cb9" fill="#4e8cb9"/>
 <polygon points="2313,295 2168,322 2313,349 2458,322 2313,295" stroke="#90c4e4" fill="none"/>
 <text x="2249" y="323" fill="#000000" font-family="Arial" font-size="12">Admin_mode == 0</text>
 <polyline points="2313,240 2313,245 2313,249 2313,254 2313,259 2313,265 2313,270 2313,275 2313,280 2313,285 2313,290" stroke="#cd0000" fill="none"/>
 <text x="2314" y="269" fill="#000000" font-family="Arial" font-size="12">no</text>
 <polygon points="2315,290 2313,295 2311,290 2315,290" stroke="#cd0000" fill="#cd0000"/>
 <polygon points="582,413 41,413 41,449 582,449 582,413" stroke="#90c4e4" fill="none"/>
 <text x="49" y="432" fill="#000000" font-family="Arial" font-size="12">Send_String_Uart(uart1_config.UARTx, _Display_Try_Enter_Again, Enable)</text>
 <polyline points="802,336 770,342 733,349 694,357 652,365 608,373 565,381 521,389 480,397 441,405 405,412" stroke="#4e8cb9" fill="none"/>
 <text x="624" y="378" fill="#000000" font-family="Arial" font-size="12">yes</text>
 <polygon points="405,414 400,413 405,410 405,414" stroke="#4e8cb9" fill="#4e8cb9"/>
 <polygon points="1140,408 600,408 600,454 1140,454 1140,408" stroke="#90c4e4" fill="none"/>
 <text x="608" y="423" fill="#000000" font-family="Arial" font-size="12">Send_String_Uart(uart1_config.UARTx, _Display_Enter_Admin_ID, Enable)</text>
 <text x="608" y="442" fill="#000000" font-family="Arial" font-size="12">Send_String_Uart(uart1_config.UARTx, _Display_Enter_Admin_ID, Enable)</text>
 <polyline points="870,349 870,354 870,359 870,364 870,370 870,376 870,381 870,387 870,392 870,397 870,402" stroke="#cd0000" fill="none"/>
 <text x="871" y="378" fill="#000000" font-family="Arial" font-size="12">no</text>
 <polygon points="872,403 870,408 868,403 872,403" stroke="#cd0000" fill="#cd0000"/>
 <polygon points="427,549 195,549 195,595 427,595 427,549" stroke="#90c4e4" fill="none"/>
 <text x="203" y="564" fill="#000000" font-family="Arial" font-size="12">LCD_state = Admin_Entry_star</text>
 <text x="203" y="583" fill="#000000" font-family="Arial" font-size="12">Timeout = 1000</text>
 <polyline points="311,449 311,457 311,465 311,475 311,485 311,495 311,505 311,516 311,526 311,535 311,544" stroke="#4e8cb9" fill="none"/>
 <polygon points="313,544 311,549 309,544 313,544" stroke="#4e8cb9" fill="#4e8cb9"/>
 <polyline points="782,454 749,462 713,471 675,481 635,491 594,501 553,511 512,521 474,531 437,540 404,548" stroke="#4e8cb9" fill="none"/>
 <polygon points="405,550 399,549 404,547 405,550" stroke="#4e8cb9" fill="#4e8cb9"/>
 <polygon points="2788,1544 2734,1544 2734,1580 2788,1580 2788,1544" stroke="#90c4e4" fill="none"/>
 <text x="2748" y="1563" fill="#000000" font-family="Arial" font-size="12">end</text>
 <polyline points="195,589 169,594 142,600 115,606 90,614 67,622 46,630 29,640 16,650 7,661 4,673 4,674 4,679 4,695 4,725 4,775 4,848 4,952 4,1089 4,1265 4,1485 72,1505 258,1521 534,1533 874,1543 1250,1550 1636,1555 2003,1558 2326,1560 2577,1561 2728,1561" stroke="#4e8cb9" fill="none"/>
 <polygon points="2729,1559 2734,1561 2729,1563 2729,1559" stroke="#4e8cb9" fill="#4e8cb9"/>
 <polygon points="3580,404 3439,431 3580,458 3721,431 3580,404" stroke="#90c4e4" fill="none"/>
 <text x="3518" y="432" fill="#000000" font-family="Arial" font-size="12">Admin_mode != 0</text>
 <polyline points="2894,344 2951,351 3012,359 3076,367 3142,375 3208,384 3273,392 3335,400 3393,407 3446,413 3492,419" stroke="#4e8cb9" fill="none"/>
 <polygon points="3493,417 3498,420 3493,421 3493,417" stroke="#4e8cb9" fill="#4e8cb9"/>
 <polygon points="2582,476 1971,476 1971,522 2582,522 2582,476" stroke="#90c4e4" fill="none"/>
 <text x="1979" y="491" fill="#000000" font-family="Arial" font-size="12">Key_Buffer[Key_Buffer_counter] = KeyPad_Keys[Soruce_pin_index][Drain_pin_index]</text>
 <text x="1979" y="510" fill="#000000" font-family="Arial" font-size="12">Key_Buffer_counter++</text>
 <polyline points="2308,348 2306,359 2303,370 2301,383 2298,396 2295,409 2292,423 2289,436 2287,448 2284,460 2282,471" stroke="#4e8cb9" fill="none"/>
 <text x="2303" y="378" fill="#000000" font-family="Arial" font-size="12">yes</text>
 <polygon points="2283,471 2281,476 2280,470 2283,471" stroke="#4e8cb9" fill="#4e8cb9"/>
 <polygon points="2686,404 2547,431 2686,458 2825,431 2686,404" stroke="#90c4e4" fill="none"/>
 <text x="2625" y="432" fill="#000000" font-family="Arial" font-size="12">Admin_state == 0</text>
 <polyline points="2368,339 2390,345 2415,352 2441,360 2469,368 2497,376 2525,384 2553,392 2579,400 2604,407 2627,413" stroke="#cd0000" fill="none"/>
 <text x="2522" y="378" fill="#000000" font-family="Arial" font-size="12">no</text>
 <polygon points="2628,411 2632,414 2627,415 2628,411" stroke="#cd0000" fill="#cd0000"/>
 <polygon points="4165,554 3616,554 3616,590 4165,590 4165,554" stroke="#90c4e4" fill="none"/>
 <text x="3624" y="574" fill="#000000" font-family="Arial" font-size="12">Send_String_Uart(uart1_config.UARTx, _Dispay_Exit_admin_mode, Enable)</text>
 <polyline points="3621,450 3640,459 3661,468 3685,479 3709,490 3734,501 3759,512 3783,523 3807,534 3828,543 3847,552" stroke="#4e8cb9" fill="none"/>
 <text x="3771" y="500" fill="#000000" font-family="Arial" font-size="12">yes</text>
 <polygon points="3848,551 3852,554 3847,554 3848,551" stroke="#4e8cb9" fill="#4e8cb9"/>
 <polygon points="4011,642 3769,642 3769,707 4011,707 4011,642" stroke="#90c4e4" fill="none"/>
 <text x="3777" y="657" fill="#000000" font-family="Arial" font-size="12">Admin_mode = 0</text>
 <text x="3777" y="676" fill="#000000" font-family="Arial" font-size="12">LCD_state = Admin_Entry_Hash</text>
 <text x="3777" y="695" fill="#000000" font-family="Arial" font-size="12">Timeout = 1000</text>
 <polyline points="3573,457 3570,469 3568,483 3566,497 3565,513 3565,529 3566,545 3569,562 3574,577 3581,592 3590,605 3599,613 3610,620 3624,627 3640,633 3659,639 3678,644 3699,648 3720,653 3742,657 3764,660" stroke="#cd0000" fill="none"/>
 <text x="3591" y="574" fill="#000000" font-family="Arial" font-size="12">no</text>
 <polygon points="3764,658 3769,661 3764,662 3764,658" stroke="#cd0000" fill="#cd0000"/>
 <polyline points="3890,591 3890,595 3890,599 3890,603 3890,608 3890,613 3890,617 3890,622 3890,627 3890,632 3890,637" stroke="#4e8cb9" fill="none"/>
 <polygon points="3892,637 3890,642 3888,637 3892,637" stroke="#4e8cb9" fill="#4e8cb9"/>
 <polyline points="4011,702 4035,708 4060,715 4084,723 4106,732 4127,741 4145,750 4160,760 4172,771 4179,782 4182,793 4182,794 4182,799 4182,812 4182,837 4182,880 4182,942 4182,1030 4182,1147 4182,1297 4182,1485 4149,1505 4058,1521 3922,1533 3754,1543 3567,1550 3373,1555 3186,1558 3018,1560 2883,1561 2793,1561" stroke="#4e8cb9" fill="none"/>
 <polygon points="2793,1563 2788,1561 2793,1559 2793,1563" stroke="#4e8cb9" fill="#4e8cb9"/>
 <polygon points="1628,973 1440,1000 1628,1027 1816,1000 1628,973" stroke="#90c4e4" fill="none"/>
 <text x="1542" y="1001" fill="#000000" font-family="Arial" font-size="12">Key_Buffer_counter == 3</text>
 <polyline points="2250,522 2243,529 2235,537 2227,546 2220,556 2213,566 2207,576 2202,587 2198,599 2195,611 2194,623 2194,623 2194,625 2194,630 2194,640 2194,657 2194,681 2194,715 2194,761 2194,819 2194,892 2186,905 2163,918 2128,930 2084,941 2032,951 1975,960 1915,969 1855,976 1798,983 1745,988" stroke="#4e8cb9" fill="none"/>
 <polygon points="1745,990 1740,989 1745,987 1745,990" stroke="#4e8cb9" fill="#4e8cb9"/>
 <polygon points="3244,973 2831,1000 3244,1027 3657,1000 3244,973" stroke="#90c4e4" fill="none"/>
 <text x="3046" y="1001" fill="#000000" font-family="Arial" font-size="12">KeyPad_Keys[Soruce_pin_index][Drain_pin_index] == &apos;1&apos;</text>
 <polyline points="2781,440 2827,445 2877,451 2929,459 2981,469 3031,480 3077,494 3117,510 3148,528 3168,548 3175,571 3175,571 3175,574 3175,580 3175,592 3175,611 3175,640 3175,681 3175,735 3175,805 3175,892 3176,901 3177,910 3180,919 3183,927 3187,935 3192,943 3197,951 3202,958 3208,965 3213,971" stroke="#4e8cb9" fill="none"/>
 <text x="3175" y="736" fill="#000000" font-family="Arial" font-size="12">yes</text>
 <polygon points="3215,970 3217,975 3212,972 3215,970" stroke="#4e8cb9" fill="#4e8cb9"/>
 <polygon points="3079,540 2293,540 2293,605 3079,605 3079,540" stroke="#90c4e4" fill="none"/>
 <text x="2301" y="555" fill="#000000" font-family="Arial" font-size="12">Send_Char_Uart(uart1_config.UARTx , (uint16_t*)&amp;KeyPad_Keys[Soruce_pin_index][Drain_pin_index],Enable)</text>
 <text x="2301" y="574" fill="#000000" font-family="Arial" font-size="12">Key_Buffer[Key_Buffer_counter] = KeyPad_Keys[Soruce_pin_index][Drain_pin_index]</text>
 <text x="2301" y="593" fill="#000000" font-family="Arial" font-size="12">Key_Buffer_counter++</text>
 <polyline points="2686,458 2686,465 2686,472 2686,480 2686,488 2686,496 2686,504 2686,512 2686,520 2686,528 2686,535" stroke="#cd0000" fill="none"/>
 <text x="2687" y="500" fill="#000000" font-family="Arial" font-size="12">no</text>
 <polygon points="2688,535 2686,540 2684,535 2688,535" stroke="#cd0000" fill="#cd0000"/>
 <polyline points="1628,1027 1628,1037 1628,1047 1628,1059 1628,1071 1628,1084 1628,1097 1628,1110 1628,1124 1628,1137 1628,1150 1628,1150 1628,1153 1628,1159 1628,1171 1628,1192 1628,1222 1628,1265 1628,1322 1628,1394 1628,1485 1654,1501 1725,1515 1831,1526 1962,1536 2109,1543 2261,1549 2409,1554 2543,1557 2653,1560 2729,1561" stroke="#cd0000" fill="none"/>
 <text x="1629" y="1320" fill="#000000" font-family="Arial" font-size="12">no</text>
 <polygon points="2729,1559 2734,1561 2729,1562 2729,1559" stroke="#cd0000" fill="#cd0000"/>
 <polygon points="816,1124 32,1151 816,1178 1600,1151 816,1124" stroke="#90c4e4" fill="none"/>
 <text x="432" y="1152" fill="#000000" font-family="Arial" font-size="12">(Key_Buffer[0] == Admin_Pass[0]) &amp;&amp; (Key_Buffer[1] == Admin_Pass[1]) &amp;&amp; (Key_Buffer[2] == Admin_Pass[2])</text>
 <polyline points="1548,1016 1501,1025 1446,1035 1386,1046 1321,1057 1254,1070 1186,1082 1119,1094 1054,1106 994,1117 940,1127" stroke="#4e8cb9" fill="none"/>
 <text x="1389" y="1069" fill="#000000" font-family="Arial" font-size="12">yes</text>
 <polygon points="941,1129 935,1128 940,1125 941,1129" stroke="#4e8cb9" fill="#4e8cb9"/>
 <polygon points="1592,1248 1047,1248 1047,1389 1592,1389 1592,1248" stroke="#90c4e4" fill="none"/>
 <text x="1055" y="1263" fill="#000000" font-family="Arial" font-size="12">Send_String_Uart(uart1_config.UARTx, _Display_Welcome_Admin, Enable)</text>
 <text x="1055" y="1282" fill="#000000" font-family="Arial" font-size="12">Send_String_Uart(uart1_config.UARTx, _Display_1_Add_ID, Enable)</text>
 <text x="1055" y="1301" fill="#000000" font-family="Arial" font-size="12">Send_String_Uart(uart1_config.UARTx, _Display_2_Remove_ID, Enable)</text>
 <text x="1055" y="1320" fill="#000000" font-family="Arial" font-size="12">Send_String_Uart(uart1_config.UARTx, _Display_Hash_Exit, Enable)</text>
 <text x="1055" y="1339" fill="#000000" font-family="Arial" font-size="12">Admin_mode = 1</text>
 <text x="1055" y="1358" fill="#000000" font-family="Arial" font-size="12">LCD_state = Admin_Correct_ID_Timeout</text>
 <text x="1055" y="1377" fill="#000000" font-family="Arial" font-size="12">Timeout = 1000</text>
 <polyline points="888,1176 906,1182 924,1188 945,1194 966,1201 988,1208 1010,1216 1033,1223 1056,1231 1080,1238 1103,1246" stroke="#4e8cb9" fill="none"/>
 <text x="1053" y="1222" fill="#000000" font-family="Arial" font-size="12">yes</text>
 <polygon points="1103,1245 1108,1248 1102,1248 1103,1245" stroke="#4e8cb9" fill="#4e8cb9"/>
 <polygon points="1028,1286 514,1286 514,1351 1028,1351 1028,1286" stroke="#90c4e4" fill="none"/>
 <text x="522" y="1301" fill="#000000" font-family="Arial" font-size="12">Send_String_Uart(uart1_config.UARTx, _Display_Worng_Entry, Enable)</text>
 <text x="522" y="1320" fill="#000000" font-family="Arial" font-size="12">LCD_state = Admin_Not_Correct_ID_Timeout</text>
 <text x="522" y="1339" fill="#000000" font-family="Arial" font-size="12">Timeout = 1000</text>
 <polyline points="809,1178 806,1187 804,1196 801,1207 798,1217 795,1228 792,1239 789,1250 786,1261 784,1271 781,1281" stroke="#cd0000" fill="none"/>
 <text x="800" y="1222" fill="#000000" font-family="Arial" font-size="12">no</text>
 <polygon points="783,1282 780,1286 779,1281 783,1282" stroke="#cd0000" fill="#cd0000"/>
 <polygon points="1409,1466 1230,1466 1230,1502 1409,1502 1409,1466" stroke="#90c4e4" fill="none"/>
 <text x="1238" y="1485" fill="#000000" font-family="Arial" font-size="12">Key_Buffer_counter = 0</text>
 <polyline points="1319,1389 1319,1397 1319,1405 1319,1412 1319,1420 1319,1428 1319,1435 1319,1442 1319,1448 1319,1454 1319,1460" stroke="#4e8cb9" fill="none"/>
 <polygon points="1321,1461 1319,1466 1317,1461 1321,1461" stroke="#4e8cb9" fill="#4e8cb9"/>
 <polyline points="877,1351 913,1362 951,1373 992,1385 1033,1398 1075,1410 1116,1423 1156,1434 1193,1446 1227,1456 1257,1465" stroke="#4e8cb9" fill="none"/>
 <polygon points="1258,1463 1262,1466 1257,1466 1258,1463" stroke="#4e8cb9" fill="#4e8cb9"/>
 <polyline points="1409,1500 1427,1503 1446,1506 1466,1508 1486,1511 1507,1514 1529,1517 1550,1519 1572,1522 1593,1524 1614,1526 1749,1536 1886,1544 2024,1550 2158,1555 2286,1558 2405,1560 2512,1561 2603,1561 2677,1561 2729,1561" stroke="#4e8cb9" fill="none"/>
 <polygon points="2729,1560 2734,1561 2729,1563 2729,1560" stroke="#4e8cb9" fill="#4e8cb9"/>
 <polygon points="4154,1109 3668,1109 3668,1193 4154,1193 4154,1109" stroke="#90c4e4" fill="none"/>
 <text x="3676" y="1124" fill="#000000" font-family="Arial" font-size="12">Send_String_Uart(uart1_config.UARTx, _Display_Enter_ID, Enable)</text>
 <text x="3676" y="1143" fill="#000000" font-family="Arial" font-size="12">Admin_state = 1</text>
 <text x="3676" y="1162" fill="#000000" font-family="Arial" font-size="12">LCD_state = Admin_Correct_Entry</text>
 <text x="3676" y="1181" fill="#000000" font-family="Arial" font-size="12">Timeout = 1000</text>
 <polyline points="3334,1021 3365,1028 3400,1036 3437,1044 3477,1053 3518,1062 3559,1071 3601,1081 3642,1090 3683,1099 3722,1108" stroke="#4e8cb9" fill="none"/>
 <text x="3637" y="1069" fill="#000000" font-family="Arial" font-size="12">yes</text>
 <polygon points="3723,1106 3727,1109 3722,1110 3723,1106" stroke="#4e8cb9" fill="#4e8cb9"/>
 <polygon points="3237,1124 2824,1151 3237,1178 3650,1151 3237,1124" stroke="#90c4e4" fill="none"/>
 <text x="3039" y="1152" fill="#000000" font-family="Arial" font-size="12">KeyPad_Keys[Soruce_pin_index][Drain_pin_index] == &apos;2&apos;</text>
 <polyline points="3243,1027 3243,1035 3242,1043 3242,1053 3241,1062 3241,1072 3240,1082 3240,1092 3239,1101 3239,1110 3238,1119" stroke="#cd0000" fill="none"/>
 <text x="3242" y="1069" fill="#000000" font-family="Arial" font-size="12">no</text>
 <polygon points="3240,1119 3238,1124 3237,1119 3240,1119" stroke="#cd0000" fill="#cd0000"/>
 <polygon points="2686,647 2498,674 2686,701 2874,674 2686,647" stroke="#90c4e4" fill="none"/>
 <text x="2600" y="676" fill="#000000" font-family="Arial" font-size="12">Key_Buffer_counter == 8</text>
 <polyline points="2686,605 2686,609 2686,612 2686,616 2686,620 2686,624 2686,627 2686,631 2686,635 2686,638 2686,642" stroke="#4e8cb9" fill="none"/>
 <polygon points="2688,642 2686,647 2684,642 2688,642" stroke="#4e8cb9" fill="#4e8cb9"/>
 <polygon points="3800,1407 3745,1407 3745,1443 3800,1443 3800,1407" stroke="#90c4e4" fill="none"/>
 <text x="3753" y="1426" fill="#000000" font-family="Arial" font-size="12">return</text>
 <polyline points="3911,1193 3910,1210 3909,1228 3906,1248 3903,1268 3898,1290 3892,1311 3884,1332 3875,1352 3864,1371 3851,1389 3847,1393 3843,1397 3839,1400 3834,1403 3829,1406 3824,1409 3819,1411 3814,1414 3809,1415 3804,1417" stroke="#4e8cb9" fill="none"/>
 <polygon points="3805,1419 3800,1418 3804,1415 3805,1419" stroke="#4e8cb9" fill="#4e8cb9"/>
 <polygon points="3310,1276 2824,1276 2824,1360 3310,1360 3310,1276" stroke="#90c4e4" fill="none"/>
 <text x="2832" y="1291" fill="#000000" font-family="Arial" font-size="12">Send_String_Uart(uart1_config.UARTx, _Display_Enter_ID, Enable)</text>
 <text x="2832" y="1310" fill="#000000" font-family="Arial" font-size="12">Admin_state = 2</text>
 <text x="2832" y="1329" fill="#000000" font-family="Arial" font-size="12">LCD_state = Admin_Correct_Entry</text>
 <text x="2832" y="1348" fill="#000000" font-family="Arial" font-size="12">Timeout = 1000</text>
 <polyline points="3212,1176 3204,1184 3195,1193 3185,1203 3175,1212 3165,1223 3154,1233 3144,1243 3133,1254 3123,1263 3113,1273" stroke="#4e8cb9" fill="none"/>
 <text x="3172" y="1222" fill="#000000" font-family="Arial" font-size="12">yes</text>
 <polygon points="3114,1274 3109,1276 3112,1272 3114,1274" stroke="#4e8cb9" fill="#4e8cb9"/>
 <polygon points="3842,1286 3328,1286 3328,1351 3842,1351 3842,1286" stroke="#90c4e4" fill="none"/>
 <text x="3336" y="1301" fill="#000000" font-family="Arial" font-size="12">Send_String_Uart(uart1_config.UARTx, _Display_Worng_Entry, Enable)</text>
 <text x="3336" y="1320" fill="#000000" font-family="Arial" font-size="12">LCD_state = Admin_Not_Correct_Entry</text>
 <text x="3336" y="1339" fill="#000000" font-family="Arial" font-size="12">Timeout = 1000</text>
 <polyline points="3285,1175 3304,1184 3325,1194 3348,1205 3372,1216 3397,1228 3421,1239 3446,1251 3470,1263 3493,1274 3514,1284" stroke="#cd0000" fill="none"/>
 <text x="3401" y="1222" fill="#000000" font-family="Arial" font-size="12">no</text>
 <polygon points="3515,1282 3519,1286 3513,1285 3515,1282" stroke="#cd0000" fill="#cd0000"/>
 <polyline points="3744,1432 3720,1437 3691,1443 3656,1451 3617,1459 3574,1467 3529,1475 3482,1484 3435,1492 3387,1500 3340,1507 3277,1515 3212,1523 3147,1530 3083,1536 3022,1542 2964,1546 2911,1551 2864,1554 2824,1557 2793,1559" stroke="#4e8cb9" fill="none"/>
 <polygon points="2793,1561 2788,1559 2793,1557 2793,1561" stroke="#4e8cb9" fill="#4e8cb9"/>
 <polygon points="3012,1466 2957,1466 2957,1502 3012,1502 3012,1466" stroke="#90c4e4" fill="none"/>
 <text x="2965" y="1485" fill="#000000" font-family="Arial" font-size="12">return</text>
 <polyline points="3046,1361 3041,1371 3036,1381 3030,1392 3025,1403 3019,1414 3014,1424 3009,1434 3004,1444 2999,1453 2995,1461" stroke="#4e8cb9" fill="none"/>
 <polygon points="2997,1462 2993,1466 2994,1460 2997,1462" stroke="#4e8cb9" fill="#4e8cb9"/>
 <polygon points="3331,1466 3276,1466 3276,1502 3331,1502 3331,1466" stroke="#90c4e4" fill="none"/>
 <text x="3284" y="1485" fill="#000000" font-family="Arial" font-size="12">return</text>
 <polyline points="3531,1351 3513,1362 3493,1373 3472,1385 3451,1398 3429,1410 3408,1422 3388,1434 3368,1445 3351,1455 3335,1464" stroke="#4e8cb9" fill="none"/>
 <polygon points="3336,1466 3331,1467 3334,1463 3336,1466" stroke="#4e8cb9" fill="#4e8cb9"/>
 <polyline points="2956,1494 2943,1499 2928,1504 2911,1510 2894,1516 2876,1522 2858,1528 2840,1534 2823,1540 2807,1545 2793,1550" stroke="#4e8cb9" fill="none"/>
 <polygon points="2793,1552 2788,1552 2792,1548 2793,1552" stroke="#4e8cb9" fill="#4e8cb9"/>
 <polyline points="3275,1489 3242,1494 3199,1500 3149,1507 3094,1514 3037,1523 2979,1531 2923,1538 2872,1545 2828,1551 2793,1556" stroke="#4e8cb9" fill="none"/>
 <polygon points="2793,1558 2788,1557 2793,1555 2793,1558" stroke="#4e8cb9" fill="#4e8cb9"/>
 <polygon points="2765,762 2304,762 2304,827 2765,827 2765,762" stroke="#90c4e4" fill="none"/>
 <text x="2312" y="777" fill="#000000" font-family="Arial" font-size="12">Send_String_Uart(uart1_config.UARTx, _Display_Enter, Enable)</text>
 <text x="2312" y="796" fill="#000000" font-family="Arial" font-size="12">uint16_t add = Convert_Buffer8_to_Variable(Key_Buffer, 3)</text>
 <text x="2312" y="815" fill="#000000" font-family="Arial" font-size="12">Convert_uint8_t_to_uint16_t(ID_data, Key_Buffer, 0, 4, 4)</text>
 <polyline points="2657,698 2650,703 2643,709 2635,715 2627,721 2619,727 2611,734 2603,740 2595,747 2587,753 2579,759" stroke="#4e8cb9" fill="none"/>
 <text x="2619" y="736" fill="#000000" font-family="Arial" font-size="12">yes</text>
 <polygon points="2580,760 2575,762 2578,757 2580,760" stroke="#4e8cb9" fill="#4e8cb9"/>
 <polygon points="2892,1461 2631,1461 2631,1507 2892,1507 2892,1461" stroke="#90c4e4" fill="none"/>
 <text x="2639" y="1476" fill="#000000" font-family="Arial" font-size="12">LCD_state = Admin_Entry_Timeout</text>
 <text x="2639" y="1495" fill="#000000" font-family="Arial" font-size="12">Timeout = 1000</text>
 <polyline points="2724,696 2734,702 2744,710 2754,718 2763,726 2772,736 2780,746 2786,757 2792,768 2795,780 2796,793 2796,794 2796,797 2796,807 2796,827 2796,859 2796,907 2796,973 2796,1062 2796,1176 2796,1319 2796,1334 2794,1349 2792,1364 2790,1379 2787,1394 2784,1408 2780,1422 2777,1434 2773,1446 2770,1456" stroke="#cd0000" fill="none"/>
 <text x="2797" y="1001" fill="#000000" font-family="Arial" font-size="12">no</text>
 <polygon points="2772,1457 2769,1461 2769,1456 2772,1457" stroke="#cd0000" fill="#cd0000"/>
 <polygon points="2524,864 2385,891 2524,918 2663,891 2524,864" stroke="#90c4e4" fill="none"/>
 <text x="2463" y="892" fill="#000000" font-family="Arial" font-size="12">Admin_state == 1</text>
 <polyline points="2531,827 2531,830 2530,834 2530,837 2529,840 2529,843 2529,847 2528,850 2528,853 2527,856 2527,859" stroke="#4e8cb9" fill="none"/>
 <polygon points="2529,860 2527,864 2525,859 2529,860" stroke="#4e8cb9" fill="#4e8cb9"/>
 <polyline points="2761,1507 2761,1510 2761,1513 2761,1516 2761,1520 2761,1523 2761,1526 2761,1529 2761,1532 2761,1535 2761,1538" stroke="#4e8cb9" fill="none"/>
 <polygon points="2763,1539 2761,1544 2759,1539 2763,1539" stroke="#4e8cb9" fill="#4e8cb9"/>
 <polygon points="2781,1045 2268,1045 2268,1091 2781,1091 2781,1045" stroke="#90c4e4" fill="none"/>
 <text x="2276" y="1060" fill="#000000" font-family="Arial" font-size="12">Write_Bytes_EEPROM_25xx(&amp;EEPORM_25xx_config, add, 4,ID_data)</text>
 <text x="2276" y="1079" fill="#000000" font-family="Arial" font-size="12">Send_String_Uart(uart1_config.UARTx, _Display_ID_Added, Enable)</text>
 <polyline points="2524,918 2524,929 2524,940 2524,952 2524,965 2524,979 2524,992 2524,1005 2524,1017 2524,1029 2524,1040" stroke="#4e8cb9" fill="none"/>
 <text x="2524" y="947" fill="#000000" font-family="Arial" font-size="12">yes</text>
 <polygon points="2526,1040 2524,1045 2522,1040 2526,1040" stroke="#4e8cb9" fill="#4e8cb9"/>
 <polygon points="2238,973 2099,1000 2238,1027 2377,1000 2238,973" stroke="#90c4e4" fill="none"/>
 <text x="2177" y="1001" fill="#000000" font-family="Arial" font-size="12">Admin_state == 2</text>
 <polyline points="2478,909 2462,915 2443,922 2424,929 2404,937 2384,945 2363,952 2343,960 2324,967 2306,974 2289,980" stroke="#cd0000" fill="none"/>
 <text x="2399" y="947" fill="#000000" font-family="Arial" font-size="12">no</text>
 <polygon points="2289,982 2284,982 2288,978 2289,982" stroke="#cd0000" fill="#cd0000"/>
 <polygon points="2768,1295 2589,1295 2589,1341 2768,1341 2768,1295" stroke="#90c4e4" fill="none"/>
 <text x="2597" y="1310" fill="#000000" font-family="Arial" font-size="12">Admin_state = 0</text>
 <text x="2597" y="1329" fill="#000000" font-family="Arial" font-size="12">Key_Buffer_counter = 0</text>
 <polyline points="2707,1091 2711,1093 2716,1094 2719,1096 2723,1097 2726,1099 2729,1101 2732,1103 2735,1105 2737,1107 2739,1109 2750,1126 2755,1145 2756,1164 2754,1184 2748,1205 2740,1224 2730,1243 2720,1261 2709,1277 2699,1291" stroke="#4e8cb9" fill="none"/>
 <polygon points="2701,1292 2696,1295 2698,1290 2701,1292" stroke="#4e8cb9" fill="#4e8cb9"/>
 <polygon points="2730,1128 2188,1128 2188,1174 2730,1174 2730,1128" stroke="#90c4e4" fill="none"/>
 <text x="2196" y="1143" fill="#000000" font-family="Arial" font-size="12">Write_Bytes_EEPROM_25xx(&amp;EEPORM_25xx_config, add, 4,Reset_Data)</text>
 <text x="2196" y="1162" fill="#000000" font-family="Arial" font-size="12">Send_String_Uart(uart1_config.UARTx, _Dispay_ID_Removed, Enable)</text>
 <polyline points="2229,1025 2228,1031 2226,1038 2225,1045 2225,1052 2225,1059 2225,1066 2227,1073 2229,1079 2231,1085 2235,1091 2239,1095 2244,1100 2250,1104 2258,1108 2266,1111 2275,1115 2284,1118 2294,1121 2305,1124 2316,1127" stroke="#4e8cb9" fill="none"/>
 <text x="2235" y="1069" fill="#000000" font-family="Arial" font-size="12">yes</text>
 <polygon points="2317,1125 2321,1128 2316,1128 2317,1125" stroke="#4e8cb9" fill="#4e8cb9"/>
 <polygon points="2170,1133 1656,1133 1656,1169 2170,1169 2170,1133" stroke="#90c4e4" fill="none"/>
 <text x="1664" y="1152" fill="#000000" font-family="Arial" font-size="12">Send_String_Uart(uart1_config.UARTx, _Display_Worng_Entry, Enable)</text>
 <polyline points="2198,1019 2178,1028 2155,1039 2130,1050 2104,1063 2077,1075 2050,1087 2024,1100 1999,1111 1975,1122 1955,1131" stroke="#cd0000" fill="none"/>
 <text x="2142" y="1069" fill="#000000" font-family="Arial" font-size="12">no</text>
 <polygon points="1955,1132 1950,1133 1954,1129 1955,1132" stroke="#cd0000" fill="#cd0000"/>
 <polyline points="2689,1342 2694,1351 2699,1362 2705,1373 2711,1385 2718,1398 2724,1410 2730,1423 2736,1435 2742,1446 2747,1456" stroke="#4e8cb9" fill="none"/>
 <polygon points="2749,1456 2750,1461 2746,1457 2749,1456" stroke="#4e8cb9" fill="#4e8cb9"/>
 <polyline points="2489,1174 2502,1184 2516,1195 2532,1207 2549,1220 2566,1233 2583,1246 2600,1258 2616,1270 2631,1282 2645,1292" stroke="#4e8cb9" fill="none"/>
 <polygon points="2646,1291 2649,1295 2644,1294 2646,1291" stroke="#4e8cb9" fill="#4e8cb9"/>
 <polygon points="2087,1407 2032,1407 2032,1443 2087,1443 2087,1407" stroke="#90c4e4" fill="none"/>
 <text x="2040" y="1426" fill="#000000" font-family="Arial" font-size="12">return</text>
 <polyline points="1922,1169 1931,1186 1942,1206 1955,1230 1969,1256 1984,1284 1998,1311 2013,1338 2026,1362 2037,1384 2047,1402" stroke="#4e8cb9" fill="none"/>
 <polygon points="2049,1402 2050,1407 2046,1403 2049,1402" stroke="#4e8cb9" fill="#4e8cb9"/>
 <polyline points="2087,1431 2128,1439 2184,1450 2252,1463 2326,1478 2404,1493 2483,1508 2558,1522 2627,1535 2685,1547 2729,1555" stroke="#4e8cb9" fill="none"/>
 <polygon points="2729,1553 2734,1556 2728,1557 2729,1553" stroke="#4e8cb9" fill="#4e8cb9"/>
</svg>
