<?xml version="1.0"?>
<svg width="2422" height="1430" xmlns="http://www.w3.org/2000/svg" version="1.1">
 <polygon points="4,1426 4,4 2418,4 2418,1426 4,1426" stroke="#fffffe00" fill="none"/>
 <polygon points="1213,77 917,77 917,113 1213,113 1213,77" stroke="#90c4e4" fill="none"/>
 <text x="925" y="96" fill="#000000" font-family="Arial" font-size="12">Check_Prass_Button(&amp;key_pad_config)</text>
 <polygon points="1135,179 1135,162 1094,149 1036,149 995,162 995,179 1036,191 1094,191 1135,179" stroke="#90c4e4" fill="none"/>
 <text x="1027" y="172" fill="#000000" font-family="Arial" font-size="12">LCD_state</text>
 <polyline points="1065,113 1065,116 1065,119 1065,122 1065,125 1065,128 1065,131 1065,135 1065,138 1065,141 1065,144" stroke="#4e8cb9" fill="none"/>
 <polygon points="1067,144 1065,149 1063,144 1067,144" stroke="#4e8cb9" fill="#4e8cb9"/>
 <polygon points="1092,4 1038,4 1038,40 1092,40 1092,4" stroke="#90c4e4" fill="none"/>
 <text x="1050" y="23" fill="#000000" font-family="Arial" font-size="12">start</text>
 <polyline points="1065,40 1065,43 1065,46 1065,49 1065,52 1065,55 1065,58 1065,62 1065,65 1065,68 1065,71" stroke="#4e8cb9" fill="none"/>
 <polygon points="1067,72 1065,77 1063,72 1067,72" stroke="#4e8cb9" fill="#4e8cb9"/>
 <polygon points="468,280 375,280 375,316 468,316 468,280" stroke="#90c4e4" fill="none"/>
 <text x="383" y="300" fill="#000000" font-family="Arial" font-size="12">case IDLE:</text>
 <polyline points="995,174 965,175 930,178 892,180 852,184 810,189 766,194 721,201 676,209 632,218 589,228 575,232 561,236 547,241 533,246 520,252 506,257 493,262 481,268 470,273 459,278" stroke="#4e8cb9" fill="none"/>
 <polygon points="460,280 454,280 458,277 460,280" stroke="#4e8cb9" fill="#4e8cb9"/>
 <polygon points="882,228 598,228 598,369 882,369 882,228" stroke="#90c4e4" fill="none"/>
 <text x="606" y="243" fill="#000000" font-family="Arial" font-size="12">case Admin_Correct_ID_Timeout:</text>
 <text x="606" y="262" fill="#000000" font-family="Arial" font-size="12">case Admin_Not_Correct_ID_Timeout:</text>
 <text x="606" y="281" fill="#000000" font-family="Arial" font-size="12">case Admin_Entry_star:</text>
 <text x="606" y="300" fill="#000000" font-family="Arial" font-size="12">case Admin_Entry_Hash:</text>
 <text x="606" y="319" fill="#000000" font-family="Arial" font-size="12">case Admin_Not_Correct_Entry:</text>
 <text x="606" y="338" fill="#000000" font-family="Arial" font-size="12">case Admin_Correct_Entry:</text>
 <text x="606" y="357" fill="#000000" font-family="Arial" font-size="12">case Admin_Entry_Timeout:</text>
 <polyline points="1022,187 1012,190 1002,194 992,198 981,202 969,206 958,211 946,215 935,219 923,224 912,228 910,229 907,230 905,231 902,232 900,233 897,234 894,235 892,236 889,237 887,238" stroke="#4e8cb9" fill="none"/>
 <polygon points="887,240 882,240 886,236 887,240" stroke="#4e8cb9" fill="#4e8cb9"/>
 <polygon points="1209,280 921,280 921,316 1209,316 1209,280" stroke="#90c4e4" fill="none"/>
 <text x="929" y="300" fill="#000000" font-family="Arial" font-size="12">case Correct_ID_Open_Gate_Timeout:</text>
 <polyline points="1065,191 1065,198 1065,206 1065,215 1065,224 1065,233 1065,242 1065,251 1065,259 1065,267 1065,275" stroke="#4e8cb9" fill="none"/>
 <polygon points="1067,275 1065,280 1063,275 1067,275" stroke="#4e8cb9" fill="#4e8cb9"/>
 <polygon points="1492,280 1325,280 1325,316 1492,316 1492,280" stroke="#90c4e4" fill="none"/>
 <text x="1333" y="300" fill="#000000" font-family="Arial" font-size="12">case Not_Correct_ID:</text>
 <polyline points="1108,187 1128,194 1152,203 1177,212 1203,222 1231,232 1258,242 1285,252 1311,262 1335,271 1357,279" stroke="#4e8cb9" fill="none"/>
 <polygon points="1357,277 1362,280 1356,280 1357,277" stroke="#4e8cb9" fill="#4e8cb9"/>
 <polygon points="1996,280 1930,280 1930,316 1996,316 1996,280" stroke="#90c4e4" fill="none"/>
 <text x="1938" y="300" fill="#000000" font-family="Arial" font-size="12">default:</text>
 <polyline points="1133,180 1161,183 1192,187 1226,191 1262,196 1301,201 1340,206 1380,212 1421,217 1461,223 1501,228 1549,235 1598,242 1647,249 1696,256 1743,263 1787,270 1828,277 1866,282 1898,288 1925,292" stroke="#4e8cb9" fill="none"/>
 <polygon points="1925,290 1930,292 1925,293 1925,290" stroke="#4e8cb9" fill="#4e8cb9"/>
 <polygon points="130,478 74,478 74,514 130,514 130,478" stroke="#90c4e4" fill="none"/>
 <text x="82" y="497" fill="#000000" font-family="Arial" font-size="12">break</text>
 <polyline points="393,317 373,329 349,344 323,360 294,377 265,395 235,413 207,431 179,447 155,462 134,475" stroke="#4e8cb9" fill="none"/>
 <polygon points="135,477 130,478 133,474 135,477" stroke="#4e8cb9" fill="#4e8cb9"/>
 <polygon points="687,406 581,433 687,460 793,433 687,406" stroke="#90c4e4" fill="none"/>
 <text x="642" y="434" fill="#000000" font-family="Arial" font-size="12">Timeout == 0</text>
 <polyline points="712,369 711,373 709,376 708,380 706,383 705,387 703,390 702,394 701,397 699,400 698,403" stroke="#4e8cb9" fill="none"/>
 <polygon points="700,404 696,408 697,403 700,404" stroke="#4e8cb9" fill="#4e8cb9"/>
 <polygon points="1065,406 959,433 1065,460 1171,433 1065,406" stroke="#90c4e4" fill="none"/>
 <text x="1020" y="434" fill="#000000" font-family="Arial" font-size="12">Timeout == 0</text>
 <polyline points="1065,317 1065,324 1065,331 1065,339 1065,348 1065,357 1065,366 1065,375 1065,384 1065,393 1065,401" stroke="#4e8cb9" fill="none"/>
 <polygon points="1067,401 1065,406 1063,401 1067,401" stroke="#4e8cb9" fill="#4e8cb9"/>
 <polygon points="1653,406 1547,433 1653,460 1759,433 1653,406" stroke="#90c4e4" fill="none"/>
 <text x="1608" y="434" fill="#000000" font-family="Arial" font-size="12">Timeout == 0</text>
 <polyline points="1440,317 1455,325 1471,334 1489,343 1507,353 1526,364 1546,374 1565,385 1583,394 1600,404 1615,412" stroke="#4e8cb9" fill="none"/>
 <polygon points="1616,410 1620,414 1615,413 1616,410" stroke="#4e8cb9" fill="#4e8cb9"/>
 <polygon points="2418,653 2362,653 2362,689 2418,689 2418,653" stroke="#90c4e4" fill="none"/>
 <text x="2370" y="672" fill="#000000" font-family="Arial" font-size="12">break</text>
 <polyline points="1996,304 2023,309 2055,315 2091,324 2131,336 2172,350 2214,368 2255,389 2294,415 2329,444 2360,478 2371,494 2379,511 2385,529 2390,548 2393,567 2394,585 2395,603 2395,620 2394,634 2393,647" stroke="#4e8cb9" fill="none"/>
 <polygon points="2395,648 2392,653 2391,648 2395,648" stroke="#4e8cb9" fill="#4e8cb9"/>
 <polygon points="1244,1390 1190,1390 1190,1426 1244,1426 1244,1390" stroke="#90c4e4" fill="none"/>
 <text x="1204" y="1409" fill="#000000" font-family="Arial" font-size="12">end</text>
 <polyline points="84,514 75,524 65,536 54,549 44,563 34,579 24,596 16,614 10,632 5,651 4,670 4,671 4,675 4,688 4,713 4,753 4,814 4,898 4,1011 4,1156 4,1336 32,1353 108,1367 223,1378 364,1387 522,1394 686,1399 845,1403 988,1405 1105,1406 1185,1407" stroke="#4e8cb9" fill="none"/>
 <polygon points="1185,1405 1190,1407 1185,1409 1185,1405" stroke="#4e8cb9" fill="#4e8cb9"/>
 <polygon points="651,532 117,532 117,635 651,635 651,532" stroke="#90c4e4" fill="none"/>
 <text x="125" y="547" fill="#000000" font-family="Arial" font-size="12">Send_String_Uart(uart1_config.UARTx, _Display_Timeout_Admin, Enable)</text>
 <text x="125" y="566" fill="#000000" font-family="Arial" font-size="12">Key_Buffer_counter = 0</text>
 <text x="125" y="585" fill="#000000" font-family="Arial" font-size="12">Clear_Buffer(Key_Buffer, 0, sizeof(Key_Buffer))</text>
 <text x="125" y="604" fill="#000000" font-family="Arial" font-size="12">Admin_mode = 0</text>
 <text x="125" y="623" fill="#000000" font-family="Arial" font-size="12">LCD_state = IDLE</text>
 <polyline points="652,451 640,457 626,464 611,471 595,479 578,487 561,496 544,504 526,513 509,521 492,530" stroke="#4e8cb9" fill="none"/>
 <text x="589" y="497" fill="#000000" font-family="Arial" font-size="12">yes</text>
 <polygon points="492,531 487,532 491,528 492,531" stroke="#4e8cb9" fill="#4e8cb9"/>
 <polygon points="433,754 336,754 336,800 433,800 433,754" stroke="#90c4e4" fill="none"/>
 <text x="344" y="769" fill="#000000" font-family="Arial" font-size="12">delay_us(1)</text>
 <text x="344" y="788" fill="#000000" font-family="Arial" font-size="12">Timeout--</text>
 <polyline points="691,459 692,472 693,488 693,505 693,523 691,543 688,562 684,581 678,600 670,618 660,635 643,656 623,676 601,693 577,708 553,722 528,733 504,744 480,752 458,759 437,765" stroke="#cd0000" fill="none"/>
 <text x="693" y="585" fill="#000000" font-family="Arial" font-size="12">no</text>
 <polygon points="438,767 433,766 437,763 438,767" stroke="#cd0000" fill="#cd0000"/>
 <polyline points="384,635 384,646 384,658 384,670 384,682 384,695 384,707 384,718 384,729 384,740 384,749" stroke="#4e8cb9" fill="none"/>
 <polygon points="386,749 384,754 382,749 386,749" stroke="#4e8cb9" fill="#4e8cb9"/>
 <polygon points="214,1062 158,1062 158,1098 214,1098 214,1062" stroke="#90c4e4" fill="none"/>
 <text x="166" y="1081" fill="#000000" font-family="Arial" font-size="12">break</text>
 <polyline points="335,781 311,784 284,788 255,793 225,801 194,811 163,823 134,838 106,856 82,878 61,903 51,918 44,933 38,947 35,961 34,974 35,988 38,1001 43,1015 51,1029 61,1044 65,1048 72,1052 79,1056 89,1060 99,1063 110,1066 121,1068 132,1070 143,1072 153,1074" stroke="#4e8cb9" fill="none"/>
 <polygon points="153,1073 158,1075 153,1076 153,1073" stroke="#4e8cb9" fill="#4e8cb9"/>
 <polyline points="214,1085 238,1089 267,1094 300,1100 333,1107 367,1116 398,1127 425,1138 447,1151 461,1165 466,1180 466,1180 466,1181 466,1184 466,1190 466,1200 466,1214 466,1234 466,1260 466,1294 466,1336 482,1356 527,1372 594,1384 677,1393 771,1400 869,1404 965,1406 1054,1407 1129,1407 1184,1407" stroke="#4e8cb9" fill="none"/>
 <polygon points="1185,1406 1190,1407 1185,1409 1185,1406" stroke="#4e8cb9" fill="#4e8cb9"/>
 <polygon points="1026,565 908,565 908,601 1026,601 1026,565" stroke="#90c4e4" fill="none"/>
 <text x="916" y="585" fill="#000000" font-family="Arial" font-size="12">Run_Led(Red)</text>
 <polyline points="1047,456 1045,458 1043,460 1042,462 1040,464 1038,467 1036,469 1035,471 1033,473 1032,476 1030,478 1024,487 1019,495 1013,504 1007,513 1002,522 997,531 992,539 987,547 983,554 979,561" stroke="#4e8cb9" fill="none"/>
 <text x="1030" y="497" fill="#000000" font-family="Arial" font-size="12">yes</text>
 <polygon points="980,562 976,565 977,560 980,562" stroke="#4e8cb9" fill="#4e8cb9"/>
 <polygon points="1266,1199 1169,1199 1169,1245 1266,1245 1266,1199" stroke="#90c4e4" fill="none"/>
 <text x="1177" y="1214" fill="#000000" font-family="Arial" font-size="12">delay_us(1)</text>
 <text x="1177" y="1233" fill="#000000" font-family="Arial" font-size="12">Timeout--</text>
 <polyline points="1063,460 1061,489 1058,525 1056,568 1055,614 1054,662 1056,709 1059,753 1065,792 1074,825 1087,848 1106,865 1126,875 1147,878 1169,878 1191,875 1213,873 1234,872 1255,876 1275,885 1293,903 1309,931 1318,962 1319,994 1315,1027 1306,1060 1294,1092 1280,1122 1265,1150 1250,1174 1237,1194" stroke="#cd0000" fill="none"/>
 <text x="1274" y="877" fill="#000000" font-family="Arial" font-size="12">no</text>
 <polygon points="1238,1196 1234,1199 1235,1194 1238,1196" stroke="#cd0000" fill="#cd0000"/>
 <polygon points="925,750 810,777 925,804 1040,777 925,750" stroke="#90c4e4" fill="none"/>
 <text x="876" y="779" fill="#000000" font-family="Arial" font-size="12">Max_Grag &gt; 0</text>
 <polyline points="963,602 961,613 958,625 955,640 952,655 948,671 945,687 941,703 938,719 935,733 932,746" stroke="#4e8cb9" fill="none"/>
 <polygon points="933,747 930,752 930,746 933,747" stroke="#4e8cb9" fill="#4e8cb9"/>
 <polygon points="1245,1317 1189,1317 1189,1353 1245,1353 1245,1317" stroke="#90c4e4" fill="none"/>
 <text x="1197" y="1336" fill="#000000" font-family="Arial" font-size="12">break</text>
 <polyline points="1217,1245 1217,1251 1217,1258 1217,1265 1217,1271 1217,1279 1217,1286 1217,1292 1217,1299 1217,1306 1217,1312" stroke="#4e8cb9" fill="none"/>
 <polygon points="1219,1312 1217,1317 1215,1312 1219,1312" stroke="#4e8cb9" fill="#4e8cb9"/>
 <polygon points="668,903 70,903 70,1044 668,1044 668,903" stroke="#90c4e4" fill="none"/>
 <text x="78" y="918" fill="#000000" font-family="Arial" font-size="12">Write_String_with_coordinator(&amp;Lcd_config, _Display_Welcom, 0 ,First_R)</text>
 <text x="78" y="937" fill="#000000" font-family="Arial" font-size="12">delay_us(200)</text>
 <text x="78" y="956" fill="#000000" font-family="Arial" font-size="12">Write_String_with_coordinator(&amp;Lcd_config, _Display_Put_Card, 0 ,Seconde_R)</text>
 <text x="78" y="975" fill="#000000" font-family="Arial" font-size="12">delay_us(200)</text>
 <text x="78" y="994" fill="#000000" font-family="Arial" font-size="12">Write_String_with_coordinator(&amp;Lcd_config, _Display_There_is_an, 0 ,Third_R)</text>
 <text x="78" y="1013" fill="#000000" font-family="Arial" font-size="12">delay_us(200)</text>
 <text x="78" y="1032" fill="#000000" font-family="Arial" font-size="12">Write_String_with_coordinator(&amp;Lcd_config, _Display_Empty_Garage, 0 ,Fourth_R)</text>
 <polyline points="880,794 858,802 833,810 806,820 776,830 744,842 710,853 676,865 642,877 607,889 573,901" stroke="#4e8cb9" fill="none"/>
 <text x="664" y="877" fill="#000000" font-family="Arial" font-size="12">yes</text>
 <polygon points="574,903 568,903 573,900 574,903" stroke="#4e8cb9" fill="#4e8cb9"/>
 <polygon points="1284,903 686,903 686,1044 1284,1044 1284,903" stroke="#90c4e4" fill="none"/>
 <text x="694" y="918" fill="#000000" font-family="Arial" font-size="12">Write_String_with_coordinator(&amp;Lcd_config, _Display_Welcom, 0 ,First_R)</text>
 <text x="694" y="937" fill="#000000" font-family="Arial" font-size="12">delay_us(200)</text>
 <text x="694" y="956" fill="#000000" font-family="Arial" font-size="12">Write_String_with_coordinator(&amp;Lcd_config, _Display_Sorry, 0 ,Seconde_R)</text>
 <text x="694" y="975" fill="#000000" font-family="Arial" font-size="12">delay_us(200)</text>
 <text x="694" y="994" fill="#000000" font-family="Arial" font-size="12">Write_String_with_coordinator(&amp;Lcd_config, _Display_There_is_no, 0 ,Third_R)</text>
 <text x="694" y="1013" fill="#000000" font-family="Arial" font-size="12">delay_us(200)</text>
 <text x="694" y="1032" fill="#000000" font-family="Arial" font-size="12">Write_String_with_coordinator(&amp;Lcd_config, _Display_Empty_Garage, 0 ,Fourth_R)</text>
 <polyline points="933,803 935,811 938,819 940,828 943,837 946,847 949,857 953,867 956,877 959,888 962,898" stroke="#cd0000" fill="none"/>
 <text x="958" y="877" fill="#000000" font-family="Arial" font-size="12">no</text>
 <polygon points="964,897 963,903 960,898 964,897" stroke="#cd0000" fill="#cd0000"/>
 <polygon points="1057,1121 913,1121 913,1157 1057,1157 1057,1121" stroke="#90c4e4" fill="none"/>
 <text x="921" y="1140" fill="#000000" font-family="Arial" font-size="12">LCD_state = IDLE</text>
 <polyline points="631,1044 662,1052 694,1061 725,1069 756,1077 786,1085 815,1093 843,1100 869,1107 894,1114 916,1120" stroke="#4e8cb9" fill="none"/>
 <polygon points="916,1118 921,1121 915,1121 916,1118" stroke="#4e8cb9" fill="#4e8cb9"/>
 <polyline points="985,1044 985,1052 985,1060 985,1067 985,1075 985,1083 985,1090 985,1097 985,1103 985,1109 985,1115" stroke="#4e8cb9" fill="none"/>
 <polygon points="987,1116 985,1121 983,1116 987,1116" stroke="#4e8cb9" fill="#4e8cb9"/>
 <polyline points="1034,1157 1046,1161 1058,1165 1071,1170 1085,1175 1098,1180 1112,1184 1125,1189 1138,1194 1151,1198 1163,1202" stroke="#4e8cb9" fill="none"/>
 <polygon points="1164,1201 1168,1204 1163,1204 1164,1201" stroke="#4e8cb9" fill="#4e8cb9"/>
 <polyline points="1217,1353 1217,1356 1217,1359 1217,1362 1217,1366 1217,1369 1217,1372 1217,1376 1217,1379 1217,1382 1217,1385" stroke="#4e8cb9" fill="none"/>
 <polygon points="1219,1385 1217,1390 1215,1385 1219,1385" stroke="#4e8cb9" fill="#4e8cb9"/>
 <polygon points="1653,556 1538,583 1653,610 1768,583 1653,556" stroke="#90c4e4" fill="none"/>
 <text x="1604" y="585" fill="#000000" font-family="Arial" font-size="12">Max_Grag &gt; 0</text>
 <polyline points="1653,460 1653,468 1653,476 1653,486 1653,495 1653,505 1653,515 1653,524 1653,534 1653,543 1653,551" stroke="#4e8cb9" fill="none"/>
 <text x="1653" y="497" fill="#000000" font-family="Arial" font-size="12">yes</text>
 <polygon points="1655,551 1653,556 1651,551 1655,551" stroke="#4e8cb9" fill="#4e8cb9"/>
 <polygon points="1743,1116 1646,1116 1646,1162 1743,1162 1743,1116" stroke="#90c4e4" fill="none"/>
 <text x="1654" y="1131" fill="#000000" font-family="Arial" font-size="12">delay_us(1)</text>
 <text x="1654" y="1150" fill="#000000" font-family="Arial" font-size="12">Timeout--</text>
 <polyline points="1752,435 1815,437 1887,440 1965,446 2044,454 2121,465 2192,480 2254,498 2303,521 2335,549 2346,582 2346,582 2346,585 2346,593 2346,607 2346,631 2346,667 2346,716 2346,783 2346,868 2346,974 2333,1008 2299,1037 2247,1062 2181,1082 2106,1099 2026,1111 1946,1121 1870,1128 1803,1133 1748,1136" stroke="#cd0000" fill="none"/>
 <text x="2347" y="779" fill="#000000" font-family="Arial" font-size="12">no</text>
 <polygon points="1748,1138 1743,1136 1748,1134 1748,1138" stroke="#cd0000" fill="#cd0000"/>
 <polygon points="1694,707 1096,707 1096,848 1694,848 1694,707" stroke="#90c4e4" fill="none"/>
 <text x="1104" y="722" fill="#000000" font-family="Arial" font-size="12">Write_String_with_coordinator(&amp;Lcd_config, _Display_Welcom, 0 ,First_R)</text>
 <text x="1104" y="741" fill="#000000" font-family="Arial" font-size="12">delay_us(200)</text>
 <text x="1104" y="760" fill="#000000" font-family="Arial" font-size="12">Write_String_with_coordinator(&amp;Lcd_config, _Display_Put_Card, 0 ,Seconde_R)</text>
 <text x="1104" y="779" fill="#000000" font-family="Arial" font-size="12">delay_us(200)</text>
 <text x="1104" y="798" fill="#000000" font-family="Arial" font-size="12">Write_String_with_coordinator(&amp;Lcd_config, _Display_There_is_an, 0 ,Third_R)</text>
 <text x="1104" y="817" fill="#000000" font-family="Arial" font-size="12">delay_us(200)</text>
 <text x="1104" y="836" fill="#000000" font-family="Arial" font-size="12">Write_String_with_coordinator(&amp;Lcd_config, _Display_Empty_Garage, 0 ,Fourth_R)</text>
 <polyline points="1626,604 1616,612 1605,620 1593,629 1580,639 1566,650 1552,660 1537,671 1522,682 1508,693 1493,704" stroke="#4e8cb9" fill="none"/>
 <text x="1554" y="672" fill="#000000" font-family="Arial" font-size="12">yes</text>
 <polygon points="1494,705 1489,707 1492,702 1494,705" stroke="#4e8cb9" fill="#4e8cb9"/>
 <polygon points="2310,707 1712,707 1712,848 2310,848 2310,707" stroke="#90c4e4" fill="none"/>
 <text x="1720" y="722" fill="#000000" font-family="Arial" font-size="12">Write_String_with_coordinator(&amp;Lcd_config, _Display_Welcom, 0 ,First_R)</text>
 <text x="1720" y="741" fill="#000000" font-family="Arial" font-size="12">delay_us(200)</text>
 <text x="1720" y="760" fill="#000000" font-family="Arial" font-size="12">Write_String_with_coordinator(&amp;Lcd_config, _Display_Sorry, 0 ,Seconde_R)</text>
 <text x="1720" y="779" fill="#000000" font-family="Arial" font-size="12">delay_us(200)</text>
 <text x="1720" y="798" fill="#000000" font-family="Arial" font-size="12">Write_String_with_coordinator(&amp;Lcd_config, _Display_There_is_no, 0 ,Third_R)</text>
 <text x="1720" y="817" fill="#000000" font-family="Arial" font-size="12">delay_us(200)</text>
 <text x="1720" y="836" fill="#000000" font-family="Arial" font-size="12">Write_String_with_coordinator(&amp;Lcd_config, _Display_Empty_Garage, 0 ,Fourth_R)</text>
 <polyline points="1687,603 1701,610 1717,619 1734,628 1753,638 1772,649 1793,660 1814,671 1835,682 1856,694 1877,705" stroke="#cd0000" fill="none"/>
 <text x="1843" y="672" fill="#000000" font-family="Arial" font-size="12">no</text>
 <polygon points="1878,703 1881,707 1876,706 1878,703" stroke="#cd0000" fill="#cd0000"/>
 <polygon points="1380,1263 1324,1263 1324,1299 1380,1299 1380,1263" stroke="#90c4e4" fill="none"/>
 <text x="1332" y="1282" fill="#000000" font-family="Arial" font-size="12">break</text>
 <polyline points="1645,1160 1622,1169 1597,1180 1569,1191 1541,1203 1512,1215 1483,1226 1455,1238 1429,1248 1405,1258 1385,1266" stroke="#4e8cb9" fill="none"/>
 <polygon points="1386,1268 1380,1268 1384,1265 1386,1268" stroke="#4e8cb9" fill="#4e8cb9"/>
 <polygon points="1766,955 1622,955 1622,991 1766,991 1766,955" stroke="#90c4e4" fill="none"/>
 <text x="1630" y="975" fill="#000000" font-family="Arial" font-size="12">LCD_state = IDLE</text>
 <polyline points="1503,848 1520,859 1538,871 1556,882 1573,894 1591,905 1607,916 1623,926 1638,936 1651,945 1663,953" stroke="#4e8cb9" fill="none"/>
 <polygon points="1665,951 1668,955 1663,954 1665,951" stroke="#4e8cb9" fill="#4e8cb9"/>
 <polyline points="1897,848 1878,859 1860,871 1841,882 1822,894 1804,905 1786,916 1769,926 1754,936 1740,945 1727,953" stroke="#4e8cb9" fill="none"/>
 <polygon points="1727,954 1722,955 1725,951 1727,954" stroke="#4e8cb9" fill="#4e8cb9"/>
 <polyline points="1694,992 1694,1001 1694,1012 1694,1024 1694,1036 1694,1049 1694,1062 1694,1076 1694,1088 1694,1100 1694,1111" stroke="#4e8cb9" fill="none"/>
 <polygon points="1696,1111 1694,1116 1692,1111 1696,1111" stroke="#4e8cb9" fill="#4e8cb9"/>
 <polyline points="1334,1299 1326,1306 1317,1315 1308,1323 1298,1333 1287,1342 1277,1352 1267,1361 1257,1370 1248,1378 1239,1386" stroke="#4e8cb9" fill="none"/>
 <polygon points="1241,1388 1236,1390 1238,1385 1241,1388" stroke="#4e8cb9" fill="#4e8cb9"/>
 <polyline points="2390,689 2390,701 2390,715 2390,732 2390,750 2391,769 2391,790 2391,811 2391,832 2391,853 2391,874 2391,874 2391,878 2391,886 2391,904 2391,932 2391,974 2391,1032 2391,1111 2391,1211 2391,1336 2364,1352 2290,1366 2180,1377 2043,1386 1891,1393 1732,1398 1579,1402 1440,1405 1327,1406 1249,1407" stroke="#4e8cb9" fill="none"/>
 <polygon points="1249,1409 1244,1407 1249,1405 1249,1409" stroke="#4e8cb9" fill="#4e8cb9"/>
</svg>
