<?xml version="1.0"?>
<svg width="383" height="152" xmlns="http://www.w3.org/2000/svg" version="1.1">
 <polygon points="4,148 4,4 379,4 379,148 4,148" stroke="#fffffe00" fill="none"/>
 <polygon points="379,58 294,58 294,94 379,94 379,58" stroke="#0000ff" fill="none"/>
 <text x="303" y="78" fill="#000000" font-family="Arial" font-size="12" xml:space='preserve'> _0_angle</text>
 <polygon points="212,4 95,4 95,40 212,40 212,4" stroke="#000000" fill="none"/>
 <text x="104" y="24" fill="#000000" font-family="Arial" font-size="12" xml:space='preserve'> Servo_sg90.h</text>
 <polyline points="212,36 218,38 225,39 231,41 238,42 244,44 250,46 257,48 263,50 270,52 276,54 277,54 278,55 278,55 279,55 280,56 281,56 282,56 282,56 283,57 284,57" stroke="#696969" fill="none"/>
 <text x="230" y="35" fill="#000000" font-family="Arial" font-size="12">Define</text>
 <polygon points="285,53 294,60 283,60 285,53" stroke="#696969" fill="#696969"/>
 <polygon points="181,58 127,58 127,94 181,94 181,58" stroke="#0000ff" fill="none"/>
 <text x="142" y="78" fill="#000000" font-family="Arial" font-size="12" xml:space='preserve'> init</text>
 <polyline points="181,76 190,76 199,76 209,76 219,76 230,76 241,76 252,76 263,76 274,76 284,76" stroke="#0000ff" fill="none"/>
 <text x="239" y="69" fill="#000000" font-family="Arial" font-size="12">Use</text>
 <polygon points="284,72 294,76 284,79 284,72" stroke="#0000ff" fill="#0000ff"/>
 <polygon points="58,58 4,58 4,94 58,94 58,58" stroke="#0000ff" fill="none"/>
 <text x="12" y="78" fill="#000000" font-family="Arial" font-size="12" xml:space='preserve'> main</text>
 <polyline points="58,76 63,76 69,76 74,76 80,76 86,76 92,76 98,76 104,76 110,76 116,76" stroke="#696969" fill="none"/>
 <polygon points="116,72 126,76 116,79 116,72" stroke="#696969" fill="#696969"/>
 <polygon points="181,112 127,112 127,148 181,148 181,112" stroke="#0000ff" fill="none"/>
 <text x="140" y="132" fill="#000000" font-family="Arial" font-size="12" xml:space='preserve'> ISR</text>
 <polyline points="181,124 189,122 197,120 206,118 216,115 226,113 236,110 246,107 256,104 266,101 276,98 277,98 278,97 278,97 279,97 280,97 281,96 282,96 282,96 283,95 284,95" stroke="#0000ff" fill="none"/>
 <text x="239" y="91" fill="#000000" font-family="Arial" font-size="12">Use</text>
 <polygon points="283,92 294,92 285,99 283,92" stroke="#0000ff" fill="#0000ff"/>
</svg>
