<?xml version="1.0"?>
<svg width="1635" height="240" xmlns="http://www.w3.org/2000/svg" version="1.1">
 <polygon points="4,236 4,3 1632,3 1632,236 4,236" stroke="#fffffe00" fill="none"/>
 <ellipse cx="916" cy="120" rx="63" ry="18" stroke="#000000" fill="none"/>
 <text x="880" y="121" fill="#000000" font-family="Arial" font-size="12">Max_Grag</text>
 <polygon points="196,192 4,192 4,236 196,236 196,192" stroke="#90c4e4" fill="none"/>
 <text x="12" y="207" fill="#000000" font-family="Arial" font-size="12">Inc_Dec_seven_segment</text>
 <text x="37" y="225" fill="#000000" font-family="Arial" font-size="12">Application.c(724)</text>
 <polyline points="855,124 814,127 764,130 708,135 645,140 577,146 506,154 432,162 356,171 281,181 206,192" stroke="#4e8cb9" fill="none"/>
 <text x="478" y="167" fill="#000000" font-family="Arial" font-size="12">Use</text>
 <polygon points="207,195 196,193 205,188 207,195" stroke="#4e8cb9" fill="#4e8cb9"/>
 <polygon points="406,192 214,192 214,236 406,236 406,192" stroke="#90c4e4" fill="none"/>
 <text x="222" y="207" fill="#000000" font-family="Arial" font-size="12">Inc_Dec_seven_segment</text>
 <text x="247" y="225" fill="#000000" font-family="Arial" font-size="12">Application.c(725)</text>
 <polyline points="859,128 829,132 794,136 755,141 712,147 666,153 618,160 568,167 517,175 467,183 416,192" stroke="#4e8cb9" fill="none"/>
 <text x="635" y="167" fill="#000000" font-family="Arial" font-size="12">Use</text>
 <polygon points="417,195 406,194 415,188 417,195" stroke="#4e8cb9" fill="#4e8cb9"/>
 <polygon points="616,192 424,192 424,236 616,236 616,192" stroke="#90c4e4" fill="none"/>
 <text x="432" y="207" fill="#000000" font-family="Arial" font-size="12">Inc_Dec_seven_segment</text>
 <text x="457" y="225" fill="#000000" font-family="Arial" font-size="12">Application.c(728)</text>
 <polyline points="868,132 848,137 826,142 803,147 777,153 751,159 724,165 697,172 671,178 645,184 620,190" stroke="#4e8cb9" fill="none"/>
 <text x="754" y="167" fill="#000000" font-family="Arial" font-size="12">Use</text>
 <polygon points="621,193 610,192 619,186 621,193" stroke="#4e8cb9" fill="#4e8cb9"/>
 <polygon points="826,192 634,192 634,236 826,236 826,192" stroke="#90c4e4" fill="none"/>
 <text x="642" y="207" fill="#000000" font-family="Arial" font-size="12">Inc_Dec_seven_segment</text>
 <text x="667" y="225" fill="#000000" font-family="Arial" font-size="12">Application.c(729)</text>
 <polyline points="885,136 876,140 867,145 857,150 846,155 835,161 824,166 814,172 803,177 792,182 782,187" stroke="#4e8cb9" fill="none"/>
 <text x="840" y="167" fill="#000000" font-family="Arial" font-size="12">Use</text>
 <polygon points="783,191 773,192 780,184 783,191" stroke="#4e8cb9" fill="#4e8cb9"/>
 <polygon points="988,192 845,192 845,236 988,236 988,192" stroke="#90c4e4" fill="none"/>
 <text x="875" y="207" fill="#000000" font-family="Arial" font-size="12">Infinite_loop</text>
 <text x="853" y="225" fill="#000000" font-family="Arial" font-size="12">Application.c(801)</text>
 <polyline points="916,138 916,142 916,146 916,150 916,155 916,159 916,164 916,168 916,173 916,177 916,182" stroke="#4e8cb9" fill="none"/>
 <text x="916" y="167" fill="#000000" font-family="Arial" font-size="12">Use</text>
 <polygon points="920,182 916,192 913,182 920,182" stroke="#4e8cb9" fill="#4e8cb9"/>
 <polygon points="1149,192 1006,192 1006,236 1149,236 1149,192" stroke="#90c4e4" fill="none"/>
 <text x="1036" y="207" fill="#000000" font-family="Arial" font-size="12">Infinite_loop</text>
 <text x="1014" y="225" fill="#000000" font-family="Arial" font-size="12">Application.c(828)</text>
 <polyline points="943,136 951,140 959,145 967,150 976,155 986,160 995,166 1004,171 1013,177 1022,182 1031,187" stroke="#4e8cb9" fill="none"/>
 <text x="1007" y="167" fill="#000000" font-family="Arial" font-size="12">Use</text>
 <polygon points="1033,184 1040,192 1030,190 1033,184" stroke="#4e8cb9" fill="#4e8cb9"/>
 <polygon points="1310,192 1167,192 1167,236 1310,236 1310,192" stroke="#90c4e4" fill="none"/>
 <text x="1184" y="207" fill="#000000" font-family="Arial" font-size="12">Init_Component</text>
 <text x="1175" y="225" fill="#000000" font-family="Arial" font-size="12">Application.c(291)</text>
 <polyline points="959,133 975,138 993,143 1012,149 1033,154 1054,160 1075,166 1096,173 1117,179 1138,184 1157,190" stroke="#4e8cb9" fill="none"/>
 <text x="1096" y="167" fill="#000000" font-family="Arial" font-size="12">Use</text>
 <polygon points="1158,186 1166,192 1156,193 1158,186" stroke="#4e8cb9" fill="#4e8cb9"/>
 <polygon points="1471,192 1328,192 1328,236 1471,236 1471,192" stroke="#90c4e4" fill="none"/>
 <text x="1367" y="207" fill="#000000" font-family="Arial" font-size="12">Rx_Uart1</text>
 <text x="1336" y="225" fill="#000000" font-family="Arial" font-size="12">Application.c(333)</text>
 <polyline points="971,129 996,133 1024,137 1055,142 1088,148 1124,154 1161,160 1200,168 1239,175 1278,183 1317,192" stroke="#4e8cb9" fill="none"/>
 <text x="1231" y="167" fill="#000000" font-family="Arial" font-size="12">Use</text>
 <polygon points="1318,188 1327,194 1317,195 1318,188" stroke="#4e8cb9" fill="#4e8cb9"/>
 <polygon points="1632,192 1489,192 1489,236 1632,236 1632,192" stroke="#90c4e4" fill="none"/>
 <text x="1528" y="207" fill="#000000" font-family="Arial" font-size="12">Rx_Uart2</text>
 <text x="1497" y="225" fill="#000000" font-family="Arial" font-size="12">Application.c(408)</text>
 <polyline points="977,125 1011,128 1050,131 1095,136 1144,141 1196,147 1250,154 1307,162 1364,171 1421,181 1478,192" stroke="#4e8cb9" fill="none"/>
 <text x="1373" y="167" fill="#000000" font-family="Arial" font-size="12">Use</text>
 <polygon points="1479,188 1488,194 1478,195 1479,188" stroke="#4e8cb9" fill="#4e8cb9"/>
 <polygon points="802,3 668,3 668,47 802,47 802,3" stroke="#000000" fill="none"/>
 <text x="690" y="18" fill="#000000" font-family="Arial" font-size="12">Application.c</text>
 <text x="676" y="36" fill="#000000" font-family="Arial" font-size="12">Application.c(46)</text>
 <polyline points="777,47 786,52 796,57 806,62 817,68 827,73 837,78 848,84 858,89 868,94 877,99" stroke="#569f38" fill="none"/>
 <text x="843" y="76" fill="#000000" font-family="Arial" font-size="12">Init</text>
 <polygon points="879,96 886,103 875,102 879,96" stroke="#569f38" fill="#569f38"/>
 <polygon points="1012,3 820,3 820,47 1012,47 1012,3" stroke="#90c4e4" fill="none"/>
 <text x="828" y="18" fill="#000000" font-family="Arial" font-size="12">Inc_Dec_seven_segment</text>
 <text x="853" y="36" fill="#000000" font-family="Arial" font-size="12">Application.c(725)</text>
 <polyline points="916,48 916,52 916,56 916,60 916,64 916,69 916,73 916,78 916,82 916,87 916,91" stroke="#e45721" fill="none"/>
 <text x="916" y="76" fill="#000000" font-family="Arial" font-size="12">Modify</text>
 <polygon points="920,91 916,101 913,91 920,91" stroke="#e45721" fill="#e45721"/>
 <polygon points="1222,3 1030,3 1030,47 1222,47 1222,3" stroke="#90c4e4" fill="none"/>
 <text x="1038" y="18" fill="#000000" font-family="Arial" font-size="12">Inc_Dec_seven_segment</text>
 <text x="1063" y="36" fill="#000000" font-family="Arial" font-size="12">Application.c(729)</text>
 <polyline points="1078,47 1067,52 1055,57 1043,63 1030,68 1018,74 1005,79 993,85 981,90 970,95 959,100" stroke="#e45721" fill="none"/>
 <text x="1033" y="76" fill="#000000" font-family="Arial" font-size="12">Modify</text>
 <polygon points="960,103 949,104 957,97 960,103" stroke="#e45721" fill="#e45721"/>
</svg>
