<?xml version="1.0"?>
<svg width="1484" height="1205" xmlns="http://www.w3.org/2000/svg" version="1.1">
 <rect x="238" y="5" width="95" height="23" stroke="#90c4e4" fill="none"/>
 <text x="241" y="20" fill="#000000" font-family="Arial" font-size="12">Application.c</text>
 <rect x="281" y="58" width="9" height="1123" stroke="#90c4e4" fill="none"/>
 <rect x="441" y="5" width="167" height="23" stroke="#90c4e4" fill="none"/>
 <text x="444" y="20" fill="#000000" font-family="Arial" font-size="12">Stm32_f10xx_Systick.c</text>
 <rect x="520" y="97" width="9" height="35" stroke="#90c4e4" fill="none"/>
 <rect x="672" y="5" width="100" height="23" stroke="#90c4e4" fill="none"/>
 <text x="675" y="20" fill="#000000" font-family="Arial" font-size="12">LCD_Driver.c</text>
 <rect x="717" y="165" width="9" height="35" stroke="#90c4e4" fill="none"/>
 <rect x="778" y="5" width="130" height="23" stroke="#90c4e4" fill="none"/>
 <text x="781" y="20" fill="#000000" font-family="Arial" font-size="12">Key_pad_Driver.c</text>
 <rect x="838" y="233" width="9" height="35" stroke="#90c4e4" fill="none"/>
 <rect x="914" y="5" width="133" height="23" stroke="#90c4e4" fill="none"/>
 <text x="917" y="20" fill="#000000" font-family="Arial" font-size="12">Seven_Segment.c</text>
 <rect x="976" y="301" width="9" height="35" stroke="#90c4e4" fill="none"/>
 <rect x="285" y="369" width="9" height="35" stroke="#90c4e4" fill="none"/>
 <rect x="1053" y="5" width="141" height="23" stroke="#90c4e4" fill="none"/>
 <text x="1056" y="20" fill="#000000" font-family="Arial" font-size="12">Stm32f10x_UART.c</text>
 <rect x="1119" y="437" width="9" height="35" stroke="#90c4e4" fill="none"/>
 <rect x="285" y="505" width="9" height="35" stroke="#90c4e4" fill="none"/>
 <rect x="1119" y="573" width="9" height="35" stroke="#90c4e4" fill="none"/>
 <rect x="1200" y="5" width="126" height="23" stroke="#90c4e4" fill="none"/>
 <text x="1203" y="20" fill="#000000" font-family="Arial" font-size="12">Stm32f10x_SPI.c</text>
 <rect x="1258" y="641" width="9" height="35" stroke="#90c4e4" fill="none"/>
 <rect x="1332" y="5" width="146" height="23" stroke="#90c4e4" fill="none"/>
 <text x="1335" y="20" fill="#000000" font-family="Arial" font-size="12">Stm32f10xx_GPIO.c</text>
 <rect x="1400" y="709" width="9" height="35" stroke="#90c4e4" fill="none"/>
 <rect x="1400" y="777" width="9" height="35" stroke="#90c4e4" fill="none"/>
 <rect x="1400" y="845" width="9" height="35" stroke="#90c4e4" fill="none"/>
 <rect x="1400" y="913" width="9" height="35" stroke="#90c4e4" fill="none"/>
 <rect x="1400" y="981" width="9" height="35" stroke="#90c4e4" fill="none"/>
 <rect x="1400" y="1049" width="9" height="35" stroke="#90c4e4" fill="none"/>
 <rect x="1400" y="1117" width="9" height="35" stroke="#90c4e4" fill="none"/>
 <ellipse cx="8" cy="58" rx="3" ry="3" stroke="#000000" fill="#000000"/>
 <text x="14" y="49" fill="#000000" font-family="Arial" font-size="12">config_Drives_and_Perpherals</text>
 <polyline points="281,58 10,58" stroke="#4e8cb9" fill="none"/>
 <polygon points="281,58 275,61 275,55 281,58" stroke="#4e8cb9" fill="#4e8cb9"/>
 <text x="294" y="88" fill="#000000" font-family="Arial" font-size="12">Init_Systick</text>
 <polyline points="520,97 290,97" stroke="#4e8cb9" fill="none"/>
 <polygon points="520,97 514,100 514,94 520,97" stroke="#4e8cb9" fill="#4e8cb9"/>
 <text x="488" y="127" fill="#000000" font-family="Arial" font-size="12">void</text>
 <polyline points="296,136 290,133 296,130" stroke="#4e8cb9" fill="none"/>
 <polyline points="290,133 520,133" stroke="#4e8cb9" fill="none"/>
 <polyline points="525,28 525,97" stroke="#4e8cb9" fill="none"/>
 <text x="294" y="156" fill="#000000" font-family="Arial" font-size="12">LCD_init</text>
 <polyline points="717,165 290,165" stroke="#4e8cb9" fill="none"/>
 <polygon points="717,165 711,168 711,162 717,165" stroke="#4e8cb9" fill="#4e8cb9"/>
 <text x="617" y="195" fill="#000000" font-family="Arial" font-size="12">unsigned char</text>
 <polyline points="296,204 290,201 296,198" stroke="#4e8cb9" fill="none"/>
 <polyline points="290,201 717,201" stroke="#4e8cb9" fill="none"/>
 <polyline points="722,28 722,165" stroke="#4e8cb9" fill="none"/>
 <text x="294" y="224" fill="#000000" font-family="Arial" font-size="12">Key_pad_init</text>
 <polyline points="838,233 290,233" stroke="#4e8cb9" fill="none"/>
 <polygon points="838,233 832,236 832,230 838,233" stroke="#4e8cb9" fill="#4e8cb9"/>
 <text x="789" y="263" fill="#000000" font-family="Arial" font-size="12">uint8_t</text>
 <polyline points="296,272 290,269 296,266" stroke="#4e8cb9" fill="none"/>
 <polyline points="290,269 838,269" stroke="#4e8cb9" fill="none"/>
 <polyline points="843,28 843,233" stroke="#4e8cb9" fill="none"/>
 <text x="294" y="292" fill="#000000" font-family="Arial" font-size="12">init_seven_segment</text>
 <polyline points="976,301 290,301" stroke="#4e8cb9" fill="none"/>
 <polygon points="976,301 970,304 970,298 976,301" stroke="#4e8cb9" fill="#4e8cb9"/>
 <text x="944" y="331" fill="#000000" font-family="Arial" font-size="12">void</text>
 <polyline points="296,340 290,337 296,334" stroke="#4e8cb9" fill="none"/>
 <polyline points="290,337 976,337" stroke="#4e8cb9" fill="none"/>
 <polyline points="981,28 981,301" stroke="#4e8cb9" fill="none"/>
 <text x="294" y="360" fill="#000000" font-family="Arial" font-size="12">Rx_Uart1</text>
 <polyline points="290,345 304,345 304,348" stroke="#4e8cb9" fill="none"/>
 <polyline points="294,369 304,369 304,366" stroke="#4e8cb9" fill="none"/>
 <polygon points="294,369 300,372 300,366 294,369" stroke="#4e8cb9" fill="#4e8cb9"/>
 <text x="294" y="428" fill="#000000" font-family="Arial" font-size="12">Init_Uart</text>
 <polyline points="1119,437 290,437" stroke="#4e8cb9" fill="none"/>
 <polygon points="1119,437 1113,440 1113,434 1119,437" stroke="#4e8cb9" fill="#4e8cb9"/>
 <text x="1070" y="467" fill="#000000" font-family="Arial" font-size="12">uint8_t</text>
 <polyline points="296,476 290,473 296,470" stroke="#4e8cb9" fill="none"/>
 <polyline points="290,473 1119,473" stroke="#4e8cb9" fill="none"/>
 <polyline points="1124,28 1124,437" stroke="#4e8cb9" fill="none"/>
 <text x="294" y="496" fill="#000000" font-family="Arial" font-size="12">Rx_Uart2</text>
 <polyline points="290,481 304,481 304,484" stroke="#4e8cb9" fill="none"/>
 <polyline points="294,505 304,505 304,502" stroke="#4e8cb9" fill="none"/>
 <polygon points="294,505 300,508 300,502 294,505" stroke="#4e8cb9" fill="#4e8cb9"/>
 <text x="294" y="564" fill="#000000" font-family="Arial" font-size="12">Init_Uart</text>
 <polyline points="1119,573 290,573" stroke="#4e8cb9" fill="none"/>
 <polygon points="1119,573 1113,576 1113,570 1119,573" stroke="#4e8cb9" fill="#4e8cb9"/>
 <text x="1070" y="603" fill="#000000" font-family="Arial" font-size="12">uint8_t</text>
 <polyline points="296,612 290,609 296,606" stroke="#4e8cb9" fill="none"/>
 <polyline points="290,609 1119,609" stroke="#4e8cb9" fill="none"/>
 <polyline points="1124,472 1124,573" stroke="#4e8cb9" fill="none"/>
 <text x="294" y="632" fill="#000000" font-family="Arial" font-size="12">Init_SPI</text>
 <polyline points="1258,641 290,641" stroke="#4e8cb9" fill="none"/>
 <polygon points="1258,641 1252,644 1252,638 1258,641" stroke="#4e8cb9" fill="#4e8cb9"/>
 <text x="1209" y="671" fill="#000000" font-family="Arial" font-size="12">uint8_t</text>
 <polyline points="296,680 290,677 296,674" stroke="#4e8cb9" fill="none"/>
 <polyline points="290,677 1258,677" stroke="#4e8cb9" fill="none"/>
 <polyline points="1263,28 1263,641" stroke="#4e8cb9" fill="none"/>
 <text x="294" y="700" fill="#000000" font-family="Arial" font-size="12">Init_GPIO</text>
 <polyline points="1400,709 290,709" stroke="#4e8cb9" fill="none"/>
 <polygon points="1400,709 1394,712 1394,706 1400,709" stroke="#4e8cb9" fill="#4e8cb9"/>
 <text x="1368" y="739" fill="#000000" font-family="Arial" font-size="12">void</text>
 <polyline points="296,748 290,745 296,742" stroke="#4e8cb9" fill="none"/>
 <polyline points="290,745 1400,745" stroke="#4e8cb9" fill="none"/>
 <polyline points="1405,28 1405,709" stroke="#4e8cb9" fill="none"/>
 <text x="294" y="768" fill="#000000" font-family="Arial" font-size="12">Set_pin</text>
 <polyline points="1400,777 290,777" stroke="#4e8cb9" fill="none"/>
 <polygon points="1400,777 1394,780 1394,774 1400,777" stroke="#4e8cb9" fill="#4e8cb9"/>
 <text x="1368" y="807" fill="#000000" font-family="Arial" font-size="12">void</text>
 <polyline points="296,816 290,813 296,810" stroke="#4e8cb9" fill="none"/>
 <polyline points="290,813 1400,813" stroke="#4e8cb9" fill="none"/>
 <polyline points="1405,744 1405,777" stroke="#4e8cb9" fill="none"/>
 <text x="294" y="836" fill="#000000" font-family="Arial" font-size="12">Init_GPIO</text>
 <polyline points="1400,845 290,845" stroke="#4e8cb9" fill="none"/>
 <polygon points="1400,845 1394,848 1394,842 1400,845" stroke="#4e8cb9" fill="#4e8cb9"/>
 <text x="1368" y="875" fill="#000000" font-family="Arial" font-size="12">void</text>
 <polyline points="296,884 290,881 296,878" stroke="#4e8cb9" fill="none"/>
 <polyline points="290,881 1400,881" stroke="#4e8cb9" fill="none"/>
 <polyline points="1405,812 1405,845" stroke="#4e8cb9" fill="none"/>
 <text x="294" y="904" fill="#000000" font-family="Arial" font-size="12">Set_pin</text>
 <polyline points="1400,913 290,913" stroke="#4e8cb9" fill="none"/>
 <polygon points="1400,913 1394,916 1394,910 1400,913" stroke="#4e8cb9" fill="#4e8cb9"/>
 <text x="1368" y="943" fill="#000000" font-family="Arial" font-size="12">void</text>
 <polyline points="296,952 290,949 296,946" stroke="#4e8cb9" fill="none"/>
 <polyline points="290,949 1400,949" stroke="#4e8cb9" fill="none"/>
 <polyline points="1405,880 1405,913" stroke="#4e8cb9" fill="none"/>
 <text x="294" y="972" fill="#000000" font-family="Arial" font-size="12">Init_GPIO</text>
 <polyline points="1400,981 290,981" stroke="#4e8cb9" fill="none"/>
 <polygon points="1400,981 1394,984 1394,978 1400,981" stroke="#4e8cb9" fill="#4e8cb9"/>
 <text x="1368" y="1011" fill="#000000" font-family="Arial" font-size="12">void</text>
 <polyline points="296,1020 290,1017 296,1014" stroke="#4e8cb9" fill="none"/>
 <polyline points="290,1017 1400,1017" stroke="#4e8cb9" fill="none"/>
 <polyline points="1405,948 1405,981" stroke="#4e8cb9" fill="none"/>
 <text x="294" y="1040" fill="#000000" font-family="Arial" font-size="12">Set_pin</text>
 <polyline points="1400,1049 290,1049" stroke="#4e8cb9" fill="none"/>
 <polygon points="1400,1049 1394,1052 1394,1046 1400,1049" stroke="#4e8cb9" fill="#4e8cb9"/>
 <text x="1368" y="1079" fill="#000000" font-family="Arial" font-size="12">void</text>
 <polyline points="296,1088 290,1085 296,1082" stroke="#4e8cb9" fill="none"/>
 <polyline points="290,1085 1400,1085" stroke="#4e8cb9" fill="none"/>
 <polyline points="1405,1016 1405,1049" stroke="#4e8cb9" fill="none"/>
 <text x="294" y="1108" fill="#000000" font-family="Arial" font-size="12">Init_GPIO</text>
 <polyline points="1400,1117 290,1117" stroke="#4e8cb9" fill="none"/>
 <polygon points="1400,1117 1394,1120 1394,1114 1400,1117" stroke="#4e8cb9" fill="#4e8cb9"/>
 <text x="1368" y="1147" fill="#000000" font-family="Arial" font-size="12">void</text>
 <polyline points="296,1156 290,1153 296,1150" stroke="#4e8cb9" fill="none"/>
 <polyline points="290,1153 1400,1153" stroke="#4e8cb9" fill="none"/>
 <polyline points="1405,1084 1405,1117" stroke="#4e8cb9" fill="none"/>
 <polyline points="286,28 286,58" stroke="#4e8cb9" fill="none"/>
 <polyline points="286,1181 286,1190" stroke="#4e8cb9" fill="none"/>
 <polyline points="525,132 525,1190" stroke="#4e8cb9" fill="none"/>
 <polyline points="722,200 722,1190" stroke="#4e8cb9" fill="none"/>
 <polyline points="843,268 843,1190" stroke="#4e8cb9" fill="none"/>
 <polyline points="981,336 981,1190" stroke="#4e8cb9" fill="none"/>
 <polyline points="1124,608 1124,1190" stroke="#4e8cb9" fill="none"/>
 <polyline points="1263,676 1263,1190" stroke="#4e8cb9" fill="none"/>
 <polyline points="1405,1152 1405,1190" stroke="#4e8cb9" fill="none"/>
</svg>
