<?xml version="1.0"?>
<svg width="1004" height="2114" xmlns="http://www.w3.org/2000/svg" version="1.1">
 <rect x="15" y="140" width="960" height="1923" stroke="#569f38" fill="none"/>
 <rect x="16" y="1332" width="958" height="730" stroke="#569f38" fill="none"/>
 <text x="19" y="1347" fill="#569f38" font-family="Arial" font-size="12">case Not_Correct_ID:</text>
 <rect x="16" y="536" width="958" height="796" stroke="#569f38" fill="none"/>
 <text x="19" y="551" fill="#569f38" font-family="Arial" font-size="12">case Correct_ID_Open_Gate_Timeout:</text>
 <rect x="16" y="194" width="958" height="342" stroke="#569f38" fill="none"/>
 <text fill="#569f38" font-family="Arial" font-size="12">
  <tspan x="19" y="209">case Admin_Correct_ID_Timeout:</tspan>
  <tspan x="19" y="221" xml:space='preserve'>        case Admin_Not_Correct_ID_Timeout:</tspan>
  <tspan x="19" y="233" xml:space='preserve'>        case Admin_Entry_star:</tspan>
  <tspan x="19" y="245" xml:space='preserve'>        case Admin_Entry_Hash:</tspan>
  <tspan x="19" y="257" xml:space='preserve'>        case Admin_Not_Correct_Entry:</tspan>
  <tspan x="19" y="269" xml:space='preserve'>        case Admin_Correct_Entry:</tspan>
  <tspan x="19" y="281" xml:space='preserve'>        case Admin_Entry_Timeout:</tspan></text>
 <rect x="16" y="141" width="958" height="53" stroke="#569f38" fill="none"/>
 <text x="19" y="179" fill="#569f38" font-family="Arial" font-size="12">LCD_state</text>
 <polygon points="15,140 37,140 37,161 34,164 15,164 15,140" stroke="#569f38" fill="none"/>
 <text x="19" y="156" fill="#569f38" font-family="Arial" font-size="12">alt</text>
 <rect x="225" y="336" width="552" height="193" stroke="#afd870" fill="none"/>
 <rect x="226" y="337" width="550" height="191" stroke="#afd870" fill="none"/>
 <text x="229" y="375" fill="#afd870" font-family="Arial" font-size="12">Timeout == 0</text>
 <polygon points="225,336 247,336 247,357 244,360 225,360 225,336" stroke="#afd870" fill="none"/>
 <text x="229" y="352" fill="#afd870" font-family="Arial" font-size="12">alt</text>
 <rect x="209" y="564" width="759" height="761" stroke="#fcad56" fill="none"/>
 <rect x="210" y="565" width="757" height="759" stroke="#fcad56" fill="none"/>
 <text x="213" y="603" fill="#fcad56" font-family="Arial" font-size="12">Timeout == 0</text>
 <polygon points="209,564 231,564 231,585 228,588 209,588 209,564" stroke="#fcad56" fill="none"/>
 <text x="213" y="580" fill="#fcad56" font-family="Arial" font-size="12">alt</text>
 <rect x="216" y="685" width="745" height="630" stroke="#afd870" fill="none"/>
 <rect x="217" y="1011" width="743" height="303" stroke="#afd870" fill="none"/>
 <text x="220" y="1026" fill="#afd870" font-family="Arial" font-size="12">else</text>
 <rect x="217" y="686" width="743" height="325" stroke="#afd870" fill="none"/>
 <text x="220" y="724" fill="#afd870" font-family="Arial" font-size="12">Max_Grag &gt; 0</text>
 <polygon points="216,685 238,685 238,706 235,709 216,709 216,685" stroke="#afd870" fill="none"/>
 <text x="220" y="701" fill="#afd870" font-family="Arial" font-size="12">alt</text>
 <rect x="209" y="1360" width="759" height="693" stroke="#fcad56" fill="none"/>
 <rect x="210" y="1361" width="757" height="691" stroke="#fcad56" fill="none"/>
 <text x="213" y="1399" fill="#fcad56" font-family="Arial" font-size="12">Timeout == 0</text>
 <polygon points="209,1360 231,1360 231,1381 228,1384 209,1384 209,1360" stroke="#fcad56" fill="none"/>
 <text x="213" y="1376" fill="#fcad56" font-family="Arial" font-size="12">alt</text>
 <rect x="216" y="1413" width="745" height="630" stroke="#afd870" fill="none"/>
 <rect x="217" y="1739" width="743" height="303" stroke="#afd870" fill="none"/>
 <text x="220" y="1754" fill="#afd870" font-family="Arial" font-size="12">else</text>
 <rect x="217" y="1414" width="743" height="325" stroke="#afd870" fill="none"/>
 <text x="220" y="1452" fill="#afd870" font-family="Arial" font-size="12">Max_Grag &gt; 0</text>
 <polygon points="216,1413 238,1413 238,1434 235,1437 216,1437 216,1413" stroke="#afd870" fill="none"/>
 <text x="220" y="1429" fill="#afd870" font-family="Arial" font-size="12">alt</text>
 <rect x="282" y="5" width="95" height="23" stroke="#90c4e4" fill="none"/>
 <text x="285" y="20" fill="#000000" font-family="Arial" font-size="12">Application.c</text>
 <rect x="325" y="58" width="9" height="2032" stroke="#90c4e4" fill="none"/>
 <rect x="557" y="5" width="130" height="23" stroke="#90c4e4" fill="none"/>
 <text x="560" y="20" fill="#000000" font-family="Arial" font-size="12">Key_pad_Driver.c</text>
 <rect x="617" y="97" width="9" height="35" stroke="#90c4e4" fill="none"/>
 <rect x="693" y="5" width="141" height="23" stroke="#90c4e4" fill="none"/>
 <text x="696" y="20" fill="#000000" font-family="Arial" font-size="12">Stm32f10x_UART.c</text>
 <rect x="759" y="414" width="9" height="35" stroke="#90c4e4" fill="none"/>
 <rect x="329" y="482" width="9" height="35" stroke="#90c4e4" fill="none"/>
 <rect x="329" y="642" width="9" height="35" stroke="#90c4e4" fill="none"/>
 <rect x="898" y="5" width="100" height="23" stroke="#90c4e4" fill="none"/>
 <text x="901" y="20" fill="#000000" font-family="Arial" font-size="12">LCD_Driver.c</text>
 <rect x="943" y="763" width="9" height="35" stroke="#90c4e4" fill="none"/>
 <rect x="943" y="831" width="9" height="35" stroke="#90c4e4" fill="none"/>
 <rect x="943" y="899" width="9" height="35" stroke="#90c4e4" fill="none"/>
 <rect x="943" y="967" width="9" height="35" stroke="#90c4e4" fill="none"/>
 <rect x="943" y="1064" width="9" height="35" stroke="#90c4e4" fill="none"/>
 <rect x="943" y="1132" width="9" height="35" stroke="#90c4e4" fill="none"/>
 <rect x="943" y="1200" width="9" height="35" stroke="#90c4e4" fill="none"/>
 <rect x="943" y="1268" width="9" height="35" stroke="#90c4e4" fill="none"/>
 <rect x="943" y="1491" width="9" height="35" stroke="#90c4e4" fill="none"/>
 <rect x="943" y="1559" width="9" height="35" stroke="#90c4e4" fill="none"/>
 <rect x="943" y="1627" width="9" height="35" stroke="#90c4e4" fill="none"/>
 <rect x="943" y="1695" width="9" height="35" stroke="#90c4e4" fill="none"/>
 <rect x="943" y="1792" width="9" height="35" stroke="#90c4e4" fill="none"/>
 <rect x="943" y="1860" width="9" height="35" stroke="#90c4e4" fill="none"/>
 <rect x="943" y="1928" width="9" height="35" stroke="#90c4e4" fill="none"/>
 <rect x="943" y="1996" width="9" height="35" stroke="#90c4e4" fill="none"/>
 <ellipse cx="8" cy="58" rx="3" ry="3" stroke="#000000" fill="#000000"/>
 <text x="14" y="49" fill="#000000" font-family="Arial" font-size="12">Infinite_loop</text>
 <polyline points="325,58 10,58" stroke="#4e8cb9" fill="none"/>
 <polygon points="325,58 319,61 319,55 325,58" stroke="#4e8cb9" fill="#4e8cb9"/>
 <text x="338" y="88" fill="#000000" font-family="Arial" font-size="12">Check_Prass_Button</text>
 <polyline points="617,97 334,97" stroke="#4e8cb9" fill="none"/>
 <polygon points="617,97 611,100 611,94 617,97" stroke="#4e8cb9" fill="#4e8cb9"/>
 <text x="568" y="127" fill="#000000" font-family="Arial" font-size="12">uint8_t</text>
 <polyline points="340,136 334,133 340,130" stroke="#4e8cb9" fill="none"/>
 <polyline points="334,133 617,133" stroke="#4e8cb9" fill="none"/>
 <polyline points="622,28 622,97" stroke="#4e8cb9" fill="none"/>
 <text x="338" y="405" fill="#000000" font-family="Arial" font-size="12">Send_String_Uart</text>
 <polyline points="759,414 334,414" stroke="#4e8cb9" fill="none"/>
 <polygon points="759,414 753,417 753,411 759,414" stroke="#4e8cb9" fill="#4e8cb9"/>
 <text x="710" y="444" fill="#000000" font-family="Arial" font-size="12">uint8_t</text>
 <polyline points="340,453 334,450 340,447" stroke="#4e8cb9" fill="none"/>
 <polyline points="334,450 759,450" stroke="#4e8cb9" fill="none"/>
 <polyline points="764,28 764,414" stroke="#4e8cb9" fill="none"/>
 <text x="338" y="473" fill="#000000" font-family="Arial" font-size="12">Clear_Buffer</text>
 <polyline points="334,458 348,458 348,461" stroke="#4e8cb9" fill="none"/>
 <polyline points="338,482 348,482 348,479" stroke="#4e8cb9" fill="none"/>
 <polygon points="338,482 344,485 344,479 338,482" stroke="#4e8cb9" fill="#4e8cb9"/>
 <text x="338" y="633" fill="#000000" font-family="Arial" font-size="12">Run_Led</text>
 <polyline points="334,618 348,618 348,621" stroke="#4e8cb9" fill="none"/>
 <polyline points="338,642 348,642 348,639" stroke="#4e8cb9" fill="none"/>
 <polygon points="338,642 344,645 344,639 338,642" stroke="#4e8cb9" fill="#4e8cb9"/>
 <text x="338" y="754" fill="#000000" font-family="Arial" font-size="12">Write_String_with_coordinator</text>
 <polyline points="943,763 334,763" stroke="#4e8cb9" fill="none"/>
 <polygon points="943,763 937,766 937,760 943,763" stroke="#4e8cb9" fill="#4e8cb9"/>
 <text x="843" y="793" fill="#000000" font-family="Arial" font-size="12">unsigned char</text>
 <polyline points="340,802 334,799 340,796" stroke="#4e8cb9" fill="none"/>
 <polyline points="334,799 943,799" stroke="#4e8cb9" fill="none"/>
 <polyline points="948,28 948,763" stroke="#4e8cb9" fill="none"/>
 <text x="338" y="822" fill="#000000" font-family="Arial" font-size="12">Write_String_with_coordinator</text>
 <polyline points="943,831 334,831" stroke="#4e8cb9" fill="none"/>
 <polygon points="943,831 937,834 937,828 943,831" stroke="#4e8cb9" fill="#4e8cb9"/>
 <text x="843" y="861" fill="#000000" font-family="Arial" font-size="12">unsigned char</text>
 <polyline points="340,870 334,867 340,864" stroke="#4e8cb9" fill="none"/>
 <polyline points="334,867 943,867" stroke="#4e8cb9" fill="none"/>
 <polyline points="948,798 948,831" stroke="#4e8cb9" fill="none"/>
 <text x="338" y="890" fill="#000000" font-family="Arial" font-size="12">Write_String_with_coordinator</text>
 <polyline points="943,899 334,899" stroke="#4e8cb9" fill="none"/>
 <polygon points="943,899 937,902 937,896 943,899" stroke="#4e8cb9" fill="#4e8cb9"/>
 <text x="843" y="929" fill="#000000" font-family="Arial" font-size="12">unsigned char</text>
 <polyline points="340,938 334,935 340,932" stroke="#4e8cb9" fill="none"/>
 <polyline points="334,935 943,935" stroke="#4e8cb9" fill="none"/>
 <polyline points="948,866 948,899" stroke="#4e8cb9" fill="none"/>
 <text x="338" y="958" fill="#000000" font-family="Arial" font-size="12">Write_String_with_coordinator</text>
 <polyline points="943,967 334,967" stroke="#4e8cb9" fill="none"/>
 <polygon points="943,967 937,970 937,964 943,967" stroke="#4e8cb9" fill="#4e8cb9"/>
 <text x="843" y="997" fill="#000000" font-family="Arial" font-size="12">unsigned char</text>
 <polyline points="340,1006 334,1003 340,1000" stroke="#4e8cb9" fill="none"/>
 <polyline points="334,1003 943,1003" stroke="#4e8cb9" fill="none"/>
 <polyline points="948,934 948,967" stroke="#4e8cb9" fill="none"/>
 <text x="338" y="1055" fill="#000000" font-family="Arial" font-size="12">Write_String_with_coordinator</text>
 <polyline points="943,1064 334,1064" stroke="#4e8cb9" fill="none"/>
 <polygon points="943,1064 937,1067 937,1061 943,1064" stroke="#4e8cb9" fill="#4e8cb9"/>
 <text x="843" y="1094" fill="#000000" font-family="Arial" font-size="12">unsigned char</text>
 <polyline points="340,1103 334,1100 340,1097" stroke="#4e8cb9" fill="none"/>
 <polyline points="334,1100 943,1100" stroke="#4e8cb9" fill="none"/>
 <polyline points="948,1002 948,1064" stroke="#4e8cb9" fill="none"/>
 <text x="338" y="1123" fill="#000000" font-family="Arial" font-size="12">Write_String_with_coordinator</text>
 <polyline points="943,1132 334,1132" stroke="#4e8cb9" fill="none"/>
 <polygon points="943,1132 937,1135 937,1129 943,1132" stroke="#4e8cb9" fill="#4e8cb9"/>
 <text x="843" y="1162" fill="#000000" font-family="Arial" font-size="12">unsigned char</text>
 <polyline points="340,1171 334,1168 340,1165" stroke="#4e8cb9" fill="none"/>
 <polyline points="334,1168 943,1168" stroke="#4e8cb9" fill="none"/>
 <polyline points="948,1099 948,1132" stroke="#4e8cb9" fill="none"/>
 <text x="338" y="1191" fill="#000000" font-family="Arial" font-size="12">Write_String_with_coordinator</text>
 <polyline points="943,1200 334,1200" stroke="#4e8cb9" fill="none"/>
 <polygon points="943,1200 937,1203 937,1197 943,1200" stroke="#4e8cb9" fill="#4e8cb9"/>
 <text x="843" y="1230" fill="#000000" font-family="Arial" font-size="12">unsigned char</text>
 <polyline points="340,1239 334,1236 340,1233" stroke="#4e8cb9" fill="none"/>
 <polyline points="334,1236 943,1236" stroke="#4e8cb9" fill="none"/>
 <polyline points="948,1167 948,1200" stroke="#4e8cb9" fill="none"/>
 <text x="338" y="1259" fill="#000000" font-family="Arial" font-size="12">Write_String_with_coordinator</text>
 <polyline points="943,1268 334,1268" stroke="#4e8cb9" fill="none"/>
 <polygon points="943,1268 937,1271 937,1265 943,1268" stroke="#4e8cb9" fill="#4e8cb9"/>
 <text x="843" y="1298" fill="#000000" font-family="Arial" font-size="12">unsigned char</text>
 <polyline points="340,1307 334,1304 340,1301" stroke="#4e8cb9" fill="none"/>
 <polyline points="334,1304 943,1304" stroke="#4e8cb9" fill="none"/>
 <polyline points="948,1235 948,1268" stroke="#4e8cb9" fill="none"/>
 <text x="338" y="1482" fill="#000000" font-family="Arial" font-size="12">Write_String_with_coordinator</text>
 <polyline points="943,1491 334,1491" stroke="#4e8cb9" fill="none"/>
 <polygon points="943,1491 937,1494 937,1488 943,1491" stroke="#4e8cb9" fill="#4e8cb9"/>
 <text x="843" y="1521" fill="#000000" font-family="Arial" font-size="12">unsigned char</text>
 <polyline points="340,1530 334,1527 340,1524" stroke="#4e8cb9" fill="none"/>
 <polyline points="334,1527 943,1527" stroke="#4e8cb9" fill="none"/>
 <polyline points="948,1303 948,1491" stroke="#4e8cb9" fill="none"/>
 <text x="338" y="1550" fill="#000000" font-family="Arial" font-size="12">Write_String_with_coordinator</text>
 <polyline points="943,1559 334,1559" stroke="#4e8cb9" fill="none"/>
 <polygon points="943,1559 937,1562 937,1556 943,1559" stroke="#4e8cb9" fill="#4e8cb9"/>
 <text x="843" y="1589" fill="#000000" font-family="Arial" font-size="12">unsigned char</text>
 <polyline points="340,1598 334,1595 340,1592" stroke="#4e8cb9" fill="none"/>
 <polyline points="334,1595 943,1595" stroke="#4e8cb9" fill="none"/>
 <polyline points="948,1526 948,1559" stroke="#4e8cb9" fill="none"/>
 <text x="338" y="1618" fill="#000000" font-family="Arial" font-size="12">Write_String_with_coordinator</text>
 <polyline points="943,1627 334,1627" stroke="#4e8cb9" fill="none"/>
 <polygon points="943,1627 937,1630 937,1624 943,1627" stroke="#4e8cb9" fill="#4e8cb9"/>
 <text x="843" y="1657" fill="#000000" font-family="Arial" font-size="12">unsigned char</text>
 <polyline points="340,1666 334,1663 340,1660" stroke="#4e8cb9" fill="none"/>
 <polyline points="334,1663 943,1663" stroke="#4e8cb9" fill="none"/>
 <polyline points="948,1594 948,1627" stroke="#4e8cb9" fill="none"/>
 <text x="338" y="1686" fill="#000000" font-family="Arial" font-size="12">Write_String_with_coordinator</text>
 <polyline points="943,1695 334,1695" stroke="#4e8cb9" fill="none"/>
 <polygon points="943,1695 937,1698 937,1692 943,1695" stroke="#4e8cb9" fill="#4e8cb9"/>
 <text x="843" y="1725" fill="#000000" font-family="Arial" font-size="12">unsigned char</text>
 <polyline points="340,1734 334,1731 340,1728" stroke="#4e8cb9" fill="none"/>
 <polyline points="334,1731 943,1731" stroke="#4e8cb9" fill="none"/>
 <polyline points="948,1662 948,1695" stroke="#4e8cb9" fill="none"/>
 <text x="338" y="1783" fill="#000000" font-family="Arial" font-size="12">Write_String_with_coordinator</text>
 <polyline points="943,1792 334,1792" stroke="#4e8cb9" fill="none"/>
 <polygon points="943,1792 937,1795 937,1789 943,1792" stroke="#4e8cb9" fill="#4e8cb9"/>
 <text x="843" y="1822" fill="#000000" font-family="Arial" font-size="12">unsigned char</text>
 <polyline points="340,1831 334,1828 340,1825" stroke="#4e8cb9" fill="none"/>
 <polyline points="334,1828 943,1828" stroke="#4e8cb9" fill="none"/>
 <polyline points="948,1730 948,1792" stroke="#4e8cb9" fill="none"/>
 <text x="338" y="1851" fill="#000000" font-family="Arial" font-size="12">Write_String_with_coordinator</text>
 <polyline points="943,1860 334,1860" stroke="#4e8cb9" fill="none"/>
 <polygon points="943,1860 937,1863 937,1857 943,1860" stroke="#4e8cb9" fill="#4e8cb9"/>
 <text x="843" y="1890" fill="#000000" font-family="Arial" font-size="12">unsigned char</text>
 <polyline points="340,1899 334,1896 340,1893" stroke="#4e8cb9" fill="none"/>
 <polyline points="334,1896 943,1896" stroke="#4e8cb9" fill="none"/>
 <polyline points="948,1827 948,1860" stroke="#4e8cb9" fill="none"/>
 <text x="338" y="1919" fill="#000000" font-family="Arial" font-size="12">Write_String_with_coordinator</text>
 <polyline points="943,1928 334,1928" stroke="#4e8cb9" fill="none"/>
 <polygon points="943,1928 937,1931 937,1925 943,1928" stroke="#4e8cb9" fill="#4e8cb9"/>
 <text x="843" y="1958" fill="#000000" font-family="Arial" font-size="12">unsigned char</text>
 <polyline points="340,1967 334,1964 340,1961" stroke="#4e8cb9" fill="none"/>
 <polyline points="334,1964 943,1964" stroke="#4e8cb9" fill="none"/>
 <polyline points="948,1895 948,1928" stroke="#4e8cb9" fill="none"/>
 <text x="338" y="1987" fill="#000000" font-family="Arial" font-size="12">Write_String_with_coordinator</text>
 <polyline points="943,1996 334,1996" stroke="#4e8cb9" fill="none"/>
 <polygon points="943,1996 937,1999 937,1993 943,1996" stroke="#4e8cb9" fill="#4e8cb9"/>
 <text x="843" y="2026" fill="#000000" font-family="Arial" font-size="12">unsigned char</text>
 <polyline points="340,2035 334,2032 340,2029" stroke="#4e8cb9" fill="none"/>
 <polyline points="334,2032 943,2032" stroke="#4e8cb9" fill="none"/>
 <polyline points="948,1963 948,1996" stroke="#4e8cb9" fill="none"/>
 <polyline points="330,28 330,58" stroke="#4e8cb9" fill="none"/>
 <polyline points="330,2090 330,2099" stroke="#4e8cb9" fill="none"/>
 <polyline points="622,132 622,2099" stroke="#4e8cb9" fill="none"/>
 <polyline points="764,449 764,2099" stroke="#4e8cb9" fill="none"/>
 <polyline points="948,2031 948,2099" stroke="#4e8cb9" fill="none"/>
</svg>
