<?xml version="1.0"?>
<svg width="728" height="910" xmlns="http://www.w3.org/2000/svg" version="1.1">
 <polygon points="4,906 4,4 725,4 725,906 4,906" stroke="#fffffe00" fill="none"/>
 <polygon points="110,417 4,417 4,453 110,453 110,417" stroke="#90c4e4" fill="#1976d2"/>
 <text x="12" y="437" fill="#ffffff" font-family="Arial" font-size="12">Application.c</text>
 <polygon points="436,205 370,205 370,241 436,241 436,205" stroke="#90c4e4" fill="none"/>
 <text x="378" y="225" fill="#000000" font-family="Arial" font-size="12">GPIO.h</text>
 <polyline points="58,417 59,401 61,381 64,359 69,335 75,309 84,284 95,259 109,235 126,215 146,197 166,186 188,179 210,175 233,174 257,175 280,179 302,184 323,190 343,197 360,204" stroke="#4e8cb9" fill="none"/>
 <polygon points="362,200 369,208 359,207 362,200" stroke="#4e8cb9" fill="#4e8cb9"/>
 <polygon points="574,121 574,105 556,93 530,93 512,105 512,121 530,133 556,133 574,121" stroke="#c0c0c0" fill="none"/>
 <text x="531" y="115" fill="#000000" font-family="Arial" font-size="12">io.h</text>
 <polyline points="59,417 61,391 65,357 69,316 75,272 83,226 92,181 102,138 115,101 129,72 146,52 178,30 208,15 237,7 266,4 295,6 324,12 355,22 388,33 423,46 461,59 467,61 473,64 479,67 485,70 490,73 496,77 501,80 506,84 511,87 516,91" stroke="#4e8cb9" fill="none"/>
 <polygon points="518,88 524,97 514,93 518,88" stroke="#4e8cb9" fill="#4e8cb9"/>
 <polygon points="276,662 276,646 247,634 207,634 178,646 178,662 207,674 247,674 276,662" stroke="#c0c0c0" fill="none"/>
 <text x="203" y="656" fill="#000000" font-family="Arial" font-size="12">delay.h</text>
 <polyline points="62,453 65,465 69,480 75,496 81,514 89,532 97,551 108,570 119,588 132,605 146,620 148,622 151,625 154,627 157,629 160,631 163,632 166,634 169,636 172,637 175,639" stroke="#4e8cb9" fill="none"/>
 <polygon points="177,636 185,643 174,642 177,636" stroke="#4e8cb9" fill="#4e8cb9"/>
 <polygon points="434,405 372,405 372,441 434,441 434,405" stroke="#90c4e4" fill="none"/>
 <text x="380" y="425" fill="#000000" font-family="Arial" font-size="12">EXTI.h</text>
 <polyline points="110,435 126,435 144,434 162,434 182,434 203,433 224,433 245,432 266,432 287,431 308,430 313,430 318,429 324,429 329,429 335,429 340,428 345,428 351,428 356,427 361,427" stroke="#4e8cb9" fill="none"/>
 <polygon points="361,423 371,426 362,430 361,423" stroke="#4e8cb9" fill="#4e8cb9"/>
 <polygon points="291,720 291,704 254,692 200,692 163,704 163,720 200,732 254,732 291,720" stroke="#c0c0c0" fill="none"/>
 <text x="193" y="714" fill="#000000" font-family="Arial" font-size="12">interrupt.h</text>
 <polyline points="59,453 61,469 63,488 67,510 72,534 79,560 88,586 99,613 112,638 128,662 146,683 148,684 149,686 151,687 152,689 154,690 156,692 158,693 160,694 162,695 164,696" stroke="#4e8cb9" fill="none"/>
 <polygon points="166,693 173,701 163,699 166,693" stroke="#4e8cb9" fill="#4e8cb9"/>
 <polygon points="299,314 155,314 155,350 299,350 299,314" stroke="#90c4e4" fill="none"/>
 <text x="163" y="334" fill="#000000" font-family="Arial" font-size="12">Seven_Segment.h</text>
 <polyline points="77,417 82,412 88,407 94,401 101,396 108,390 115,385 123,379 130,374 138,369 146,364 148,363 150,362 151,361 153,360 155,359 157,358 159,357 161,356 163,355 165,354" stroke="#4e8cb9" fill="none"/>
 <polygon points="164,351 174,350 166,357 164,351" stroke="#4e8cb9" fill="#4e8cb9"/>
 <polygon points="280,206 174,206 174,242 280,242 280,206" stroke="#90c4e4" fill="none"/>
 <text x="182" y="226" fill="#000000" font-family="Arial" font-size="12">LCD_16_2.h</text>
 <polyline points="62,417 65,405 69,390 74,374 80,356 88,337 96,319 106,300 118,282 131,266 146,251 148,250 149,248 151,247 153,245 155,244 157,243 158,242 160,241 162,240 164,239" stroke="#4e8cb9" fill="none"/>
 <polygon points="163,236 174,235 166,242 163,236" stroke="#4e8cb9" fill="#4e8cb9"/>
 <polygon points="273,260 182,260 182,296 273,296 273,260" stroke="#90c4e4" fill="none"/>
 <text x="190" y="280" fill="#000000" font-family="Arial" font-size="12">Key_pad.h</text>
 <polyline points="66,417 70,408 75,397 81,386 88,374 96,362 104,349 113,337 123,325 134,315 146,305 148,303 151,302 153,300 156,299 159,297 161,296 164,295 167,293 169,292 172,291" stroke="#4e8cb9" fill="none"/>
 <polygon points="171,288 181,288 173,294 171,288" stroke="#4e8cb9" fill="#4e8cb9"/>
 <polygon points="281,778 281,762 249,750 205,750 173,762 173,778 205,790 249,790 281,778" stroke="#c0c0c0" fill="none"/>
 <text x="200" y="772" fill="#000000" font-family="Arial" font-size="12">stddef.h</text>
 <polyline points="58,453 58,471 60,495 62,522 66,552 72,585 81,618 92,651 107,683 124,714 146,741 148,743 150,745 152,747 154,748 156,750 159,751 161,753 163,754 166,755 168,756" stroke="#4e8cb9" fill="none"/>
 <polygon points="169,753 177,760 166,760 169,753" stroke="#4e8cb9" fill="#4e8cb9"/>
 <polygon points="461,68 344,68 344,104 461,104 461,68" stroke="#90c4e4" fill="none"/>
 <text x="353" y="88" fill="#000000" font-family="Arial" font-size="12">UART_driver.h</text>
 <polyline points="60,417 62,392 66,360 71,323 77,282 85,240 94,198 104,159 117,125 130,98 146,80 163,69 182,60 202,55 223,52 244,50 265,51 285,53 305,56 324,60 342,65" stroke="#4e8cb9" fill="none"/>
 <polygon points="343,62 352,68 341,69 343,62" stroke="#4e8cb9" fill="#4e8cb9"/>
 <polygon points="453,513 353,513 353,549 453,549 453,513" stroke="#90c4e4" fill="none"/>
 <text x="361" y="533" fill="#000000" font-family="Arial" font-size="12">SPI_driver.h</text>
 <polyline points="103,453 107,455 112,456 116,458 120,459 125,461 129,462 133,464 137,465 142,467 146,468 166,474 187,480 208,486 229,492 249,497 270,502 289,506 308,511 326,514 342,518" stroke="#4e8cb9" fill="none"/>
 <polygon points="343,515 352,521 342,522 343,515" stroke="#4e8cb9" fill="#4e8cb9"/>
 <polygon points="452,122 353,122 353,158 452,158 452,122" stroke="#90c4e4" fill="none"/>
 <text x="362" y="142" fill="#000000" font-family="Arial" font-size="12">I2C_driver.h</text>
 <polyline points="60,417 63,394 67,364 72,329 79,291 87,252 96,213 106,177 118,146 131,121 146,105 162,94 178,87 193,83 207,82 222,84 237,87 252,91 269,96 288,101 308,105 313,106 317,107 322,108 326,109 331,111 335,112 340,114 344,115 349,117 353,118" stroke="#4e8cb9" fill="none"/>
 <polygon points="355,115 363,122 352,122 355,115" stroke="#4e8cb9" fill="#4e8cb9"/>
 <polygon points="438,621 367,621 367,657 438,657 438,621" stroke="#90c4e4" fill="none"/>
 <text x="376" y="641" fill="#000000" font-family="Arial" font-size="12">Time0.h</text>
 <polyline points="65,453 69,463 74,474 79,486 86,499 94,512 102,525 112,538 122,551 134,562 146,572 158,579 174,586 194,593 216,600 240,606 265,612 289,618 314,623 336,627 357,631" stroke="#4e8cb9" fill="none"/>
 <polygon points="358,628 367,633 356,635 358,628" stroke="#4e8cb9" fill="#4e8cb9"/>
 <polygon points="434,297 371,297 371,333 434,333 434,297" stroke="#90c4e4" fill="none"/>
 <text x="380" y="317" fill="#000000" font-family="Arial" font-size="12">ADC.h</text>
 <polyline points="90,417 95,414 100,412 106,409 111,406 117,404 123,401 129,399 134,396 140,394 146,392 166,386 183,382 199,379 213,377 227,375 241,374 255,372 271,369 288,365 308,359 313,358 317,356 320,355 323,353 326,352 329,350 332,348 336,346 340,344 344,342 346,341 348,340 349,340 351,339 353,338 355,337 357,336 358,336 360,335 362,334" stroke="#4e8cb9" fill="none"/>
 <polygon points="360,331 371,330 363,337 360,331" stroke="#4e8cb9" fill="#4e8cb9"/>
 <polygon points="277,836 277,820 248,808 206,808 177,820 177,836 206,848 248,848 277,836" stroke="#c0c0c0" fill="none"/>
 <text x="203" y="830" fill="#000000" font-family="Arial" font-size="12">stdlib.h</text>
 <polyline points="60,453 63,477 68,509 73,547 80,588 88,631 98,673 108,713 120,749 132,778 146,799 148,801 150,803 152,805 154,807 156,808 159,810 161,811 164,812 166,814 169,815" stroke="#4e8cb9" fill="none"/>
 <polygon points="170,812 178,819 168,819 170,812" stroke="#4e8cb9" fill="#4e8cb9"/>
 <polygon points="308,114 146,114 146,150 308,150 308,114" stroke="#90c4e4" fill="none"/>
 <text x="154" y="134" fill="#000000" font-family="Arial" font-size="12">PIR_Sensor_Driver.h</text>
 <polyline points="59,417 60,400 62,379 66,355 71,329 77,301 86,272 97,243 110,215 127,188 146,164 147,163 148,162 149,161 150,160 151,160 151,159 152,158 153,157 154,157 155,156" stroke="#4e8cb9" fill="none"/>
 <polygon points="154,153 164,150 157,159 154,153" stroke="#4e8cb9" fill="#4e8cb9"/>
 <polygon points="441,351 365,351 365,387 441,387 441,351" stroke="#90c4e4" fill="none"/>
 <text x="373" y="371" fill="#000000" font-family="Arial" font-size="12">Timer1.h</text>
 <polyline points="110,427 126,424 144,422 162,419 182,415 203,412 224,408 245,404 266,400 287,396 308,392 313,391 317,390 322,389 327,388 331,387 336,386 341,385 345,383 350,382 354,381" stroke="#4e8cb9" fill="none"/>
 <polygon points="354,378 364,379 355,385 354,378" stroke="#4e8cb9" fill="#4e8cb9"/>
 <polygon points="459,459 346,459 346,495 459,495 459,459" stroke="#90c4e4" fill="none"/>
 <text x="355" y="479" fill="#000000" font-family="Arial" font-size="12">Servo_sg90.h</text>
 <polyline points="110,441 129,444 151,446 173,449 197,452 221,455 246,458 270,461 293,464 315,466 336,469" stroke="#4e8cb9" fill="none"/>
 <polygon points="336,466 346,470 336,473 336,466" stroke="#4e8cb9" fill="#4e8cb9"/>
 <polygon points="287,894 287,878 252,866 202,866 167,878 167,894 202,906 252,906 287,894" stroke="#c0c0c0" fill="none"/>
 <text x="196" y="888" fill="#000000" font-family="Arial" font-size="12">stdbool.h</text>
 <polyline points="59,453 62,480 66,517 71,561 77,609 85,659 94,709 105,756 117,798 131,833 146,857 148,859 149,860 151,862 152,863 154,865 156,866 158,867 160,869 162,870 164,871" stroke="#4e8cb9" fill="none"/>
 <polygon points="166,868 173,875 163,874 166,868" stroke="#4e8cb9" fill="#4e8cb9"/>
 <polygon points="461,567 344,567 344,603 461,603 461,567" stroke="#90c4e4" fill="none"/>
 <text x="353" y="587" fill="#000000" font-family="Arial" font-size="12">Data_control.h</text>
 <polyline points="74,453 79,459 85,465 91,471 98,477 105,484 113,490 121,496 129,502 137,508 146,513 164,522 183,531 202,538 222,545 242,552 261,558 281,563 299,567 317,571 334,575" stroke="#4e8cb9" fill="none"/>
 <polygon points="335,571 344,576 333,578 335,571" stroke="#4e8cb9" fill="#4e8cb9"/>
 <polygon points="589,351 497,351 497,387 589,387 589,351" stroke="#90c4e4" fill="none"/>
 <text x="505" y="371" fill="#000000" font-family="Arial" font-size="12">Common.h</text>
 <polyline points="436,238 438,240 441,241 444,243 446,244 449,246 451,247 454,249 456,251 459,253 461,255 469,263 477,271 485,280 492,289 499,299 506,308 512,317 518,326 523,334 528,342" stroke="#4e8cb9" fill="none"/>
 <polygon points="531,341 533,351 525,344 531,341" stroke="#4e8cb9" fill="#4e8cb9"/>
 <polyline points="426,205 434,199 442,192 451,185 461,178 470,170 480,163 489,155 498,148 507,141 515,135" stroke="#4e8cb9" fill="none"/>
 <polygon points="513,132 523,128 517,137 513,132" stroke="#4e8cb9" fill="#4e8cb9"/>
 <polygon points="725,377 725,361 695,349 654,349 625,361 625,377 654,389 695,389 725,377" stroke="#c0c0c0" fill="none"/>
 <text x="651" y="371" fill="#000000" font-family="Arial" font-size="12">stdint.h</text>
 <polyline points="589,369 591,369 594,369 596,369 599,369 602,369 604,369 607,369 610,369 612,369 615,369" stroke="#4e8cb9" fill="none"/>
 <polygon points="615,366 625,369 615,373 615,366" stroke="#4e8cb9" fill="#4e8cb9"/>
 <polyline points="434,411 439,409 444,407 449,405 454,403 459,401 465,399 470,397 476,395 482,392 487,390" stroke="#4e8cb9" fill="none"/>
 <polygon points="486,387 497,387 489,394 486,387" stroke="#4e8cb9" fill="#4e8cb9"/>
 <polyline points="293,314 295,313 296,312 298,311 300,310 301,310 303,309 304,308 305,307 307,306 308,305 314,300 318,295 322,291 324,286 327,281 329,276 332,271 335,266 339,260 344,255 346,254 347,253 349,251 350,250 352,249 354,247 356,246 357,245 359,244 361,243" stroke="#4e8cb9" fill="none"/>
 <polygon points="359,240 369,238 363,246 359,240" stroke="#4e8cb9" fill="#4e8cb9"/>
 <polyline points="284,314 286,313 289,312 291,311 294,310 296,310 298,309 301,308 303,307 306,306 308,305 312,303 316,301 320,299 323,297 326,295 329,294 332,292 335,291 339,289 344,288 358,285 371,282 383,279 393,277 404,276 414,276 424,277 435,279 447,283 461,288 469,292 477,296 484,301 491,307 497,313 504,319 509,325 515,331 520,337 524,343" stroke="#4e8cb9" fill="none"/>
 <polygon points="527,341 530,351 522,345 527,341" stroke="#4e8cb9" fill="#4e8cb9"/>
 <polyline points="280,224 288,224 296,224 304,224 312,224 320,224 328,223 336,223 344,223 352,223 359,223" stroke="#4e8cb9" fill="none"/>
 <polygon points="359,220 369,223 359,227 359,220" stroke="#4e8cb9" fill="#4e8cb9"/>
 <polyline points="273,264 281,261 289,258 298,256 307,253 316,250 325,247 334,244 343,242 352,239 360,236" stroke="#4e8cb9" fill="none"/>
 <polygon points="359,233 369,233 361,240 359,233" stroke="#4e8cb9" fill="#4e8cb9"/>
 <polyline points="451,104 452,105 453,106 454,107 455,108 456,109 457,109 458,110 459,111 460,112 461,113 477,134 491,158 503,182 513,208 521,233 527,258 532,282 536,304 538,324 540,341" stroke="#4e8cb9" fill="none"/>
 <polygon points="544,341 541,351 537,341 544,341" stroke="#4e8cb9" fill="#4e8cb9"/>
 <polyline points="461,97 465,98 469,99 474,100 478,101 482,101 486,102 490,103 494,104 498,104 502,105" stroke="#4e8cb9" fill="none"/>
 <polygon points="503,102 512,107 501,109 503,102" stroke="#4e8cb9" fill="#4e8cb9"/>
 <polyline points="449,513 450,512 451,511 453,510 454,509 455,509 456,508 457,507 459,506 460,505 461,504 471,494 480,484 489,473 497,462 504,450 511,439 517,427 522,416 527,406 531,397" stroke="#4e8cb9" fill="none"/>
 <polygon points="528,395 535,387 535,398 528,395" stroke="#4e8cb9" fill="#4e8cb9"/>
 <polyline points="426,158 429,161 433,164 437,168 440,172 444,176 448,179 451,184 455,188 458,192 461,196 471,211 480,226 489,241 497,257 505,273 512,288 518,303 524,317 529,330 533,341" stroke="#4e8cb9" fill="none"/>
 <polygon points="536,340 536,351 529,343 536,340" stroke="#4e8cb9" fill="#4e8cb9"/>
 <polyline points="452,131 457,130 462,129 467,128 472,127 477,126 482,125 487,124 492,123 496,122 501,121" stroke="#4e8cb9" fill="none"/>
 <polygon points="501,117 512,119 503,124 501,117" stroke="#4e8cb9" fill="#4e8cb9"/>
 <polyline points="438,628 441,627 443,625 446,624 448,623 451,621 453,620 455,618 457,616 459,614 461,612 477,592 490,570 502,547 511,524 519,500 526,476 531,454 535,433 538,413 540,397" stroke="#4e8cb9" fill="none"/>
 <polygon points="536,397 541,387 543,398 536,397" stroke="#4e8cb9" fill="#4e8cb9"/>
 <polyline points="434,327 439,329 444,331 449,333 454,335 460,337 465,339 471,342 477,344 482,346 488,348" stroke="#4e8cb9" fill="none"/>
 <polygon points="489,345 497,352 486,351 489,345" stroke="#4e8cb9" fill="#4e8cb9"/>
 <polyline points="277,150 280,151 283,153 287,154 290,155 293,157 296,158 299,160 302,161 305,163 308,164 314,167 320,170 326,174 333,177 339,181 345,185 351,188 356,192 362,196 367,199" stroke="#4e8cb9" fill="none"/>
 <polygon points="369,197 376,205 365,202 369,197" stroke="#4e8cb9" fill="#4e8cb9"/>
 <polyline points="441,369 445,369 450,369 454,369 459,369 463,369 468,369 473,369 477,369 482,369 487,369" stroke="#4e8cb9" fill="none"/>
 <polygon points="487,366 497,369 487,373 487,366" stroke="#4e8cb9" fill="#4e8cb9"/>
 <polyline points="447,459 448,458 450,457 451,456 453,455 454,455 455,454 457,453 458,452 460,451 461,450 468,445 474,440 481,434 487,429 493,423 499,417 505,411 510,406 515,400 520,395" stroke="#4e8cb9" fill="none"/>
 <polygon points="518,393 527,387 523,397 518,393" stroke="#4e8cb9" fill="#4e8cb9"/>
 <polyline points="450,567 451,566 452,565 454,564 455,563 456,563 457,562 458,561 459,560 460,559 461,558 474,543 485,528 495,511 504,493 512,476 519,458 525,441 530,425 534,410 537,397" stroke="#4e8cb9" fill="none"/>
 <polygon points="533,396 539,387 540,398 533,396" stroke="#4e8cb9" fill="#4e8cb9"/>
</svg>
