<?xml version="1.0"?>
<svg width="1227" height="997" xmlns="http://www.w3.org/2000/svg" version="1.1">
 <polygon points="4,993 4,4 1224,4 1224,993 4,993" stroke="#fffffe00" fill="none"/>
 <polygon points="1124,77 858,77 858,123 1124,123 1124,77" stroke="#90c4e4" fill="none"/>
 <text x="866" y="92" fill="#000000" font-family="Arial" font-size="12">GPIO_config config_i_o = {0}</text>
 <text x="866" y="111" fill="#000000" font-family="Arial" font-size="12">config_i_o.pin = Instance-&gt;Input_Pin</text>
 <polygon points="991,160 852,187 991,214 1130,187 991,160" stroke="#90c4e4" fill="none"/>
 <text x="930" y="188" fill="#000000" font-family="Arial" font-size="12">Instance-&gt;method</text>
 <polyline points="991,123 991,126 991,129 991,132 991,135 991,139 991,142 991,145 991,148 991,152 991,155" stroke="#4e8cb9" fill="none"/>
 <polygon points="993,155 991,160 989,155 993,155" stroke="#4e8cb9" fill="#4e8cb9"/>
 <polygon points="1018,4 964,4 964,40 1018,40 1018,4" stroke="#90c4e4" fill="none"/>
 <text x="976" y="23" fill="#000000" font-family="Arial" font-size="12">start</text>
 <polyline points="991,40 991,43 991,46 991,49 991,52 991,56 991,59 991,62 991,65 991,69 991,72" stroke="#4e8cb9" fill="none"/>
 <polygon points="993,72 991,77 989,72 993,72" stroke="#4e8cb9" fill="#4e8cb9"/>
 <polygon points="1020,269 746,269 746,305 1020,305 1020,269" stroke="#90c4e4" fill="none"/>
 <text x="754" y="288" fill="#000000" font-family="Arial" font-size="12">config_i_o.mode = Rising_Ed_Ex_Int</text>
 <polyline points="967,210 961,215 955,220 949,226 943,232 937,238 930,243 924,249 918,255 912,260 906,265" stroke="#4e8cb9" fill="none"/>
 <text x="941" y="243" fill="#000000" font-family="Arial" font-size="12">yes</text>
 <polygon points="907,267 902,269 905,264 907,267" stroke="#4e8cb9" fill="#4e8cb9"/>
 <polygon points="1224,323 1029,323 1029,359 1224,359 1224,323" stroke="#90c4e4" fill="none"/>
 <text x="1037" y="342" fill="#000000" font-family="Arial" font-size="12">config_i_o.mode = INPUT</text>
 <polyline points="1011,210 1019,220 1029,230 1038,241 1049,253 1059,265 1070,277 1080,288 1090,299 1099,310 1107,319" stroke="#cd0000" fill="none"/>
 <text x="1045" y="243" fill="#000000" font-family="Arial" font-size="12">no</text>
 <polygon points="1109,318 1111,323 1106,320 1109,318" stroke="#cd0000" fill="#cd0000"/>
 <polygon points="610,377 109,404 610,431 1111,404 610,377" stroke="#90c4e4" fill="none"/>
 <text x="368" y="405" fill="#000000" font-family="Arial" font-size="12">(Instance-&gt;Input_Pin == PIN_2) &amp;&amp; (Instance-&gt;Input_Port == PORT_D)</text>
 <polyline points="842,305 828,311 812,318 795,325 777,333 759,340 740,348 722,356 704,364 686,371 670,378" stroke="#4e8cb9" fill="none"/>
 <polygon points="670,380 665,380 669,376 670,380" stroke="#4e8cb9" fill="#4e8cb9"/>
 <polygon points="716,811 395,811 395,847 716,847 716,811" stroke="#90c4e4" fill="none"/>
 <text x="403" y="830" fill="#000000" font-family="Arial" font-size="12">Init_GPIO(Instance-&gt;Input_Port,&amp;config_i_o)</text>
 <polyline points="1133,359 1136,366 1138,375 1141,384 1143,393 1146,404 1148,414 1150,425 1152,436 1153,446 1153,457 1153,457 1153,459 1153,465 1153,476 1153,495 1153,522 1153,560 1153,611 1153,676 1153,757 1146,769 1125,780 1093,790 1052,798 1003,805 950,810 892,815 834,819 776,822 721,824" stroke="#4e8cb9" fill="none"/>
 <polygon points="721,826 716,824 721,822 721,826" stroke="#4e8cb9" fill="#4e8cb9"/>
 <polygon points="74,558 4,558 4,594 74,594 74,558" stroke="#90c4e4" fill="none"/>
 <text x="12" y="577" fill="#000000" font-family="Arial" font-size="12">passive</text>
 <polyline points="412,420 375,424 338,429 301,434 265,440 230,446 197,453 167,460 140,468 118,477 100,486 93,491 86,497 80,504 74,510 68,518 63,525 59,532 55,540 51,546 48,553" stroke="#4e8cb9" fill="none"/>
 <text x="208" y="460" fill="#000000" font-family="Arial" font-size="12">yes</text>
 <polygon points="49,554 46,558 46,552 49,554" stroke="#4e8cb9" fill="#4e8cb9"/>
 <polygon points="610,486 109,513 610,540 1111,513 610,486" stroke="#90c4e4" fill="none"/>
 <text x="368" y="514" fill="#000000" font-family="Arial" font-size="12">(Instance-&gt;Input_Pin == PIN_3) &amp;&amp; (Instance-&gt;Input_Port == PORT_D)</text>
 <polyline points="610,431 610,436 610,440 610,445 610,450 610,456 610,461 610,466 610,471 610,476 610,481" stroke="#cd0000" fill="none"/>
 <text x="611" y="460" fill="#000000" font-family="Arial" font-size="12">no</text>
 <polygon points="612,481 610,486 608,481 612,481" stroke="#cd0000" fill="#cd0000"/>
 <polyline points="47,594 50,600 54,607 58,615 63,622 68,630 74,638 80,645 87,653 94,660 101,666 133,689 167,710 202,729 238,746 275,761 312,774 348,785 382,795 415,803 446,810" stroke="#4e8cb9" fill="none"/>
 <polygon points="447,808 451,811 446,812 447,808" stroke="#4e8cb9" fill="#4e8cb9"/>
 <polygon points="342,684 272,684 272,720 342,720 342,684" stroke="#90c4e4" fill="none"/>
 <text x="280" y="703" fill="#000000" font-family="Arial" font-size="12">passive</text>
 <polyline points="404,529 368,533 332,538 296,544 262,551 229,559 199,567 172,577 149,587 130,599 116,612 112,618 109,623 107,629 105,634 105,639 105,645 107,650 109,655 112,661 116,666 123,672 134,678 147,683 163,687 180,690 197,693 215,695 234,697 251,698 267,699" stroke="#4e8cb9" fill="none"/>
 <text x="228" y="577" fill="#000000" font-family="Arial" font-size="12">yes</text>
 <polygon points="267,698 272,700 267,701 267,698" stroke="#4e8cb9" fill="#4e8cb9"/>
 <polygon points="625,612 125,639 625,666 1125,639 625,612" stroke="#90c4e4" fill="none"/>
 <text x="383" y="640" fill="#000000" font-family="Arial" font-size="12">(Instance-&gt;Input_Pin == PIN_2) &amp;&amp; (Instance-&gt;Input_Port == PORT_B)</text>
 <polyline points="613,540 614,546 615,552 616,559 617,566 617,573 618,580 619,587 620,594 620,601 621,607" stroke="#cd0000" fill="none"/>
 <text x="621" y="577" fill="#000000" font-family="Arial" font-size="12">no</text>
 <polygon points="623,607 622,612 620,607 623,607" stroke="#cd0000" fill="#cd0000"/>
 <polygon points="589,884 521,884 521,920 589,920 589,884" stroke="#90c4e4" fill="none"/>
 <text x="529" y="903" fill="#000000" font-family="Arial" font-size="12">return 1</text>
 <polyline points="555,847 555,850 555,853 555,856 555,860 555,863 555,866 555,870 555,873 555,876 555,879" stroke="#4e8cb9" fill="none"/>
 <polygon points="557,879 555,884 553,879 557,879" stroke="#4e8cb9" fill="#4e8cb9"/>
 <polyline points="341,720 356,727 372,736 390,745 409,754 428,764 447,773 466,783 484,792 501,801 517,809" stroke="#4e8cb9" fill="none"/>
 <polygon points="517,807 521,811 516,810 517,807" stroke="#4e8cb9" fill="#4e8cb9"/>
 <polyline points="605,665 601,671 596,677 592,684 587,691 583,699 578,706 574,714 570,722 567,730 564,738 562,745 560,752 559,759 557,766 556,773 556,780 555,787 555,794 554,800 554,806" stroke="#cd0000" fill="none"/>
 <text x="565" y="757" fill="#000000" font-family="Arial" font-size="12">no</text>
 <polygon points="556,806 554,811 553,806 556,806" stroke="#cd0000" fill="#cd0000"/>
 <polygon points="660,738 590,738 590,774 660,774 660,738" stroke="#90c4e4" fill="none"/>
 <text x="598" y="757" fill="#000000" font-family="Arial" font-size="12">passive</text>
 <polyline points="625,666 625,672 625,679 625,686 625,693 625,700 625,707 625,714 625,721 625,727 625,733" stroke="#4e8cb9" fill="none"/>
 <text x="625" y="703" fill="#000000" font-family="Arial" font-size="12">yes</text>
 <polygon points="627,733 625,738 623,733 627,733" stroke="#4e8cb9" fill="#4e8cb9"/>
 <polyline points="608,774 605,777 602,780 599,784 595,787 592,791 589,794 585,797 582,801 579,804 576,807" stroke="#4e8cb9" fill="none"/>
 <polygon points="577,809 572,811 574,806 577,809" stroke="#4e8cb9" fill="#4e8cb9"/>
 <polygon points="582,957 528,957 528,993 582,993 582,957" stroke="#90c4e4" fill="none"/>
 <text x="542" y="976" fill="#000000" font-family="Arial" font-size="12">end</text>
 <polyline points="555,920 555,923 555,926 555,929 555,933 555,936 555,939 555,943 555,946 555,949 555,952" stroke="#4e8cb9" fill="none"/>
 <polygon points="557,952 555,957 553,952 557,952" stroke="#4e8cb9" fill="#4e8cb9"/>
</svg>
