<?xml version="1.0"?>
<svg width="632" height="742" xmlns="http://www.w3.org/2000/svg" version="1.1">
 <polygon points="4,738 4,4 629,4 629,738 4,738" stroke="#fffffe00" fill="none"/>
 <ellipse cx="557" cy="365" rx="71" ry="18" stroke="#000000" fill="none"/>
 <text x="515" y="367" fill="#000000" font-family="Arial" font-size="12" xml:space='preserve'> spi_confige</text>
 <polygon points="325,101 154,101 154,137 325,137 325,101" stroke="#0000ff" fill="none"/>
 <text x="163" y="121" fill="#000000" font-family="Arial" font-size="12" xml:space='preserve'> Max7212_Default_Init</text>
 <polyline points="260,101 274,89 291,75 311,61 332,48 355,37 378,27 402,22 425,21 447,26 468,38 482,53 494,76 506,105 516,138 525,174 533,210 540,246 545,281 550,311 553,336" stroke="#0000ff" fill="none"/>
 <text x="402" y="15" fill="#000000" font-family="Arial" font-size="12">Addr Use</text>
 <polygon points="557,336 554,346 550,337 557,336" stroke="#0000ff" fill="#0000ff"/>
 <polyline points="293,101 311,95 331,89 351,84 372,79 392,75 411,73 429,71 445,72 458,74 468,79 480,92 492,111 503,136 513,164 522,194 530,226 537,257 543,287 548,314 552,336" stroke="#0000ff" fill="none"/>
 <text x="402" y="65" fill="#000000" font-family="Arial" font-size="12">Addr Use</text>
 <polygon points="555,336 554,346 548,337 555,336" stroke="#0000ff" fill="#0000ff"/>
 <polyline points="325,109 342,108 359,107 376,107 393,107 409,107 424,108 438,110 450,112 460,116 468,120 488,137 504,157 518,179 529,202 538,227 544,251 549,275 553,298 555,318 556,336" stroke="#0000ff" fill="none"/>
 <text x="402" y="101" fill="#000000" font-family="Arial" font-size="12">Addr Use</text>
 <polygon points="559,336 556,346 552,336 559,336" stroke="#0000ff" fill="#0000ff"/>
 <polyline points="325,131 343,134 362,137 380,140 398,143 415,146 430,149 444,152 455,155 463,158 468,161 484,175 498,192 510,210 520,229 529,249 536,268 542,287 546,306 550,322 553,337" stroke="#0000ff" fill="none"/>
 <text x="402" y="137" fill="#000000" font-family="Arial" font-size="12">Addr Use</text>
 <polygon points="556,336 554,347 549,337 556,336" stroke="#0000ff" fill="#0000ff"/>
 <polyline points="283,137 293,141 304,146 315,150 327,155 339,160 352,165 364,170 377,174 390,179 402,183 410,185 418,187 425,188 431,189 437,189 443,190 449,191 455,194 461,197 468,202 481,213 492,226 503,240 512,254 521,269 528,283 535,298 540,312 545,324 549,336" stroke="#0000ff" fill="none"/>
 <text x="402" y="176" fill="#000000" font-family="Arial" font-size="12">Addr Use</text>
 <polygon points="552,336 552,346 545,338 552,336" stroke="#0000ff" fill="#0000ff"/>
 <polyline points="265,137 275,144 286,152 299,160 312,169 326,179 341,188 356,197 372,207 387,216 402,224 410,228 417,231 424,233 430,235 436,237 442,238 448,240 454,243 461,247 468,252 477,260 486,268 494,276 502,285 510,295 517,304 524,313 530,322 536,330 541,338" stroke="#0000ff" fill="none"/>
 <text x="402" y="217" fill="#000000" font-family="Arial" font-size="12">Addr Use</text>
 <polygon points="544,336 546,347 538,340 544,336" stroke="#0000ff" fill="#0000ff"/>
 <polygon points="384,244 95,244 95,280 384,280 384,244" stroke="#0000ff" fill="none"/>
 <text x="104" y="264" fill="#000000" font-family="Arial" font-size="12" xml:space='preserve'> Max7221_Send_Command_with_data</text>
 <polyline points="384,270 393,272 401,273 410,275 419,277 427,280 436,282 444,285 452,288 460,291 468,294 475,297 482,301 489,305 496,310 503,315 509,320 516,325 522,330 527,334 532,339" stroke="#0000ff" fill="none"/>
 <text x="402" y="267" fill="#000000" font-family="Arial" font-size="12">Addr Use</text>
 <polygon points="535,337 540,347 530,342 535,337" stroke="#0000ff" fill="#0000ff"/>
 <polygon points="294,299 185,299 185,335 294,335 294,299" stroke="#000000" fill="none"/>
 <text x="194" y="319" fill="#000000" font-family="Arial" font-size="12" xml:space='preserve'> Application.c</text>
 <polyline points="294,313 309,312 325,312 341,312 359,312 377,313 395,314 414,316 432,318 450,321 468,325 473,326 478,328 483,329 489,331 494,333 499,335 504,337 509,339 513,342 518,344" stroke="#696969" fill="none"/>
 <text x="412" y="309" fill="#000000" font-family="Arial" font-size="12">Define</text>
 <polygon points="520,341 527,348 517,347 520,341" stroke="#696969" fill="#696969"/>
 <polyline points="294,328 304,330 314,332 325,334 335,336 347,338 358,339 369,341 380,343 391,345 402,347 410,348 417,349 425,350 433,351 441,352 449,353 457,354 465,355 472,356 480,357" stroke="#006400" fill="none"/>
 <text x="426" y="340" fill="#000000" font-family="Arial" font-size="12">Init</text>
 <polygon points="481,354 491,358 480,361 481,354" stroke="#006400" fill="#006400"/>
 <polygon points="297,360 183,360 183,396 297,396 297,360" stroke="#0000ff" fill="none"/>
 <text x="191" y="380" fill="#000000" font-family="Arial" font-size="12" xml:space='preserve'> Max7221_On</text>
 <polyline points="297,384 311,385 327,386 343,386 360,387 378,387 396,387 414,387 432,387 450,386 468,384 471,384 474,383 476,383 479,382 482,382 485,382 488,381 490,381 493,380 496,380" stroke="#0000ff" fill="none"/>
 <text x="402" y="377" fill="#000000" font-family="Arial" font-size="12">Addr Use</text>
 <polygon points="495,376 506,378 497,383 495,376" stroke="#0000ff" fill="#0000ff"/>
 <polygon points="297,414 183,414 183,450 297,450 297,414" stroke="#0000ff" fill="none"/>
 <text x="191" y="434" fill="#000000" font-family="Arial" font-size="12" xml:space='preserve'> Max7221_Off</text>
 <polyline points="297,432 311,432 327,431 343,430 361,428 378,427 396,424 415,422 433,418 451,414 468,410 473,408 479,407 484,405 490,402 495,400 501,398 506,395 511,392 516,390 521,387" stroke="#0000ff" fill="none"/>
 <text x="402" y="403" fill="#000000" font-family="Arial" font-size="12">Addr Use</text>
 <polygon points="519,384 530,382 523,390 519,384" stroke="#0000ff" fill="#0000ff"/>
 <polygon points="267,551 213,551 213,587 267,587 267,551" stroke="#0000ff" fill="none"/>
 <text x="228" y="571" fill="#000000" font-family="Arial" font-size="12" xml:space='preserve'> init</text>
 <polyline points="267,557 281,551 298,543 317,534 337,524 358,512 380,500 403,488 425,474 447,460 468,446 475,441 482,435 489,430 496,424 502,418 509,412 515,406 521,401 527,395 532,390" stroke="#006400" fill="none"/>
 <text x="423" y="439" fill="#000000" font-family="Arial" font-size="12">Set</text>
 <polygon points="530,387 540,383 535,392 530,387" stroke="#006400" fill="#006400"/>
 <polyline points="267,562 287,557 310,552 336,545 362,539 388,532 413,526 434,521 451,516 463,513 468,511 480,501 491,490 501,479 510,466 518,453 525,440 532,427 538,415 543,404 547,393" stroke="#006400" fill="none"/>
 <text x="423" y="504" fill="#000000" font-family="Arial" font-size="12">Set</text>
 <polygon points="544,392 550,383 550,394 544,392" stroke="#006400" fill="#006400"/>
 <polyline points="267,570 285,571 305,571 328,571 351,571 375,570 399,568 420,565 440,562 456,557 468,551 483,539 497,524 508,509 519,492 527,474 535,457 541,439 545,422 549,407 552,393" stroke="#006400" fill="none"/>
 <text x="423" y="544" fill="#000000" font-family="Arial" font-size="12">Set</text>
 <polygon points="549,393 554,383 555,394 549,393" stroke="#006400" fill="#006400"/>
 <polyline points="267,581 282,587 299,593 319,599 339,604 361,608 383,610 406,609 428,606 449,599 468,589 486,574 502,556 515,536 525,515 534,493 541,471 546,449 550,429 553,410 555,394" stroke="#006400" fill="none"/>
 <text x="423" y="582" fill="#000000" font-family="Arial" font-size="12">Set</text>
 <polygon points="551,393 556,384 558,394 551,393" stroke="#006400" fill="#006400"/>
 <polyline points="264,587 279,597 296,608 315,620 336,630 359,639 381,645 404,649 426,648 448,643 468,632 489,613 507,591 521,567 532,540 541,513 547,486 552,460 555,435 556,413 557,394" stroke="#006400" fill="none"/>
 <text x="423" y="625" fill="#000000" font-family="Arial" font-size="12">Set</text>
 <polygon points="553,394 557,384 560,394 553,394" stroke="#006400" fill="#006400"/>
 <polyline points="257,587 270,601 287,617 307,634 328,650 351,665 375,677 399,685 423,688 446,684 468,672 481,658 493,637 504,610 514,580 523,547 531,512 538,478 544,447 548,418 552,394" stroke="#0000ff" fill="none"/>
 <text x="402" y="665" fill="#000000" font-family="Arial" font-size="12">Addr Use</text>
 <polygon points="549,393 554,384 556,394 549,393" stroke="#0000ff" fill="#0000ff"/>
 <polygon points="58,551 4,551 4,587 58,587 58,551" stroke="#0000ff" fill="none"/>
 <text x="12" y="571" fill="#000000" font-family="Arial" font-size="12" xml:space='preserve'> main</text>
 <polyline points="58,569 70,569 83,569 98,569 113,569 129,569 144,569 160,569 175,569 189,569 202,569" stroke="#696969" fill="none"/>
 <polygon points="202,565 212,569 202,572 202,565" stroke="#696969" fill="#696969"/>
 <polygon points="267,695 213,695 213,731 267,731 267,695" stroke="#0000ff" fill="none"/>
 <text x="226" y="715" fill="#000000" font-family="Arial" font-size="12" xml:space='preserve'> ISR</text>
 <polyline points="267,722 282,726 300,730 320,733 341,736 363,737 385,737 407,734 429,729 449,721 468,709 482,692 495,668 507,637 517,602 526,565 534,526 541,488 546,452 550,420 553,394" stroke="#0000ff" fill="none"/>
 <text x="402" y="702" fill="#000000" font-family="Arial" font-size="12">Addr Use</text>
 <polygon points="550,393 555,384 557,394 550,393" stroke="#0000ff" fill="#0000ff"/>
</svg>
