<?xml version="1.0" standalone="no"?>
<!DOCTYPE svg PUBLIC "-//W3C//DTD SVG 1.1//EN" "http://www.w3.org/Graphics/SVG/1.1/DTD/svg11.dtd">
<svg xmlns="http://www.w3.org/2000/svg" version="1.1">
<line  x1="87" y1="50" x2="162" y2="50" stroke="#333333" stroke-width="1" fill="none"/>
<line  x1="125" y1="50" x2="125" y2="65" stroke="#333333" stroke-width="1" fill="none"/>
<text  x="117" y="48" style="font-size:12; font-family:Dialog.plain; fill=#333333">CA</text>
<text  x="10" y="73" style="font-size:12; font-family:Dialog.plain; fill=#333333">@0</text>
<line  x1="125" y1="65" x2="125" y2="75" stroke="#333333" stroke-width="1" fill="none"/>
<rect  x="104" y="75" width="43" height="20" rx="5" ry="5" fill="#c1daf1"/>
<rect  x="104" y="75" width="43" height="20" rx="5" ry="5" fill="none" stroke="#333333" stroke-width="1"/>
<text  x="106" y="91" style="font-size:12; font-family:Dialog.plain; fill=#333333">waiting</text>
<line  x1="125" y1="95" x2="125" y2="105" stroke="#333333" stroke-width="1" fill="none"/>
<line  x1="125" y1="105" x2="125" y2="115" stroke="#333333" stroke-width="1" fill="none"/>
<rect  x="86" y="115" width="78" height="20" rx="5" ry="5" fill="#ffffff"/>
<rect  x="86" y="115" width="78" height="20" rx="5" ry="5" fill="none" stroke="#333333" stroke-width="1"/>
<text  x="88" y="131" style="font-size:12; font-family:Dialog.plain; fill=#333333">distance = 45</text>
<line  x1="125" y1="135" x2="125" y2="145" stroke="#333333" stroke-width="1" fill="none"/>
<line  x1="125" y1="145" x2="125" y2="155" stroke="#333333" stroke-width="1" fill="none"/>
<rect  x="95" y="155" width="61" height="20" rx="5" ry="5" fill="#c1daf1"/>
<rect  x="95" y="155" width="61" height="20" rx="5" ry="5" fill="none" stroke="#333333" stroke-width="1"/>
<text  x="97" y="171" style="font-size:12; font-family:Dialog.plain; fill=#333333">choice__1</text>
<line  x1="125" y1="175" x2="125" y2="185" stroke="#333333" stroke-width="1" fill="none"/>
<rect  x="96" y="185" width="59" height="20" rx="5" ry="5" fill="#ffffff"/>
<rect  x="96" y="185" width="59" height="20" rx="5" ry="5" fill="none" stroke="#333333" stroke-width="1"/>
<text  x="98" y="201" style="font-size:12; font-family:Dialog.plain; fill=#7710f3">speed = 0</text>
<line  x1="125" y1="205" x2="125" y2="215" stroke="#333333" stroke-width="1" fill="none"/>
<line  x1="125" y1="215" x2="125" y2="225" stroke="#333333" stroke-width="1" fill="none"/>
<rect  x="104" y="225" width="43" height="20" rx="5" ry="5" fill="#c1daf1"/>
<rect  x="104" y="225" width="43" height="20" rx="5" ry="5" fill="none" stroke="#333333" stroke-width="1"/>
<text  x="106" y="241" style="font-size:12; font-family:Dialog.plain; fill=#333333">waiting</text>
<line  x1="125" y1="245" x2="125" y2="255" stroke="#333333" stroke-width="1" fill="none"/>
<line  x1="125" y1="255" x2="125" y2="265" stroke="#333333" stroke-width="1" fill="none"/>
<rect  x="86" y="265" width="78" height="20" rx="5" ry="5" fill="#ffffff"/>
<rect  x="86" y="265" width="78" height="20" rx="5" ry="5" fill="none" stroke="#333333" stroke-width="1"/>
<text  x="88" y="281" style="font-size:12; font-family:Dialog.plain; fill=#333333">distance = 51</text>
<line  x1="125" y1="285" x2="125" y2="295" stroke="#333333" stroke-width="1" fill="none"/>
<line  x1="125" y1="295" x2="125" y2="305" stroke="#333333" stroke-width="1" fill="none"/>
<rect  x="95" y="305" width="61" height="20" rx="5" ry="5" fill="#c1daf1"/>
<rect  x="95" y="305" width="61" height="20" rx="5" ry="5" fill="none" stroke="#333333" stroke-width="1"/>
<text  x="97" y="321" style="font-size:12; font-family:Dialog.plain; fill=#333333">choice__1</text>
<line  x1="125" y1="325" x2="125" y2="335" stroke="#333333" stroke-width="1" fill="none"/>
<rect  x="92" y="335" width="66" height="20" rx="5" ry="5" fill="#ffffff"/>
<rect  x="92" y="335" width="66" height="20" rx="5" ry="5" fill="none" stroke="#333333" stroke-width="1"/>
<text  x="94" y="351" style="font-size:12; font-family:Dialog.plain; fill=#7710f3">speed = 30</text>
<line  x1="125" y1="355" x2="125" y2="365" stroke="#333333" stroke-width="1" fill="none"/>
<line  x1="125" y1="365" x2="125" y2="375" stroke="#333333" stroke-width="1" fill="none"/>
<rect  x="104" y="375" width="42" height="20" rx="5" ry="5" fill="#c1daf1"/>
<rect  x="104" y="375" width="42" height="20" rx="5" ry="5" fill="none" stroke="#333333" stroke-width="1"/>
<text  x="106" y="391" style="font-size:12; font-family:Dialog.plain; fill=#333333">Driving</text>
<line  x1="125" y1="395" x2="125" y2="405" stroke="#333333" stroke-width="1" fill="none"/>
<line  x1="125" y1="405" x2="125" y2="415" stroke="#333333" stroke-width="1" fill="none"/>
<rect  x="86" y="415" width="78" height="20" rx="5" ry="5" fill="#ffffff"/>
<rect  x="86" y="415" width="78" height="20" rx="5" ry="5" fill="none" stroke="#333333" stroke-width="1"/>
<text  x="88" y="431" style="font-size:12; font-family:Dialog.plain; fill=#333333">distance = 49</text>
<line  x1="125" y1="435" x2="125" y2="445" stroke="#333333" stroke-width="1" fill="none"/>
<line  x1="125" y1="445" x2="125" y2="455" stroke="#333333" stroke-width="1" fill="none"/>
<rect  x="95" y="455" width="61" height="20" rx="5" ry="5" fill="#c1daf1"/>
<rect  x="95" y="455" width="61" height="20" rx="5" ry="5" fill="none" stroke="#333333" stroke-width="1"/>
<text  x="97" y="471" style="font-size:12; font-family:Dialog.plain; fill=#333333">choice__0</text>
<line  x1="125" y1="475" x2="125" y2="485" stroke="#333333" stroke-width="1" fill="none"/>
<rect  x="96" y="485" width="59" height="20" rx="5" ry="5" fill="#ffffff"/>
<rect  x="96" y="485" width="59" height="20" rx="5" ry="5" fill="none" stroke="#333333" stroke-width="1"/>
<text  x="98" y="501" style="font-size:12; font-family:Dialog.plain; fill=#7710f3">speed = 0</text>
<line  x1="125" y1="505" x2="125" y2="515" stroke="#333333" stroke-width="1" fill="none"/>
<line  x1="125" y1="515" x2="125" y2="525" stroke="#333333" stroke-width="1" fill="none"/>
<rect  x="104" y="525" width="43" height="20" rx="5" ry="5" fill="#c1daf1"/>
<rect  x="104" y="525" width="43" height="20" rx="5" ry="5" fill="none" stroke="#333333" stroke-width="1"/>
<text  x="106" y="541" style="font-size:12; font-family:Dialog.plain; fill=#333333">waiting</text>
<line  x1="125" y1="545" x2="125" y2="555" stroke="#333333" stroke-width="1" fill="none"/>
<line  x1="125" y1="555" x2="125" y2="565" stroke="#333333" stroke-width="1" fill="none"/>
<rect  x="86" y="565" width="78" height="20" rx="5" ry="5" fill="#ffffff"/>
<rect  x="86" y="565" width="78" height="20" rx="5" ry="5" fill="none" stroke="#333333" stroke-width="1"/>
<text  x="88" y="581" style="font-size:12; font-family:Dialog.plain; fill=#333333">distance = 45</text>
<line  x1="125" y1="585" x2="125" y2="595" stroke="#333333" stroke-width="1" fill="none"/>
<line  x1="125" y1="595" x2="125" y2="605" stroke="#333333" stroke-width="1" fill="none"/>
<rect  x="95" y="605" width="61" height="20" rx="5" ry="5" fill="#c1daf1"/>
<rect  x="95" y="605" width="61" height="20" rx="5" ry="5" fill="none" stroke="#333333" stroke-width="1"/>
<text  x="97" y="621" style="font-size:12; font-family:Dialog.plain; fill=#333333">choice__1</text>
<line  x1="125" y1="625" x2="125" y2="635" stroke="#333333" stroke-width="1" fill="none"/>
<rect  x="96" y="635" width="59" height="20" rx="5" ry="5" fill="#ffffff"/>
<rect  x="96" y="635" width="59" height="20" rx="5" ry="5" fill="none" stroke="#333333" stroke-width="1"/>
<text  x="98" y="651" style="font-size:12; font-family:Dialog.plain; fill=#7710f3">speed = 0</text>
<line  x1="125" y1="655" x2="125" y2="665" stroke="#333333" stroke-width="1" fill="none"/>
<line  x1="125" y1="665" x2="125" y2="675" stroke="#333333" stroke-width="1" fill="none"/>
<rect  x="104" y="675" width="43" height="20" rx="5" ry="5" fill="#c1daf1"/>
<rect  x="104" y="675" width="43" height="20" rx="5" ry="5" fill="none" stroke="#333333" stroke-width="1"/>
<text  x="106" y="691" style="font-size:12; font-family:Dialog.plain; fill=#333333">waiting</text>
<line  x1="125" y1="695" x2="125" y2="705" stroke="#333333" stroke-width="1" fill="none"/>
<line  x1="125" y1="705" x2="125" y2="715" stroke="#333333" stroke-width="1" fill="none"/>
<rect  x="86" y="715" width="78" height="20" rx="5" ry="5" fill="#ffffff"/>
<rect  x="86" y="715" width="78" height="20" rx="5" ry="5" fill="none" stroke="#333333" stroke-width="1"/>
<text  x="88" y="731" style="font-size:12; font-family:Dialog.plain; fill=#333333">distance = 47</text>
<line  x1="125" y1="735" x2="125" y2="745" stroke="#333333" stroke-width="1" fill="none"/>
<line  x1="125" y1="745" x2="125" y2="755" stroke="#333333" stroke-width="1" fill="none"/>
<rect  x="95" y="755" width="61" height="20" rx="5" ry="5" fill="#c1daf1"/>
<rect  x="95" y="755" width="61" height="20" rx="5" ry="5" fill="none" stroke="#333333" stroke-width="1"/>
<text  x="97" y="771" style="font-size:12; font-family:Dialog.plain; fill=#333333">choice__1</text>
<line  x1="125" y1="775" x2="125" y2="785" stroke="#333333" stroke-width="1" fill="none"/>
<rect  x="96" y="785" width="59" height="20" rx="5" ry="5" fill="#ffffff"/>
<rect  x="96" y="785" width="59" height="20" rx="5" ry="5" fill="none" stroke="#333333" stroke-width="1"/>
<text  x="98" y="801" style="font-size:12; font-family:Dialog.plain; fill=#7710f3">speed = 0</text>
<line  x1="125" y1="805" x2="125" y2="815" stroke="#333333" stroke-width="1" fill="none"/>
<line  x1="125" y1="815" x2="125" y2="825" stroke="#333333" stroke-width="1" fill="none"/>
<rect  x="104" y="825" width="43" height="20" rx="5" ry="5" fill="#c1daf1"/>
<rect  x="104" y="825" width="43" height="20" rx="5" ry="5" fill="none" stroke="#333333" stroke-width="1"/>
<text  x="106" y="841" style="font-size:12; font-family:Dialog.plain; fill=#333333">waiting</text>
<line  x1="125" y1="845" x2="125" y2="855" stroke="#333333" stroke-width="1" fill="none"/>
<line  x1="125" y1="855" x2="125" y2="865" stroke="#333333" stroke-width="1" fill="none"/>
<rect  x="86" y="865" width="78" height="20" rx="5" ry="5" fill="#ffffff"/>
<rect  x="86" y="865" width="78" height="20" rx="5" ry="5" fill="none" stroke="#333333" stroke-width="1"/>
<text  x="88" y="881" style="font-size:12; font-family:Dialog.plain; fill=#333333">distance = 55</text>
<line  x1="125" y1="885" x2="125" y2="895" stroke="#333333" stroke-width="1" fill="none"/>
<line  x1="125" y1="895" x2="125" y2="905" stroke="#333333" stroke-width="1" fill="none"/>
<rect  x="95" y="905" width="61" height="20" rx="5" ry="5" fill="#c1daf1"/>
<rect  x="95" y="905" width="61" height="20" rx="5" ry="5" fill="none" stroke="#333333" stroke-width="1"/>
<text  x="97" y="921" style="font-size:12; font-family:Dialog.plain; fill=#333333">choice__1</text>
<line  x1="125" y1="925" x2="125" y2="935" stroke="#333333" stroke-width="1" fill="none"/>
<rect  x="92" y="935" width="66" height="20" rx="5" ry="5" fill="#ffffff"/>
<rect  x="92" y="935" width="66" height="20" rx="5" ry="5" fill="none" stroke="#333333" stroke-width="1"/>
<text  x="94" y="951" style="font-size:12; font-family:Dialog.plain; fill=#7710f3">speed = 30</text>
<line  x1="125" y1="955" x2="125" y2="965" stroke="#333333" stroke-width="1" fill="none"/>
<line  x1="125" y1="965" x2="125" y2="975" stroke="#333333" stroke-width="1" fill="none"/>
<rect  x="104" y="975" width="42" height="20" rx="5" ry="5" fill="#c1daf1"/>
<rect  x="104" y="975" width="42" height="20" rx="5" ry="5" fill="none" stroke="#333333" stroke-width="1"/>
<text  x="106" y="991" style="font-size:12; font-family:Dialog.plain; fill=#333333">Driving</text>
<line  x1="125" y1="995" x2="125" y2="1005" stroke="#333333" stroke-width="1" fill="none"/>
<line  x1="125" y1="1005" x2="125" y2="1015" stroke="#333333" stroke-width="1" fill="none"/>
<rect  x="86" y="1015" width="78" height="20" rx="5" ry="5" fill="#ffffff"/>
<rect  x="86" y="1015" width="78" height="20" rx="5" ry="5" fill="none" stroke="#333333" stroke-width="1"/>
<text  x="88" y="1031" style="font-size:12; font-family:Dialog.plain; fill=#333333">distance = 54</text>
<line  x1="125" y1="1035" x2="125" y2="1045" stroke="#333333" stroke-width="1" fill="none"/>
<line  x1="125" y1="1045" x2="125" y2="1055" stroke="#333333" stroke-width="1" fill="none"/>
<rect  x="95" y="1055" width="61" height="20" rx="5" ry="5" fill="#c1daf1"/>
<rect  x="95" y="1055" width="61" height="20" rx="5" ry="5" fill="none" stroke="#333333" stroke-width="1"/>
<text  x="97" y="1071" style="font-size:12; font-family:Dialog.plain; fill=#333333">choice__0</text>
<line  x1="125" y1="1075" x2="125" y2="1085" stroke="#333333" stroke-width="1" fill="none"/>
<rect  x="92" y="1085" width="66" height="20" rx="5" ry="5" fill="#ffffff"/>
<rect  x="92" y="1085" width="66" height="20" rx="5" ry="5" fill="none" stroke="#333333" stroke-width="1"/>
<text  x="94" y="1101" style="font-size:12; font-family:Dialog.plain; fill=#7710f3">speed = 30</text>
<line  x1="125" y1="1105" x2="125" y2="1115" stroke="#333333" stroke-width="1" fill="none"/>
<line  x1="125" y1="1115" x2="125" y2="1125" stroke="#333333" stroke-width="1" fill="none"/>
<rect  x="104" y="1125" width="42" height="20" rx="5" ry="5" fill="#c1daf1"/>
<rect  x="104" y="1125" width="42" height="20" rx="5" ry="5" fill="none" stroke="#333333" stroke-width="1"/>
<text  x="106" y="1141" style="font-size:12; font-family:Dialog.plain; fill=#333333">Driving</text>
<line  x1="125" y1="1145" x2="125" y2="1155" stroke="#333333" stroke-width="1" fill="none"/>
<line  x1="125" y1="1155" x2="125" y2="1165" stroke="#333333" stroke-width="1" fill="none"/>
<rect  x="86" y="1165" width="78" height="20" rx="5" ry="5" fill="#ffffff"/>
<rect  x="86" y="1165" width="78" height="20" rx="5" ry="5" fill="none" stroke="#333333" stroke-width="1"/>
<text  x="88" y="1181" style="font-size:12; font-family:Dialog.plain; fill=#333333">distance = 48</text>
<line  x1="125" y1="1185" x2="125" y2="1195" stroke="#333333" stroke-width="1" fill="none"/>
<line  x1="125" y1="1195" x2="125" y2="1205" stroke="#333333" stroke-width="1" fill="none"/>
<rect  x="95" y="1205" width="61" height="20" rx="5" ry="5" fill="#c1daf1"/>
<rect  x="95" y="1205" width="61" height="20" rx="5" ry="5" fill="none" stroke="#333333" stroke-width="1"/>
<text  x="97" y="1221" style="font-size:12; font-family:Dialog.plain; fill=#333333">choice__0</text>
<line  x1="125" y1="1225" x2="125" y2="1235" stroke="#333333" stroke-width="1" fill="none"/>
<rect  x="96" y="1235" width="59" height="20" rx="5" ry="5" fill="#ffffff"/>
<rect  x="96" y="1235" width="59" height="20" rx="5" ry="5" fill="none" stroke="#333333" stroke-width="1"/>
<text  x="98" y="1251" style="font-size:12; font-family:Dialog.plain; fill=#7710f3">speed = 0</text>
<line  x1="125" y1="1255" x2="125" y2="1265" stroke="#333333" stroke-width="1" fill="none"/>
<line  x1="125" y1="1265" x2="125" y2="1275" stroke="#333333" stroke-width="1" fill="none"/>
<rect  x="104" y="1275" width="43" height="20" rx="5" ry="5" fill="#c1daf1"/>
<rect  x="104" y="1275" width="43" height="20" rx="5" ry="5" fill="none" stroke="#333333" stroke-width="1"/>
<text  x="106" y="1291" style="font-size:12; font-family:Dialog.plain; fill=#333333">waiting</text>
<line  x1="125" y1="1295" x2="125" y2="1305" stroke="#333333" stroke-width="1" fill="none"/>
<text  x="10" y="826" style="font-size:12; font-family:Dialog.plain; fill=#7710f3">@0</text>
<text  x="751" y="826" style="font-size:12; font-family:Dialog.plain; fill=#7710f3">@0</text>
<text  x="117" y="816" style="font-size:12; font-family:Dialog.plain; fill=#7710f3">CA</text>
<text  x="96" y="830" style="font-size:12; font-family:Dialog.italic; font-style=italic; fill=#7710f3">choice__1</text>
</svg>